%TF.GenerationSoftware,KiCad,Pcbnew,8.0.3*%
%TF.CreationDate,2024-08-05T21:53:05-05:00*%
%TF.ProjectId,GeckoSmartWatch_V4_1,4765636b-6f53-46d6-9172-745761746368,rev?*%
%TF.SameCoordinates,Original*%
%TF.FileFunction,Legend,Bot*%
%TF.FilePolarity,Positive*%
%FSLAX46Y46*%
G04 Gerber Fmt 4.6, Leading zero omitted, Abs format (unit mm)*
G04 Created by KiCad (PCBNEW 8.0.3) date 2024-08-05 21:53:05*
%MOMM*%
%LPD*%
G01*
G04 APERTURE LIST*
%ADD10C,0.150000*%
%ADD11C,0.120000*%
%ADD12C,0.100000*%
%ADD13C,0.250000*%
%ADD14C,0.200000*%
%ADD15C,0.254000*%
G04 APERTURE END LIST*
D10*
X151083222Y-85046865D02*
X150899236Y-84997566D01*
X150899236Y-84997566D02*
X150794919Y-85018913D01*
X150794919Y-85018913D02*
X150678276Y-85086256D01*
X150678276Y-85086256D02*
X150582981Y-85257918D01*
X150582981Y-85257918D02*
X150496708Y-85579893D01*
X150496708Y-85579893D02*
X150493406Y-85776203D01*
X150493406Y-85776203D02*
X150560749Y-85892846D01*
X150560749Y-85892846D02*
X150640417Y-85963492D01*
X150640417Y-85963492D02*
X150824403Y-86012791D01*
X150824403Y-86012791D02*
X150928721Y-85991444D01*
X150928721Y-85991444D02*
X151045363Y-85924100D01*
X151045363Y-85924100D02*
X151140659Y-85752439D01*
X151140659Y-85752439D02*
X151226932Y-85430464D01*
X151226932Y-85430464D02*
X151230234Y-85234153D01*
X151230234Y-85234153D02*
X151162890Y-85117511D01*
X151162890Y-85117511D02*
X151083222Y-85046865D01*
X149996467Y-85790946D02*
X150255286Y-84825020D01*
X150255286Y-84825020D02*
X149444509Y-85643049D01*
X149444509Y-85643049D02*
X149703328Y-84677123D01*
D11*
%TO.C,C28*%
X143407836Y-89665000D02*
X143192164Y-89665000D01*
X143407836Y-90385000D02*
X143192164Y-90385000D01*
%TO.C,R13*%
X142205000Y-87353641D02*
X142205000Y-87046359D01*
X141445000Y-87353641D02*
X141445000Y-87046359D01*
%TO.C,R11*%
X143146359Y-90770000D02*
X143453641Y-90770000D01*
X143146359Y-91530000D02*
X143453641Y-91530000D01*
D12*
%TO.C,M1*%
X156715433Y-95263944D02*
X160655849Y-97538943D01*
X159155848Y-100137020D02*
X155215432Y-97862019D01*
X159155848Y-100137020D02*
X160655849Y-97538943D01*
X156694153Y-94962981D02*
G75*
G02*
X149694151Y-94962981I-3500001J0D01*
G01*
X149694151Y-94962981D02*
G75*
G02*
X156694153Y-94962981I3500001J0D01*
G01*
D11*
%TO.C,TH1*%
X128507662Y-93713045D02*
X128310145Y-93948436D01*
X129089855Y-94201564D02*
X128892338Y-94436955D01*
%TO.C,R14*%
X147403641Y-89270000D02*
X147096359Y-89270000D01*
X147403641Y-90030000D02*
X147096359Y-90030000D01*
D13*
%TO.C,IC1*%
X146675000Y-93387500D02*
G75*
G02*
X146425000Y-93387500I-125000J0D01*
G01*
X146425000Y-93387500D02*
G75*
G02*
X146675000Y-93387500I125000J0D01*
G01*
D11*
%TO.C,C22*%
X145217164Y-91190000D02*
X145432836Y-91190000D01*
X145217164Y-91910000D02*
X145432836Y-91910000D01*
D13*
%TO.C,IC2*%
X142650000Y-86737000D02*
G75*
G02*
X142400000Y-86737000I-125000J0D01*
G01*
X142400000Y-86737000D02*
G75*
G02*
X142650000Y-86737000I125000J0D01*
G01*
D12*
%TO.C,BT1*%
X151418028Y-103451958D02*
G75*
G02*
X126918028Y-103451958I-12250000J0D01*
G01*
X126918028Y-103451958D02*
G75*
G02*
X151418028Y-103451958I12250000J0D01*
G01*
D11*
%TO.C,R12*%
X141445000Y-88971359D02*
X141445000Y-89278641D01*
X142205000Y-88971359D02*
X142205000Y-89278641D01*
D14*
%TO.C,U8*%
X145240000Y-86300000D02*
X145240000Y-85725000D01*
X145300000Y-86650000D02*
X148200000Y-86650000D01*
X145300000Y-88150000D02*
X145300000Y-86650000D01*
X148200000Y-86650000D02*
X148200000Y-88150000D01*
X148200000Y-88150000D02*
X145300000Y-88150000D01*
D15*
%TO.C,SW1*%
X149105981Y-88615538D02*
X148603698Y-88480951D01*
X149250746Y-86066136D02*
X148603698Y-88480951D01*
X150535550Y-88998589D02*
X152467402Y-89516226D01*
X151462716Y-86658831D02*
X149250746Y-86066136D01*
X152872002Y-87036449D02*
X155046302Y-87619049D01*
X153879586Y-89894620D02*
X154399254Y-90033864D01*
X155046302Y-87619049D02*
X154399254Y-90033864D01*
X153735085Y-91232456D02*
G75*
G02*
X153570103Y-91232456I-82491J0D01*
G01*
X153570103Y-91232456D02*
G75*
G02*
X153735085Y-91232456I82491J0D01*
G01*
%TD*%
M02*
