%TF.GenerationSoftware,KiCad,Pcbnew,8.0.3*%
%TF.CreationDate,2024-08-05T21:53:05-05:00*%
%TF.ProjectId,GeckoSmartWatch_V4_1,4765636b-6f53-46d6-9172-745761746368,rev?*%
%TF.SameCoordinates,Original*%
%TF.FileFunction,Paste,Top*%
%TF.FilePolarity,Positive*%
%FSLAX46Y46*%
G04 Gerber Fmt 4.6, Leading zero omitted, Abs format (unit mm)*
G04 Created by KiCad (PCBNEW 8.0.3) date 2024-08-05 21:53:05*
%MOMM*%
%LPD*%
G01*
G04 APERTURE LIST*
G04 Aperture macros list*
%AMRoundRect*
0 Rectangle with rounded corners*
0 $1 Rounding radius*
0 $2 $3 $4 $5 $6 $7 $8 $9 X,Y pos of 4 corners*
0 Add a 4 corners polygon primitive as box body*
4,1,4,$2,$3,$4,$5,$6,$7,$8,$9,$2,$3,0*
0 Add four circle primitives for the rounded corners*
1,1,$1+$1,$2,$3*
1,1,$1+$1,$4,$5*
1,1,$1+$1,$6,$7*
1,1,$1+$1,$8,$9*
0 Add four rect primitives between the rounded corners*
20,1,$1+$1,$2,$3,$4,$5,0*
20,1,$1+$1,$4,$5,$6,$7,0*
20,1,$1+$1,$6,$7,$8,$9,0*
20,1,$1+$1,$8,$9,$2,$3,0*%
%AMRotRect*
0 Rectangle, with rotation*
0 The origin of the aperture is its center*
0 $1 length*
0 $2 width*
0 $3 Rotation angle, in degrees counterclockwise*
0 Add horizontal line*
21,1,$1,$2,0,0,$3*%
G04 Aperture macros list end*
%ADD10C,0.100000*%
%ADD11C,0.200000*%
%ADD12RoundRect,0.150000X0.309359X0.521491X-0.521491X-0.309359X-0.309359X-0.521491X0.521491X0.309359X0*%
%ADD13R,0.800000X0.300000*%
%ADD14R,0.300000X0.800000*%
%ADD15R,0.850000X0.750000*%
%ADD16R,0.400000X3.000000*%
%ADD17RoundRect,0.140000X0.021213X-0.219203X0.219203X-0.021213X-0.021213X0.219203X-0.219203X0.021213X0*%
%ADD18RoundRect,0.140000X0.140000X0.170000X-0.140000X0.170000X-0.140000X-0.170000X0.140000X-0.170000X0*%
%ADD19RoundRect,0.135000X-0.185000X0.135000X-0.185000X-0.135000X0.185000X-0.135000X0.185000X0.135000X0*%
%ADD20RoundRect,0.140000X0.170000X-0.140000X0.170000X0.140000X-0.170000X0.140000X-0.170000X-0.140000X0*%
%ADD21RoundRect,0.135000X-0.035355X0.226274X-0.226274X0.035355X0.035355X-0.226274X0.226274X-0.035355X0*%
%ADD22R,0.200000X0.850000*%
%ADD23R,0.850000X0.200000*%
%ADD24RoundRect,0.140000X-0.140000X-0.170000X0.140000X-0.170000X0.140000X0.170000X-0.140000X0.170000X0*%
%ADD25RoundRect,0.135000X-0.135000X-0.185000X0.135000X-0.185000X0.135000X0.185000X-0.135000X0.185000X0*%
%ADD26RoundRect,0.147500X0.172500X-0.147500X0.172500X0.147500X-0.172500X0.147500X-0.172500X-0.147500X0*%
%ADD27R,1.200000X0.550000*%
%ADD28R,0.800000X1.300000*%
%ADD29RoundRect,0.135000X0.185000X-0.135000X0.185000X0.135000X-0.185000X0.135000X-0.185000X-0.135000X0*%
%ADD30R,1.075000X0.500000*%
%ADD31RoundRect,0.140000X-0.170000X0.140000X-0.170000X-0.140000X0.170000X-0.140000X0.170000X0.140000X0*%
%ADD32R,0.410000X0.280000*%
%ADD33R,0.280000X0.410000*%
%ADD34RotRect,0.450000X1.100000X225.000000*%
%ADD35RoundRect,0.135000X0.135000X0.185000X-0.135000X0.185000X-0.135000X-0.185000X0.135000X-0.185000X0*%
%ADD36RoundRect,0.218750X-0.256250X0.218750X-0.256250X-0.218750X0.256250X-0.218750X0.256250X0.218750X0*%
%ADD37R,1.240000X1.120000*%
%ADD38R,0.475000X0.300000*%
%ADD39R,0.640000X0.420000*%
%ADD40R,1.500000X1.800000*%
G04 APERTURE END LIST*
%TO.C,U6*%
D10*
X131155000Y-99770000D02*
X130155000Y-99770000D01*
X130155000Y-98770000D01*
X131155000Y-98770000D01*
X131155000Y-99770000D01*
G36*
X131155000Y-99770000D02*
G01*
X130155000Y-99770000D01*
X130155000Y-98770000D01*
X131155000Y-98770000D01*
X131155000Y-99770000D01*
G37*
X131155000Y-101020000D02*
X130155000Y-101020000D01*
X130155000Y-100020000D01*
X131155000Y-100020000D01*
X131155000Y-101020000D01*
G36*
X131155000Y-101020000D02*
G01*
X130155000Y-101020000D01*
X130155000Y-100020000D01*
X131155000Y-100020000D01*
X131155000Y-101020000D01*
G37*
X132405000Y-99770000D02*
X131405000Y-99770000D01*
X131405000Y-98770000D01*
X132405000Y-98770000D01*
X132405000Y-99770000D01*
G36*
X132405000Y-99770000D02*
G01*
X131405000Y-99770000D01*
X131405000Y-98770000D01*
X132405000Y-98770000D01*
X132405000Y-99770000D01*
G37*
X132405000Y-101020000D02*
X131405000Y-101020000D01*
X131405000Y-100020000D01*
X132405000Y-100020000D01*
X132405000Y-101020000D01*
G36*
X132405000Y-101020000D02*
G01*
X131405000Y-101020000D01*
X131405000Y-100020000D01*
X132405000Y-100020000D01*
X132405000Y-101020000D01*
G37*
%TO.C,U1*%
D11*
X140970000Y-99255000D02*
X141970000Y-99255000D01*
X141970000Y-98255000D01*
X140970000Y-98255000D01*
X140970000Y-99255000D01*
G36*
X140970000Y-99255000D02*
G01*
X141970000Y-99255000D01*
X141970000Y-98255000D01*
X140970000Y-98255000D01*
X140970000Y-99255000D01*
G37*
X140970000Y-100755000D02*
X141970000Y-100755000D01*
X141970000Y-99755000D01*
X140970000Y-99755000D01*
X140970000Y-100755000D01*
G36*
X140970000Y-100755000D02*
G01*
X141970000Y-100755000D01*
X141970000Y-99755000D01*
X140970000Y-99755000D01*
X140970000Y-100755000D01*
G37*
X140970000Y-102255000D02*
X141970000Y-102255000D01*
X141970000Y-101255000D01*
X140970000Y-101255000D01*
X140970000Y-102255000D01*
G36*
X140970000Y-102255000D02*
G01*
X141970000Y-102255000D01*
X141970000Y-101255000D01*
X140970000Y-101255000D01*
X140970000Y-102255000D01*
G37*
X142470000Y-99255000D02*
X143470000Y-99255000D01*
X143470000Y-98255000D01*
X142470000Y-98255000D01*
X142470000Y-99255000D01*
G36*
X142470000Y-99255000D02*
G01*
X143470000Y-99255000D01*
X143470000Y-98255000D01*
X142470000Y-98255000D01*
X142470000Y-99255000D01*
G37*
X142470000Y-100755000D02*
X143470000Y-100755000D01*
X143470000Y-99755000D01*
X142470000Y-99755000D01*
X142470000Y-100755000D01*
G36*
X142470000Y-100755000D02*
G01*
X143470000Y-100755000D01*
X143470000Y-99755000D01*
X142470000Y-99755000D01*
X142470000Y-100755000D01*
G37*
X142470000Y-102255000D02*
X143470000Y-102255000D01*
X143470000Y-101255000D01*
X142470000Y-101255000D01*
X142470000Y-102255000D01*
G36*
X142470000Y-102255000D02*
G01*
X143470000Y-102255000D01*
X143470000Y-101255000D01*
X142470000Y-101255000D01*
X142470000Y-102255000D01*
G37*
X143970000Y-99255000D02*
X144970000Y-99255000D01*
X144970000Y-98255000D01*
X143970000Y-98255000D01*
X143970000Y-99255000D01*
G36*
X143970000Y-99255000D02*
G01*
X144970000Y-99255000D01*
X144970000Y-98255000D01*
X143970000Y-98255000D01*
X143970000Y-99255000D01*
G37*
X143970000Y-100755000D02*
X144970000Y-100755000D01*
X144970000Y-99755000D01*
X143970000Y-99755000D01*
X143970000Y-100755000D01*
G36*
X143970000Y-100755000D02*
G01*
X144970000Y-100755000D01*
X144970000Y-99755000D01*
X143970000Y-99755000D01*
X143970000Y-100755000D01*
G37*
X143970000Y-102255000D02*
X144970000Y-102255000D01*
X144970000Y-101255000D01*
X143970000Y-101255000D01*
X143970000Y-102255000D01*
G36*
X143970000Y-102255000D02*
G01*
X144970000Y-102255000D01*
X144970000Y-101255000D01*
X143970000Y-101255000D01*
X143970000Y-102255000D01*
G37*
%TD*%
D12*
%TO.C,Q1*%
X155112087Y-92337913D03*
X155766161Y-90340336D03*
X157109664Y-91683839D03*
%TD*%
D13*
%TO.C,U6*%
X133275000Y-101150000D03*
X133275000Y-100650000D03*
X133275000Y-100150000D03*
X133275000Y-99650000D03*
X133275000Y-99150000D03*
X133275000Y-98650000D03*
D14*
X132525000Y-97900000D03*
X132025000Y-97900000D03*
X131525000Y-97900000D03*
X131025000Y-97900000D03*
X130525000Y-97900000D03*
X130025000Y-97900000D03*
D13*
X129275000Y-98650000D03*
X129275000Y-99150000D03*
X129275000Y-99650000D03*
X129275000Y-100150000D03*
X129275000Y-100650000D03*
X129275000Y-101150000D03*
D14*
X130025000Y-101900000D03*
X130525000Y-101900000D03*
X131025000Y-101900000D03*
X131525000Y-101900000D03*
X132025000Y-101900000D03*
X132525000Y-101900000D03*
%TD*%
D15*
%TO.C,Y2*%
X138300000Y-95450000D03*
X136950000Y-95450000D03*
X136950000Y-94400000D03*
X138300000Y-94400000D03*
%TD*%
D16*
%TO.C,U3*%
X147294576Y-110873473D03*
X146594576Y-110873473D03*
X145894576Y-110873473D03*
X145194576Y-110873473D03*
X144494576Y-110873473D03*
X143794576Y-110873473D03*
X143094576Y-110873473D03*
X142394576Y-110873473D03*
X141694576Y-110873473D03*
X140994576Y-110873473D03*
X140294576Y-110873473D03*
X139594576Y-110873473D03*
%TD*%
D17*
%TO.C,C6*%
X129510589Y-107264411D03*
X130189411Y-106585589D03*
%TD*%
D18*
%TO.C,C20*%
X149420000Y-93275000D03*
X150380000Y-93275000D03*
%TD*%
D19*
%TO.C,R2*%
X148275000Y-98160000D03*
X148275000Y-97140000D03*
%TD*%
D20*
%TO.C,C25*%
X132625000Y-104330000D03*
X132625000Y-103370000D03*
%TD*%
D19*
%TO.C,R9*%
X130225000Y-95640000D03*
X130225000Y-96660000D03*
%TD*%
D21*
%TO.C,R3*%
X136660624Y-113014376D03*
X135939376Y-113735624D03*
%TD*%
D22*
%TO.C,U1*%
X140700000Y-103225000D03*
X141100000Y-103225000D03*
X141500000Y-103225000D03*
X141900000Y-103225000D03*
X142300000Y-103225000D03*
X142700000Y-103225000D03*
X143100000Y-103225000D03*
X143500000Y-103225000D03*
X143900000Y-103225000D03*
X144300000Y-103225000D03*
X144700000Y-103225000D03*
X145100000Y-103225000D03*
D23*
X145850000Y-102475000D03*
X145850000Y-102075000D03*
X145850000Y-101675000D03*
X145850000Y-101275000D03*
X145850000Y-100875000D03*
X145850000Y-100475000D03*
X145850000Y-100075000D03*
X145850000Y-99675000D03*
X145850000Y-99275000D03*
X145850000Y-98875000D03*
X145850000Y-98475000D03*
X145850000Y-98075000D03*
D22*
X145100000Y-97325000D03*
X144700000Y-97325000D03*
X144300000Y-97325000D03*
X143900000Y-97325000D03*
X143500000Y-97325000D03*
X143100000Y-97325000D03*
X142700000Y-97325000D03*
X142300000Y-97325000D03*
X141900000Y-97325000D03*
X141500000Y-97325000D03*
X141100000Y-97325000D03*
X140700000Y-97325000D03*
D23*
X139950000Y-98075000D03*
X139950000Y-98475000D03*
X139950000Y-98875000D03*
X139950000Y-99275000D03*
X139950000Y-99675000D03*
X139950000Y-100075000D03*
X139950000Y-100475000D03*
X139950000Y-100875000D03*
X139950000Y-101275000D03*
X139950000Y-101675000D03*
X139950000Y-102075000D03*
X139950000Y-102475000D03*
%TD*%
D24*
%TO.C,C18*%
X143640000Y-90250000D03*
X142680000Y-90250000D03*
%TD*%
D18*
%TO.C,C27*%
X127730000Y-101575000D03*
X126770000Y-101575000D03*
%TD*%
D25*
%TO.C,R7*%
X138315000Y-108275000D03*
X139335000Y-108275000D03*
%TD*%
D26*
%TO.C,L5*%
X142680000Y-88305000D03*
X142680000Y-89275000D03*
%TD*%
D20*
%TO.C,C15*%
X139600000Y-94445000D03*
X139600000Y-95405000D03*
%TD*%
D18*
%TO.C,C23*%
X127730000Y-100450000D03*
X126770000Y-100450000D03*
%TD*%
%TO.C,C12*%
X140455000Y-104450000D03*
X139495000Y-104450000D03*
%TD*%
D27*
%TO.C,U5*%
X149175000Y-106050000D03*
X149175000Y-107000000D03*
X149175000Y-107950000D03*
X146675000Y-107950000D03*
X146675000Y-107000000D03*
X146675000Y-106050000D03*
%TD*%
D18*
%TO.C,C24*%
X127730000Y-99300000D03*
X126770000Y-99300000D03*
%TD*%
D28*
%TO.C,Y1*%
X138200000Y-106225000D03*
X139600000Y-106225000D03*
%TD*%
D29*
%TO.C,R10*%
X129125000Y-96660000D03*
X129125000Y-95640000D03*
%TD*%
D26*
%TO.C,L4*%
X142685000Y-91300000D03*
X142685000Y-92270000D03*
%TD*%
D30*
%TO.C,D3*%
X153712000Y-107350000D03*
X151388000Y-107350000D03*
%TD*%
D24*
%TO.C,C5*%
X145345000Y-104425000D03*
X146305000Y-104425000D03*
%TD*%
%TO.C,C4*%
X148320000Y-100875000D03*
X149280000Y-100875000D03*
%TD*%
D26*
%TO.C,L3*%
X142685000Y-94200000D03*
X142685000Y-95170000D03*
%TD*%
D20*
%TO.C,C14*%
X135675000Y-94445000D03*
X135675000Y-95405000D03*
%TD*%
D31*
%TO.C,C26*%
X130375000Y-103370000D03*
X130375000Y-104330000D03*
%TD*%
D25*
%TO.C,R6*%
X158585000Y-93625000D03*
X157565000Y-93625000D03*
%TD*%
D24*
%TO.C,C16*%
X143660000Y-96135000D03*
X142700000Y-96135000D03*
%TD*%
%TO.C,C19*%
X143635000Y-87325000D03*
X142675000Y-87325000D03*
%TD*%
D32*
%TO.C,U4*%
X149085000Y-95400000D03*
X149085000Y-94900000D03*
D33*
X149150000Y-94335000D03*
X149650000Y-94335000D03*
X150150000Y-94335000D03*
X150650000Y-94335000D03*
D32*
X150715000Y-94900000D03*
X150715000Y-95400000D03*
D33*
X150650000Y-95965000D03*
X150150000Y-95965000D03*
X149650000Y-95965000D03*
X149150000Y-95965000D03*
%TD*%
D31*
%TO.C,C8*%
X141175000Y-105845000D03*
X141175000Y-106805000D03*
%TD*%
D20*
%TO.C,C11*%
X135750000Y-101980000D03*
X135750000Y-101020000D03*
%TD*%
D34*
%TO.C,U2*%
X134857861Y-112676937D03*
X135755886Y-111778912D03*
X136653912Y-110880886D03*
X137551937Y-109982861D03*
X133592139Y-106023063D03*
X132694114Y-106921088D03*
X131796088Y-107819114D03*
X130898063Y-108717139D03*
%TD*%
D35*
%TO.C,R4*%
X157565000Y-95825000D03*
X158585000Y-95825000D03*
%TD*%
D29*
%TO.C,R8*%
X134525000Y-98585000D03*
X134525000Y-97565000D03*
%TD*%
D18*
%TO.C,C29*%
X151405000Y-99200000D03*
X150445000Y-99200000D03*
%TD*%
D25*
%TO.C,R5*%
X158585000Y-94750000D03*
X157565000Y-94750000D03*
%TD*%
D18*
%TO.C,C10*%
X137755000Y-101050000D03*
X136795000Y-101050000D03*
%TD*%
D36*
%TO.C,L1*%
X137150000Y-102662500D03*
X137150000Y-104237500D03*
%TD*%
D20*
%TO.C,C9*%
X136650000Y-106780000D03*
X136650000Y-105820000D03*
%TD*%
D24*
%TO.C,C17*%
X143640000Y-93235000D03*
X142680000Y-93235000D03*
%TD*%
D20*
%TO.C,C13*%
X140650000Y-94445000D03*
X140650000Y-95405000D03*
%TD*%
D37*
%TO.C,D2*%
X154000000Y-112850000D03*
X151000000Y-112850000D03*
%TD*%
D38*
%TO.C,IC3*%
X151113000Y-97150000D03*
X151113000Y-97650000D03*
X151113000Y-98150000D03*
X149437000Y-98150000D03*
X149437000Y-97650000D03*
X149437000Y-97150000D03*
%TD*%
D26*
%TO.C,L6*%
X131525000Y-104335000D03*
X131525000Y-103365000D03*
%TD*%
D20*
%TO.C,C2*%
X138750000Y-97730000D03*
X138750000Y-96770000D03*
%TD*%
D26*
%TO.C,L2*%
X135725000Y-104035000D03*
X135725000Y-103065000D03*
%TD*%
D39*
%TO.C,D1*%
X157325000Y-97125000D03*
X158825000Y-97125000D03*
%TD*%
D19*
%TO.C,R1*%
X152175000Y-98160000D03*
X152175000Y-97140000D03*
%TD*%
D24*
%TO.C,C3*%
X146655000Y-96075000D03*
X145695000Y-96075000D03*
%TD*%
D31*
%TO.C,C1*%
X138525000Y-102870000D03*
X138525000Y-103830000D03*
%TD*%
D18*
%TO.C,C21*%
X144295000Y-108075000D03*
X145255000Y-108075000D03*
%TD*%
D40*
%TO.C,E1*%
X138962500Y-80950000D03*
X147962500Y-80950000D03*
%TD*%
M02*
