M48
; DRILL file {KiCad 8.0.3} date 2024-08-05T21:52:59-0500
; FORMAT={-:-/ absolute / inch / decimal}
; #@! TF.CreationDate,2024-08-05T21:52:59-05:00
; #@! TF.GenerationSoftware,Kicad,Pcbnew,8.0.3
; #@! TF.FileFunction,Plated,1,4,PTH
FMAT,2
INCH
; #@! TA.AperFunction,Plated,PTH,ViaDrill
T1C0.0118
; #@! TA.AperFunction,Plated,PTH,ComponentDrill
T2C0.0276
%
G90
G05
T1
X4.9909Y-3.9301
X4.9909Y-3.9774
X4.9961Y-3.8691
X5.0138Y-4.0482
X5.0226Y-3.8406
X5.0281Y-3.872
X5.0315Y-3.747
X5.0453Y-4.0797
X5.0482Y-4.0482
X5.0499Y-3.9459
X5.0915Y-3.7244
X5.1152Y-4.252
X5.127Y-3.7343
X5.1378Y-3.9026
X5.1398Y-4.2303
X5.1781Y-3.8199
X5.1978Y-3.9616
X5.1998Y-4.1319
X5.247Y-4.0098
X5.2549Y-4.0404
X5.2569Y-3.8455
X5.2805Y-3.9193
X5.311Y-3.7372
X5.3642Y-3.9469
X5.3819Y-4.2953
X5.3898Y-4.2343
X5.4Y-3.9495
X5.4163Y-4.252
X5.4183Y-4.4488
X5.4311Y-3.813
X5.4587Y-3.9823
X5.4587Y-4.4232
X5.4626Y-4.1152
X5.4911Y-4.0581
X5.499Y-3.8307
X5.5167Y-3.6919
X5.5177Y-4.2618
X5.5226Y-4.4528
X5.5472Y-4.2352
X5.5541Y-3.4331
X5.5758Y-3.899
X5.5758Y-3.999
X5.58Y-3.7694
X5.6061Y-4.2805
X5.6555Y-3.751
X5.6752Y-4.2854
X5.6758Y-3.899
X5.6758Y-3.999
X5.686Y-3.6703
X5.6943Y-3.5315
X5.7057Y-3.433
X5.7215Y-3.6319
X5.7224Y-3.5787
X5.7283Y-4.2874
X5.7352Y-3.748
X5.7372Y-4.0787
X5.7421Y-3.8445
X5.7428Y-3.4288
X5.7687Y-4.0768
X5.7738Y-3.7502
X5.8139Y-3.8809
X5.815Y-3.9724
X5.8455Y-3.7815
X5.8519Y-3.6752
X5.8661Y-4.3898
X5.8829Y-3.9065
X5.8848Y-3.5689
X5.8927Y-4.4124
X5.9016Y-3.748
X5.9045Y-3.9715
X5.9065Y-3.5935
X5.9163Y-4.3898
X5.9183Y-3.6319
X5.9262Y-3.4222
X5.9307Y-3.803
X5.9321Y-3.876
X5.9577Y-3.4242
X5.9596Y-4.19
X5.9688Y-3.7165
X5.9715Y-3.9951
X5.9741Y-3.8816
X5.9902Y-3.5364
X6.0217Y-3.8504
X6.0266Y-3.4222
X6.0404Y-4.0502
X6.0581Y-3.4232
X6.064Y-4.0866
X6.0659Y-3.9144
X6.0778Y-3.7943
X6.0827Y-4.123
X6.0915Y-3.8228
X6.1214Y-3.9616
X6.1409Y-3.7144
X6.1555Y-3.9882
X6.1703Y-3.5197
X6.1742Y-3.685
X6.1857Y-4.0128
X6.2116Y-3.8622
X6.249Y-4.0974
X6.2894Y-3.7933
T2
X6.0079Y-4.3448
X6.1079Y-4.3448
M30
