%TF.GenerationSoftware,KiCad,Pcbnew,8.0.3*%
%TF.CreationDate,2024-08-05T21:53:05-05:00*%
%TF.ProjectId,GeckoSmartWatch_V4_1,4765636b-6f53-46d6-9172-745761746368,rev?*%
%TF.SameCoordinates,Original*%
%TF.FileFunction,Legend,Top*%
%TF.FilePolarity,Positive*%
%FSLAX46Y46*%
G04 Gerber Fmt 4.6, Leading zero omitted, Abs format (unit mm)*
G04 Created by KiCad (PCBNEW 8.0.3) date 2024-08-05 21:53:05*
%MOMM*%
%LPD*%
G01*
G04 APERTURE LIST*
%ADD10C,0.125000*%
%ADD11C,0.120000*%
%ADD12C,0.250000*%
%ADD13C,0.200000*%
%ADD14C,0.000000*%
%ADD15C,0.100000*%
%ADD16C,0.127000*%
G04 APERTURE END LIST*
D10*
X135689285Y-90147365D02*
X135808333Y-90647365D01*
X135808333Y-90647365D02*
X135903571Y-90290222D01*
X135903571Y-90290222D02*
X135998809Y-90647365D01*
X135998809Y-90647365D02*
X136117857Y-90147365D01*
X136308333Y-90647365D02*
X136308333Y-90314032D01*
X136308333Y-90147365D02*
X136284524Y-90171175D01*
X136284524Y-90171175D02*
X136308333Y-90194984D01*
X136308333Y-90194984D02*
X136332143Y-90171175D01*
X136332143Y-90171175D02*
X136308333Y-90147365D01*
X136308333Y-90147365D02*
X136308333Y-90194984D01*
X136617857Y-90647365D02*
X136570238Y-90623556D01*
X136570238Y-90623556D02*
X136546428Y-90575936D01*
X136546428Y-90575936D02*
X136546428Y-90147365D01*
X136879762Y-90647365D02*
X136832143Y-90623556D01*
X136832143Y-90623556D02*
X136808333Y-90575936D01*
X136808333Y-90575936D02*
X136808333Y-90147365D01*
X137070238Y-90647365D02*
X137070238Y-90314032D01*
X137070238Y-90147365D02*
X137046429Y-90171175D01*
X137046429Y-90171175D02*
X137070238Y-90194984D01*
X137070238Y-90194984D02*
X137094048Y-90171175D01*
X137094048Y-90171175D02*
X137070238Y-90147365D01*
X137070238Y-90147365D02*
X137070238Y-90194984D01*
X137522619Y-90647365D02*
X137522619Y-90385460D01*
X137522619Y-90385460D02*
X137498809Y-90337841D01*
X137498809Y-90337841D02*
X137451190Y-90314032D01*
X137451190Y-90314032D02*
X137355952Y-90314032D01*
X137355952Y-90314032D02*
X137308333Y-90337841D01*
X137522619Y-90623556D02*
X137475000Y-90647365D01*
X137475000Y-90647365D02*
X137355952Y-90647365D01*
X137355952Y-90647365D02*
X137308333Y-90623556D01*
X137308333Y-90623556D02*
X137284524Y-90575936D01*
X137284524Y-90575936D02*
X137284524Y-90528317D01*
X137284524Y-90528317D02*
X137308333Y-90480698D01*
X137308333Y-90480698D02*
X137355952Y-90456889D01*
X137355952Y-90456889D02*
X137475000Y-90456889D01*
X137475000Y-90456889D02*
X137522619Y-90433079D01*
X137760714Y-90647365D02*
X137760714Y-90314032D01*
X137760714Y-90361651D02*
X137784524Y-90337841D01*
X137784524Y-90337841D02*
X137832143Y-90314032D01*
X137832143Y-90314032D02*
X137903571Y-90314032D01*
X137903571Y-90314032D02*
X137951190Y-90337841D01*
X137951190Y-90337841D02*
X137975000Y-90385460D01*
X137975000Y-90385460D02*
X137975000Y-90647365D01*
X137975000Y-90385460D02*
X137998809Y-90337841D01*
X137998809Y-90337841D02*
X138046428Y-90314032D01*
X138046428Y-90314032D02*
X138117857Y-90314032D01*
X138117857Y-90314032D02*
X138165476Y-90337841D01*
X138165476Y-90337841D02*
X138189286Y-90385460D01*
X138189286Y-90385460D02*
X138189286Y-90647365D01*
X138808333Y-90647365D02*
X138808333Y-90147365D01*
X138808333Y-90385460D02*
X139094047Y-90385460D01*
X139094047Y-90647365D02*
X139094047Y-90147365D01*
X139522619Y-90623556D02*
X139475000Y-90647365D01*
X139475000Y-90647365D02*
X139379762Y-90647365D01*
X139379762Y-90647365D02*
X139332143Y-90623556D01*
X139332143Y-90623556D02*
X139308334Y-90575936D01*
X139308334Y-90575936D02*
X139308334Y-90385460D01*
X139308334Y-90385460D02*
X139332143Y-90337841D01*
X139332143Y-90337841D02*
X139379762Y-90314032D01*
X139379762Y-90314032D02*
X139475000Y-90314032D01*
X139475000Y-90314032D02*
X139522619Y-90337841D01*
X139522619Y-90337841D02*
X139546429Y-90385460D01*
X139546429Y-90385460D02*
X139546429Y-90433079D01*
X139546429Y-90433079D02*
X139308334Y-90480698D01*
X139975000Y-90314032D02*
X139975000Y-90647365D01*
X139760714Y-90314032D02*
X139760714Y-90575936D01*
X139760714Y-90575936D02*
X139784524Y-90623556D01*
X139784524Y-90623556D02*
X139832143Y-90647365D01*
X139832143Y-90647365D02*
X139903571Y-90647365D01*
X139903571Y-90647365D02*
X139951190Y-90623556D01*
X139951190Y-90623556D02*
X139975000Y-90599746D01*
X140403571Y-90623556D02*
X140355952Y-90647365D01*
X140355952Y-90647365D02*
X140260714Y-90647365D01*
X140260714Y-90647365D02*
X140213095Y-90623556D01*
X140213095Y-90623556D02*
X140189286Y-90575936D01*
X140189286Y-90575936D02*
X140189286Y-90385460D01*
X140189286Y-90385460D02*
X140213095Y-90337841D01*
X140213095Y-90337841D02*
X140260714Y-90314032D01*
X140260714Y-90314032D02*
X140355952Y-90314032D01*
X140355952Y-90314032D02*
X140403571Y-90337841D01*
X140403571Y-90337841D02*
X140427381Y-90385460D01*
X140427381Y-90385460D02*
X140427381Y-90433079D01*
X140427381Y-90433079D02*
X140189286Y-90480698D01*
X140641666Y-90647365D02*
X140641666Y-90314032D01*
X140641666Y-90409270D02*
X140665476Y-90361651D01*
X140665476Y-90361651D02*
X140689285Y-90337841D01*
X140689285Y-90337841D02*
X140736904Y-90314032D01*
X140736904Y-90314032D02*
X140784523Y-90314032D01*
X135486906Y-91428528D02*
X135558334Y-91452337D01*
X135558334Y-91452337D02*
X135677382Y-91452337D01*
X135677382Y-91452337D02*
X135725001Y-91428528D01*
X135725001Y-91428528D02*
X135748810Y-91404718D01*
X135748810Y-91404718D02*
X135772620Y-91357099D01*
X135772620Y-91357099D02*
X135772620Y-91309480D01*
X135772620Y-91309480D02*
X135748810Y-91261861D01*
X135748810Y-91261861D02*
X135725001Y-91238051D01*
X135725001Y-91238051D02*
X135677382Y-91214242D01*
X135677382Y-91214242D02*
X135582144Y-91190432D01*
X135582144Y-91190432D02*
X135534525Y-91166623D01*
X135534525Y-91166623D02*
X135510715Y-91142813D01*
X135510715Y-91142813D02*
X135486906Y-91095194D01*
X135486906Y-91095194D02*
X135486906Y-91047575D01*
X135486906Y-91047575D02*
X135510715Y-90999956D01*
X135510715Y-90999956D02*
X135534525Y-90976147D01*
X135534525Y-90976147D02*
X135582144Y-90952337D01*
X135582144Y-90952337D02*
X135701191Y-90952337D01*
X135701191Y-90952337D02*
X135772620Y-90976147D01*
X135986905Y-91452337D02*
X135986905Y-91119004D01*
X135986905Y-91166623D02*
X136010715Y-91142813D01*
X136010715Y-91142813D02*
X136058334Y-91119004D01*
X136058334Y-91119004D02*
X136129762Y-91119004D01*
X136129762Y-91119004D02*
X136177381Y-91142813D01*
X136177381Y-91142813D02*
X136201191Y-91190432D01*
X136201191Y-91190432D02*
X136201191Y-91452337D01*
X136201191Y-91190432D02*
X136225000Y-91142813D01*
X136225000Y-91142813D02*
X136272619Y-91119004D01*
X136272619Y-91119004D02*
X136344048Y-91119004D01*
X136344048Y-91119004D02*
X136391667Y-91142813D01*
X136391667Y-91142813D02*
X136415477Y-91190432D01*
X136415477Y-91190432D02*
X136415477Y-91452337D01*
X136867858Y-91452337D02*
X136867858Y-91190432D01*
X136867858Y-91190432D02*
X136844048Y-91142813D01*
X136844048Y-91142813D02*
X136796429Y-91119004D01*
X136796429Y-91119004D02*
X136701191Y-91119004D01*
X136701191Y-91119004D02*
X136653572Y-91142813D01*
X136867858Y-91428528D02*
X136820239Y-91452337D01*
X136820239Y-91452337D02*
X136701191Y-91452337D01*
X136701191Y-91452337D02*
X136653572Y-91428528D01*
X136653572Y-91428528D02*
X136629763Y-91380908D01*
X136629763Y-91380908D02*
X136629763Y-91333289D01*
X136629763Y-91333289D02*
X136653572Y-91285670D01*
X136653572Y-91285670D02*
X136701191Y-91261861D01*
X136701191Y-91261861D02*
X136820239Y-91261861D01*
X136820239Y-91261861D02*
X136867858Y-91238051D01*
X137105953Y-91452337D02*
X137105953Y-91119004D01*
X137105953Y-91214242D02*
X137129763Y-91166623D01*
X137129763Y-91166623D02*
X137153572Y-91142813D01*
X137153572Y-91142813D02*
X137201191Y-91119004D01*
X137201191Y-91119004D02*
X137248810Y-91119004D01*
X137344049Y-91119004D02*
X137534525Y-91119004D01*
X137415477Y-90952337D02*
X137415477Y-91380908D01*
X137415477Y-91380908D02*
X137439287Y-91428528D01*
X137439287Y-91428528D02*
X137486906Y-91452337D01*
X137486906Y-91452337D02*
X137534525Y-91452337D01*
X137653572Y-90952337D02*
X137772620Y-91452337D01*
X137772620Y-91452337D02*
X137867858Y-91095194D01*
X137867858Y-91095194D02*
X137963096Y-91452337D01*
X137963096Y-91452337D02*
X138082144Y-90952337D01*
X138486906Y-91452337D02*
X138486906Y-91190432D01*
X138486906Y-91190432D02*
X138463096Y-91142813D01*
X138463096Y-91142813D02*
X138415477Y-91119004D01*
X138415477Y-91119004D02*
X138320239Y-91119004D01*
X138320239Y-91119004D02*
X138272620Y-91142813D01*
X138486906Y-91428528D02*
X138439287Y-91452337D01*
X138439287Y-91452337D02*
X138320239Y-91452337D01*
X138320239Y-91452337D02*
X138272620Y-91428528D01*
X138272620Y-91428528D02*
X138248811Y-91380908D01*
X138248811Y-91380908D02*
X138248811Y-91333289D01*
X138248811Y-91333289D02*
X138272620Y-91285670D01*
X138272620Y-91285670D02*
X138320239Y-91261861D01*
X138320239Y-91261861D02*
X138439287Y-91261861D01*
X138439287Y-91261861D02*
X138486906Y-91238051D01*
X138653573Y-91119004D02*
X138844049Y-91119004D01*
X138725001Y-90952337D02*
X138725001Y-91380908D01*
X138725001Y-91380908D02*
X138748811Y-91428528D01*
X138748811Y-91428528D02*
X138796430Y-91452337D01*
X138796430Y-91452337D02*
X138844049Y-91452337D01*
X139225001Y-91428528D02*
X139177382Y-91452337D01*
X139177382Y-91452337D02*
X139082144Y-91452337D01*
X139082144Y-91452337D02*
X139034525Y-91428528D01*
X139034525Y-91428528D02*
X139010715Y-91404718D01*
X139010715Y-91404718D02*
X138986906Y-91357099D01*
X138986906Y-91357099D02*
X138986906Y-91214242D01*
X138986906Y-91214242D02*
X139010715Y-91166623D01*
X139010715Y-91166623D02*
X139034525Y-91142813D01*
X139034525Y-91142813D02*
X139082144Y-91119004D01*
X139082144Y-91119004D02*
X139177382Y-91119004D01*
X139177382Y-91119004D02*
X139225001Y-91142813D01*
X139439286Y-91452337D02*
X139439286Y-90952337D01*
X139653572Y-91452337D02*
X139653572Y-91190432D01*
X139653572Y-91190432D02*
X139629762Y-91142813D01*
X139629762Y-91142813D02*
X139582143Y-91119004D01*
X139582143Y-91119004D02*
X139510715Y-91119004D01*
X139510715Y-91119004D02*
X139463096Y-91142813D01*
X139463096Y-91142813D02*
X139439286Y-91166623D01*
X140201191Y-90952337D02*
X140367857Y-91452337D01*
X140367857Y-91452337D02*
X140534524Y-90952337D01*
X140915476Y-91119004D02*
X140915476Y-91452337D01*
X140796428Y-90928528D02*
X140677381Y-91285670D01*
X140677381Y-91285670D02*
X140986904Y-91285670D01*
X135939287Y-92114452D02*
X136177382Y-92114452D01*
X135891668Y-92257309D02*
X136058334Y-91757309D01*
X136058334Y-91757309D02*
X136225001Y-92257309D01*
X136605953Y-91923976D02*
X136605953Y-92257309D01*
X136391667Y-91923976D02*
X136391667Y-92185880D01*
X136391667Y-92185880D02*
X136415477Y-92233500D01*
X136415477Y-92233500D02*
X136463096Y-92257309D01*
X136463096Y-92257309D02*
X136534524Y-92257309D01*
X136534524Y-92257309D02*
X136582143Y-92233500D01*
X136582143Y-92233500D02*
X136605953Y-92209690D01*
X137058334Y-91923976D02*
X137058334Y-92328738D01*
X137058334Y-92328738D02*
X137034524Y-92376357D01*
X137034524Y-92376357D02*
X137010715Y-92400166D01*
X137010715Y-92400166D02*
X136963096Y-92423976D01*
X136963096Y-92423976D02*
X136891667Y-92423976D01*
X136891667Y-92423976D02*
X136844048Y-92400166D01*
X137058334Y-92233500D02*
X137010715Y-92257309D01*
X137010715Y-92257309D02*
X136915477Y-92257309D01*
X136915477Y-92257309D02*
X136867858Y-92233500D01*
X136867858Y-92233500D02*
X136844048Y-92209690D01*
X136844048Y-92209690D02*
X136820239Y-92162071D01*
X136820239Y-92162071D02*
X136820239Y-92019214D01*
X136820239Y-92019214D02*
X136844048Y-91971595D01*
X136844048Y-91971595D02*
X136867858Y-91947785D01*
X136867858Y-91947785D02*
X136915477Y-91923976D01*
X136915477Y-91923976D02*
X137010715Y-91923976D01*
X137010715Y-91923976D02*
X137058334Y-91947785D01*
X137510715Y-91923976D02*
X137510715Y-92257309D01*
X137296429Y-91923976D02*
X137296429Y-92185880D01*
X137296429Y-92185880D02*
X137320239Y-92233500D01*
X137320239Y-92233500D02*
X137367858Y-92257309D01*
X137367858Y-92257309D02*
X137439286Y-92257309D01*
X137439286Y-92257309D02*
X137486905Y-92233500D01*
X137486905Y-92233500D02*
X137510715Y-92209690D01*
X137725001Y-92233500D02*
X137772620Y-92257309D01*
X137772620Y-92257309D02*
X137867858Y-92257309D01*
X137867858Y-92257309D02*
X137915477Y-92233500D01*
X137915477Y-92233500D02*
X137939286Y-92185880D01*
X137939286Y-92185880D02*
X137939286Y-92162071D01*
X137939286Y-92162071D02*
X137915477Y-92114452D01*
X137915477Y-92114452D02*
X137867858Y-92090642D01*
X137867858Y-92090642D02*
X137796429Y-92090642D01*
X137796429Y-92090642D02*
X137748810Y-92066833D01*
X137748810Y-92066833D02*
X137725001Y-92019214D01*
X137725001Y-92019214D02*
X137725001Y-91995404D01*
X137725001Y-91995404D02*
X137748810Y-91947785D01*
X137748810Y-91947785D02*
X137796429Y-91923976D01*
X137796429Y-91923976D02*
X137867858Y-91923976D01*
X137867858Y-91923976D02*
X137915477Y-91947785D01*
X138082144Y-91923976D02*
X138272620Y-91923976D01*
X138153572Y-91757309D02*
X138153572Y-92185880D01*
X138153572Y-92185880D02*
X138177382Y-92233500D01*
X138177382Y-92233500D02*
X138225001Y-92257309D01*
X138225001Y-92257309D02*
X138272620Y-92257309D01*
X138796429Y-91804928D02*
X138820238Y-91781119D01*
X138820238Y-91781119D02*
X138867857Y-91757309D01*
X138867857Y-91757309D02*
X138986905Y-91757309D01*
X138986905Y-91757309D02*
X139034524Y-91781119D01*
X139034524Y-91781119D02*
X139058333Y-91804928D01*
X139058333Y-91804928D02*
X139082143Y-91852547D01*
X139082143Y-91852547D02*
X139082143Y-91900166D01*
X139082143Y-91900166D02*
X139058333Y-91971595D01*
X139058333Y-91971595D02*
X138772619Y-92257309D01*
X138772619Y-92257309D02*
X139082143Y-92257309D01*
X139391666Y-91757309D02*
X139439285Y-91757309D01*
X139439285Y-91757309D02*
X139486904Y-91781119D01*
X139486904Y-91781119D02*
X139510714Y-91804928D01*
X139510714Y-91804928D02*
X139534523Y-91852547D01*
X139534523Y-91852547D02*
X139558333Y-91947785D01*
X139558333Y-91947785D02*
X139558333Y-92066833D01*
X139558333Y-92066833D02*
X139534523Y-92162071D01*
X139534523Y-92162071D02*
X139510714Y-92209690D01*
X139510714Y-92209690D02*
X139486904Y-92233500D01*
X139486904Y-92233500D02*
X139439285Y-92257309D01*
X139439285Y-92257309D02*
X139391666Y-92257309D01*
X139391666Y-92257309D02*
X139344047Y-92233500D01*
X139344047Y-92233500D02*
X139320238Y-92209690D01*
X139320238Y-92209690D02*
X139296428Y-92162071D01*
X139296428Y-92162071D02*
X139272619Y-92066833D01*
X139272619Y-92066833D02*
X139272619Y-91947785D01*
X139272619Y-91947785D02*
X139296428Y-91852547D01*
X139296428Y-91852547D02*
X139320238Y-91804928D01*
X139320238Y-91804928D02*
X139344047Y-91781119D01*
X139344047Y-91781119D02*
X139391666Y-91757309D01*
X139748809Y-91804928D02*
X139772618Y-91781119D01*
X139772618Y-91781119D02*
X139820237Y-91757309D01*
X139820237Y-91757309D02*
X139939285Y-91757309D01*
X139939285Y-91757309D02*
X139986904Y-91781119D01*
X139986904Y-91781119D02*
X140010713Y-91804928D01*
X140010713Y-91804928D02*
X140034523Y-91852547D01*
X140034523Y-91852547D02*
X140034523Y-91900166D01*
X140034523Y-91900166D02*
X140010713Y-91971595D01*
X140010713Y-91971595D02*
X139724999Y-92257309D01*
X139724999Y-92257309D02*
X140034523Y-92257309D01*
X140463094Y-91923976D02*
X140463094Y-92257309D01*
X140344046Y-91733500D02*
X140224999Y-92090642D01*
X140224999Y-92090642D02*
X140534522Y-92090642D01*
D11*
%TO.C,Q1*%
X156878087Y-92778087D02*
X157337706Y-92318467D01*
X156878087Y-92778087D02*
X156418467Y-93237706D01*
X154671913Y-90571913D02*
X155131533Y-90112294D01*
X154671913Y-90571913D02*
X154212294Y-91031533D01*
D12*
%TO.C,U6*%
X134130000Y-101880000D02*
G75*
G02*
X133880000Y-101880000I-125000J0D01*
G01*
X133880000Y-101880000D02*
G75*
G02*
X134130000Y-101880000I125000J0D01*
G01*
D13*
%TO.C,Y2*%
X138365000Y-93715000D02*
G75*
G02*
X138265000Y-93715000I-50000J0D01*
G01*
X138265000Y-93715000D02*
G75*
G02*
X138365000Y-93715000I50000J0D01*
G01*
X138365000Y-93715000D02*
X138365000Y-93715000D01*
X138365000Y-93715000D02*
X138265000Y-93715000D01*
X138265000Y-93715000D02*
X138265000Y-93715000D01*
D14*
%TO.C,G\u002A\u002A\u002A*%
G36*
X133230216Y-88734972D02*
G01*
X133413460Y-88735312D01*
X133573802Y-88735971D01*
X133713050Y-88737048D01*
X133833010Y-88738644D01*
X133935490Y-88740857D01*
X134022296Y-88743786D01*
X134095236Y-88747531D01*
X134156116Y-88752192D01*
X134206745Y-88757867D01*
X134248929Y-88764656D01*
X134284475Y-88772658D01*
X134315190Y-88781973D01*
X134342882Y-88792699D01*
X134369357Y-88804936D01*
X134396423Y-88818784D01*
X134425887Y-88834342D01*
X134436568Y-88839932D01*
X134581394Y-88931566D01*
X134704834Y-89043674D01*
X134805429Y-89174133D01*
X134881720Y-89320817D01*
X134932248Y-89481601D01*
X134950031Y-89587738D01*
X134952605Y-89625858D01*
X134954945Y-89691477D01*
X134957049Y-89781966D01*
X134958918Y-89894694D01*
X134960552Y-90027032D01*
X134961952Y-90176350D01*
X134963116Y-90340017D01*
X134964045Y-90515405D01*
X134964740Y-90699882D01*
X134965200Y-90890819D01*
X134965424Y-91085585D01*
X134965414Y-91281552D01*
X134965169Y-91476089D01*
X134964689Y-91666565D01*
X134963973Y-91850351D01*
X134963023Y-92024818D01*
X134961838Y-92187334D01*
X134960419Y-92335270D01*
X134958764Y-92465996D01*
X134956874Y-92576883D01*
X134954749Y-92665299D01*
X134952389Y-92728616D01*
X134950031Y-92762262D01*
X134916257Y-92930741D01*
X134855812Y-93086441D01*
X134770156Y-93227238D01*
X134660748Y-93351005D01*
X134529047Y-93455619D01*
X134436568Y-93510068D01*
X134405953Y-93526196D01*
X134378347Y-93540587D01*
X134351947Y-93553339D01*
X134324951Y-93564550D01*
X134295557Y-93574317D01*
X134261963Y-93582738D01*
X134222366Y-93589910D01*
X134174963Y-93595932D01*
X134117953Y-93600900D01*
X134049534Y-93604914D01*
X133967902Y-93608070D01*
X133871257Y-93610465D01*
X133757795Y-93612199D01*
X133625714Y-93613368D01*
X133473212Y-93614070D01*
X133298486Y-93614403D01*
X133099735Y-93614465D01*
X132875157Y-93614352D01*
X132622948Y-93614164D01*
X132517467Y-93614091D01*
X132251432Y-93613855D01*
X132013955Y-93613494D01*
X131803468Y-93612988D01*
X131618399Y-93612317D01*
X131457178Y-93611462D01*
X131318233Y-93610402D01*
X131199995Y-93609119D01*
X131100892Y-93607593D01*
X131019354Y-93605803D01*
X130953810Y-93603731D01*
X130902689Y-93601356D01*
X130864421Y-93598660D01*
X130837435Y-93595621D01*
X130822627Y-93592862D01*
X130665158Y-93539423D01*
X130521445Y-93460327D01*
X130393774Y-93357775D01*
X130284432Y-93233973D01*
X130195707Y-93091124D01*
X130129886Y-92931432D01*
X130127089Y-92922568D01*
X130091963Y-92809579D01*
X130091963Y-91603193D01*
X130174822Y-91603193D01*
X130176048Y-92206386D01*
X130176389Y-92356573D01*
X130176820Y-92478975D01*
X130177462Y-92575935D01*
X130178433Y-92649798D01*
X130179853Y-92702909D01*
X130181841Y-92737612D01*
X130184517Y-92756252D01*
X130188000Y-92761173D01*
X130192409Y-92754719D01*
X130197864Y-92739236D01*
X130202412Y-92724132D01*
X130217509Y-92676595D01*
X130230699Y-92641543D01*
X130237474Y-92628839D01*
X130250003Y-92627195D01*
X130256580Y-92648169D01*
X130256886Y-92684778D01*
X130250603Y-92730039D01*
X130243408Y-92758882D01*
X130224652Y-92846741D01*
X130224611Y-92928168D01*
X130244785Y-93008882D01*
X130286676Y-93094601D01*
X130351785Y-93191043D01*
X130359607Y-93201466D01*
X130421294Y-93271679D01*
X130496101Y-93339234D01*
X130577847Y-93400021D01*
X130660354Y-93449930D01*
X130737442Y-93484850D01*
X130802932Y-93500672D01*
X130810125Y-93501107D01*
X130840747Y-93505634D01*
X130852724Y-93513879D01*
X130865694Y-93522296D01*
X130891436Y-93525178D01*
X130919191Y-93520428D01*
X130923526Y-93502973D01*
X130922463Y-93498814D01*
X130904022Y-93431481D01*
X130891542Y-93378064D01*
X130886215Y-93344113D01*
X130887226Y-93335035D01*
X130897569Y-93342926D01*
X130917575Y-93367522D01*
X130940952Y-93399973D01*
X130961405Y-93431426D01*
X130972642Y-93453030D01*
X130973280Y-93456080D01*
X130979210Y-93480486D01*
X130992716Y-93511095D01*
X131007371Y-93534780D01*
X131014479Y-93540243D01*
X131030747Y-93528938D01*
X131045110Y-93510113D01*
X131068345Y-93484388D01*
X131086363Y-93484231D01*
X131093798Y-93509602D01*
X131093802Y-93510456D01*
X131094117Y-93515383D01*
X131096209Y-93519743D01*
X131101799Y-93523565D01*
X131112607Y-93526880D01*
X131130353Y-93529716D01*
X131156758Y-93532103D01*
X131193541Y-93534071D01*
X131242424Y-93535649D01*
X131305126Y-93536865D01*
X131383368Y-93537751D01*
X131478870Y-93538335D01*
X131593352Y-93538646D01*
X131728535Y-93538715D01*
X131886139Y-93538570D01*
X132067885Y-93538241D01*
X132275492Y-93537758D01*
X132510682Y-93537149D01*
X132634223Y-93536820D01*
X134174644Y-93532710D01*
X134273655Y-93499036D01*
X134417522Y-93434566D01*
X134548353Y-93344943D01*
X134662681Y-93233587D01*
X134757038Y-93103914D01*
X134827958Y-92959343D01*
X134832040Y-92948522D01*
X134840337Y-92925330D01*
X134847220Y-92902720D01*
X134852845Y-92877693D01*
X134857369Y-92847249D01*
X134860948Y-92808390D01*
X134863740Y-92758116D01*
X134865901Y-92693429D01*
X134867587Y-92611329D01*
X134868955Y-92508817D01*
X134870162Y-92382894D01*
X134871365Y-92230562D01*
X134871670Y-92189678D01*
X134876623Y-91524581D01*
X134834471Y-91494788D01*
X134770742Y-91455506D01*
X134688321Y-91412797D01*
X134597532Y-91371348D01*
X134508699Y-91335846D01*
X134432145Y-91310981D01*
X134426285Y-91309444D01*
X134344903Y-91293639D01*
X134235000Y-91280412D01*
X134098089Y-91269929D01*
X134040169Y-91266743D01*
X133923829Y-91259988D01*
X133831494Y-91251929D01*
X133757040Y-91241355D01*
X133694341Y-91227055D01*
X133637275Y-91207817D01*
X133579714Y-91182430D01*
X133556969Y-91171187D01*
X133466308Y-91112060D01*
X133389770Y-91035945D01*
X133328473Y-90947243D01*
X133283535Y-90850354D01*
X133256074Y-90749678D01*
X133247209Y-90649616D01*
X133250598Y-90619924D01*
X133346201Y-90619924D01*
X133349090Y-90686592D01*
X133356490Y-90751938D01*
X133365953Y-90798369D01*
X133407133Y-90891450D01*
X133472507Y-90979287D01*
X133556143Y-91055968D01*
X133652113Y-91115581D01*
X133707302Y-91138707D01*
X133735227Y-91146799D01*
X133770291Y-91153453D01*
X133816162Y-91158929D01*
X133876505Y-91163487D01*
X133954988Y-91167391D01*
X134055277Y-91170899D01*
X134181039Y-91174274D01*
X134219840Y-91175196D01*
X134349611Y-91178414D01*
X134453213Y-91181562D01*
X134534603Y-91184949D01*
X134597741Y-91188884D01*
X134646584Y-91193675D01*
X134685090Y-91199631D01*
X134717219Y-91207062D01*
X134746929Y-91216276D01*
X134747123Y-91216342D01*
X134797377Y-91232822D01*
X134837446Y-91244625D01*
X134856346Y-91248822D01*
X134862380Y-91242737D01*
X134867071Y-91221576D01*
X134870553Y-91182599D01*
X134872962Y-91123067D01*
X134874434Y-91040241D01*
X134875102Y-90931379D01*
X134875178Y-90867338D01*
X134875178Y-90484351D01*
X134764598Y-90431863D01*
X134573061Y-90353734D01*
X134381308Y-90302158D01*
X134184223Y-90276328D01*
X133976690Y-90275439D01*
X133843209Y-90286750D01*
X133766908Y-90297791D01*
X133702799Y-90313634D01*
X133637668Y-90338287D01*
X133572034Y-90368963D01*
X133508335Y-90401741D01*
X133450042Y-90434343D01*
X133405841Y-90461796D01*
X133391251Y-90472434D01*
X133367867Y-90493503D01*
X133354357Y-90514926D01*
X133348045Y-90545472D01*
X133346253Y-90593905D01*
X133346201Y-90619924D01*
X133250598Y-90619924D01*
X133258059Y-90554568D01*
X133289741Y-90468933D01*
X133343373Y-90397113D01*
X133357058Y-90384599D01*
X133429823Y-90332911D01*
X133523680Y-90281985D01*
X133629768Y-90235849D01*
X133739226Y-90198528D01*
X133802917Y-90182023D01*
X133944731Y-90159175D01*
X134096943Y-90150133D01*
X134248190Y-90154915D01*
X134387111Y-90173543D01*
X134420937Y-90180926D01*
X134483860Y-90194591D01*
X134540011Y-90204279D01*
X134579629Y-90208379D01*
X134586655Y-90208291D01*
X134608969Y-90208692D01*
X134633393Y-90214881D01*
X134665746Y-90229480D01*
X134711842Y-90255113D01*
X134777254Y-90294254D01*
X134821855Y-90319749D01*
X134850348Y-90328680D01*
X134866330Y-90317836D01*
X134873398Y-90284007D01*
X134875149Y-90223982D01*
X134875178Y-90206857D01*
X134874312Y-90143571D01*
X134869872Y-90099917D01*
X134859089Y-90065403D01*
X134839197Y-90029543D01*
X134821200Y-90002215D01*
X134789545Y-89950850D01*
X134777855Y-89920761D01*
X134786071Y-89912381D01*
X134814133Y-89926145D01*
X134830167Y-89937405D01*
X134875178Y-89970682D01*
X134875178Y-89920905D01*
X134866255Y-89877302D01*
X134840907Y-89815292D01*
X134807400Y-89750970D01*
X134739621Y-89630812D01*
X134807400Y-89701495D01*
X134844602Y-89737163D01*
X134868055Y-89752862D01*
X134875178Y-89748546D01*
X134867263Y-89720938D01*
X134845815Y-89674544D01*
X134814277Y-89615471D01*
X134776094Y-89549826D01*
X134734710Y-89483716D01*
X134693569Y-89423246D01*
X134685254Y-89411797D01*
X134653900Y-89366713D01*
X134632615Y-89331202D01*
X134625189Y-89311725D01*
X134625732Y-89310289D01*
X134640600Y-89314835D01*
X134668704Y-89338303D01*
X134705285Y-89375447D01*
X134745582Y-89421025D01*
X134784836Y-89469792D01*
X134818288Y-89516503D01*
X134830358Y-89535756D01*
X134877566Y-89615747D01*
X134868108Y-89555486D01*
X134830056Y-89406180D01*
X134765875Y-89265573D01*
X134678771Y-89137459D01*
X134571952Y-89025630D01*
X134448626Y-88933882D01*
X134311999Y-88866006D01*
X134273655Y-88852398D01*
X134223601Y-88838345D01*
X134168604Y-88828118D01*
X134101812Y-88820906D01*
X134016378Y-88815893D01*
X133944672Y-88813342D01*
X133856864Y-88810879D01*
X133793723Y-88809951D01*
X133749797Y-88811187D01*
X133719637Y-88815216D01*
X133697791Y-88822667D01*
X133678809Y-88834167D01*
X133663204Y-88845805D01*
X133623517Y-88873744D01*
X133602491Y-88883622D01*
X133601866Y-88875364D01*
X133623380Y-88848898D01*
X133624763Y-88847420D01*
X133647583Y-88822051D01*
X133650301Y-88811776D01*
X133633485Y-88809767D01*
X133627897Y-88809757D01*
X133599735Y-88817667D01*
X133556012Y-88838478D01*
X133505851Y-88867810D01*
X133502413Y-88870018D01*
X133455439Y-88899333D01*
X133418005Y-88920768D01*
X133397437Y-88930159D01*
X133396448Y-88930279D01*
X133383211Y-88922897D01*
X133393928Y-88902510D01*
X133426798Y-88871756D01*
X133446948Y-88856256D01*
X133510176Y-88809757D01*
X133461870Y-88809757D01*
X133423356Y-88817544D01*
X133366926Y-88839014D01*
X133299859Y-88871322D01*
X133288180Y-88877550D01*
X133232858Y-88906922D01*
X133187714Y-88929880D01*
X133159110Y-88943240D01*
X133152735Y-88945344D01*
X133140685Y-88938615D01*
X133152925Y-88920024D01*
X133187199Y-88891963D01*
X133229300Y-88864100D01*
X133274537Y-88835782D01*
X133296539Y-88819742D01*
X133297720Y-88812443D01*
X133280494Y-88810353D01*
X133266136Y-88810160D01*
X133212607Y-88822151D01*
X133143761Y-88859102D01*
X133130549Y-88867840D01*
X133051045Y-88919162D01*
X132988915Y-88953942D01*
X132946241Y-88971106D01*
X132928935Y-88972021D01*
X132929706Y-88960619D01*
X132956084Y-88934926D01*
X133007444Y-88895475D01*
X133073267Y-88849488D01*
X133131814Y-88809757D01*
X132039892Y-88809757D01*
X131831336Y-88809791D01*
X131650644Y-88809930D01*
X131495547Y-88810229D01*
X131363780Y-88810744D01*
X131253074Y-88811528D01*
X131161162Y-88812638D01*
X131085778Y-88814128D01*
X131024654Y-88816053D01*
X130975522Y-88818469D01*
X130936116Y-88821430D01*
X130904168Y-88824992D01*
X130877411Y-88829209D01*
X130853579Y-88834136D01*
X130833448Y-88839046D01*
X130770844Y-88856718D01*
X130713255Y-88875819D01*
X130672357Y-88892450D01*
X130669984Y-88893645D01*
X130639025Y-88911163D01*
X130631980Y-88923108D01*
X130645552Y-88936846D01*
X130649387Y-88939682D01*
X130665143Y-88955615D01*
X130658384Y-88959843D01*
X130635038Y-88950603D01*
X130627591Y-88946164D01*
X130594329Y-88941381D01*
X130577101Y-88947743D01*
X130559883Y-88959357D01*
X130560450Y-88972685D01*
X130580437Y-88996505D01*
X130587589Y-89004010D01*
X130617694Y-89038746D01*
X130624610Y-89055020D01*
X130608828Y-89052021D01*
X130572010Y-89029736D01*
X130536325Y-89007378D01*
X130513171Y-89001367D01*
X130491004Y-89009929D01*
X130481619Y-89015860D01*
X130455903Y-89033843D01*
X130445996Y-89042859D01*
X130457781Y-89051939D01*
X130488787Y-89072384D01*
X130532494Y-89099905D01*
X130535873Y-89101993D01*
X130593033Y-89138549D01*
X130623496Y-89161163D01*
X130627270Y-89169817D01*
X130604360Y-89164494D01*
X130554772Y-89145176D01*
X130525536Y-89132686D01*
X130409450Y-89082222D01*
X130367562Y-89130538D01*
X130329208Y-89183837D01*
X130287661Y-89256088D01*
X130247921Y-89337250D01*
X130214989Y-89417283D01*
X130197201Y-89472627D01*
X130189454Y-89511055D01*
X130183563Y-89562993D01*
X130179353Y-89632020D01*
X130176646Y-89721711D01*
X130175268Y-89835643D01*
X130175001Y-89923153D01*
X130175048Y-90037495D01*
X130175480Y-90124972D01*
X130176545Y-90188853D01*
X130178491Y-90232402D01*
X130181568Y-90258887D01*
X130186022Y-90271574D01*
X130192103Y-90273730D01*
X130200058Y-90268621D01*
X130201186Y-90267643D01*
X130245475Y-90236743D01*
X130301055Y-90208506D01*
X130355960Y-90188232D01*
X130396434Y-90181173D01*
X130424972Y-90182680D01*
X130426228Y-90189957D01*
X130408333Y-90204596D01*
X130380517Y-90222901D01*
X130335315Y-90249742D01*
X130282007Y-90279628D01*
X130276512Y-90282613D01*
X130215012Y-90319728D01*
X130181416Y-90349238D01*
X130174822Y-90364647D01*
X130176098Y-90382480D01*
X130183359Y-90388752D01*
X130201757Y-90382016D01*
X130236442Y-90360826D01*
X130272098Y-90337330D01*
X130327495Y-90303697D01*
X130360962Y-90289456D01*
X130371953Y-90292777D01*
X130359923Y-90311825D01*
X130324324Y-90344768D01*
X130283660Y-90376159D01*
X130236041Y-90411923D01*
X130200221Y-90440789D01*
X130181328Y-90458526D01*
X130179805Y-90461873D01*
X130195219Y-90458863D01*
X130230778Y-90445675D01*
X130279381Y-90424991D01*
X130289409Y-90420478D01*
X130466012Y-90349833D01*
X130648453Y-90296535D01*
X130842806Y-90259286D01*
X131055145Y-90236785D01*
X131177766Y-90230369D01*
X131294948Y-90227434D01*
X131387982Y-90228804D01*
X131462673Y-90235499D01*
X131524824Y-90248541D01*
X131580239Y-90268952D01*
X131634722Y-90297752D01*
X131663880Y-90315910D01*
X131736047Y-90371582D01*
X131785978Y-90433135D01*
X131814802Y-90504597D01*
X131823647Y-90589992D01*
X131813641Y-90693346D01*
X131794874Y-90783304D01*
X131751774Y-90919535D01*
X131693890Y-91031726D01*
X131619598Y-91122940D01*
X131609721Y-91132417D01*
X131521616Y-91203701D01*
X131425334Y-91258419D01*
X131315684Y-91298481D01*
X131187478Y-91325800D01*
X131041073Y-91341889D01*
X130864763Y-91361569D01*
X130692911Y-91393749D01*
X130531636Y-91436767D01*
X130387058Y-91488963D01*
X130265298Y-91548678D01*
X130253914Y-91555421D01*
X130174822Y-91603193D01*
X130091963Y-91603193D01*
X130091963Y-91211491D01*
X130177286Y-91211491D01*
X130178235Y-91283120D01*
X130180310Y-91333012D01*
X130183620Y-91363961D01*
X130188274Y-91378763D01*
X130193401Y-91380720D01*
X130215341Y-91372783D01*
X130258559Y-91357946D01*
X130315706Y-91338715D01*
X130350858Y-91327024D01*
X130426069Y-91304518D01*
X130500620Y-91288052D01*
X130584500Y-91275850D01*
X130687695Y-91266135D01*
X130697359Y-91265391D01*
X130836464Y-91254623D01*
X130949312Y-91245291D01*
X131039710Y-91236870D01*
X131111468Y-91228835D01*
X131168393Y-91220664D01*
X131214295Y-91211831D01*
X131252983Y-91201812D01*
X131288264Y-91190084D01*
X131312632Y-91180713D01*
X131421460Y-91121332D01*
X131516446Y-91037512D01*
X131594530Y-90932946D01*
X131652653Y-90811331D01*
X131673318Y-90745114D01*
X131694122Y-90640245D01*
X131696136Y-90552895D01*
X131677908Y-90481702D01*
X131637983Y-90425303D01*
X131574909Y-90382339D01*
X131487231Y-90351448D01*
X131373498Y-90331268D01*
X131232254Y-90320438D01*
X131219379Y-90319922D01*
X131030937Y-90320516D01*
X130857137Y-90338464D01*
X130689972Y-90375550D01*
X130521438Y-90433558D01*
X130343527Y-90514272D01*
X130340540Y-90515768D01*
X130182355Y-90595100D01*
X130178335Y-90991846D01*
X130177356Y-91115332D01*
X130177286Y-91211491D01*
X130091963Y-91211491D01*
X130091963Y-91175000D01*
X130091963Y-90364647D01*
X130091963Y-89540421D01*
X130127089Y-89427432D01*
X130190631Y-89269812D01*
X130277235Y-89127504D01*
X130384194Y-89003111D01*
X130508800Y-88899241D01*
X130648347Y-88818497D01*
X130800129Y-88763487D01*
X130822627Y-88757887D01*
X130841573Y-88754168D01*
X130866088Y-88750863D01*
X130897906Y-88747948D01*
X130938763Y-88745400D01*
X130990391Y-88743196D01*
X131054525Y-88741311D01*
X131132900Y-88739723D01*
X131227249Y-88738407D01*
X131339307Y-88737342D01*
X131470807Y-88736502D01*
X131623484Y-88735866D01*
X131799072Y-88735408D01*
X131999305Y-88735107D01*
X132225916Y-88734937D01*
X132480642Y-88734877D01*
X132525000Y-88734876D01*
X132787793Y-88734853D01*
X133022262Y-88734852D01*
X133230216Y-88734972D01*
G37*
G36*
X130373360Y-92956106D02*
G01*
X130402393Y-92980783D01*
X130413082Y-93029276D01*
X130409501Y-93078219D01*
X130399135Y-93126202D01*
X130387381Y-93145901D01*
X130375399Y-93136708D01*
X130365021Y-93101468D01*
X130357018Y-93045462D01*
X130355910Y-92997901D01*
X130361295Y-92965740D01*
X130372776Y-92955934D01*
X130373360Y-92956106D01*
G37*
G36*
X130321597Y-92827528D02*
G01*
X130329803Y-92865886D01*
X130326971Y-92910784D01*
X130315404Y-92962937D01*
X130300915Y-93017218D01*
X130291512Y-93045731D01*
X130284935Y-93051927D01*
X130278923Y-93039261D01*
X130274865Y-93024856D01*
X130266563Y-92962354D01*
X130269562Y-92892473D01*
X130282948Y-92831981D01*
X130285766Y-92824822D01*
X130304960Y-92779805D01*
X130321597Y-92827528D01*
G37*
G36*
X134616828Y-92814097D02*
G01*
X134618838Y-92817111D01*
X134630024Y-92852489D01*
X134633449Y-92903300D01*
X134629471Y-92955959D01*
X134618451Y-92996885D01*
X134613876Y-93004775D01*
X134598223Y-93022770D01*
X134589556Y-93015198D01*
X134583951Y-92996356D01*
X134576138Y-92947332D01*
X134574936Y-92892492D01*
X134579987Y-92844186D01*
X134589169Y-92817111D01*
X134603350Y-92802088D01*
X134616828Y-92814097D01*
G37*
G36*
X134693723Y-92673182D02*
G01*
X134711273Y-92710548D01*
X134719986Y-92761492D01*
X134718967Y-92812624D01*
X134707323Y-92850553D01*
X134705712Y-92852877D01*
X134690154Y-92870236D01*
X134679778Y-92864984D01*
X134668278Y-92837812D01*
X134649993Y-92786175D01*
X134642393Y-92752008D01*
X134644498Y-92725001D01*
X134654803Y-92696088D01*
X134669471Y-92666459D01*
X134681453Y-92661609D01*
X134693723Y-92673182D01*
G37*
G36*
X134773715Y-92463218D02*
G01*
X134782921Y-92495533D01*
X134786676Y-92541665D01*
X134785121Y-92589608D01*
X134778399Y-92627356D01*
X134771616Y-92640459D01*
X134754530Y-92641220D01*
X134740986Y-92623871D01*
X134726082Y-92577346D01*
X134730657Y-92523242D01*
X134741714Y-92486059D01*
X134754249Y-92455185D01*
X134763890Y-92449878D01*
X134773715Y-92463218D01*
G37*
G36*
X130488133Y-92483099D02*
G01*
X130471998Y-92524634D01*
X130465804Y-92537893D01*
X130444463Y-92571186D01*
X130422314Y-92589778D01*
X130405745Y-92590060D01*
X130400801Y-92574626D01*
X130409494Y-92546116D01*
X130430121Y-92509535D01*
X130454500Y-92477670D01*
X130471563Y-92464023D01*
X130487924Y-92463709D01*
X130488133Y-92483099D01*
G37*
G36*
X130425863Y-92359446D02*
G01*
X130426319Y-92394615D01*
X130415425Y-92441816D01*
X130394716Y-92491522D01*
X130373892Y-92519337D01*
X130355754Y-92522549D01*
X130346209Y-92508850D01*
X130344793Y-92476304D01*
X130354530Y-92430677D01*
X130371435Y-92384941D01*
X130391521Y-92352068D01*
X130395572Y-92348176D01*
X130415215Y-92342084D01*
X130425863Y-92359446D01*
G37*
G36*
X130370035Y-92167502D02*
G01*
X130375628Y-92201823D01*
X130373850Y-92249009D01*
X130364622Y-92300867D01*
X130358743Y-92321342D01*
X130337060Y-92376042D01*
X130316864Y-92403600D01*
X130299225Y-92403013D01*
X130289364Y-92386366D01*
X130285574Y-92352640D01*
X130291088Y-92305512D01*
X130303404Y-92253548D01*
X130320022Y-92205314D01*
X130338439Y-92169374D01*
X130356154Y-92154295D01*
X130357148Y-92154241D01*
X130370035Y-92167502D01*
G37*
G36*
X131997857Y-92136621D02*
G01*
X132016099Y-92166838D01*
X132032706Y-92203791D01*
X132042242Y-92236508D01*
X132042912Y-92244148D01*
X132035890Y-92259778D01*
X132018817Y-92253212D01*
X131997687Y-92227759D01*
X131990571Y-92215250D01*
X131972050Y-92169534D01*
X131969051Y-92137267D01*
X131982022Y-92124163D01*
X131983420Y-92124110D01*
X131997857Y-92136621D01*
G37*
G36*
X131898957Y-92077343D02*
G01*
X131921359Y-92120534D01*
X131925577Y-92131643D01*
X131944390Y-92190999D01*
X131948489Y-92224146D01*
X131937888Y-92231049D01*
X131912606Y-92211676D01*
X131895170Y-92192931D01*
X131860219Y-92144150D01*
X131849516Y-92103305D01*
X131849974Y-92096247D01*
X131860065Y-92063702D01*
X131877459Y-92057899D01*
X131898957Y-92077343D01*
G37*
G36*
X132115805Y-92196863D02*
G01*
X132131244Y-92224642D01*
X132133304Y-92238332D01*
X132121867Y-92244395D01*
X132098980Y-92242209D01*
X132083086Y-92234589D01*
X132073031Y-92210840D01*
X132080750Y-92189659D01*
X132094029Y-92184371D01*
X132115805Y-92196863D01*
G37*
G36*
X130306970Y-91956519D02*
G01*
X130315306Y-91985641D01*
X130318965Y-92032698D01*
X130317322Y-92091688D01*
X130313365Y-92131643D01*
X130301909Y-92222034D01*
X130291260Y-92161773D01*
X130283677Y-92102503D01*
X130280870Y-92043541D01*
X130282708Y-91993167D01*
X130289060Y-91959664D01*
X130294583Y-91951330D01*
X130306970Y-91956519D01*
G37*
G36*
X133589355Y-91857702D02*
G01*
X133584322Y-91871877D01*
X133560042Y-91898169D01*
X133522001Y-91931488D01*
X133475686Y-91966744D01*
X133460464Y-91977299D01*
X133412258Y-92004359D01*
X133351684Y-92030526D01*
X133286156Y-92053549D01*
X133223090Y-92071172D01*
X133169903Y-92081144D01*
X133134010Y-92081211D01*
X133127088Y-92078592D01*
X133119848Y-92067907D01*
X133132797Y-92055069D01*
X133168746Y-92038507D01*
X133230506Y-92016646D01*
X133248132Y-92010874D01*
X133302676Y-91990950D01*
X133367198Y-91964068D01*
X133433606Y-91933995D01*
X133493807Y-91904495D01*
X133539708Y-91879334D01*
X133559177Y-91866169D01*
X133581095Y-91855604D01*
X133589355Y-91857702D01*
G37*
G36*
X132509409Y-90927478D02*
G01*
X132609886Y-90933776D01*
X132709412Y-90943352D01*
X132800342Y-90955664D01*
X132875028Y-90970172D01*
X132903294Y-90977892D01*
X132975468Y-91007940D01*
X133039121Y-91051856D01*
X133097989Y-91113548D01*
X133155810Y-91196922D01*
X133215523Y-91304332D01*
X133299419Y-91443962D01*
X133394669Y-91559299D01*
X133499273Y-91647953D01*
X133507730Y-91653652D01*
X133565016Y-91691562D01*
X133628786Y-91663056D01*
X133676479Y-91637025D01*
X133717625Y-91606878D01*
X133726587Y-91598278D01*
X133750133Y-91576328D01*
X133772339Y-91569486D01*
X133805669Y-91575548D01*
X133824511Y-91580976D01*
X133878216Y-91598335D01*
X133929523Y-91617063D01*
X133938136Y-91620536D01*
X133970247Y-91636431D01*
X133978892Y-91651956D01*
X133971068Y-91672517D01*
X133955991Y-91691315D01*
X133931202Y-91699888D01*
X133887533Y-91700940D01*
X133876141Y-91700503D01*
X133827954Y-91701558D01*
X133781723Y-91711202D01*
X133726893Y-91732266D01*
X133685024Y-91751783D01*
X133592605Y-91794663D01*
X133514907Y-91825449D01*
X133440839Y-91847592D01*
X133359310Y-91864544D01*
X133285795Y-91876043D01*
X133125965Y-91893347D01*
X132987352Y-91895990D01*
X132864812Y-91883899D01*
X132795245Y-91869126D01*
X132699487Y-91844919D01*
X132625722Y-91828607D01*
X132566936Y-91819938D01*
X132516113Y-91818661D01*
X132466238Y-91824524D01*
X132410296Y-91837276D01*
X132352948Y-91853283D01*
X132167310Y-91891290D01*
X131974464Y-91900308D01*
X131775447Y-91880328D01*
X131672325Y-91859071D01*
X131602746Y-91841872D01*
X131541099Y-91825851D01*
X131495116Y-91813061D01*
X131475271Y-91806715D01*
X131448587Y-91800794D01*
X131440367Y-91813172D01*
X131440302Y-91815646D01*
X131452992Y-91833597D01*
X131472045Y-91837871D01*
X131495225Y-91844644D01*
X131495283Y-91860032D01*
X131493452Y-91876648D01*
X131503104Y-91895553D01*
X131527764Y-91920350D01*
X131570956Y-91954640D01*
X131629717Y-91997401D01*
X131687543Y-92040197D01*
X131720145Y-92067883D01*
X131727508Y-92080184D01*
X131709614Y-92076825D01*
X131666446Y-92057528D01*
X131632384Y-92040261D01*
X131593068Y-92022337D01*
X131567076Y-92015361D01*
X131560824Y-92018365D01*
X131553750Y-92033935D01*
X131537626Y-92028410D01*
X131520103Y-92005774D01*
X131515046Y-91994524D01*
X131496192Y-91965976D01*
X131477910Y-91963862D01*
X131457816Y-91959357D01*
X131445906Y-91931497D01*
X131434166Y-91890582D01*
X131422736Y-91876204D01*
X131407684Y-91885071D01*
X131400506Y-91893464D01*
X131387164Y-91907682D01*
X131382775Y-91901591D01*
X131385616Y-91870966D01*
X131387047Y-91860468D01*
X131389741Y-91818124D01*
X131386016Y-91787825D01*
X131383968Y-91783478D01*
X131360153Y-91763128D01*
X131321084Y-91740760D01*
X131291249Y-91727961D01*
X131541489Y-91727961D01*
X131660379Y-91759392D01*
X131721444Y-91775233D01*
X131775459Y-91788712D01*
X131812418Y-91797344D01*
X131816933Y-91798280D01*
X131848977Y-91800783D01*
X131907532Y-91801388D01*
X131989044Y-91800197D01*
X132089960Y-91797308D01*
X132206726Y-91792824D01*
X132335789Y-91786843D01*
X132464739Y-91779971D01*
X132596737Y-91775384D01*
X132706904Y-91778190D01*
X132796174Y-91787568D01*
X132991318Y-91804337D01*
X133177034Y-91794255D01*
X133358306Y-91756930D01*
X133417696Y-91738669D01*
X133489983Y-91714659D01*
X133432184Y-91672790D01*
X133356072Y-91606380D01*
X133283922Y-91519249D01*
X133213179Y-91407985D01*
X133162114Y-91311881D01*
X133116619Y-91222911D01*
X133079412Y-91156875D01*
X133046723Y-91109097D01*
X133014781Y-91074898D01*
X132979815Y-91049602D01*
X132938055Y-91028530D01*
X132931335Y-91025600D01*
X132893525Y-91011668D01*
X132850115Y-91001161D01*
X132794950Y-90993187D01*
X132721874Y-90986852D01*
X132626379Y-90981345D01*
X132497062Y-90976379D01*
X132392879Y-90976445D01*
X132309097Y-90982582D01*
X132240987Y-90995826D01*
X132183817Y-91017215D01*
X132132857Y-91047787D01*
X132083374Y-91088578D01*
X132067054Y-91103983D01*
X132016713Y-91162629D01*
X131984804Y-91227989D01*
X131976574Y-91253991D01*
X131946552Y-91324365D01*
X131896629Y-91404336D01*
X131832406Y-91487447D01*
X131759482Y-91567246D01*
X131683456Y-91637276D01*
X131609929Y-91691084D01*
X131585053Y-91705290D01*
X131541489Y-91727961D01*
X131291249Y-91727961D01*
X131280289Y-91723259D01*
X131253990Y-91717349D01*
X131230938Y-91708194D01*
X131226609Y-91701475D01*
X131209407Y-91693139D01*
X131184002Y-91699406D01*
X131137808Y-91706218D01*
X131096570Y-91695436D01*
X131069426Y-91670867D01*
X131063671Y-91649289D01*
X131066838Y-91630411D01*
X131080446Y-91616765D01*
X131110653Y-91604954D01*
X131163619Y-91591585D01*
X131171715Y-91589733D01*
X131279760Y-91565159D01*
X131311069Y-91602171D01*
X131368260Y-91648856D01*
X131436311Y-91668150D01*
X131512919Y-91659771D01*
X131575132Y-91634881D01*
X131617625Y-91604987D01*
X131670721Y-91556123D01*
X131728820Y-91494722D01*
X131786319Y-91427215D01*
X131837616Y-91360035D01*
X131877109Y-91299613D01*
X131891998Y-91271086D01*
X131959755Y-91152140D01*
X132043990Y-91056123D01*
X132142779Y-90984712D01*
X132254197Y-90939587D01*
X132278739Y-90933667D01*
X132336189Y-90926883D01*
X132415628Y-90925000D01*
X132509409Y-90927478D01*
G37*
G36*
X134530926Y-90052778D02*
G01*
X134570528Y-90068187D01*
X134616716Y-90092915D01*
X134662681Y-90122572D01*
X134701615Y-90152769D01*
X134726706Y-90179118D01*
X134731241Y-90197082D01*
X134717450Y-90208000D01*
X134693987Y-90205395D01*
X134655901Y-90187705D01*
X134604003Y-90156961D01*
X134558287Y-90130262D01*
X134521171Y-90111635D01*
X134502313Y-90105430D01*
X134486196Y-90094942D01*
X134485513Y-90072992D01*
X134499645Y-90053615D01*
X134504720Y-90051076D01*
X134530926Y-90052778D01*
G37*
G36*
X130405587Y-90063505D02*
G01*
X130421514Y-90068535D01*
X130416434Y-90077988D01*
X130387533Y-90095419D01*
X130375037Y-90102083D01*
X130323255Y-90126812D01*
X130292855Y-90134507D01*
X130280789Y-90125770D01*
X130280279Y-90120820D01*
X130293208Y-90102661D01*
X130324642Y-90083600D01*
X130363547Y-90068683D01*
X130398890Y-90062956D01*
X130405587Y-90063505D01*
G37*
G36*
X134488571Y-89961840D02*
G01*
X134529313Y-89976019D01*
X134566069Y-89995580D01*
X134588166Y-90015495D01*
X134590500Y-90022132D01*
X134586603Y-90034762D01*
X134569655Y-90037898D01*
X134534236Y-90031342D01*
X134486762Y-90018350D01*
X134438849Y-90000354D01*
X134416040Y-89982770D01*
X134419631Y-89968016D01*
X134450916Y-89958514D01*
X134454513Y-89958069D01*
X134488571Y-89961840D01*
G37*
G36*
X131621085Y-89289323D02*
G01*
X131607728Y-89300608D01*
X131574119Y-89311383D01*
X131557058Y-89314709D01*
X131505274Y-89327683D01*
X131433063Y-89352004D01*
X131346715Y-89385094D01*
X131252521Y-89424374D01*
X131156773Y-89467267D01*
X131065763Y-89511192D01*
X131020385Y-89534657D01*
X130866069Y-89622424D01*
X130730633Y-89712644D01*
X130603261Y-89812875D01*
X130530187Y-89877325D01*
X130470776Y-89931202D01*
X130429377Y-89967249D01*
X130401997Y-89988219D01*
X130384643Y-89996862D01*
X130373324Y-89995933D01*
X130366178Y-89990397D01*
X130362692Y-89977207D01*
X130372146Y-89954388D01*
X130396510Y-89919170D01*
X130437757Y-89868780D01*
X130497858Y-89800450D01*
X130514291Y-89782197D01*
X130575835Y-89717432D01*
X130643734Y-89651384D01*
X130708660Y-89592878D01*
X130750235Y-89558922D01*
X130800866Y-89522560D01*
X130842127Y-89495225D01*
X130913019Y-89495225D01*
X130920551Y-89502758D01*
X130928084Y-89495225D01*
X130920551Y-89487693D01*
X130913019Y-89495225D01*
X130842127Y-89495225D01*
X130861250Y-89482556D01*
X130925393Y-89442476D01*
X130987305Y-89405884D01*
X131040994Y-89376343D01*
X131080467Y-89357417D01*
X131097568Y-89352317D01*
X131110248Y-89358584D01*
X131101988Y-89373765D01*
X131077542Y-89391036D01*
X131067254Y-89395817D01*
X131026960Y-89417653D01*
X130984386Y-89447830D01*
X130980629Y-89450935D01*
X130960945Y-89468396D01*
X130958353Y-89474448D01*
X130975712Y-89468462D01*
X131015879Y-89449811D01*
X131041073Y-89437644D01*
X131212244Y-89366525D01*
X131384076Y-89317865D01*
X131440302Y-89307125D01*
X131498397Y-89297267D01*
X131550282Y-89288112D01*
X131579656Y-89282620D01*
X131609412Y-89281251D01*
X131621085Y-89289323D01*
G37*
G36*
X133329356Y-89260214D02*
G01*
X133391992Y-89264803D01*
X133447486Y-89274959D01*
X133507284Y-89292262D01*
X133523441Y-89297618D01*
X133638461Y-89341945D01*
X133769568Y-89402188D01*
X133909705Y-89474974D01*
X133992764Y-89521854D01*
X134041898Y-89553911D01*
X134097633Y-89595882D01*
X134156377Y-89644326D01*
X134214537Y-89695799D01*
X134268520Y-89746860D01*
X134314733Y-89794066D01*
X134349585Y-89833974D01*
X134369480Y-89863142D01*
X134370828Y-89878128D01*
X134365916Y-89879389D01*
X134346680Y-89870993D01*
X134314266Y-89849948D01*
X134301358Y-89840475D01*
X134114391Y-89703792D01*
X133941450Y-89587403D01*
X133783936Y-89492180D01*
X133643250Y-89418990D01*
X133573428Y-89388393D01*
X133452738Y-89348736D01*
X133328976Y-89327537D01*
X133195644Y-89324351D01*
X133046243Y-89338732D01*
X132987325Y-89348114D01*
X132907769Y-89360252D01*
X132852053Y-89365228D01*
X132821427Y-89363234D01*
X132817141Y-89354461D01*
X132840445Y-89339101D01*
X132862815Y-89329018D01*
X132987150Y-89288452D01*
X133125732Y-89265715D01*
X133248132Y-89259613D01*
X133329356Y-89260214D01*
G37*
G36*
X131948082Y-89296543D02*
G01*
X132015785Y-89300477D01*
X132065235Y-89308046D01*
X132090449Y-89318290D01*
X132099673Y-89332900D01*
X132094887Y-89335134D01*
X132073660Y-89332428D01*
X132031494Y-89327127D01*
X131977351Y-89320360D01*
X131975118Y-89320082D01*
X131903712Y-89310536D01*
X131862268Y-89303406D01*
X131850722Y-89298633D01*
X131869009Y-89296162D01*
X131917061Y-89295936D01*
X131948082Y-89296543D01*
G37*
G36*
X131249030Y-90454408D02*
G01*
X131252267Y-90454611D01*
X131308853Y-90460008D01*
X131346936Y-90470295D01*
X131378144Y-90489932D01*
X131402945Y-90512425D01*
X131446168Y-90569768D01*
X131479916Y-90643371D01*
X131498576Y-90719614D01*
X131500563Y-90749308D01*
X131494233Y-90782269D01*
X131477894Y-90829833D01*
X131461802Y-90867104D01*
X131412916Y-90942337D01*
X131347133Y-90994593D01*
X131261945Y-91025448D01*
X131194893Y-91034780D01*
X131139079Y-91037080D01*
X131100835Y-91032179D01*
X131067959Y-91017497D01*
X131046379Y-91003370D01*
X131001623Y-90964207D01*
X130961960Y-90916897D01*
X130956379Y-90908388D01*
X130930594Y-90840465D01*
X130924967Y-90760105D01*
X130937843Y-90675656D01*
X130967568Y-90595468D01*
X131012488Y-90527889D01*
X131036405Y-90504498D01*
X131077287Y-90475404D01*
X131120355Y-90458744D01*
X131174605Y-90452438D01*
X131249030Y-90454408D01*
G37*
G36*
X133934363Y-90434652D02*
G01*
X133985424Y-90463983D01*
X134000893Y-90476357D01*
X134060730Y-90546181D01*
X134100065Y-90636844D01*
X134116542Y-90727434D01*
X134120027Y-90781222D01*
X134116410Y-90817655D01*
X134102627Y-90849238D01*
X134077798Y-90885492D01*
X134015243Y-90953607D01*
X133945522Y-90994389D01*
X133865471Y-91008753D01*
X133771930Y-90997615D01*
X133729864Y-90986174D01*
X133648546Y-90948221D01*
X133591376Y-90892436D01*
X133558903Y-90819717D01*
X133551677Y-90730965D01*
X133554796Y-90699253D01*
X133580302Y-90603765D01*
X133626606Y-90525378D01*
X133690723Y-90467358D01*
X133769668Y-90432968D01*
X133804198Y-90426622D01*
X133877587Y-90423117D01*
X133934363Y-90434652D01*
G37*
G36*
X132602440Y-91027188D02*
G01*
X132707013Y-91034967D01*
X132800947Y-91047769D01*
X132878123Y-91065113D01*
X132932422Y-91086518D01*
X132938287Y-91090096D01*
X132979287Y-91133321D01*
X133007760Y-91195830D01*
X133022496Y-91268982D01*
X133022282Y-91344134D01*
X133005905Y-91412645D01*
X132988256Y-91446327D01*
X132957233Y-91487288D01*
X132924868Y-91516548D01*
X132884815Y-91536797D01*
X132830729Y-91550721D01*
X132756262Y-91561009D01*
X132705783Y-91565959D01*
X132619287Y-91573397D01*
X132552199Y-91577654D01*
X132493968Y-91578754D01*
X132434042Y-91576720D01*
X132361870Y-91571576D01*
X132306524Y-91566850D01*
X132242020Y-91558553D01*
X132183001Y-91546415D01*
X132140983Y-91532872D01*
X132137188Y-91531042D01*
X132086976Y-91489271D01*
X132050033Y-91426517D01*
X132030183Y-91350410D01*
X132027847Y-91313027D01*
X132039334Y-91220423D01*
X132074042Y-91146682D01*
X132103324Y-91118922D01*
X132361592Y-91118922D01*
X132380019Y-91137176D01*
X132426528Y-91150236D01*
X132495146Y-91157392D01*
X132547044Y-91161891D01*
X132584621Y-91168137D01*
X132600251Y-91174832D01*
X132600326Y-91175290D01*
X132612477Y-91181397D01*
X132632998Y-91178701D01*
X132656204Y-91176324D01*
X132657500Y-91190993D01*
X132655378Y-91196974D01*
X132652086Y-91214926D01*
X132666995Y-91217347D01*
X132686734Y-91212833D01*
X132734806Y-91204136D01*
X132773576Y-91201014D01*
X132821810Y-91204166D01*
X132869064Y-91212323D01*
X132902564Y-91218697D01*
X132915040Y-91212486D01*
X132914385Y-91189561D01*
X132914259Y-91188674D01*
X132895314Y-91154032D01*
X132847559Y-91118493D01*
X132841370Y-91114965D01*
X132810677Y-91099090D01*
X132781271Y-91088380D01*
X132746287Y-91081831D01*
X132698860Y-91078440D01*
X132632125Y-91077202D01*
X132582275Y-91077076D01*
X132489397Y-91078360D01*
X132424449Y-91082339D01*
X132385336Y-91089200D01*
X132372115Y-91095907D01*
X132361592Y-91118922D01*
X132103324Y-91118922D01*
X132132343Y-91091411D01*
X132214608Y-91054215D01*
X132286074Y-91038804D01*
X132385852Y-91028626D01*
X132493346Y-91024914D01*
X132602440Y-91027188D01*
G37*
D11*
%TO.C,C6*%
X129519190Y-106746693D02*
X129671693Y-106594190D01*
X130028307Y-107255810D02*
X130180810Y-107103307D01*
%TO.C,C20*%
X150007836Y-93635000D02*
X149792164Y-93635000D01*
X150007836Y-92915000D02*
X149792164Y-92915000D01*
%TO.C,R2*%
X148655000Y-97496359D02*
X148655000Y-97803641D01*
X147895000Y-97496359D02*
X147895000Y-97803641D01*
%TO.C,C25*%
X132265000Y-103957836D02*
X132265000Y-103742164D01*
X132985000Y-103957836D02*
X132985000Y-103742164D01*
%TO.C,R9*%
X129845000Y-95996359D02*
X129845000Y-96303641D01*
X130605000Y-95996359D02*
X130605000Y-96303641D01*
%TO.C,R3*%
X136139940Y-112997659D02*
X135922659Y-113214940D01*
X136677341Y-113535060D02*
X136460060Y-113752341D01*
D13*
%TO.C,U1*%
X140200000Y-103650000D02*
G75*
G02*
X140000000Y-103650000I-100000J0D01*
G01*
X140000000Y-103650000D02*
G75*
G02*
X140200000Y-103650000I100000J0D01*
G01*
D11*
%TO.C,C18*%
X143052164Y-90610000D02*
X143267836Y-90610000D01*
X143052164Y-89890000D02*
X143267836Y-89890000D01*
%TO.C,C27*%
X127357836Y-101215000D02*
X127142164Y-101215000D01*
X127357836Y-101935000D02*
X127142164Y-101935000D01*
%TO.C,R7*%
X138671359Y-107895000D02*
X138978641Y-107895000D01*
X138671359Y-108655000D02*
X138978641Y-108655000D01*
%TO.C,C15*%
X139960000Y-95032836D02*
X139960000Y-94817164D01*
X139240000Y-95032836D02*
X139240000Y-94817164D01*
%TO.C,C23*%
X127357836Y-100090000D02*
X127142164Y-100090000D01*
X127357836Y-100810000D02*
X127142164Y-100810000D01*
%TO.C,C12*%
X140082836Y-104090000D02*
X139867164Y-104090000D01*
X140082836Y-104810000D02*
X139867164Y-104810000D01*
D13*
%TO.C,U5*%
X148225000Y-108460000D02*
X147625000Y-108460000D01*
X148225000Y-105540000D02*
X148225000Y-108460000D01*
X147625000Y-108460000D02*
X147625000Y-105540000D01*
X147625000Y-105540000D02*
X148225000Y-105540000D01*
X146075000Y-105425000D02*
X147275000Y-105425000D01*
D11*
%TO.C,C24*%
X127357836Y-98940000D02*
X127142164Y-98940000D01*
X127357836Y-99660000D02*
X127142164Y-99660000D01*
D15*
%TO.C,Y1*%
X137550000Y-106175000D02*
X137550000Y-106175000D01*
X137550000Y-106275000D02*
X137550000Y-106275000D01*
X138800000Y-105625000D02*
X139000000Y-105625000D01*
X138800000Y-106825000D02*
X139000000Y-106825000D01*
X137550000Y-106175000D02*
G75*
G02*
X137550000Y-106275000I0J-50000D01*
G01*
X137550000Y-106275000D02*
G75*
G02*
X137550000Y-106175000I0J50000D01*
G01*
D11*
%TO.C,R10*%
X128745000Y-96303641D02*
X128745000Y-95996359D01*
X129505000Y-96303641D02*
X129505000Y-95996359D01*
D13*
%TO.C,D3*%
X151700000Y-108000000D02*
X153400000Y-108000000D01*
X150850000Y-106700000D02*
X153400000Y-106700000D01*
D11*
%TO.C,C5*%
X145717164Y-104065000D02*
X145932836Y-104065000D01*
X145717164Y-104785000D02*
X145932836Y-104785000D01*
%TO.C,C4*%
X148692164Y-100515000D02*
X148907836Y-100515000D01*
X148692164Y-101235000D02*
X148907836Y-101235000D01*
%TO.C,C14*%
X136035000Y-95032836D02*
X136035000Y-94817164D01*
X135315000Y-95032836D02*
X135315000Y-94817164D01*
%TO.C,C26*%
X130015000Y-103742164D02*
X130015000Y-103957836D01*
X130735000Y-103742164D02*
X130735000Y-103957836D01*
%TO.C,R6*%
X157921359Y-94005000D02*
X158228641Y-94005000D01*
X157921359Y-93245000D02*
X158228641Y-93245000D01*
%TO.C,C16*%
X143072164Y-96495000D02*
X143287836Y-96495000D01*
X143072164Y-95775000D02*
X143287836Y-95775000D01*
%TO.C,C19*%
X143047164Y-87685000D02*
X143262836Y-87685000D01*
X143047164Y-86965000D02*
X143262836Y-86965000D01*
D13*
%TO.C,U4*%
X149143340Y-96560000D02*
G75*
G02*
X149116660Y-96560000I-13340J0D01*
G01*
X149116660Y-96560000D02*
G75*
G02*
X149143340Y-96560000I13340J0D01*
G01*
D15*
X151070000Y-96320000D02*
X148730000Y-96320000D01*
X151070000Y-96300000D02*
X151070000Y-93980000D01*
X151070000Y-93980000D02*
X148730000Y-93980000D01*
X148730000Y-96320000D02*
X148730000Y-93980000D01*
D11*
%TO.C,C8*%
X140815000Y-106217164D02*
X140815000Y-106432836D01*
X141535000Y-106217164D02*
X141535000Y-106432836D01*
%TO.C,C11*%
X135390000Y-101607836D02*
X135390000Y-101392164D01*
X136110000Y-101607836D02*
X136110000Y-101392164D01*
D12*
%TO.C,U2*%
X134859117Y-113578499D02*
G75*
G02*
X134609117Y-113578499I-125000J0D01*
G01*
X134609117Y-113578499D02*
G75*
G02*
X134859117Y-113578499I125000J0D01*
G01*
D11*
%TO.C,R4*%
X158228641Y-96205000D02*
X157921359Y-96205000D01*
X158228641Y-95445000D02*
X157921359Y-95445000D01*
%TO.C,R8*%
X134145000Y-98228641D02*
X134145000Y-97921359D01*
X134905000Y-98228641D02*
X134905000Y-97921359D01*
%TO.C,C29*%
X151032836Y-98840000D02*
X150817164Y-98840000D01*
X151032836Y-99560000D02*
X150817164Y-99560000D01*
%TO.C,R5*%
X157921359Y-95130000D02*
X158228641Y-95130000D01*
X157921359Y-94370000D02*
X158228641Y-94370000D01*
%TO.C,C10*%
X137382836Y-100690000D02*
X137167164Y-100690000D01*
X137382836Y-101410000D02*
X137167164Y-101410000D01*
%TO.C,L1*%
X136640000Y-103287221D02*
X136640000Y-103612779D01*
X137660000Y-103287221D02*
X137660000Y-103612779D01*
%TO.C,C9*%
X136290000Y-106407836D02*
X136290000Y-106192164D01*
X137010000Y-106407836D02*
X137010000Y-106192164D01*
%TO.C,C17*%
X143052164Y-93595000D02*
X143267836Y-93595000D01*
X143052164Y-92875000D02*
X143267836Y-92875000D01*
%TO.C,C13*%
X141010000Y-95032836D02*
X141010000Y-94817164D01*
X140290000Y-95032836D02*
X140290000Y-94817164D01*
D13*
%TO.C,U7*%
X156410000Y-111628000D02*
X151330000Y-111628000D01*
X156410000Y-109088000D02*
X156410000Y-111628000D01*
X152600000Y-109088000D02*
X156410000Y-109088000D01*
X151330000Y-111628000D02*
X151330000Y-110358000D01*
%TO.C,D2*%
X151150000Y-113675000D02*
X153850000Y-113675000D01*
X150380000Y-112025000D02*
X153850000Y-112025000D01*
%TO.C,IC3*%
X150525000Y-98450000D02*
X150025000Y-98450000D01*
X150525000Y-96850000D02*
X150525000Y-98450000D01*
X150025000Y-98450000D02*
X150025000Y-96850000D01*
X150025000Y-96850000D02*
X150525000Y-96850000D01*
X149200000Y-96750000D02*
X149675000Y-96750000D01*
D11*
%TO.C,C2*%
X138390000Y-97357836D02*
X138390000Y-97142164D01*
X139110000Y-97357836D02*
X139110000Y-97142164D01*
D13*
%TO.C,D1*%
X159145000Y-97525000D02*
X157475000Y-97525000D01*
X158675000Y-96725000D02*
X157475000Y-96725000D01*
D11*
%TO.C,R1*%
X152555000Y-97496359D02*
X152555000Y-97803641D01*
X151795000Y-97496359D02*
X151795000Y-97803641D01*
%TO.C,C3*%
X146067164Y-96435000D02*
X146282836Y-96435000D01*
X146067164Y-95715000D02*
X146282836Y-95715000D01*
%TO.C,C1*%
X138165000Y-103242164D02*
X138165000Y-103457836D01*
X138885000Y-103242164D02*
X138885000Y-103457836D01*
%TO.C,C21*%
X144882836Y-108435000D02*
X144667164Y-108435000D01*
X144882836Y-107715000D02*
X144667164Y-107715000D01*
D16*
%TO.C,E1*%
X140262500Y-79850000D02*
X146662500Y-79850000D01*
X140262500Y-82050000D02*
X146662500Y-82050000D01*
D13*
X137762500Y-80850000D02*
G75*
G02*
X137562500Y-80850000I-100000J0D01*
G01*
X137562500Y-80850000D02*
G75*
G02*
X137762500Y-80850000I100000J0D01*
G01*
%TD*%
M02*
