%TF.GenerationSoftware,KiCad,Pcbnew,8.0.3*%
%TF.CreationDate,2024-08-05T21:53:05-05:00*%
%TF.ProjectId,GeckoSmartWatch_V4_1,4765636b-6f53-46d6-9172-745761746368,rev?*%
%TF.SameCoordinates,Original*%
%TF.FileFunction,Copper,L3,Inr*%
%TF.FilePolarity,Positive*%
%FSLAX46Y46*%
G04 Gerber Fmt 4.6, Leading zero omitted, Abs format (unit mm)*
G04 Created by KiCad (PCBNEW 8.0.3) date 2024-08-05 21:53:05*
%MOMM*%
%LPD*%
G01*
G04 APERTURE LIST*
%TA.AperFunction,ComponentPad*%
%ADD10C,1.100000*%
%TD*%
%TA.AperFunction,ComponentPad*%
%ADD11R,1.100000X1.100000*%
%TD*%
%TA.AperFunction,ViaPad*%
%ADD12C,0.450000*%
%TD*%
%TA.AperFunction,Conductor*%
%ADD13C,0.300000*%
%TD*%
%TA.AperFunction,Conductor*%
%ADD14C,1.000000*%
%TD*%
%TA.AperFunction,Conductor*%
%ADD15C,0.150000*%
%TD*%
G04 APERTURE END LIST*
D10*
%TO.N,GND*%
%TO.C,U7*%
X155140000Y-110358000D03*
D11*
%TO.N,Net-(D2-A)*%
X152600000Y-110358000D03*
%TD*%
D12*
%TO.N,GND*%
X156825000Y-93600000D03*
X134900000Y-94925000D03*
X133525000Y-97675000D03*
X141075000Y-87200000D03*
X145865883Y-87090883D03*
%TO.N,+3V0*%
X133275000Y-101850000D03*
X145325000Y-92250000D03*
X154075000Y-99425000D03*
X159750000Y-96350000D03*
X147700000Y-100900000D03*
X129925000Y-108000000D03*
X148637500Y-93350000D03*
X132075000Y-104950000D03*
X145675000Y-95200000D03*
X150639247Y-96595000D03*
X133475000Y-102625000D03*
X137625000Y-113000000D03*
X137575000Y-108000000D03*
X151608147Y-94400000D03*
X139475000Y-103075000D03*
X151742500Y-98592500D03*
X145725000Y-103600000D03*
X139675000Y-97300000D03*
X145500000Y-108900000D03*
X147672106Y-98575001D03*
%TO.N,GND*%
X130550000Y-107450000D03*
X150675000Y-98450000D03*
X138750000Y-104525000D03*
X141625000Y-101575000D03*
X146525000Y-103550000D03*
X145350000Y-90900000D03*
X144150000Y-108850000D03*
X143650000Y-95275000D03*
X144165000Y-101575000D03*
X149975000Y-100875000D03*
X129325000Y-94600000D03*
X140900000Y-107575000D03*
X144425000Y-93225000D03*
X144636052Y-89700701D03*
X148475000Y-96050000D03*
X151375000Y-106425000D03*
X152150000Y-89825000D03*
X136700000Y-109100000D03*
X140125000Y-93775000D03*
X130500000Y-99125000D03*
X144925587Y-87199413D03*
X126770000Y-101025000D03*
X156725000Y-89400000D03*
X149900000Y-95200000D03*
X136250000Y-100250000D03*
X136900000Y-107550000D03*
X126770000Y-99825000D03*
X138650000Y-112350000D03*
X132025000Y-100625000D03*
X156350000Y-101300000D03*
X137950000Y-96850000D03*
X144165000Y-99035000D03*
X146655000Y-95255000D03*
X141625000Y-99035000D03*
%TO.N,/Power/VSYS*%
X134125000Y-99550000D03*
X131525000Y-97025000D03*
X128267702Y-100225000D03*
%TO.N,Net-(SW1-B)*%
X130225000Y-94850000D03*
X150525000Y-86925000D03*
X153875000Y-86950000D03*
X127575000Y-97550000D03*
X151325000Y-86975000D03*
X153075000Y-86925000D03*
X126900000Y-98275000D03*
X127713000Y-98350000D03*
%TO.N,VBUS*%
X128150000Y-103625000D03*
X128225000Y-102825000D03*
X149000000Y-111500000D03*
X150275000Y-111500000D03*
X127350000Y-102825000D03*
X149675000Y-112075000D03*
%TO.N,Net-(D1-A)*%
X157775000Y-98100000D03*
%TO.N,SCL*%
X150025000Y-91275000D03*
%TO.N,FUEL_ALERT*%
X149475000Y-90650000D03*
%TO.N,SDA*%
X152950000Y-97800000D03*
X150325000Y-92250000D03*
X149425000Y-99225000D03*
X154375000Y-96375000D03*
%TO.N,USB_RTS*%
X158725000Y-104075000D03*
%TO.N,SWDIO*%
X155483659Y-100625000D03*
%TO.N,SWDCLK*%
X157116339Y-101925000D03*
%TO.N,USB_CTS*%
X154025000Y-103800000D03*
%TO.N,USB_RX*%
X154500000Y-104725000D03*
%TO.N,USB_TX*%
X153425000Y-102875000D03*
%TO.N,SWO*%
X145850000Y-97650000D03*
%TO.N,~{RESET}*%
X151675000Y-101475000D03*
%TO.N,BUZZER*%
X155978203Y-94346797D03*
X154725000Y-97100000D03*
%TO.N,LCD_CS*%
X142394576Y-108725000D03*
X140150000Y-108250000D03*
%TO.N,Net-(U6-NTC)*%
X127800000Y-95175000D03*
%TO.N,LCD_RESET*%
X138650000Y-101150000D03*
X140275000Y-113100000D03*
%TO.N,Net-(U1-DEC4)*%
X141731232Y-95743768D03*
X137158946Y-100316054D03*
%TD*%
D13*
%TO.N,+3V0*%
X145325000Y-94850000D02*
X145675000Y-95200000D01*
X145325000Y-92250000D02*
X145325000Y-94850000D01*
D14*
%TO.N,VBUS*%
X150275000Y-111500000D02*
X150250000Y-111500000D01*
X150250000Y-111500000D02*
X149675000Y-112075000D01*
X149000000Y-111500000D02*
X150275000Y-111500000D01*
X128225000Y-102825000D02*
X135900000Y-110500000D01*
X149675000Y-112075000D02*
X149025000Y-111425000D01*
X148000000Y-110500000D02*
X149000000Y-111500000D01*
X149025000Y-111425000D02*
X135950000Y-111425000D01*
X135900000Y-110500000D02*
X148000000Y-110500000D01*
X135950000Y-111425000D02*
X127350000Y-102825000D01*
D15*
%TO.N,Net-(U1-DEC4)*%
X141731232Y-96218768D02*
X141731232Y-95743768D01*
X137158946Y-100316054D02*
X137633946Y-100316054D01*
X137633946Y-100316054D02*
X141731232Y-96218768D01*
%TD*%
%TA.AperFunction,Conductor*%
%TO.N,+3V0*%
G36*
X156161859Y-88012855D02*
G01*
X156193430Y-88034723D01*
X156196606Y-88037999D01*
X156208527Y-88050297D01*
X156209189Y-88050986D01*
X156246668Y-88090406D01*
X156353354Y-88202617D01*
X156353955Y-88203257D01*
X156466864Y-88324550D01*
X156571201Y-88436635D01*
X156572469Y-88438023D01*
X156609710Y-88479585D01*
X156610131Y-88480058D01*
X156749310Y-88637602D01*
X156749973Y-88638361D01*
X156886912Y-88796879D01*
X156887686Y-88797786D01*
X156908258Y-88822188D01*
X156931310Y-88878865D01*
X156916645Y-88938267D01*
X156869865Y-88977704D01*
X156817080Y-88983780D01*
X156725000Y-88969196D01*
X156591872Y-88990281D01*
X156591870Y-88990282D01*
X156471782Y-89051470D01*
X156376470Y-89146782D01*
X156315282Y-89266870D01*
X156315281Y-89266872D01*
X156294196Y-89399999D01*
X156294196Y-89400000D01*
X156315281Y-89533127D01*
X156315282Y-89533129D01*
X156376470Y-89653217D01*
X156376472Y-89653220D01*
X156471780Y-89748528D01*
X156591874Y-89809719D01*
X156725000Y-89830804D01*
X156858126Y-89809719D01*
X156978220Y-89748528D01*
X157073528Y-89653220D01*
X157134719Y-89533126D01*
X157155804Y-89400000D01*
X157155804Y-89399999D01*
X157157023Y-89392304D01*
X157159969Y-89392770D01*
X157174711Y-89347401D01*
X157224211Y-89311437D01*
X157285397Y-89311437D01*
X157333111Y-89345020D01*
X157394389Y-89424240D01*
X157395154Y-89425241D01*
X157591788Y-89686245D01*
X157593194Y-89688159D01*
X157644797Y-89760186D01*
X157645293Y-89760885D01*
X157762266Y-89927177D01*
X157762930Y-89928133D01*
X157783505Y-89958126D01*
X157870617Y-90085115D01*
X157878326Y-90096352D01*
X157879037Y-90097402D01*
X158059288Y-90367642D01*
X158066894Y-90379044D01*
X158068202Y-90381058D01*
X158104218Y-90438028D01*
X158126473Y-90473231D01*
X158126940Y-90473977D01*
X158238761Y-90654386D01*
X158239328Y-90655311D01*
X158341346Y-90824004D01*
X158341954Y-90825025D01*
X158518443Y-91124986D01*
X158521942Y-91130932D01*
X158523097Y-91132950D01*
X158587409Y-91248410D01*
X158587804Y-91249125D01*
X158686543Y-91429888D01*
X158687002Y-91430738D01*
X158784482Y-91613409D01*
X158784998Y-91614390D01*
X158956689Y-91944989D01*
X158957697Y-91946985D01*
X159034800Y-92104022D01*
X159035146Y-92104733D01*
X159120749Y-92282658D01*
X159121101Y-92283398D01*
X159205458Y-92462514D01*
X159205877Y-92463415D01*
X159367549Y-92815830D01*
X159368404Y-92817746D01*
X159440570Y-92984283D01*
X159440828Y-92984884D01*
X159520308Y-93172196D01*
X159520612Y-93172919D01*
X159598765Y-93361241D01*
X159599129Y-93362131D01*
X159747953Y-93730816D01*
X159748705Y-93732736D01*
X159814265Y-93905426D01*
X159814530Y-93906133D01*
X159886449Y-94100022D01*
X159886722Y-94100768D01*
X159956866Y-94294627D01*
X159957195Y-94295550D01*
X160089959Y-94674149D01*
X160090645Y-94676176D01*
X160148053Y-94851959D01*
X160148299Y-94852721D01*
X160210801Y-95049481D01*
X160211054Y-95050289D01*
X160271664Y-95246906D01*
X160271968Y-95247911D01*
X160385356Y-95630096D01*
X160385992Y-95632335D01*
X160433816Y-95808623D01*
X160434035Y-95809450D01*
X160439981Y-95832161D01*
X160485628Y-96006547D01*
X160485861Y-96007453D01*
X160535347Y-96204062D01*
X160535624Y-96205190D01*
X160626889Y-96586651D01*
X160627457Y-96589173D01*
X160664524Y-96764175D01*
X160664722Y-96765130D01*
X160704245Y-96961236D01*
X160704444Y-96962250D01*
X160741725Y-97157746D01*
X160741957Y-97159010D01*
X160809215Y-97538407D01*
X160809670Y-97541203D01*
X160835385Y-97715069D01*
X160835533Y-97716114D01*
X160862287Y-97911358D01*
X160862432Y-97912461D01*
X160886903Y-98107308D01*
X160887065Y-98108673D01*
X160929300Y-98487423D01*
X160929586Y-98490397D01*
X160943667Y-98664122D01*
X160943750Y-98665211D01*
X160957461Y-98861204D01*
X160957534Y-98862346D01*
X160968944Y-99057877D01*
X160969016Y-99059276D01*
X160985850Y-99440444D01*
X160985936Y-99443440D01*
X160988369Y-99618967D01*
X160988379Y-99620039D01*
X160988980Y-99818286D01*
X160988977Y-99819402D01*
X160987342Y-100017679D01*
X160987321Y-100019038D01*
X160978820Y-100405889D01*
X160978716Y-100408750D01*
X160969591Y-100587919D01*
X160969534Y-100588925D01*
X160957186Y-100790883D01*
X160957117Y-100791925D01*
X160942596Y-100994324D01*
X160942498Y-100995586D01*
X160909053Y-101390896D01*
X160908795Y-101393522D01*
X160888384Y-101576472D01*
X160888308Y-101577150D01*
X160888200Y-101578071D01*
X160863182Y-101784722D01*
X160863063Y-101785672D01*
X160835960Y-101992741D01*
X160835802Y-101993893D01*
X160778072Y-102398038D01*
X160777699Y-102400437D01*
X160746162Y-102588190D01*
X160746017Y-102589034D01*
X160708691Y-102800064D01*
X160708532Y-102800937D01*
X160669308Y-103011669D01*
X160669105Y-103012729D01*
X160587822Y-103424430D01*
X160587423Y-103426352D01*
X160579884Y-103460915D01*
X160579783Y-103461370D01*
X160536463Y-103655579D01*
X160536293Y-103656331D01*
X160530096Y-103683129D01*
X160491436Y-103850304D01*
X160491306Y-103850857D01*
X160444959Y-104044426D01*
X160444723Y-104045391D01*
X160340971Y-104460294D01*
X160340497Y-104462113D01*
X160336812Y-104475734D01*
X160331097Y-104496857D01*
X160330978Y-104497290D01*
X160277344Y-104692004D01*
X160277140Y-104692734D01*
X160222147Y-104886573D01*
X160221938Y-104887300D01*
X160165517Y-105080538D01*
X160165236Y-105081482D01*
X160040184Y-105494469D01*
X160039617Y-105496281D01*
X160028427Y-105530832D01*
X160028285Y-105531266D01*
X159983160Y-105668436D01*
X159947015Y-105717804D01*
X159888756Y-105736498D01*
X159830634Y-105717378D01*
X159794852Y-105667747D01*
X159790118Y-105637499D01*
X159790118Y-105550500D01*
X159790117Y-105550496D01*
X159788680Y-105543273D01*
X159761296Y-105405601D01*
X159704759Y-105269110D01*
X159622681Y-105146271D01*
X159518215Y-105041805D01*
X159497556Y-105028001D01*
X159395375Y-104959726D01*
X159258888Y-104903191D01*
X159258882Y-104903189D01*
X159113989Y-104874368D01*
X159113987Y-104874368D01*
X158966249Y-104874368D01*
X158966246Y-104874368D01*
X158821353Y-104903189D01*
X158821347Y-104903191D01*
X158684860Y-104959726D01*
X158562024Y-105041802D01*
X158457552Y-105146274D01*
X158375476Y-105269110D01*
X158318941Y-105405597D01*
X158318939Y-105405603D01*
X158290118Y-105550496D01*
X158290118Y-105698239D01*
X158318939Y-105843132D01*
X158318941Y-105843138D01*
X158375476Y-105979625D01*
X158440187Y-106076472D01*
X158457555Y-106102465D01*
X158562021Y-106206931D01*
X158684860Y-106289009D01*
X158821351Y-106345546D01*
X158966249Y-106374368D01*
X158966250Y-106374368D01*
X159113986Y-106374368D01*
X159113987Y-106374368D01*
X159258885Y-106345546D01*
X159395376Y-106289009D01*
X159518215Y-106206931D01*
X159622681Y-106102465D01*
X159635041Y-106083965D01*
X159683089Y-106046087D01*
X159744227Y-106043683D01*
X159795102Y-106077675D01*
X159816281Y-106135078D01*
X159810572Y-106172312D01*
X159688190Y-106514425D01*
X159687515Y-106516257D01*
X159674721Y-106549914D01*
X159674550Y-106550360D01*
X159601943Y-106738625D01*
X159601653Y-106739368D01*
X159527818Y-106926317D01*
X159527520Y-106927062D01*
X159452551Y-107112470D01*
X159452152Y-107113442D01*
X159287675Y-107508117D01*
X159286868Y-107509999D01*
X159272633Y-107542261D01*
X159272452Y-107542667D01*
X159198458Y-107708129D01*
X159191010Y-107724783D01*
X159190666Y-107725543D01*
X159108146Y-107905970D01*
X159107794Y-107906730D01*
X159024225Y-108085438D01*
X159023755Y-108086430D01*
X158841254Y-108465686D01*
X158840151Y-108467905D01*
X158752395Y-108639164D01*
X158751979Y-108639967D01*
X158652292Y-108830207D01*
X158651846Y-108831049D01*
X158550769Y-109019506D01*
X158550206Y-109020540D01*
X158350231Y-109382978D01*
X158348973Y-109385191D01*
X158253282Y-109548548D01*
X158252812Y-109549342D01*
X158144206Y-109730844D01*
X158143703Y-109731675D01*
X158033811Y-109911306D01*
X158033182Y-109912320D01*
X157816170Y-110257630D01*
X157814775Y-110259788D01*
X157711354Y-110415244D01*
X157710839Y-110416010D01*
X157593523Y-110588835D01*
X157592975Y-110589634D01*
X157474535Y-110760494D01*
X157473852Y-110761467D01*
X157240031Y-111090269D01*
X157238531Y-111092321D01*
X157127557Y-111240184D01*
X157127009Y-111240907D01*
X157001088Y-111405522D01*
X157000508Y-111406273D01*
X156873519Y-111569028D01*
X156872798Y-111569941D01*
X156622508Y-111883065D01*
X156620942Y-111884976D01*
X156502274Y-112026067D01*
X156501705Y-112026737D01*
X156367412Y-112183557D01*
X156366812Y-112184251D01*
X156231397Y-112339448D01*
X156230655Y-112340289D01*
X155963991Y-112639008D01*
X155962386Y-112640763D01*
X155836089Y-112775578D01*
X155835507Y-112776193D01*
X155692944Y-112925786D01*
X155692333Y-112926422D01*
X155548528Y-113074652D01*
X155547774Y-113075421D01*
X155264980Y-113360638D01*
X155263352Y-113362243D01*
X155129586Y-113491066D01*
X155128997Y-113491628D01*
X154978001Y-113634671D01*
X154977382Y-113635252D01*
X154825370Y-113776803D01*
X154824608Y-113777505D01*
X154525790Y-114049976D01*
X154524148Y-114051440D01*
X154383053Y-114174465D01*
X154382460Y-114174979D01*
X154223062Y-114311754D01*
X154222440Y-114312283D01*
X154062353Y-114447372D01*
X154061585Y-114448013D01*
X153746836Y-114708217D01*
X153745187Y-114709551D01*
X153732639Y-114719481D01*
X153596601Y-114827123D01*
X153596004Y-114827591D01*
X153428674Y-114957922D01*
X153428049Y-114958405D01*
X153259537Y-115087509D01*
X153258767Y-115088092D01*
X152928324Y-115336181D01*
X152926672Y-115337395D01*
X152770655Y-115449553D01*
X152770057Y-115449980D01*
X152594587Y-115574159D01*
X152593962Y-115574598D01*
X152417348Y-115697551D01*
X152416578Y-115698081D01*
X152069990Y-115934539D01*
X152068565Y-115935493D01*
X152038598Y-115955186D01*
X152038258Y-115955409D01*
X151871970Y-116063710D01*
X151871402Y-116064077D01*
X151704253Y-116171319D01*
X151703684Y-116171681D01*
X151569692Y-116256368D01*
X151551299Y-116265477D01*
X151545722Y-116267550D01*
X151545720Y-116267551D01*
X151525081Y-116283902D01*
X151516502Y-116289986D01*
X151501038Y-116299760D01*
X151495262Y-116306018D01*
X151483984Y-116316475D01*
X151448287Y-116344748D01*
X151338431Y-116451845D01*
X151338425Y-116451851D01*
X151338421Y-116451856D01*
X151240111Y-116569658D01*
X151204490Y-116622555D01*
X151200742Y-116627748D01*
X151200574Y-116627967D01*
X151184495Y-116648782D01*
X151184491Y-116648789D01*
X151184446Y-116648899D01*
X151175227Y-116666001D01*
X151170672Y-116672763D01*
X151170669Y-116672770D01*
X151164031Y-116695974D01*
X151160191Y-116706924D01*
X149792437Y-119979031D01*
X149752550Y-120025428D01*
X149701096Y-120039850D01*
X137217697Y-120039850D01*
X137159506Y-120020943D01*
X137126356Y-119979031D01*
X135758579Y-116706875D01*
X135754743Y-116695936D01*
X135748116Y-116672777D01*
X135748115Y-116672775D01*
X135743597Y-116666069D01*
X135734359Y-116648934D01*
X135734323Y-116648846D01*
X135734321Y-116648843D01*
X135734320Y-116648841D01*
X135718195Y-116627967D01*
X135714437Y-116622761D01*
X135678685Y-116569670D01*
X135659817Y-116547062D01*
X135580384Y-116451882D01*
X135580380Y-116451877D01*
X135470529Y-116344770D01*
X135443389Y-116323270D01*
X135435015Y-116315066D01*
X135434944Y-116315143D01*
X135430191Y-116310721D01*
X135406380Y-116293780D01*
X135402283Y-116290703D01*
X135393701Y-116283902D01*
X135373098Y-116267573D01*
X135373096Y-116267572D01*
X135366308Y-116263747D01*
X135366536Y-116263340D01*
X135355006Y-116257230D01*
X135218445Y-116160073D01*
X135218258Y-116159821D01*
X135218202Y-116159900D01*
X135041390Y-116033300D01*
X135041195Y-116033159D01*
X134865889Y-115906817D01*
X134865923Y-115906768D01*
X134865737Y-115906708D01*
X134832887Y-115882939D01*
X134832240Y-115882467D01*
X134580980Y-115697551D01*
X134473957Y-115618787D01*
X134309257Y-115496457D01*
X134308982Y-115496252D01*
X134146497Y-115374693D01*
X134146217Y-115374483D01*
X133985724Y-115253525D01*
X133985552Y-115253395D01*
X133955139Y-115230370D01*
X133954404Y-115229808D01*
X133770367Y-115087754D01*
X133626851Y-114976977D01*
X133505155Y-114882011D01*
X133461437Y-114847896D01*
X133461092Y-114847626D01*
X133298368Y-114719481D01*
X133298030Y-114719214D01*
X133153719Y-114604549D01*
X133152746Y-114603765D01*
X132855945Y-114361761D01*
X132855452Y-114361357D01*
X132692178Y-114226468D01*
X132691744Y-114226107D01*
X132652749Y-114193516D01*
X132531535Y-114092207D01*
X132531165Y-114091896D01*
X132427898Y-114004727D01*
X132426815Y-114003800D01*
X132159481Y-113771464D01*
X132158894Y-113770950D01*
X132000219Y-113630839D01*
X131999678Y-113630358D01*
X131843904Y-113490768D01*
X131843500Y-113490403D01*
X131775353Y-113428657D01*
X131774160Y-113427558D01*
X131663343Y-113323793D01*
X131535046Y-113203661D01*
X131534376Y-113203028D01*
X131381777Y-113057368D01*
X131381142Y-113056757D01*
X131368244Y-113044216D01*
X131231655Y-112911402D01*
X131231244Y-112911000D01*
X131192195Y-112872564D01*
X131190916Y-112871281D01*
X130977610Y-112653494D01*
X130976896Y-112652757D01*
X130875492Y-112546919D01*
X130840857Y-112510769D01*
X130840114Y-112509985D01*
X130697235Y-112357562D01*
X130696768Y-112357061D01*
X130681263Y-112340289D01*
X130671781Y-112330033D01*
X130670532Y-112328653D01*
X130518117Y-112157028D01*
X130479502Y-112113546D01*
X130478692Y-112112622D01*
X130347884Y-111961591D01*
X130347170Y-111960757D01*
X130218573Y-111808565D01*
X130218179Y-111808095D01*
X130214645Y-111803854D01*
X130204439Y-111791603D01*
X130203304Y-111790214D01*
X130029699Y-111572988D01*
X130028945Y-111572031D01*
X129901641Y-111408430D01*
X129900859Y-111407412D01*
X129777423Y-111244468D01*
X129775951Y-111242472D01*
X129683061Y-111113249D01*
X129615380Y-111019095D01*
X129614719Y-111018163D01*
X129495511Y-110848029D01*
X129494844Y-110847065D01*
X129378509Y-110676775D01*
X129377289Y-110674947D01*
X129280346Y-110526053D01*
X129223940Y-110439420D01*
X129223426Y-110438620D01*
X129208775Y-110415612D01*
X129116232Y-110270277D01*
X129115748Y-110269510D01*
X129111028Y-110261939D01*
X129008681Y-110097786D01*
X128996217Y-110077556D01*
X128995485Y-110076348D01*
X128845566Y-109825044D01*
X128845139Y-109824321D01*
X128781349Y-109715302D01*
X128740392Y-109645305D01*
X128740013Y-109644651D01*
X128725353Y-109619133D01*
X128635129Y-109462084D01*
X128622600Y-109440050D01*
X128622007Y-109438993D01*
X128474640Y-109172279D01*
X128474301Y-109171660D01*
X128433763Y-109097040D01*
X128378167Y-108994703D01*
X128377997Y-108994387D01*
X128281831Y-108814577D01*
X128255692Y-108765214D01*
X128255164Y-108764202D01*
X128248613Y-108751470D01*
X128111360Y-108484695D01*
X128111055Y-108484098D01*
X128059968Y-108383127D01*
X128017454Y-108299101D01*
X128017183Y-108298560D01*
X128015009Y-108294196D01*
X127924036Y-108111542D01*
X127898598Y-108059948D01*
X127898099Y-108058919D01*
X127760199Y-107770528D01*
X127759898Y-107769894D01*
X127677254Y-107593869D01*
X127670618Y-107579735D01*
X127670354Y-107579168D01*
X127655142Y-107546198D01*
X127581928Y-107387511D01*
X127558016Y-107335089D01*
X127557561Y-107334073D01*
X127428616Y-107041158D01*
X127428320Y-107040479D01*
X127392629Y-106957625D01*
X127345501Y-106848220D01*
X127345312Y-106847776D01*
X127263969Y-106654948D01*
X127263790Y-106654519D01*
X127242052Y-106602271D01*
X127241482Y-106600872D01*
X127226928Y-106564330D01*
X127124942Y-106308257D01*
X127124612Y-106307417D01*
X127086089Y-106208051D01*
X127050271Y-106115664D01*
X127049995Y-106114940D01*
X127048638Y-106111348D01*
X127012358Y-106015282D01*
X126977582Y-105923200D01*
X126977383Y-105922670D01*
X126958321Y-105871307D01*
X126957766Y-105869769D01*
X126937772Y-105812867D01*
X126892273Y-105683375D01*
X126855896Y-105579845D01*
X126855559Y-105578871D01*
X126839335Y-105531112D01*
X126791111Y-105389158D01*
X126790867Y-105388429D01*
X126728320Y-105198132D01*
X126712081Y-105147623D01*
X126711532Y-105145854D01*
X126708186Y-105134718D01*
X126625351Y-104858998D01*
X126625024Y-104857889D01*
X126567093Y-104656557D01*
X126566821Y-104655588D01*
X126556495Y-104618097D01*
X126543228Y-104569926D01*
X126511202Y-104453642D01*
X126511032Y-104453019D01*
X126504996Y-104430527D01*
X126504567Y-104428865D01*
X126433693Y-104142944D01*
X126433420Y-104141809D01*
X126406095Y-104025658D01*
X126386219Y-103941167D01*
X126385963Y-103940051D01*
X126340923Y-103738151D01*
X126340784Y-103737517D01*
X126335914Y-103714992D01*
X126335547Y-103713219D01*
X126279047Y-103425815D01*
X126278875Y-103424910D01*
X126241489Y-103222467D01*
X126241325Y-103221546D01*
X126205957Y-103017449D01*
X126202045Y-102994015D01*
X126201805Y-102992497D01*
X126166577Y-102756003D01*
X126649500Y-102756003D01*
X126649500Y-102893996D01*
X126659957Y-102946563D01*
X126674005Y-103017189D01*
X126676420Y-103029327D01*
X126676420Y-103029329D01*
X126729223Y-103156808D01*
X126773803Y-103223528D01*
X126805886Y-103271543D01*
X128615825Y-105081482D01*
X130425025Y-106890682D01*
X130452802Y-106945199D01*
X130443231Y-107005631D01*
X130399967Y-107048895D01*
X130296781Y-107101471D01*
X130201470Y-107196782D01*
X130140282Y-107316870D01*
X130140281Y-107316872D01*
X130119196Y-107449999D01*
X130119196Y-107450000D01*
X130140281Y-107583127D01*
X130140282Y-107583129D01*
X130191234Y-107683127D01*
X130201472Y-107703220D01*
X130296780Y-107798528D01*
X130416874Y-107859719D01*
X130550000Y-107880804D01*
X130683126Y-107859719D01*
X130803220Y-107798528D01*
X130898528Y-107703220D01*
X130951105Y-107600030D01*
X130994368Y-107556769D01*
X131054800Y-107547197D01*
X131109316Y-107574974D01*
X131109317Y-107574974D01*
X135503457Y-111969114D01*
X135618189Y-112045775D01*
X135745672Y-112098580D01*
X135881006Y-112125500D01*
X135881007Y-112125500D01*
X138138839Y-112125500D01*
X138197030Y-112144407D01*
X138232994Y-112193907D01*
X138236620Y-112239987D01*
X138219196Y-112349999D01*
X138219196Y-112350000D01*
X138240281Y-112483127D01*
X138240282Y-112483129D01*
X138272785Y-112546919D01*
X138301472Y-112603220D01*
X138374775Y-112676523D01*
X138402551Y-112731038D01*
X138392980Y-112791470D01*
X138349715Y-112834735D01*
X138342657Y-112837989D01*
X138327975Y-112844070D01*
X138183930Y-112940317D01*
X138061420Y-113062827D01*
X137965172Y-113206873D01*
X137898873Y-113366933D01*
X137865076Y-113536847D01*
X137865076Y-113710098D01*
X137898873Y-113880012D01*
X137965172Y-114040072D01*
X138055314Y-114174979D01*
X138061423Y-114184122D01*
X138183927Y-114306626D01*
X138327976Y-114402876D01*
X138488035Y-114469175D01*
X138657953Y-114502973D01*
X138657954Y-114502973D01*
X138831198Y-114502973D01*
X138831199Y-114502973D01*
X139001117Y-114469175D01*
X139161176Y-114402876D01*
X139305225Y-114306626D01*
X139427729Y-114184122D01*
X139523979Y-114040073D01*
X139590278Y-113880014D01*
X139624076Y-113710096D01*
X139624076Y-113538374D01*
X147870500Y-113538374D01*
X147870500Y-113711625D01*
X147904297Y-113881539D01*
X147970596Y-114041599D01*
X148066844Y-114185645D01*
X148066847Y-114185649D01*
X148189351Y-114308153D01*
X148333400Y-114404403D01*
X148493459Y-114470702D01*
X148663377Y-114504500D01*
X148663378Y-114504500D01*
X148836622Y-114504500D01*
X148836623Y-114504500D01*
X149006541Y-114470702D01*
X149166600Y-114404403D01*
X149310649Y-114308153D01*
X149433153Y-114185649D01*
X149529403Y-114041600D01*
X149595702Y-113881541D01*
X149629500Y-113711623D01*
X149629500Y-113538377D01*
X149595702Y-113368459D01*
X149529403Y-113208400D01*
X149433153Y-113064351D01*
X149310649Y-112941847D01*
X149308364Y-112940320D01*
X149166599Y-112845596D01*
X149006539Y-112779297D01*
X148836625Y-112745500D01*
X148836623Y-112745500D01*
X148663377Y-112745500D01*
X148663374Y-112745500D01*
X148493460Y-112779297D01*
X148333400Y-112845596D01*
X148189354Y-112941844D01*
X148066844Y-113064354D01*
X147970596Y-113208400D01*
X147904297Y-113368460D01*
X147870500Y-113538374D01*
X139624076Y-113538374D01*
X139624076Y-113536850D01*
X139590278Y-113366932D01*
X139523979Y-113206873D01*
X139452568Y-113099999D01*
X139844196Y-113099999D01*
X139844196Y-113100000D01*
X139865281Y-113233127D01*
X139865282Y-113233129D01*
X139926470Y-113353217D01*
X139926472Y-113353220D01*
X140021780Y-113448528D01*
X140141874Y-113509719D01*
X140275000Y-113530804D01*
X140408126Y-113509719D01*
X140528220Y-113448528D01*
X140623528Y-113353220D01*
X140684719Y-113233126D01*
X140705804Y-113100000D01*
X140684719Y-112966874D01*
X140623528Y-112846780D01*
X140528220Y-112751472D01*
X140528217Y-112751470D01*
X140408129Y-112690282D01*
X140408127Y-112690281D01*
X140275000Y-112669196D01*
X140141872Y-112690281D01*
X140141870Y-112690282D01*
X140021782Y-112751470D01*
X139926470Y-112846782D01*
X139865282Y-112966870D01*
X139865281Y-112966872D01*
X139844196Y-113099999D01*
X139452568Y-113099999D01*
X139427729Y-113062824D01*
X139305225Y-112940320D01*
X139305221Y-112940317D01*
X139161175Y-112844069D01*
X139012745Y-112782587D01*
X138966219Y-112742850D01*
X138951936Y-112683355D01*
X138975351Y-112626827D01*
X138980616Y-112621131D01*
X138998528Y-112603220D01*
X139059719Y-112483126D01*
X139080804Y-112350000D01*
X139077648Y-112330074D01*
X139063380Y-112239987D01*
X139072951Y-112179555D01*
X139116216Y-112136290D01*
X139161161Y-112125500D01*
X148659905Y-112125500D01*
X148697788Y-112133035D01*
X148755714Y-112157029D01*
X148787830Y-112178488D01*
X149024577Y-112415234D01*
X149228457Y-112619114D01*
X149343189Y-112695775D01*
X149470672Y-112748580D01*
X149606006Y-112775500D01*
X149606007Y-112775500D01*
X149743993Y-112775500D01*
X149743994Y-112775500D01*
X149879329Y-112748580D01*
X150006811Y-112695775D01*
X150121543Y-112619114D01*
X150193738Y-112546919D01*
X150219115Y-112521543D01*
X150563608Y-112177048D01*
X150639310Y-112101345D01*
X150654309Y-112089037D01*
X150721539Y-112044116D01*
X150721538Y-112044116D01*
X150721542Y-112044114D01*
X150819114Y-111946542D01*
X150895775Y-111831811D01*
X150948580Y-111704328D01*
X150975500Y-111568993D01*
X150975500Y-111431007D01*
X150948580Y-111295672D01*
X150925596Y-111240184D01*
X150895777Y-111168193D01*
X150895771Y-111168182D01*
X150819114Y-111053458D01*
X150721541Y-110955885D01*
X150606817Y-110879228D01*
X150606806Y-110879222D01*
X150479328Y-110826420D01*
X150343995Y-110799500D01*
X150343993Y-110799500D01*
X149365097Y-110799500D01*
X149327211Y-110791964D01*
X149269285Y-110767970D01*
X149237167Y-110746510D01*
X148845256Y-110354599D01*
X148446543Y-109955886D01*
X148432238Y-109946328D01*
X148331808Y-109879223D01*
X148204328Y-109826420D01*
X148068996Y-109799500D01*
X148068994Y-109799500D01*
X148068993Y-109799500D01*
X136231165Y-109799500D01*
X136196550Y-109788253D01*
X151849500Y-109788253D01*
X151849500Y-110927746D01*
X151849501Y-110927758D01*
X151861132Y-110986227D01*
X151861134Y-110986233D01*
X151905445Y-111052548D01*
X151905448Y-111052552D01*
X151971769Y-111096867D01*
X152016231Y-111105711D01*
X152030241Y-111108498D01*
X152030246Y-111108498D01*
X152030252Y-111108500D01*
X152030253Y-111108500D01*
X153169747Y-111108500D01*
X153169748Y-111108500D01*
X153228231Y-111096867D01*
X153294552Y-111052552D01*
X153338867Y-110986231D01*
X153350500Y-110927748D01*
X153350500Y-110357995D01*
X154384751Y-110357995D01*
X154384751Y-110358004D01*
X154403685Y-110526053D01*
X154403688Y-110526065D01*
X154459544Y-110685690D01*
X154459544Y-110685691D01*
X154549520Y-110828886D01*
X154549523Y-110828890D01*
X154669110Y-110948477D01*
X154669112Y-110948478D01*
X154669113Y-110948479D01*
X154781565Y-111019138D01*
X154812310Y-111038456D01*
X154876232Y-111060823D01*
X154971934Y-111094311D01*
X154971938Y-111094312D01*
X154971941Y-111094313D01*
X154971942Y-111094313D01*
X154971946Y-111094314D01*
X155139996Y-111113249D01*
X155140000Y-111113249D01*
X155140004Y-111113249D01*
X155308053Y-111094314D01*
X155308055Y-111094313D01*
X155308059Y-111094313D01*
X155467690Y-111038456D01*
X155610890Y-110948477D01*
X155730477Y-110828890D01*
X155820456Y-110685690D01*
X155876313Y-110526059D01*
X155876314Y-110526053D01*
X155895249Y-110358004D01*
X155895249Y-110357995D01*
X155876314Y-110189946D01*
X155876311Y-110189934D01*
X155836988Y-110077556D01*
X155820456Y-110030310D01*
X155789166Y-109980513D01*
X155730479Y-109887113D01*
X155730478Y-109887112D01*
X155730477Y-109887110D01*
X155610890Y-109767523D01*
X155610887Y-109767521D01*
X155610886Y-109767520D01*
X155467691Y-109677544D01*
X155308065Y-109621688D01*
X155308053Y-109621685D01*
X155140004Y-109602751D01*
X155139996Y-109602751D01*
X154971946Y-109621685D01*
X154971934Y-109621688D01*
X154812309Y-109677544D01*
X154812308Y-109677544D01*
X154669113Y-109767520D01*
X154549520Y-109887113D01*
X154459544Y-110030308D01*
X154459544Y-110030309D01*
X154403688Y-110189934D01*
X154403685Y-110189946D01*
X154384751Y-110357995D01*
X153350500Y-110357995D01*
X153350500Y-109788252D01*
X153338867Y-109729769D01*
X153294552Y-109663448D01*
X153294548Y-109663445D01*
X153228233Y-109619134D01*
X153228231Y-109619133D01*
X153228228Y-109619132D01*
X153228227Y-109619132D01*
X153169758Y-109607501D01*
X153169748Y-109607500D01*
X152030252Y-109607500D01*
X152030251Y-109607500D01*
X152030241Y-109607501D01*
X151971772Y-109619132D01*
X151971766Y-109619134D01*
X151905451Y-109663445D01*
X151905445Y-109663451D01*
X151861134Y-109729766D01*
X151861132Y-109729772D01*
X151849501Y-109788241D01*
X151849500Y-109788253D01*
X136196550Y-109788253D01*
X136172974Y-109780593D01*
X136161161Y-109770504D01*
X135490656Y-109099999D01*
X136269196Y-109099999D01*
X136269196Y-109100000D01*
X136290281Y-109233127D01*
X136290282Y-109233129D01*
X136351470Y-109353217D01*
X136351472Y-109353220D01*
X136446780Y-109448528D01*
X136566874Y-109509719D01*
X136700000Y-109530804D01*
X136833126Y-109509719D01*
X136953220Y-109448528D01*
X137048528Y-109353220D01*
X137109719Y-109233126D01*
X137130804Y-109100000D01*
X137109719Y-108966874D01*
X137048528Y-108846780D01*
X136953220Y-108751472D01*
X136953217Y-108751470D01*
X136901265Y-108724999D01*
X141963772Y-108724999D01*
X141963772Y-108725000D01*
X141984857Y-108858127D01*
X141984858Y-108858129D01*
X142046046Y-108978217D01*
X142046048Y-108978220D01*
X142141356Y-109073528D01*
X142261450Y-109134719D01*
X142394576Y-109155804D01*
X142527702Y-109134719D01*
X142647796Y-109073528D01*
X142743104Y-108978220D01*
X142804295Y-108858126D01*
X142805582Y-108849999D01*
X143719196Y-108849999D01*
X143719196Y-108850000D01*
X143740281Y-108983127D01*
X143740282Y-108983129D01*
X143799831Y-109100000D01*
X143801472Y-109103220D01*
X143896780Y-109198528D01*
X144016874Y-109259719D01*
X144150000Y-109280804D01*
X144283126Y-109259719D01*
X144403220Y-109198528D01*
X144498528Y-109103220D01*
X144559719Y-108983126D01*
X144580804Y-108850000D01*
X144577802Y-108831049D01*
X144568025Y-108769317D01*
X144559719Y-108716874D01*
X144498528Y-108596780D01*
X144403220Y-108501472D01*
X144403217Y-108501470D01*
X144283129Y-108440282D01*
X144283127Y-108440281D01*
X144150000Y-108419196D01*
X144016872Y-108440281D01*
X144016870Y-108440282D01*
X143896782Y-108501470D01*
X143801470Y-108596782D01*
X143740282Y-108716870D01*
X143740281Y-108716872D01*
X143719196Y-108849999D01*
X142805582Y-108849999D01*
X142825380Y-108725000D01*
X142804295Y-108591874D01*
X142743104Y-108471780D01*
X142647796Y-108376472D01*
X142647793Y-108376470D01*
X142527705Y-108315282D01*
X142527703Y-108315281D01*
X142394576Y-108294196D01*
X142261448Y-108315281D01*
X142261446Y-108315282D01*
X142141358Y-108376470D01*
X142046046Y-108471782D01*
X141984858Y-108591870D01*
X141984857Y-108591872D01*
X141963772Y-108724999D01*
X136901265Y-108724999D01*
X136833129Y-108690282D01*
X136833127Y-108690281D01*
X136700000Y-108669196D01*
X136566872Y-108690281D01*
X136566870Y-108690282D01*
X136446782Y-108751470D01*
X136351470Y-108846782D01*
X136290282Y-108966870D01*
X136290281Y-108966872D01*
X136269196Y-109099999D01*
X135490656Y-109099999D01*
X134640656Y-108249999D01*
X139719196Y-108249999D01*
X139719196Y-108250000D01*
X139740281Y-108383127D01*
X139740282Y-108383129D01*
X139792033Y-108484695D01*
X139801472Y-108503220D01*
X139896780Y-108598528D01*
X140016874Y-108659719D01*
X140150000Y-108680804D01*
X140283126Y-108659719D01*
X140403220Y-108598528D01*
X140498528Y-108503220D01*
X140559719Y-108383126D01*
X140580804Y-108250000D01*
X140559719Y-108116874D01*
X140534457Y-108067295D01*
X140524886Y-108006867D01*
X140552662Y-107952350D01*
X140607178Y-107924571D01*
X140667611Y-107934142D01*
X140766874Y-107984719D01*
X140900000Y-108005804D01*
X141033126Y-107984719D01*
X141153220Y-107923528D01*
X141248528Y-107828220D01*
X141309719Y-107708126D01*
X141330804Y-107575000D01*
X141309719Y-107441874D01*
X141248528Y-107321780D01*
X141153220Y-107226472D01*
X141153217Y-107226470D01*
X141033129Y-107165282D01*
X141033127Y-107165281D01*
X140900000Y-107144196D01*
X140766872Y-107165281D01*
X140766870Y-107165282D01*
X140646782Y-107226470D01*
X140551470Y-107321782D01*
X140490282Y-107441870D01*
X140490281Y-107441872D01*
X140469196Y-107574999D01*
X140469196Y-107575000D01*
X140490281Y-107708127D01*
X140492572Y-107712623D01*
X140513628Y-107753948D01*
X140515541Y-107757701D01*
X140525113Y-107818133D01*
X140497336Y-107872650D01*
X140442820Y-107900428D01*
X140382388Y-107890857D01*
X140382387Y-107890857D01*
X140283126Y-107840281D01*
X140150000Y-107819196D01*
X140016872Y-107840281D01*
X140016870Y-107840282D01*
X139896782Y-107901470D01*
X139801470Y-107996782D01*
X139740282Y-108116870D01*
X139740281Y-108116872D01*
X139719196Y-108249999D01*
X134640656Y-108249999D01*
X133940656Y-107549999D01*
X136469196Y-107549999D01*
X136469196Y-107550000D01*
X136490281Y-107683127D01*
X136490282Y-107683129D01*
X136551470Y-107803217D01*
X136551472Y-107803220D01*
X136646780Y-107898528D01*
X136646782Y-107898529D01*
X136752411Y-107952350D01*
X136766874Y-107959719D01*
X136900000Y-107980804D01*
X137033126Y-107959719D01*
X137153220Y-107898528D01*
X137248528Y-107803220D01*
X137309719Y-107683126D01*
X137330804Y-107550000D01*
X137309719Y-107416874D01*
X137304851Y-107407321D01*
X137248529Y-107296782D01*
X137248528Y-107296780D01*
X137153220Y-107201472D01*
X137153217Y-107201470D01*
X137033129Y-107140282D01*
X137033127Y-107140281D01*
X136900000Y-107119196D01*
X136766872Y-107140281D01*
X136766870Y-107140282D01*
X136646782Y-107201470D01*
X136551470Y-107296782D01*
X136490282Y-107416870D01*
X136490281Y-107416872D01*
X136469196Y-107549999D01*
X133940656Y-107549999D01*
X132815656Y-106424999D01*
X150944196Y-106424999D01*
X150944196Y-106425000D01*
X150965281Y-106558127D01*
X150965282Y-106558129D01*
X151014469Y-106654663D01*
X151026472Y-106678220D01*
X151121780Y-106773528D01*
X151241874Y-106834719D01*
X151375000Y-106855804D01*
X151377829Y-106855356D01*
X156735047Y-106855356D01*
X156735047Y-107003099D01*
X156763868Y-107147992D01*
X156763870Y-107147998D01*
X156820405Y-107284485D01*
X156902481Y-107407321D01*
X156902484Y-107407325D01*
X157006950Y-107511791D01*
X157129789Y-107593869D01*
X157266280Y-107650406D01*
X157411178Y-107679228D01*
X157411179Y-107679228D01*
X157558915Y-107679228D01*
X157558916Y-107679228D01*
X157703814Y-107650406D01*
X157840305Y-107593869D01*
X157963144Y-107511791D01*
X158067610Y-107407325D01*
X158149688Y-107284486D01*
X158206225Y-107147995D01*
X158235047Y-107003097D01*
X158235047Y-106855359D01*
X158206225Y-106710461D01*
X158149688Y-106573970D01*
X158067610Y-106451131D01*
X157963144Y-106346665D01*
X157963140Y-106346662D01*
X157840304Y-106264586D01*
X157703817Y-106208051D01*
X157703811Y-106208049D01*
X157558918Y-106179228D01*
X157558916Y-106179228D01*
X157411178Y-106179228D01*
X157411175Y-106179228D01*
X157266282Y-106208049D01*
X157266276Y-106208051D01*
X157129789Y-106264586D01*
X157006953Y-106346662D01*
X156902481Y-106451134D01*
X156820405Y-106573970D01*
X156763870Y-106710457D01*
X156763868Y-106710463D01*
X156735047Y-106855356D01*
X151377829Y-106855356D01*
X151508126Y-106834719D01*
X151628220Y-106773528D01*
X151723528Y-106678220D01*
X151784719Y-106558126D01*
X151805804Y-106425000D01*
X151784719Y-106291874D01*
X151723528Y-106171780D01*
X151628220Y-106076472D01*
X151628217Y-106076470D01*
X151508129Y-106015282D01*
X151508127Y-106015281D01*
X151375000Y-105994196D01*
X151241872Y-106015281D01*
X151241870Y-106015282D01*
X151121782Y-106076470D01*
X151026470Y-106171782D01*
X150965282Y-106291870D01*
X150965281Y-106291872D01*
X150944196Y-106424999D01*
X132815656Y-106424999D01*
X132428132Y-106037475D01*
X130915656Y-104524999D01*
X138319196Y-104524999D01*
X138319196Y-104525000D01*
X138340281Y-104658127D01*
X138340282Y-104658129D01*
X138374355Y-104725000D01*
X138401472Y-104778220D01*
X138496780Y-104873528D01*
X138616874Y-104934719D01*
X138750000Y-104955804D01*
X138883126Y-104934719D01*
X139003220Y-104873528D01*
X139098528Y-104778220D01*
X139125645Y-104724999D01*
X154069196Y-104724999D01*
X154069196Y-104725000D01*
X154090281Y-104858127D01*
X154090282Y-104858129D01*
X154142049Y-104959727D01*
X154151472Y-104978220D01*
X154246780Y-105073528D01*
X154366874Y-105134719D01*
X154500000Y-105155804D01*
X154633126Y-105134719D01*
X154753220Y-105073528D01*
X154848528Y-104978220D01*
X154909719Y-104858126D01*
X154930804Y-104725000D01*
X154909719Y-104591874D01*
X154848528Y-104471780D01*
X154753220Y-104376472D01*
X154753217Y-104376470D01*
X154633129Y-104315282D01*
X154633127Y-104315281D01*
X154500000Y-104294196D01*
X154499999Y-104294196D01*
X154364340Y-104315682D01*
X154303908Y-104306111D01*
X154265184Y-104267387D01*
X154273927Y-104322584D01*
X154246150Y-104377101D01*
X154151473Y-104471778D01*
X154151470Y-104471782D01*
X154090282Y-104591870D01*
X154090281Y-104591872D01*
X154069196Y-104724999D01*
X139125645Y-104724999D01*
X139159719Y-104658126D01*
X139180804Y-104525000D01*
X139159719Y-104391874D01*
X139098528Y-104271780D01*
X139003220Y-104176472D01*
X139003217Y-104176470D01*
X138883129Y-104115282D01*
X138883127Y-104115281D01*
X138750000Y-104094196D01*
X138616872Y-104115281D01*
X138616870Y-104115282D01*
X138496782Y-104176470D01*
X138401470Y-104271782D01*
X138340282Y-104391870D01*
X138340281Y-104391872D01*
X138319196Y-104524999D01*
X130915656Y-104524999D01*
X129940656Y-103549999D01*
X146094196Y-103549999D01*
X146094196Y-103550000D01*
X146115281Y-103683127D01*
X146115282Y-103683129D01*
X146174831Y-103800000D01*
X146176472Y-103803220D01*
X146271780Y-103898528D01*
X146391874Y-103959719D01*
X146525000Y-103980804D01*
X146658126Y-103959719D01*
X146778220Y-103898528D01*
X146873528Y-103803220D01*
X146875169Y-103799999D01*
X153594196Y-103799999D01*
X153594196Y-103800000D01*
X153615281Y-103933127D01*
X153615282Y-103933129D01*
X153676470Y-104053217D01*
X153676472Y-104053220D01*
X153771780Y-104148528D01*
X153771782Y-104148529D01*
X153888749Y-104208127D01*
X153891874Y-104209719D01*
X154025000Y-104230804D01*
X154158126Y-104209719D01*
X154158128Y-104209717D01*
X154160658Y-104209317D01*
X154221091Y-104218888D01*
X154259813Y-104257610D01*
X154251072Y-104202414D01*
X154278848Y-104147899D01*
X154351749Y-104074999D01*
X158294196Y-104074999D01*
X158294196Y-104075000D01*
X158315281Y-104208127D01*
X158315282Y-104208129D01*
X158372429Y-104320286D01*
X158376472Y-104328220D01*
X158471780Y-104423528D01*
X158591874Y-104484719D01*
X158725000Y-104505804D01*
X158858126Y-104484719D01*
X158978220Y-104423528D01*
X159073528Y-104328220D01*
X159134719Y-104208126D01*
X159155804Y-104075000D01*
X159134719Y-103941874D01*
X159115623Y-103904397D01*
X159073529Y-103821782D01*
X159073528Y-103821780D01*
X158978220Y-103726472D01*
X158978217Y-103726470D01*
X158858129Y-103665282D01*
X158858127Y-103665281D01*
X158725000Y-103644196D01*
X158591872Y-103665281D01*
X158591870Y-103665282D01*
X158471782Y-103726470D01*
X158376470Y-103821782D01*
X158315282Y-103941870D01*
X158315281Y-103941872D01*
X158294196Y-104074999D01*
X154351749Y-104074999D01*
X154373528Y-104053220D01*
X154434719Y-103933126D01*
X154455804Y-103800000D01*
X154434719Y-103666874D01*
X154373528Y-103546780D01*
X154278220Y-103451472D01*
X154278217Y-103451470D01*
X154158129Y-103390282D01*
X154158127Y-103390281D01*
X154025000Y-103369196D01*
X153891872Y-103390281D01*
X153891870Y-103390282D01*
X153771782Y-103451470D01*
X153676470Y-103546782D01*
X153615282Y-103666870D01*
X153615281Y-103666872D01*
X153594196Y-103799999D01*
X146875169Y-103799999D01*
X146934719Y-103683126D01*
X146955804Y-103550000D01*
X146934719Y-103416874D01*
X146873528Y-103296780D01*
X146778220Y-103201472D01*
X146778217Y-103201470D01*
X146658129Y-103140282D01*
X146658127Y-103140281D01*
X146525000Y-103119196D01*
X146391872Y-103140281D01*
X146391870Y-103140282D01*
X146271782Y-103201470D01*
X146176470Y-103296782D01*
X146115282Y-103416870D01*
X146115281Y-103416872D01*
X146094196Y-103549999D01*
X129940656Y-103549999D01*
X129265656Y-102874999D01*
X152994196Y-102874999D01*
X152994196Y-102875000D01*
X153015281Y-103008127D01*
X153015282Y-103008129D01*
X153076470Y-103128217D01*
X153076472Y-103128220D01*
X153171780Y-103223528D01*
X153291874Y-103284719D01*
X153425000Y-103305804D01*
X153558126Y-103284719D01*
X153678220Y-103223528D01*
X153773528Y-103128220D01*
X153834719Y-103008126D01*
X153855804Y-102875000D01*
X153855031Y-102870122D01*
X153851835Y-102849945D01*
X153834719Y-102741874D01*
X153773528Y-102621780D01*
X153678220Y-102526472D01*
X153678217Y-102526470D01*
X153558129Y-102465282D01*
X153558127Y-102465281D01*
X153425000Y-102444196D01*
X153291872Y-102465281D01*
X153291870Y-102465282D01*
X153171782Y-102526470D01*
X153076470Y-102621782D01*
X153015282Y-102741870D01*
X153015281Y-102741872D01*
X152994196Y-102874999D01*
X129265656Y-102874999D01*
X128671543Y-102280886D01*
X128660532Y-102273529D01*
X128556808Y-102204223D01*
X128429328Y-102151420D01*
X128293996Y-102124500D01*
X128293994Y-102124500D01*
X128156006Y-102124500D01*
X128156003Y-102124500D01*
X128020672Y-102151420D01*
X128020670Y-102151420D01*
X127893191Y-102204223D01*
X127842501Y-102238093D01*
X127783612Y-102254701D01*
X127732499Y-102238093D01*
X127681808Y-102204223D01*
X127554328Y-102151420D01*
X127418996Y-102124500D01*
X127418994Y-102124500D01*
X127281006Y-102124500D01*
X127281003Y-102124500D01*
X127145672Y-102151420D01*
X127145670Y-102151420D01*
X127018191Y-102204223D01*
X126903460Y-102280883D01*
X126805883Y-102378460D01*
X126729223Y-102493191D01*
X126676420Y-102620670D01*
X126676420Y-102620672D01*
X126649500Y-102756003D01*
X126166577Y-102756003D01*
X126158419Y-102701235D01*
X126158275Y-102700227D01*
X126156978Y-102690836D01*
X126129911Y-102494915D01*
X126129785Y-102493958D01*
X126103293Y-102286770D01*
X126103244Y-102286382D01*
X126100340Y-102262595D01*
X126100166Y-102261067D01*
X126097732Y-102238093D01*
X126068780Y-101964788D01*
X126068688Y-101963872D01*
X126048601Y-101754965D01*
X126048543Y-101754343D01*
X126030241Y-101543524D01*
X126028211Y-101518639D01*
X126028115Y-101517347D01*
X126008114Y-101216946D01*
X126008067Y-101216182D01*
X126006530Y-101189540D01*
X125997039Y-101024999D01*
X126339196Y-101024999D01*
X126339196Y-101025000D01*
X126360281Y-101158127D01*
X126360282Y-101158129D01*
X126421470Y-101278217D01*
X126421472Y-101278220D01*
X126516780Y-101373528D01*
X126516782Y-101373529D01*
X126633749Y-101433127D01*
X126636874Y-101434719D01*
X126770000Y-101455804D01*
X126903126Y-101434719D01*
X127023220Y-101373528D01*
X127118528Y-101278220D01*
X127179719Y-101158126D01*
X127181006Y-101149999D01*
X138219196Y-101149999D01*
X138219196Y-101150000D01*
X138240281Y-101283127D01*
X138240282Y-101283129D01*
X138296533Y-101393527D01*
X138301472Y-101403220D01*
X138396780Y-101498528D01*
X138516874Y-101559719D01*
X138650000Y-101580804D01*
X138686651Y-101574999D01*
X141194196Y-101574999D01*
X141194196Y-101575000D01*
X141215281Y-101708127D01*
X141215282Y-101708129D01*
X141276470Y-101828217D01*
X141276472Y-101828220D01*
X141371780Y-101923528D01*
X141491874Y-101984719D01*
X141625000Y-102005804D01*
X141758126Y-101984719D01*
X141878220Y-101923528D01*
X141973528Y-101828220D01*
X142034719Y-101708126D01*
X142055804Y-101575000D01*
X142055804Y-101574999D01*
X143734196Y-101574999D01*
X143734196Y-101575000D01*
X143755281Y-101708127D01*
X143755282Y-101708129D01*
X143816470Y-101828217D01*
X143816472Y-101828220D01*
X143911780Y-101923528D01*
X144031874Y-101984719D01*
X144165000Y-102005804D01*
X144298126Y-101984719D01*
X144418220Y-101923528D01*
X144513528Y-101828220D01*
X144574719Y-101708126D01*
X144595804Y-101575000D01*
X144579965Y-101474999D01*
X151244196Y-101474999D01*
X151244196Y-101475000D01*
X151265281Y-101608127D01*
X151265282Y-101608129D01*
X151317045Y-101709719D01*
X151326472Y-101728220D01*
X151421780Y-101823528D01*
X151421782Y-101823529D01*
X151494135Y-101860395D01*
X151541874Y-101884719D01*
X151675000Y-101905804D01*
X151808126Y-101884719D01*
X151928220Y-101823528D01*
X152023528Y-101728220D01*
X152084719Y-101608126D01*
X152105804Y-101475000D01*
X152084719Y-101341874D01*
X152063383Y-101299999D01*
X155919196Y-101299999D01*
X155919196Y-101300000D01*
X155940281Y-101433127D01*
X155940282Y-101433129D01*
X155996620Y-101543698D01*
X156001472Y-101553220D01*
X156096780Y-101648528D01*
X156096782Y-101648529D01*
X156213749Y-101708127D01*
X156216874Y-101709719D01*
X156350000Y-101730804D01*
X156483126Y-101709719D01*
X156570046Y-101665430D01*
X156630476Y-101655859D01*
X156684993Y-101683636D01*
X156712771Y-101738152D01*
X156705665Y-101783369D01*
X156709028Y-101784462D01*
X156706620Y-101791872D01*
X156685535Y-101924999D01*
X156685535Y-101925000D01*
X156706620Y-102058127D01*
X156706621Y-102058129D01*
X156767809Y-102178217D01*
X156767811Y-102178220D01*
X156863119Y-102273528D01*
X156983213Y-102334719D01*
X157116339Y-102355804D01*
X157249465Y-102334719D01*
X157369559Y-102273528D01*
X157464867Y-102178220D01*
X157526058Y-102058126D01*
X157547143Y-101925000D01*
X157526058Y-101791874D01*
X157521724Y-101783369D01*
X157464868Y-101671782D01*
X157464867Y-101671780D01*
X157369559Y-101576472D01*
X157369556Y-101576470D01*
X157249468Y-101515282D01*
X157249466Y-101515281D01*
X157116339Y-101494196D01*
X156983213Y-101515281D01*
X156896293Y-101559569D01*
X156835861Y-101569140D01*
X156781344Y-101541363D01*
X156753567Y-101486846D01*
X156760725Y-101441647D01*
X156757311Y-101440538D01*
X156759718Y-101433127D01*
X156759719Y-101433126D01*
X156780804Y-101300000D01*
X156759719Y-101166874D01*
X156698528Y-101046780D01*
X156603220Y-100951472D01*
X156603217Y-100951470D01*
X156483129Y-100890282D01*
X156483127Y-100890281D01*
X156350000Y-100869196D01*
X156216872Y-100890281D01*
X156216870Y-100890282D01*
X156096782Y-100951470D01*
X156001470Y-101046782D01*
X155940282Y-101166870D01*
X155940281Y-101166872D01*
X155919196Y-101299999D01*
X152063383Y-101299999D01*
X152023528Y-101221780D01*
X151928220Y-101126472D01*
X151928217Y-101126470D01*
X151808129Y-101065282D01*
X151808127Y-101065281D01*
X151675000Y-101044196D01*
X151541872Y-101065281D01*
X151541870Y-101065282D01*
X151421782Y-101126470D01*
X151326470Y-101221782D01*
X151265282Y-101341870D01*
X151265281Y-101341872D01*
X151244196Y-101474999D01*
X144579965Y-101474999D01*
X144574719Y-101441874D01*
X144513528Y-101321780D01*
X144418220Y-101226472D01*
X144418217Y-101226470D01*
X144298129Y-101165282D01*
X144298127Y-101165281D01*
X144165000Y-101144196D01*
X144031872Y-101165281D01*
X144031870Y-101165282D01*
X143911782Y-101226470D01*
X143816470Y-101321782D01*
X143755282Y-101441870D01*
X143755281Y-101441872D01*
X143734196Y-101574999D01*
X142055804Y-101574999D01*
X142034719Y-101441874D01*
X141973528Y-101321780D01*
X141878220Y-101226472D01*
X141878217Y-101226470D01*
X141758129Y-101165282D01*
X141758127Y-101165281D01*
X141625000Y-101144196D01*
X141491872Y-101165281D01*
X141491870Y-101165282D01*
X141371782Y-101226470D01*
X141276470Y-101321782D01*
X141215282Y-101441870D01*
X141215281Y-101441872D01*
X141194196Y-101574999D01*
X138686651Y-101574999D01*
X138783126Y-101559719D01*
X138903220Y-101498528D01*
X138998528Y-101403220D01*
X139059719Y-101283126D01*
X139080804Y-101150000D01*
X139059719Y-101016874D01*
X138998528Y-100896780D01*
X138976747Y-100874999D01*
X149544196Y-100874999D01*
X149544196Y-100875000D01*
X149565281Y-101008127D01*
X149565282Y-101008129D01*
X149625580Y-101126470D01*
X149626472Y-101128220D01*
X149721780Y-101223528D01*
X149721782Y-101223529D01*
X149838749Y-101283127D01*
X149841874Y-101284719D01*
X149975000Y-101305804D01*
X150108126Y-101284719D01*
X150228220Y-101223528D01*
X150323528Y-101128220D01*
X150384719Y-101008126D01*
X150405804Y-100875000D01*
X150384719Y-100741874D01*
X150323528Y-100621780D01*
X150228220Y-100526472D01*
X150228217Y-100526470D01*
X150108129Y-100465282D01*
X150108127Y-100465281D01*
X149975000Y-100444196D01*
X149841872Y-100465281D01*
X149841870Y-100465282D01*
X149721782Y-100526470D01*
X149626470Y-100621782D01*
X149565282Y-100741870D01*
X149565281Y-100741872D01*
X149544196Y-100874999D01*
X138976747Y-100874999D01*
X138903220Y-100801472D01*
X138903217Y-100801470D01*
X138783129Y-100740282D01*
X138783127Y-100740281D01*
X138650000Y-100719196D01*
X138516872Y-100740281D01*
X138516870Y-100740282D01*
X138396782Y-100801470D01*
X138301470Y-100896782D01*
X138240282Y-101016870D01*
X138240281Y-101016872D01*
X138219196Y-101149999D01*
X127181006Y-101149999D01*
X127200804Y-101025000D01*
X127200345Y-101022105D01*
X127183799Y-100917637D01*
X127179719Y-100891874D01*
X127118528Y-100771780D01*
X127023220Y-100676472D01*
X127023217Y-100676470D01*
X126903129Y-100615282D01*
X126903127Y-100615281D01*
X126770000Y-100594196D01*
X126636872Y-100615281D01*
X126636870Y-100615282D01*
X126516782Y-100676470D01*
X126421470Y-100771782D01*
X126360282Y-100891870D01*
X126360281Y-100891872D01*
X126339196Y-101024999D01*
X125997039Y-101024999D01*
X125996683Y-101018821D01*
X125996644Y-101018074D01*
X125996584Y-101016870D01*
X125986833Y-100819580D01*
X125984469Y-100766018D01*
X125984416Y-100764570D01*
X125984230Y-100758126D01*
X125975689Y-100462878D01*
X125975671Y-100462103D01*
X125975399Y-100448600D01*
X125971694Y-100264541D01*
X125971682Y-100263744D01*
X125971337Y-100234717D01*
X125969326Y-100065541D01*
X125968973Y-100012051D01*
X125968975Y-100010512D01*
X125969031Y-100004270D01*
X125971599Y-99719066D01*
X125991029Y-99661051D01*
X126040851Y-99625534D01*
X126102034Y-99626085D01*
X126146072Y-99655896D01*
X126160909Y-99673376D01*
X126160912Y-99673378D01*
X126160913Y-99673379D01*
X126216820Y-99715233D01*
X126216835Y-99715243D01*
X126216842Y-99715248D01*
X126237850Y-99729054D01*
X126269133Y-99738587D01*
X126319285Y-99773635D01*
X126338055Y-99817800D01*
X126360281Y-99958127D01*
X126360282Y-99958129D01*
X126421470Y-100078217D01*
X126421472Y-100078220D01*
X126516780Y-100173528D01*
X126636874Y-100234719D01*
X126770000Y-100255804D01*
X126903126Y-100234719D01*
X127023220Y-100173528D01*
X127118528Y-100078220D01*
X127125840Y-100063868D01*
X127169101Y-100020605D01*
X127229532Y-100011030D01*
X127241356Y-100013653D01*
X127249757Y-100016064D01*
X127307702Y-100024034D01*
X127307713Y-100024033D01*
X127307714Y-100024034D01*
X127512600Y-100022780D01*
X127752639Y-100021312D01*
X127810945Y-100039863D01*
X127847211Y-100089142D01*
X127851026Y-100135797D01*
X127836898Y-100224999D01*
X127836898Y-100225000D01*
X127857983Y-100358127D01*
X127857984Y-100358129D01*
X127919172Y-100478217D01*
X127919174Y-100478220D01*
X128014482Y-100573528D01*
X128134576Y-100634719D01*
X128267702Y-100655804D01*
X128400828Y-100634719D01*
X128419905Y-100624999D01*
X131594196Y-100624999D01*
X131594196Y-100625000D01*
X131615281Y-100758127D01*
X131615282Y-100758129D01*
X131674831Y-100875000D01*
X131676472Y-100878220D01*
X131771780Y-100973528D01*
X131891874Y-101034719D01*
X132025000Y-101055804D01*
X132158126Y-101034719D01*
X132278220Y-100973528D01*
X132373528Y-100878220D01*
X132434719Y-100758126D01*
X132455804Y-100625000D01*
X132434719Y-100491874D01*
X132420730Y-100464420D01*
X132373529Y-100371782D01*
X132373528Y-100371780D01*
X132278220Y-100276472D01*
X132278217Y-100276470D01*
X132158129Y-100215282D01*
X132158127Y-100215281D01*
X132025000Y-100194196D01*
X131891872Y-100215281D01*
X131891870Y-100215282D01*
X131771782Y-100276470D01*
X131676470Y-100371782D01*
X131615282Y-100491870D01*
X131615281Y-100491872D01*
X131594196Y-100624999D01*
X128419905Y-100624999D01*
X128520922Y-100573528D01*
X128616230Y-100478220D01*
X128677421Y-100358126D01*
X128698506Y-100225000D01*
X128683381Y-100129507D01*
X128692952Y-100069078D01*
X128736216Y-100025813D01*
X128780555Y-100015024D01*
X130333946Y-100005523D01*
X130463436Y-100004732D01*
X130470974Y-100004454D01*
X130476004Y-100004270D01*
X130491139Y-100003249D01*
X130491152Y-100003245D01*
X130495385Y-100002589D01*
X130495515Y-100003429D01*
X130526151Y-100001827D01*
X130543698Y-100004241D01*
X130543709Y-100004240D01*
X130543710Y-100004241D01*
X133587365Y-99985626D01*
X133588574Y-99985616D01*
X133589313Y-99985607D01*
X133589463Y-99985606D01*
X133647933Y-99976448D01*
X133658066Y-99973315D01*
X133714666Y-99955815D01*
X133714671Y-99955813D01*
X133714670Y-99955813D01*
X133714684Y-99955809D01*
X133738199Y-99946929D01*
X133780883Y-99914704D01*
X133838715Y-99894733D01*
X133885476Y-99905506D01*
X133991874Y-99959719D01*
X134125000Y-99980804D01*
X134258126Y-99959719D01*
X134378220Y-99898528D01*
X134453934Y-99822813D01*
X134508448Y-99795037D01*
X134558068Y-99799887D01*
X134593775Y-99813003D01*
X134617859Y-99820211D01*
X134708830Y-99820684D01*
X134709312Y-99820687D01*
X134709312Y-99820686D01*
X134709313Y-99820687D01*
X134777511Y-99805494D01*
X134832211Y-99784780D01*
X139378448Y-97272791D01*
X139380557Y-97271609D01*
X139383057Y-97270189D01*
X139430911Y-97232659D01*
X139439956Y-97223088D01*
X139443077Y-97221385D01*
X139442783Y-97221091D01*
X139471780Y-97192093D01*
X139532986Y-97130885D01*
X139558042Y-97112679D01*
X139592204Y-97095273D01*
X139621662Y-97085704D01*
X139698197Y-97073583D01*
X139698199Y-97073582D01*
X139698208Y-97073581D01*
X139732833Y-97064961D01*
X139773405Y-97051022D01*
X139806019Y-97036541D01*
X140796694Y-96489150D01*
X140856770Y-96477557D01*
X140912188Y-96503490D01*
X140941779Y-96557044D01*
X140934240Y-96617763D01*
X140914576Y-96645807D01*
X137572516Y-99987868D01*
X137517999Y-100015645D01*
X137457567Y-100006074D01*
X137432510Y-99987869D01*
X137412168Y-99967528D01*
X137412163Y-99967524D01*
X137292075Y-99906336D01*
X137292073Y-99906335D01*
X137158946Y-99885250D01*
X137025818Y-99906335D01*
X137025816Y-99906336D01*
X136905728Y-99967524D01*
X136810417Y-100062835D01*
X136809509Y-100064618D01*
X136808095Y-100066031D01*
X136805840Y-100069136D01*
X136805348Y-100068778D01*
X136766243Y-100107881D01*
X136705810Y-100117451D01*
X136651295Y-100089671D01*
X136633093Y-100064618D01*
X136598528Y-99996780D01*
X136503220Y-99901472D01*
X136503217Y-99901470D01*
X136383129Y-99840282D01*
X136383127Y-99840281D01*
X136250000Y-99819196D01*
X136116872Y-99840281D01*
X136116870Y-99840282D01*
X135996782Y-99901470D01*
X135901470Y-99996782D01*
X135840282Y-100116870D01*
X135840281Y-100116872D01*
X135819196Y-100249999D01*
X135819196Y-100250000D01*
X135840281Y-100383127D01*
X135840282Y-100383129D01*
X135901470Y-100503217D01*
X135901472Y-100503220D01*
X135996780Y-100598528D01*
X136116874Y-100659719D01*
X136250000Y-100680804D01*
X136383126Y-100659719D01*
X136503220Y-100598528D01*
X136598528Y-100503220D01*
X136599432Y-100501444D01*
X136600840Y-100500035D01*
X136603106Y-100496918D01*
X136603599Y-100497276D01*
X136642690Y-100458178D01*
X136703121Y-100448600D01*
X136757641Y-100476372D01*
X136775853Y-100501437D01*
X136783692Y-100516822D01*
X136810418Y-100569274D01*
X136905726Y-100664582D01*
X137025820Y-100725773D01*
X137158946Y-100746858D01*
X137292072Y-100725773D01*
X137412166Y-100664582D01*
X137442031Y-100634717D01*
X137456199Y-100620550D01*
X137510716Y-100592773D01*
X137526202Y-100591554D01*
X137688745Y-100591554D01*
X137688746Y-100591554D01*
X137790004Y-100549611D01*
X137867503Y-100472112D01*
X137867502Y-100472112D01*
X137973946Y-100365668D01*
X152614540Y-100365668D01*
X152614540Y-100513411D01*
X152643361Y-100658304D01*
X152643363Y-100658310D01*
X152699898Y-100794797D01*
X152768041Y-100896780D01*
X152781977Y-100917637D01*
X152886443Y-101022103D01*
X153009282Y-101104181D01*
X153145773Y-101160718D01*
X153290671Y-101189540D01*
X153290672Y-101189540D01*
X153438408Y-101189540D01*
X153438409Y-101189540D01*
X153583307Y-101160718D01*
X153719798Y-101104181D01*
X153842637Y-101022103D01*
X153947103Y-100917637D01*
X154029181Y-100794798D01*
X154085718Y-100658307D01*
X154092343Y-100624999D01*
X155052855Y-100624999D01*
X155052855Y-100625000D01*
X155073940Y-100758127D01*
X155073941Y-100758129D01*
X155133490Y-100875000D01*
X155135131Y-100878220D01*
X155230439Y-100973528D01*
X155350533Y-101034719D01*
X155483659Y-101055804D01*
X155616785Y-101034719D01*
X155736879Y-100973528D01*
X155832187Y-100878220D01*
X155893378Y-100758126D01*
X155914463Y-100625000D01*
X155893378Y-100491874D01*
X155879389Y-100464420D01*
X155832188Y-100371782D01*
X155832187Y-100371780D01*
X155736879Y-100276472D01*
X155736876Y-100276470D01*
X155616788Y-100215282D01*
X155616786Y-100215281D01*
X155483659Y-100194196D01*
X155350531Y-100215281D01*
X155350529Y-100215282D01*
X155230441Y-100276470D01*
X155135129Y-100371782D01*
X155073941Y-100491870D01*
X155073940Y-100491872D01*
X155052855Y-100624999D01*
X154092343Y-100624999D01*
X154114540Y-100513409D01*
X154114540Y-100365671D01*
X154085718Y-100220773D01*
X154029181Y-100084282D01*
X153947103Y-99961443D01*
X153842637Y-99856977D01*
X153842633Y-99856974D01*
X153719797Y-99774898D01*
X153583310Y-99718363D01*
X153583304Y-99718361D01*
X153438411Y-99689540D01*
X153438409Y-99689540D01*
X153290671Y-99689540D01*
X153290668Y-99689540D01*
X153145775Y-99718361D01*
X153145769Y-99718363D01*
X153009282Y-99774898D01*
X152886446Y-99856974D01*
X152781974Y-99961446D01*
X152699898Y-100084282D01*
X152643363Y-100220769D01*
X152643361Y-100220775D01*
X152614540Y-100365668D01*
X137973946Y-100365668D01*
X139304616Y-99034999D01*
X141194196Y-99034999D01*
X141194196Y-99035000D01*
X141215281Y-99168127D01*
X141215282Y-99168129D01*
X141264371Y-99264471D01*
X141276472Y-99288220D01*
X141371780Y-99383528D01*
X141491874Y-99444719D01*
X141625000Y-99465804D01*
X141758126Y-99444719D01*
X141878220Y-99383528D01*
X141973528Y-99288220D01*
X142034719Y-99168126D01*
X142055804Y-99035000D01*
X142055804Y-99034999D01*
X143734196Y-99034999D01*
X143734196Y-99035000D01*
X143755281Y-99168127D01*
X143755282Y-99168129D01*
X143804371Y-99264471D01*
X143816472Y-99288220D01*
X143911780Y-99383528D01*
X144031874Y-99444719D01*
X144165000Y-99465804D01*
X144298126Y-99444719D01*
X144418220Y-99383528D01*
X144513528Y-99288220D01*
X144545741Y-99224999D01*
X148994196Y-99224999D01*
X148994196Y-99225000D01*
X149015281Y-99358127D01*
X149015282Y-99358129D01*
X149076470Y-99478217D01*
X149076472Y-99478220D01*
X149171780Y-99573528D01*
X149291874Y-99634719D01*
X149425000Y-99655804D01*
X149558126Y-99634719D01*
X149678220Y-99573528D01*
X149773528Y-99478220D01*
X149834719Y-99358126D01*
X149855804Y-99225000D01*
X149834719Y-99091874D01*
X149773528Y-98971780D01*
X149678220Y-98876472D01*
X149678217Y-98876470D01*
X149558129Y-98815282D01*
X149558127Y-98815281D01*
X149425000Y-98794196D01*
X149291872Y-98815281D01*
X149291870Y-98815282D01*
X149171782Y-98876470D01*
X149076470Y-98971782D01*
X149015282Y-99091870D01*
X149015281Y-99091872D01*
X148994196Y-99224999D01*
X144545741Y-99224999D01*
X144574719Y-99168126D01*
X144595804Y-99035000D01*
X144574719Y-98901874D01*
X144513528Y-98781780D01*
X144418220Y-98686472D01*
X144418217Y-98686470D01*
X144298129Y-98625282D01*
X144298127Y-98625281D01*
X144165000Y-98604196D01*
X144031872Y-98625281D01*
X144031870Y-98625282D01*
X143911782Y-98686470D01*
X143816470Y-98781782D01*
X143755282Y-98901870D01*
X143755281Y-98901872D01*
X143734196Y-99034999D01*
X142055804Y-99034999D01*
X142034719Y-98901874D01*
X141973528Y-98781780D01*
X141878220Y-98686472D01*
X141878217Y-98686470D01*
X141758129Y-98625282D01*
X141758127Y-98625281D01*
X141625000Y-98604196D01*
X141491872Y-98625281D01*
X141491870Y-98625282D01*
X141371782Y-98686470D01*
X141276470Y-98781782D01*
X141215282Y-98901870D01*
X141215281Y-98901872D01*
X141194196Y-99034999D01*
X139304616Y-99034999D01*
X139889616Y-98449999D01*
X150244196Y-98449999D01*
X150244196Y-98450000D01*
X150265281Y-98583127D01*
X150265282Y-98583129D01*
X150317937Y-98686470D01*
X150326472Y-98703220D01*
X150421780Y-98798528D01*
X150541874Y-98859719D01*
X150675000Y-98880804D01*
X150808126Y-98859719D01*
X150928220Y-98798528D01*
X151023528Y-98703220D01*
X151084719Y-98583126D01*
X151105804Y-98450000D01*
X151084719Y-98316874D01*
X151023528Y-98196780D01*
X150928220Y-98101472D01*
X150928217Y-98101470D01*
X150808129Y-98040282D01*
X150808127Y-98040281D01*
X150675000Y-98019196D01*
X150541872Y-98040281D01*
X150541870Y-98040282D01*
X150421782Y-98101470D01*
X150326470Y-98196782D01*
X150265282Y-98316870D01*
X150265281Y-98316872D01*
X150244196Y-98449999D01*
X139889616Y-98449999D01*
X140689617Y-97649999D01*
X145419196Y-97649999D01*
X145419196Y-97650000D01*
X145440281Y-97783127D01*
X145440282Y-97783129D01*
X145501470Y-97903217D01*
X145501472Y-97903220D01*
X145596780Y-97998528D01*
X145716874Y-98059719D01*
X145850000Y-98080804D01*
X145983126Y-98059719D01*
X146103220Y-97998528D01*
X146198528Y-97903220D01*
X146251122Y-97799999D01*
X152519196Y-97799999D01*
X152519196Y-97800000D01*
X152540281Y-97933127D01*
X152540282Y-97933129D01*
X152601470Y-98053217D01*
X152601472Y-98053220D01*
X152696780Y-98148528D01*
X152816874Y-98209719D01*
X152950000Y-98230804D01*
X153083126Y-98209719D01*
X153203220Y-98148528D01*
X153251749Y-98099999D01*
X157344196Y-98099999D01*
X157344196Y-98100000D01*
X157365281Y-98233127D01*
X157365282Y-98233129D01*
X157426470Y-98353217D01*
X157426472Y-98353220D01*
X157521780Y-98448528D01*
X157641874Y-98509719D01*
X157775000Y-98530804D01*
X157908126Y-98509719D01*
X158028220Y-98448528D01*
X158123528Y-98353220D01*
X158184719Y-98233126D01*
X158205804Y-98100000D01*
X158184719Y-97966874D01*
X158123528Y-97846780D01*
X158028220Y-97751472D01*
X158028217Y-97751470D01*
X157908129Y-97690282D01*
X157908127Y-97690281D01*
X157775000Y-97669196D01*
X157641872Y-97690281D01*
X157641870Y-97690282D01*
X157521782Y-97751470D01*
X157426470Y-97846782D01*
X157365282Y-97966870D01*
X157365281Y-97966872D01*
X157344196Y-98099999D01*
X153251749Y-98099999D01*
X153298528Y-98053220D01*
X153359719Y-97933126D01*
X153380804Y-97800000D01*
X153359719Y-97666874D01*
X153298528Y-97546780D01*
X153203220Y-97451472D01*
X153203217Y-97451470D01*
X153083129Y-97390282D01*
X153083127Y-97390281D01*
X152950000Y-97369196D01*
X152816872Y-97390281D01*
X152816870Y-97390282D01*
X152696782Y-97451470D01*
X152601470Y-97546782D01*
X152540282Y-97666870D01*
X152540281Y-97666872D01*
X152519196Y-97799999D01*
X146251122Y-97799999D01*
X146259719Y-97783126D01*
X146280804Y-97650000D01*
X146259719Y-97516874D01*
X146250866Y-97499500D01*
X146198529Y-97396782D01*
X146198528Y-97396780D01*
X146103220Y-97301472D01*
X146103217Y-97301470D01*
X145983129Y-97240282D01*
X145983127Y-97240281D01*
X145850000Y-97219196D01*
X145716872Y-97240281D01*
X145716870Y-97240282D01*
X145596782Y-97301470D01*
X145501470Y-97396782D01*
X145440282Y-97516870D01*
X145440281Y-97516872D01*
X145419196Y-97649999D01*
X140689617Y-97649999D01*
X141964789Y-96374827D01*
X141990093Y-96313737D01*
X142006732Y-96273568D01*
X142006732Y-96111023D01*
X142025639Y-96052832D01*
X142028058Y-96049999D01*
X148044196Y-96049999D01*
X148044196Y-96050000D01*
X148065281Y-96183127D01*
X148065282Y-96183129D01*
X148126470Y-96303217D01*
X148126472Y-96303220D01*
X148221780Y-96398528D01*
X148341874Y-96459719D01*
X148475000Y-96480804D01*
X148608126Y-96459719D01*
X148728220Y-96398528D01*
X148751749Y-96374999D01*
X153944196Y-96374999D01*
X153944196Y-96375000D01*
X153965281Y-96508127D01*
X153965282Y-96508129D01*
X154026470Y-96628217D01*
X154026472Y-96628220D01*
X154121780Y-96723528D01*
X154121782Y-96723529D01*
X154241870Y-96784717D01*
X154241873Y-96784719D01*
X154248591Y-96785782D01*
X154261095Y-96787763D01*
X154315612Y-96815539D01*
X154343391Y-96870055D01*
X154333821Y-96930487D01*
X154333820Y-96930489D01*
X154315281Y-96966874D01*
X154294196Y-97099999D01*
X154294196Y-97100000D01*
X154315281Y-97233127D01*
X154315282Y-97233129D01*
X154335491Y-97272791D01*
X154376472Y-97353220D01*
X154471780Y-97448528D01*
X154591874Y-97509719D01*
X154725000Y-97530804D01*
X154858126Y-97509719D01*
X154978220Y-97448528D01*
X155073528Y-97353220D01*
X155134719Y-97233126D01*
X155155804Y-97100000D01*
X155155055Y-97095274D01*
X155150254Y-97064958D01*
X155134719Y-96966874D01*
X155073528Y-96846780D01*
X154978220Y-96751472D01*
X154978217Y-96751470D01*
X154858129Y-96690282D01*
X154858127Y-96690281D01*
X154838901Y-96687236D01*
X154784385Y-96659458D01*
X154756608Y-96604941D01*
X154766179Y-96544511D01*
X154784719Y-96508126D01*
X154805804Y-96375000D01*
X154784719Y-96241874D01*
X154723528Y-96121780D01*
X154628220Y-96026472D01*
X154628217Y-96026470D01*
X154508129Y-95965282D01*
X154508127Y-95965281D01*
X154375000Y-95944196D01*
X154241872Y-95965281D01*
X154241870Y-95965282D01*
X154121782Y-96026470D01*
X154026470Y-96121782D01*
X153965282Y-96241870D01*
X153965281Y-96241872D01*
X153944196Y-96374999D01*
X148751749Y-96374999D01*
X148823528Y-96303220D01*
X148884719Y-96183126D01*
X148905804Y-96050000D01*
X148884719Y-95916874D01*
X148823528Y-95796780D01*
X148728220Y-95701472D01*
X148728217Y-95701470D01*
X148608129Y-95640282D01*
X148608127Y-95640281D01*
X148475000Y-95619196D01*
X148341872Y-95640281D01*
X148341870Y-95640282D01*
X148221782Y-95701470D01*
X148126470Y-95796782D01*
X148065282Y-95916870D01*
X148065281Y-95916872D01*
X148044196Y-96049999D01*
X142028058Y-96049999D01*
X142035722Y-96041025D01*
X142079760Y-95996988D01*
X142140951Y-95876894D01*
X142158846Y-95763904D01*
X142186623Y-95709390D01*
X142235101Y-95682762D01*
X142241459Y-95681346D01*
X142296159Y-95660632D01*
X143077508Y-95228903D01*
X143137583Y-95217310D01*
X143193001Y-95243243D01*
X143222592Y-95296797D01*
X143223166Y-95300069D01*
X143240281Y-95408127D01*
X143240282Y-95408129D01*
X143301470Y-95528217D01*
X143301472Y-95528220D01*
X143396780Y-95623528D01*
X143516874Y-95684719D01*
X143650000Y-95705804D01*
X143783126Y-95684719D01*
X143903220Y-95623528D01*
X143998528Y-95528220D01*
X144059719Y-95408126D01*
X144080804Y-95275000D01*
X144077636Y-95254999D01*
X146224196Y-95254999D01*
X146224196Y-95255000D01*
X146245281Y-95388127D01*
X146245282Y-95388129D01*
X146304930Y-95505194D01*
X146306472Y-95508220D01*
X146401780Y-95603528D01*
X146521874Y-95664719D01*
X146655000Y-95685804D01*
X146788126Y-95664719D01*
X146908220Y-95603528D01*
X147003528Y-95508220D01*
X147064719Y-95388126D01*
X147085804Y-95255000D01*
X147077093Y-95199999D01*
X149469196Y-95199999D01*
X149469196Y-95200000D01*
X149490281Y-95333127D01*
X149490282Y-95333129D01*
X149551470Y-95453217D01*
X149551472Y-95453220D01*
X149646780Y-95548528D01*
X149766874Y-95609719D01*
X149900000Y-95630804D01*
X150033126Y-95609719D01*
X150153220Y-95548528D01*
X150248528Y-95453220D01*
X150309719Y-95333126D01*
X150330804Y-95200000D01*
X150309719Y-95066874D01*
X150248528Y-94946780D01*
X150153220Y-94851472D01*
X150153217Y-94851470D01*
X150033129Y-94790282D01*
X150033127Y-94790281D01*
X149900000Y-94769196D01*
X149766872Y-94790281D01*
X149766870Y-94790282D01*
X149646782Y-94851470D01*
X149551470Y-94946782D01*
X149490282Y-95066870D01*
X149490281Y-95066872D01*
X149469196Y-95199999D01*
X147077093Y-95199999D01*
X147064719Y-95121874D01*
X147003528Y-95001780D01*
X146908220Y-94906472D01*
X146908217Y-94906470D01*
X146788129Y-94845282D01*
X146788127Y-94845281D01*
X146655000Y-94824196D01*
X146521872Y-94845281D01*
X146521870Y-94845282D01*
X146401782Y-94906470D01*
X146306470Y-95001782D01*
X146245282Y-95121870D01*
X146245281Y-95121872D01*
X146224196Y-95254999D01*
X144077636Y-95254999D01*
X144059719Y-95141874D01*
X144049528Y-95121874D01*
X143998529Y-95021782D01*
X143998528Y-95021780D01*
X143903220Y-94926472D01*
X143903217Y-94926470D01*
X143897710Y-94920963D01*
X143900126Y-94918546D01*
X143872903Y-94881046D01*
X143872926Y-94819861D01*
X143908909Y-94770375D01*
X143919182Y-94763843D01*
X144673962Y-94346796D01*
X155547399Y-94346796D01*
X155547399Y-94346797D01*
X155568484Y-94479924D01*
X155568485Y-94479926D01*
X155629666Y-94600000D01*
X155629675Y-94600017D01*
X155724983Y-94695325D01*
X155845077Y-94756516D01*
X155978203Y-94777601D01*
X156111329Y-94756516D01*
X156231423Y-94695325D01*
X156326731Y-94600017D01*
X156387922Y-94479923D01*
X156409007Y-94346797D01*
X156387922Y-94213671D01*
X156326731Y-94093577D01*
X156231423Y-93998269D01*
X156231420Y-93998267D01*
X156111332Y-93937079D01*
X156111330Y-93937078D01*
X155978203Y-93915993D01*
X155845075Y-93937078D01*
X155845073Y-93937079D01*
X155724985Y-93998267D01*
X155629673Y-94093579D01*
X155568485Y-94213667D01*
X155568484Y-94213669D01*
X155547399Y-94346796D01*
X144673962Y-94346796D01*
X145009855Y-94161201D01*
X145050879Y-94131384D01*
X145095224Y-94089889D01*
X145107343Y-94077552D01*
X145151990Y-93997735D01*
X145171675Y-93930696D01*
X145180000Y-93872798D01*
X145180000Y-93576611D01*
X145179869Y-93569275D01*
X145179553Y-93560429D01*
X145166727Y-93495950D01*
X145142310Y-93430486D01*
X145132103Y-93407517D01*
X145132103Y-93407516D01*
X145093580Y-93362131D01*
X145072921Y-93337791D01*
X145029272Y-93305115D01*
X144994021Y-93255106D01*
X144994895Y-93193927D01*
X145031563Y-93144947D01*
X145032560Y-93144253D01*
X145036580Y-93141491D01*
X145036585Y-93141489D01*
X145089389Y-93095734D01*
X145107343Y-93078143D01*
X145107344Y-93078140D01*
X145107346Y-93078139D01*
X145151988Y-92998330D01*
X145151990Y-92998326D01*
X145171673Y-92931293D01*
X145171675Y-92931287D01*
X145180000Y-92873389D01*
X145180000Y-92529119D01*
X145174322Y-92481147D01*
X145160807Y-92424852D01*
X145160806Y-92424848D01*
X145160805Y-92424845D01*
X145144086Y-92379527D01*
X145135066Y-92361825D01*
X145120274Y-92332795D01*
X145110704Y-92303342D01*
X145104708Y-92265481D01*
X145104708Y-92234518D01*
X145110704Y-92196653D01*
X145120272Y-92167207D01*
X145137683Y-92133036D01*
X145155885Y-92107984D01*
X145182985Y-92080883D01*
X145208036Y-92062683D01*
X145242207Y-92045272D01*
X145271654Y-92035704D01*
X145309518Y-92029708D01*
X145340481Y-92029708D01*
X145378343Y-92035704D01*
X145407793Y-92045273D01*
X145441956Y-92062680D01*
X145467014Y-92080885D01*
X145494113Y-92107984D01*
X145512319Y-92133043D01*
X145529723Y-92167200D01*
X145539294Y-92196659D01*
X145545289Y-92234513D01*
X145545289Y-92265487D01*
X145539293Y-92303342D01*
X145529723Y-92332796D01*
X145505915Y-92379523D01*
X145505908Y-92379541D01*
X145489194Y-92424848D01*
X145489193Y-92424849D01*
X145475678Y-92481144D01*
X145470590Y-92524137D01*
X145470000Y-92529119D01*
X145470000Y-93348435D01*
X145471162Y-93361241D01*
X145473357Y-93385430D01*
X145477399Y-93407516D01*
X145481393Y-93429340D01*
X145482083Y-93432931D01*
X145519641Y-93516319D01*
X145519643Y-93516322D01*
X145519645Y-93516325D01*
X145561799Y-93572054D01*
X145578151Y-93591124D01*
X145578154Y-93591126D01*
X145654833Y-93640971D01*
X145720419Y-93665061D01*
X145744503Y-93672269D01*
X145835474Y-93672742D01*
X145835956Y-93672745D01*
X145835956Y-93672744D01*
X145835957Y-93672745D01*
X145904155Y-93657552D01*
X145958855Y-93636838D01*
X146025527Y-93599999D01*
X156394196Y-93599999D01*
X156394196Y-93600000D01*
X156415281Y-93733127D01*
X156415282Y-93733129D01*
X156447966Y-93797274D01*
X156476472Y-93853220D01*
X156571780Y-93948528D01*
X156691874Y-94009719D01*
X156825000Y-94030804D01*
X156958126Y-94009719D01*
X157078220Y-93948528D01*
X157173528Y-93853220D01*
X157234719Y-93733126D01*
X157255804Y-93600000D01*
X157234719Y-93466874D01*
X157173528Y-93346780D01*
X157078220Y-93251472D01*
X157078217Y-93251470D01*
X156958129Y-93190282D01*
X156958127Y-93190281D01*
X156825000Y-93169196D01*
X156691872Y-93190281D01*
X156691870Y-93190282D01*
X156571782Y-93251470D01*
X156476470Y-93346782D01*
X156415282Y-93466870D01*
X156415281Y-93466872D01*
X156394196Y-93599999D01*
X146025527Y-93599999D01*
X149634715Y-91605769D01*
X149641895Y-91601611D01*
X149642631Y-91601164D01*
X149642690Y-91601150D01*
X149642769Y-91601105D01*
X149642782Y-91601128D01*
X149702180Y-91587116D01*
X149758615Y-91610752D01*
X149764014Y-91615762D01*
X149771780Y-91623528D01*
X149891874Y-91684719D01*
X150025000Y-91705804D01*
X150032749Y-91704576D01*
X150093179Y-91714146D01*
X150136445Y-91757409D01*
X150146019Y-91817840D01*
X150118243Y-91872358D01*
X150093185Y-91890565D01*
X150071781Y-91901471D01*
X149976470Y-91996782D01*
X149915282Y-92116870D01*
X149915281Y-92116872D01*
X149894196Y-92249999D01*
X149894196Y-92250000D01*
X149915281Y-92383127D01*
X149915282Y-92383129D01*
X149965225Y-92481147D01*
X149976472Y-92503220D01*
X150071780Y-92598528D01*
X150191874Y-92659719D01*
X150325000Y-92680804D01*
X150458126Y-92659719D01*
X150578220Y-92598528D01*
X150673528Y-92503220D01*
X150734719Y-92383126D01*
X150755804Y-92250000D01*
X150734719Y-92116874D01*
X150673528Y-91996780D01*
X150578220Y-91901472D01*
X150578217Y-91901470D01*
X150458129Y-91840282D01*
X150458127Y-91840281D01*
X150325000Y-91819196D01*
X150317246Y-91820424D01*
X150256814Y-91810850D01*
X150213551Y-91767584D01*
X150203981Y-91707152D01*
X150231761Y-91652636D01*
X150256813Y-91634434D01*
X150278220Y-91623528D01*
X150373528Y-91528220D01*
X150434719Y-91408126D01*
X150455804Y-91275000D01*
X150448467Y-91228680D01*
X150458037Y-91168252D01*
X150501301Y-91124986D01*
X150511189Y-91120611D01*
X150516189Y-91118718D01*
X151833892Y-90390631D01*
X151867241Y-90367644D01*
X151904376Y-90336225D01*
X151909668Y-90331590D01*
X151945831Y-90279843D01*
X151994660Y-90242976D01*
X152042464Y-90238772D01*
X152150000Y-90255804D01*
X152283126Y-90234719D01*
X152403220Y-90173528D01*
X152498528Y-90078220D01*
X152526997Y-90022347D01*
X152563257Y-89951184D01*
X152565798Y-89952478D01*
X152594062Y-89913551D01*
X152652246Y-89894624D01*
X152652665Y-89894624D01*
X152673461Y-89894733D01*
X152741659Y-89879540D01*
X152796359Y-89858826D01*
X155965231Y-88107891D01*
X155978007Y-88100214D01*
X155978019Y-88100207D01*
X155985140Y-88095567D01*
X155993069Y-88090403D01*
X156046313Y-88040160D01*
X156046321Y-88040148D01*
X156048226Y-88037999D01*
X156049225Y-88037410D01*
X156049539Y-88037115D01*
X156049606Y-88037186D01*
X156100958Y-88006966D01*
X156161859Y-88012855D01*
G37*
%TD.AperFunction*%
%TD*%
%TA.AperFunction,Conductor*%
%TO.N,Net-(SW1-B)*%
G36*
X154461454Y-86478504D02*
G01*
X154528279Y-86498884D01*
X154539183Y-86506941D01*
X154615355Y-86569937D01*
X154616233Y-86570669D01*
X154855502Y-86772291D01*
X154856985Y-86773561D01*
X154899020Y-86810130D01*
X154899527Y-86810574D01*
X155055722Y-86947956D01*
X155056503Y-86948648D01*
X155211425Y-87087240D01*
X155212253Y-87087988D01*
X155447255Y-87302056D01*
X155448680Y-87303374D01*
X155489799Y-87342025D01*
X155490298Y-87342497D01*
X155642278Y-87486950D01*
X155643055Y-87487695D01*
X155748800Y-87589965D01*
X155769225Y-87609719D01*
X155793248Y-87632952D01*
X155794084Y-87633768D01*
X155892916Y-87731170D01*
X155926847Y-87792248D01*
X155922370Y-87861974D01*
X155880908Y-87918211D01*
X155865846Y-87928022D01*
X152696974Y-89678957D01*
X152628776Y-89694150D01*
X152563190Y-89670060D01*
X152526521Y-89626719D01*
X152498528Y-89571780D01*
X152498526Y-89571778D01*
X152498523Y-89571774D01*
X152403225Y-89476476D01*
X152403221Y-89476473D01*
X152403220Y-89476472D01*
X152283126Y-89415281D01*
X152283124Y-89415280D01*
X152283121Y-89415279D01*
X152150002Y-89394196D01*
X152149998Y-89394196D01*
X152016878Y-89415279D01*
X151896778Y-89476473D01*
X151896774Y-89476476D01*
X151801476Y-89571774D01*
X151801473Y-89571778D01*
X151740279Y-89691878D01*
X151719196Y-89824997D01*
X151719196Y-89825002D01*
X151740279Y-89958121D01*
X151740280Y-89958124D01*
X151740281Y-89958126D01*
X151785022Y-90045936D01*
X151797918Y-90114602D01*
X151771642Y-90179343D01*
X151734507Y-90210762D01*
X150416804Y-90938849D01*
X150348606Y-90954042D01*
X150283955Y-90930638D01*
X150278223Y-90926474D01*
X150278220Y-90926472D01*
X150158126Y-90865281D01*
X150158124Y-90865280D01*
X150158121Y-90865279D01*
X150025002Y-90844196D01*
X150020232Y-90844196D01*
X149953193Y-90824511D01*
X149907438Y-90771707D01*
X149897494Y-90702549D01*
X149897759Y-90700799D01*
X149905804Y-90650003D01*
X149905804Y-90649997D01*
X149884720Y-90516878D01*
X149884719Y-90516876D01*
X149884719Y-90516874D01*
X149823528Y-90396780D01*
X149823526Y-90396778D01*
X149823523Y-90396774D01*
X149728225Y-90301476D01*
X149728221Y-90301473D01*
X149728220Y-90301472D01*
X149608126Y-90240281D01*
X149608124Y-90240280D01*
X149608121Y-90240279D01*
X149475002Y-90219196D01*
X149474998Y-90219196D01*
X149341878Y-90240279D01*
X149221778Y-90301473D01*
X149221774Y-90301476D01*
X149126476Y-90396774D01*
X149126473Y-90396778D01*
X149065279Y-90516878D01*
X149044196Y-90649997D01*
X149044196Y-90650002D01*
X149065279Y-90783121D01*
X149065280Y-90783124D01*
X149065281Y-90783126D01*
X149126472Y-90903220D01*
X149126473Y-90903221D01*
X149126476Y-90903225D01*
X149221774Y-90998523D01*
X149221778Y-90998526D01*
X149221780Y-90998528D01*
X149341874Y-91059719D01*
X149341876Y-91059719D01*
X149341878Y-91059720D01*
X149474998Y-91080804D01*
X149479768Y-91080804D01*
X149546807Y-91100489D01*
X149592562Y-91153293D01*
X149602506Y-91222451D01*
X149602241Y-91224201D01*
X149594196Y-91274996D01*
X149594196Y-91274998D01*
X149597834Y-91297970D01*
X149588878Y-91367263D01*
X149543881Y-91420714D01*
X149535330Y-91425900D01*
X145859470Y-93456969D01*
X145791272Y-93472162D01*
X145725686Y-93448072D01*
X145683536Y-93392348D01*
X145675500Y-93348435D01*
X145675500Y-92529119D01*
X145689015Y-92472824D01*
X145728082Y-92396151D01*
X145734719Y-92383126D01*
X145734719Y-92383124D01*
X145734720Y-92383123D01*
X145755804Y-92250002D01*
X145755804Y-92249997D01*
X145734720Y-92116878D01*
X145734719Y-92116876D01*
X145734719Y-92116874D01*
X145673528Y-91996780D01*
X145673526Y-91996778D01*
X145673523Y-91996774D01*
X145578225Y-91901476D01*
X145578221Y-91901473D01*
X145578220Y-91901472D01*
X145458126Y-91840281D01*
X145458124Y-91840280D01*
X145458121Y-91840279D01*
X145325002Y-91819196D01*
X145324998Y-91819196D01*
X145191878Y-91840279D01*
X145071778Y-91901473D01*
X145071774Y-91901476D01*
X144976476Y-91996774D01*
X144976473Y-91996778D01*
X144915279Y-92116878D01*
X144894196Y-92249997D01*
X144894196Y-92250002D01*
X144915279Y-92383123D01*
X144960985Y-92472824D01*
X144974500Y-92529119D01*
X144974500Y-92873389D01*
X144954815Y-92940428D01*
X144902011Y-92986183D01*
X144832853Y-92996127D01*
X144769297Y-92967102D01*
X144762819Y-92961070D01*
X144678225Y-92876476D01*
X144678221Y-92876473D01*
X144678220Y-92876472D01*
X144558126Y-92815281D01*
X144558124Y-92815280D01*
X144558121Y-92815279D01*
X144425002Y-92794196D01*
X144424998Y-92794196D01*
X144291878Y-92815279D01*
X144171778Y-92876473D01*
X144171774Y-92876476D01*
X144076476Y-92971774D01*
X144076473Y-92971778D01*
X144015279Y-93091878D01*
X143994196Y-93224997D01*
X143994196Y-93225002D01*
X144015279Y-93358121D01*
X144015280Y-93358124D01*
X144015281Y-93358126D01*
X144076472Y-93478220D01*
X144076473Y-93478221D01*
X144076476Y-93478225D01*
X144171774Y-93573523D01*
X144171778Y-93573526D01*
X144171780Y-93573528D01*
X144291874Y-93634719D01*
X144291876Y-93634719D01*
X144291878Y-93634720D01*
X144424998Y-93655804D01*
X144425000Y-93655804D01*
X144425002Y-93655804D01*
X144558121Y-93634720D01*
X144558121Y-93634719D01*
X144558126Y-93634719D01*
X144678220Y-93573528D01*
X144707490Y-93544258D01*
X144762819Y-93488930D01*
X144824142Y-93455445D01*
X144893834Y-93460429D01*
X144949767Y-93502301D01*
X144974184Y-93567765D01*
X144974500Y-93576611D01*
X144974500Y-93872798D01*
X144954815Y-93939837D01*
X144910470Y-93981332D01*
X142196774Y-95480763D01*
X142128576Y-95495956D01*
X142062990Y-95471866D01*
X142049123Y-95459910D01*
X141984457Y-95395244D01*
X141984453Y-95395241D01*
X141984452Y-95395240D01*
X141864358Y-95334049D01*
X141864356Y-95334048D01*
X141864353Y-95334047D01*
X141731234Y-95312964D01*
X141731230Y-95312964D01*
X141598110Y-95334047D01*
X141478010Y-95395241D01*
X141478006Y-95395244D01*
X141382708Y-95490542D01*
X141382705Y-95490546D01*
X141321511Y-95610646D01*
X141300428Y-95743765D01*
X141300428Y-95743770D01*
X141320652Y-95871462D01*
X141311697Y-95940756D01*
X141266701Y-95994208D01*
X141258149Y-95999394D01*
X139706634Y-96856672D01*
X139666062Y-96870611D01*
X139541878Y-96890279D01*
X139421778Y-96951473D01*
X139326469Y-97046783D01*
X139320735Y-97054676D01*
X139318147Y-97052795D01*
X139281563Y-97091502D01*
X139279063Y-97092922D01*
X134732826Y-99604911D01*
X134664628Y-99620104D01*
X134599042Y-99596014D01*
X134556892Y-99540290D01*
X134550384Y-99515784D01*
X134534719Y-99416874D01*
X134473528Y-99296780D01*
X134473526Y-99296778D01*
X134473523Y-99296774D01*
X134378225Y-99201476D01*
X134378221Y-99201473D01*
X134378220Y-99201472D01*
X134258126Y-99140281D01*
X134258124Y-99140280D01*
X134258121Y-99140279D01*
X134125002Y-99119196D01*
X134124998Y-99119196D01*
X133991878Y-99140279D01*
X133871778Y-99201473D01*
X133871774Y-99201476D01*
X133776476Y-99296774D01*
X133776473Y-99296778D01*
X133715279Y-99416878D01*
X133694196Y-99549997D01*
X133694196Y-99550000D01*
X133701484Y-99596014D01*
X133707933Y-99636734D01*
X133698977Y-99706028D01*
X133653980Y-99759479D01*
X133587229Y-99780118D01*
X133586217Y-99780129D01*
X130542441Y-99798745D01*
X130502307Y-99787226D01*
X130477308Y-99798215D01*
X130462173Y-99799236D01*
X128390081Y-99811909D01*
X128369927Y-99810385D01*
X128267702Y-99794196D01*
X128155705Y-99811933D01*
X128137068Y-99813457D01*
X127306445Y-99818538D01*
X127239286Y-99799264D01*
X127193209Y-99746740D01*
X127183213Y-99713940D01*
X127179719Y-99691874D01*
X127118528Y-99571780D01*
X127118526Y-99571778D01*
X127118523Y-99571774D01*
X127023225Y-99476476D01*
X127023221Y-99476473D01*
X127023220Y-99476472D01*
X126903126Y-99415281D01*
X126903124Y-99415280D01*
X126903121Y-99415279D01*
X126770002Y-99394196D01*
X126769998Y-99394196D01*
X126636878Y-99415279D01*
X126516778Y-99476473D01*
X126516774Y-99476476D01*
X126471011Y-99522239D01*
X126409688Y-99555723D01*
X126339996Y-99550738D01*
X126284063Y-99508866D01*
X126259647Y-99443402D01*
X126259366Y-99431616D01*
X126266666Y-99124997D01*
X130069196Y-99124997D01*
X130069196Y-99125002D01*
X130090279Y-99258121D01*
X130090280Y-99258124D01*
X130090281Y-99258126D01*
X130141234Y-99358126D01*
X130151473Y-99378221D01*
X130151476Y-99378225D01*
X130246774Y-99473523D01*
X130246778Y-99473526D01*
X130246780Y-99473528D01*
X130366874Y-99534719D01*
X130366876Y-99534719D01*
X130366878Y-99534720D01*
X130480812Y-99552765D01*
X130498264Y-99561038D01*
X130506021Y-99555986D01*
X130522267Y-99552277D01*
X130633126Y-99534719D01*
X130753220Y-99473528D01*
X130848528Y-99378220D01*
X130909719Y-99258126D01*
X130918484Y-99202785D01*
X130930804Y-99125002D01*
X130930804Y-99124997D01*
X130909720Y-98991878D01*
X130909719Y-98991876D01*
X130909719Y-98991874D01*
X130848528Y-98871780D01*
X130848526Y-98871778D01*
X130848523Y-98871774D01*
X130753225Y-98776476D01*
X130753221Y-98776473D01*
X130753220Y-98776472D01*
X130633126Y-98715281D01*
X130633124Y-98715280D01*
X130633121Y-98715279D01*
X130500002Y-98694196D01*
X130499998Y-98694196D01*
X130366878Y-98715279D01*
X130246778Y-98776473D01*
X130246774Y-98776476D01*
X130151476Y-98871774D01*
X130151473Y-98871778D01*
X130090279Y-98991878D01*
X130069196Y-99124997D01*
X126266666Y-99124997D01*
X126274152Y-98810595D01*
X126294604Y-98745277D01*
X127000534Y-97674997D01*
X133094196Y-97674997D01*
X133094196Y-97675002D01*
X133115279Y-97808121D01*
X133115280Y-97808124D01*
X133115281Y-97808126D01*
X133163734Y-97903220D01*
X133176473Y-97928221D01*
X133176476Y-97928225D01*
X133271774Y-98023523D01*
X133271778Y-98023526D01*
X133271780Y-98023528D01*
X133391874Y-98084719D01*
X133391876Y-98084719D01*
X133391878Y-98084720D01*
X133524998Y-98105804D01*
X133525000Y-98105804D01*
X133525002Y-98105804D01*
X133658121Y-98084720D01*
X133658121Y-98084719D01*
X133658126Y-98084719D01*
X133778220Y-98023528D01*
X133873528Y-97928220D01*
X133934719Y-97808126D01*
X133955804Y-97675000D01*
X133951844Y-97650000D01*
X133934720Y-97541878D01*
X133934719Y-97541876D01*
X133934719Y-97541874D01*
X133873528Y-97421780D01*
X133873526Y-97421778D01*
X133873523Y-97421774D01*
X133778225Y-97326476D01*
X133778221Y-97326473D01*
X133778220Y-97326472D01*
X133658126Y-97265281D01*
X133658124Y-97265280D01*
X133658121Y-97265279D01*
X133525002Y-97244196D01*
X133524998Y-97244196D01*
X133391878Y-97265279D01*
X133271778Y-97326473D01*
X133271774Y-97326476D01*
X133176476Y-97421774D01*
X133176473Y-97421778D01*
X133115279Y-97541878D01*
X133094196Y-97674997D01*
X127000534Y-97674997D01*
X127429257Y-97024997D01*
X131094196Y-97024997D01*
X131094196Y-97025002D01*
X131115279Y-97158121D01*
X131115280Y-97158124D01*
X131115281Y-97158126D01*
X131176472Y-97278220D01*
X131176473Y-97278221D01*
X131176476Y-97278225D01*
X131271774Y-97373523D01*
X131271778Y-97373526D01*
X131271780Y-97373528D01*
X131391874Y-97434719D01*
X131391876Y-97434719D01*
X131391878Y-97434720D01*
X131524998Y-97455804D01*
X131525000Y-97455804D01*
X131525002Y-97455804D01*
X131658121Y-97434720D01*
X131658121Y-97434719D01*
X131658126Y-97434719D01*
X131778220Y-97373528D01*
X131873528Y-97278220D01*
X131934719Y-97158126D01*
X131940129Y-97123969D01*
X131955804Y-97025002D01*
X131955804Y-97024997D01*
X131934720Y-96891878D01*
X131934719Y-96891876D01*
X131934719Y-96891874D01*
X131913382Y-96849997D01*
X137519196Y-96849997D01*
X137519196Y-96850002D01*
X137540279Y-96983121D01*
X137540280Y-96983124D01*
X137540281Y-96983126D01*
X137601472Y-97103220D01*
X137601473Y-97103221D01*
X137601476Y-97103225D01*
X137696774Y-97198523D01*
X137696778Y-97198526D01*
X137696780Y-97198528D01*
X137816874Y-97259719D01*
X137816876Y-97259719D01*
X137816878Y-97259720D01*
X137949998Y-97280804D01*
X137950000Y-97280804D01*
X137950002Y-97280804D01*
X138083121Y-97259720D01*
X138083121Y-97259719D01*
X138083126Y-97259719D01*
X138203220Y-97198528D01*
X138298528Y-97103220D01*
X138359719Y-96983126D01*
X138362293Y-96966874D01*
X138380804Y-96850002D01*
X138380804Y-96849997D01*
X138359720Y-96716878D01*
X138359719Y-96716876D01*
X138359719Y-96716874D01*
X138298528Y-96596780D01*
X138298526Y-96596778D01*
X138298523Y-96596774D01*
X138203225Y-96501476D01*
X138203221Y-96501473D01*
X138203220Y-96501472D01*
X138083126Y-96440281D01*
X138083124Y-96440280D01*
X138083121Y-96440279D01*
X137950002Y-96419196D01*
X137949998Y-96419196D01*
X137816878Y-96440279D01*
X137696778Y-96501473D01*
X137696774Y-96501476D01*
X137601476Y-96596774D01*
X137601473Y-96596778D01*
X137540279Y-96716878D01*
X137519196Y-96849997D01*
X131913382Y-96849997D01*
X131873528Y-96771780D01*
X131873526Y-96771778D01*
X131873523Y-96771774D01*
X131778225Y-96676476D01*
X131778221Y-96676473D01*
X131778220Y-96676472D01*
X131658126Y-96615281D01*
X131658124Y-96615280D01*
X131658121Y-96615279D01*
X131525002Y-96594196D01*
X131524998Y-96594196D01*
X131391878Y-96615279D01*
X131271778Y-96676473D01*
X131271774Y-96676476D01*
X131176476Y-96771774D01*
X131176473Y-96771778D01*
X131115279Y-96891878D01*
X131094196Y-97024997D01*
X127429257Y-97024997D01*
X128577976Y-95283390D01*
X128631320Y-95238267D01*
X128637386Y-95235773D01*
X129188929Y-95025888D01*
X129252420Y-95019308D01*
X129325000Y-95030804D01*
X129325002Y-95030804D01*
X129458121Y-95009720D01*
X129458121Y-95009719D01*
X129458126Y-95009719D01*
X129578220Y-94948528D01*
X129601751Y-94924997D01*
X134469196Y-94924997D01*
X134469196Y-94925002D01*
X134490279Y-95058121D01*
X134490280Y-95058124D01*
X134490281Y-95058126D01*
X134551472Y-95178220D01*
X134551473Y-95178221D01*
X134551476Y-95178225D01*
X134646774Y-95273523D01*
X134646778Y-95273526D01*
X134646780Y-95273528D01*
X134766874Y-95334719D01*
X134766876Y-95334719D01*
X134766878Y-95334720D01*
X134899998Y-95355804D01*
X134900000Y-95355804D01*
X134900002Y-95355804D01*
X135033121Y-95334720D01*
X135033121Y-95334719D01*
X135033126Y-95334719D01*
X135153220Y-95273528D01*
X135248528Y-95178220D01*
X135309719Y-95058126D01*
X135312293Y-95041874D01*
X135330804Y-94925002D01*
X135330804Y-94924997D01*
X135309720Y-94791878D01*
X135309719Y-94791876D01*
X135309719Y-94791874D01*
X135248528Y-94671780D01*
X135248526Y-94671778D01*
X135248523Y-94671774D01*
X135153225Y-94576476D01*
X135153221Y-94576473D01*
X135153220Y-94576472D01*
X135033126Y-94515281D01*
X135033124Y-94515280D01*
X135033121Y-94515279D01*
X134900002Y-94494196D01*
X134899998Y-94494196D01*
X134766878Y-94515279D01*
X134646778Y-94576473D01*
X134646774Y-94576476D01*
X134551476Y-94671774D01*
X134551473Y-94671778D01*
X134490279Y-94791878D01*
X134469196Y-94924997D01*
X129601751Y-94924997D01*
X129673528Y-94853220D01*
X129673529Y-94853217D01*
X129673713Y-94853034D01*
X129717286Y-94824827D01*
X132476072Y-93774997D01*
X139694196Y-93774997D01*
X139694196Y-93775002D01*
X139715279Y-93908121D01*
X139715280Y-93908124D01*
X139715281Y-93908126D01*
X139776472Y-94028220D01*
X139776473Y-94028221D01*
X139776476Y-94028225D01*
X139871774Y-94123523D01*
X139871778Y-94123526D01*
X139871780Y-94123528D01*
X139991874Y-94184719D01*
X139991876Y-94184719D01*
X139991878Y-94184720D01*
X140124998Y-94205804D01*
X140125000Y-94205804D01*
X140125002Y-94205804D01*
X140258121Y-94184720D01*
X140258121Y-94184719D01*
X140258126Y-94184719D01*
X140378220Y-94123528D01*
X140473528Y-94028220D01*
X140534719Y-93908126D01*
X140534720Y-93908121D01*
X140555804Y-93775002D01*
X140555804Y-93774997D01*
X140534720Y-93641878D01*
X140534719Y-93641876D01*
X140534719Y-93641874D01*
X140473528Y-93521780D01*
X140473526Y-93521778D01*
X140473523Y-93521774D01*
X140378225Y-93426476D01*
X140378221Y-93426473D01*
X140378220Y-93426472D01*
X140258126Y-93365281D01*
X140258124Y-93365280D01*
X140258121Y-93365279D01*
X140125002Y-93344196D01*
X140124998Y-93344196D01*
X139991878Y-93365279D01*
X139871778Y-93426473D01*
X139871774Y-93426476D01*
X139776476Y-93521774D01*
X139776473Y-93521778D01*
X139715279Y-93641878D01*
X139694196Y-93774997D01*
X132476072Y-93774997D01*
X140031114Y-90899997D01*
X144919196Y-90899997D01*
X144919196Y-90900002D01*
X144940279Y-91033121D01*
X144940280Y-91033124D01*
X144940281Y-91033126D01*
X145001472Y-91153220D01*
X145001473Y-91153221D01*
X145001476Y-91153225D01*
X145096774Y-91248523D01*
X145096778Y-91248526D01*
X145096780Y-91248528D01*
X145216874Y-91309719D01*
X145216876Y-91309719D01*
X145216878Y-91309720D01*
X145349998Y-91330804D01*
X145350000Y-91330804D01*
X145350002Y-91330804D01*
X145483121Y-91309720D01*
X145483121Y-91309719D01*
X145483126Y-91309719D01*
X145603220Y-91248528D01*
X145698528Y-91153220D01*
X145759719Y-91033126D01*
X145774651Y-90938849D01*
X145780804Y-90900002D01*
X145780804Y-90899997D01*
X145759720Y-90766878D01*
X145759719Y-90766876D01*
X145759719Y-90766874D01*
X145698528Y-90646780D01*
X145698526Y-90646778D01*
X145698523Y-90646774D01*
X145603225Y-90551476D01*
X145603221Y-90551473D01*
X145603220Y-90551472D01*
X145483126Y-90490281D01*
X145483124Y-90490280D01*
X145483121Y-90490279D01*
X145350002Y-90469196D01*
X145349998Y-90469196D01*
X145216878Y-90490279D01*
X145216874Y-90490280D01*
X145216874Y-90490281D01*
X145136811Y-90531075D01*
X145096778Y-90551473D01*
X145096774Y-90551476D01*
X145001476Y-90646774D01*
X145001473Y-90646778D01*
X144940279Y-90766878D01*
X144919196Y-90899997D01*
X140031114Y-90899997D01*
X144092618Y-89354430D01*
X144162272Y-89348985D01*
X144223816Y-89382063D01*
X144257706Y-89443163D01*
X144253183Y-89512886D01*
X144247202Y-89526617D01*
X144226331Y-89567577D01*
X144205248Y-89700698D01*
X144205248Y-89700703D01*
X144226331Y-89833822D01*
X144226332Y-89833825D01*
X144226333Y-89833827D01*
X144226355Y-89833870D01*
X144287525Y-89953922D01*
X144287528Y-89953926D01*
X144382826Y-90049224D01*
X144382830Y-90049227D01*
X144382832Y-90049229D01*
X144502926Y-90110420D01*
X144502928Y-90110420D01*
X144502930Y-90110421D01*
X144636050Y-90131505D01*
X144636052Y-90131505D01*
X144636054Y-90131505D01*
X144769173Y-90110421D01*
X144769173Y-90110420D01*
X144769178Y-90110420D01*
X144889272Y-90049229D01*
X144984580Y-89953921D01*
X145045771Y-89833827D01*
X145047170Y-89824997D01*
X145066856Y-89700703D01*
X145066856Y-89700698D01*
X145045772Y-89567579D01*
X145045771Y-89567577D01*
X145045771Y-89567575D01*
X144984580Y-89447481D01*
X144984578Y-89447479D01*
X144984575Y-89447475D01*
X144889277Y-89352177D01*
X144889274Y-89352175D01*
X144889272Y-89352173D01*
X144800327Y-89306853D01*
X144749532Y-89258879D01*
X144732737Y-89191058D01*
X144755275Y-89124923D01*
X144809990Y-89081472D01*
X144812402Y-89080523D01*
X151703072Y-86458344D01*
X151748460Y-86450244D01*
X154461454Y-86478504D01*
G37*
%TD.AperFunction*%
%TD*%
M02*
