%TF.GenerationSoftware,KiCad,Pcbnew,8.0.3*%
%TF.CreationDate,2024-06-23T22:11:50-05:00*%
%TF.ProjectId,GeckoDevelopmentBoard,4765636b-6f44-4657-9665-6c6f706d656e,rev?*%
%TF.SameCoordinates,Original*%
%TF.FileFunction,Copper,L1,Top*%
%TF.FilePolarity,Positive*%
%FSLAX46Y46*%
G04 Gerber Fmt 4.6, Leading zero omitted, Abs format (unit mm)*
G04 Created by KiCad (PCBNEW 8.0.3) date 2024-06-23 22:11:50*
%MOMM*%
%LPD*%
G01*
G04 APERTURE LIST*
G04 Aperture macros list*
%AMRoundRect*
0 Rectangle with rounded corners*
0 $1 Rounding radius*
0 $2 $3 $4 $5 $6 $7 $8 $9 X,Y pos of 4 corners*
0 Add a 4 corners polygon primitive as box body*
4,1,4,$2,$3,$4,$5,$6,$7,$8,$9,$2,$3,0*
0 Add four circle primitives for the rounded corners*
1,1,$1+$1,$2,$3*
1,1,$1+$1,$4,$5*
1,1,$1+$1,$6,$7*
1,1,$1+$1,$8,$9*
0 Add four rect primitives between the rounded corners*
20,1,$1+$1,$2,$3,$4,$5,0*
20,1,$1+$1,$4,$5,$6,$7,0*
20,1,$1+$1,$6,$7,$8,$9,0*
20,1,$1+$1,$8,$9,$2,$3,0*%
G04 Aperture macros list end*
%TA.AperFunction,EtchedComponent*%
%ADD10C,0.000000*%
%TD*%
%TA.AperFunction,SMDPad,CuDef*%
%ADD11R,1.240000X1.120000*%
%TD*%
%TA.AperFunction,SMDPad,CuDef*%
%ADD12RoundRect,0.200000X-0.200000X-0.275000X0.200000X-0.275000X0.200000X0.275000X-0.200000X0.275000X0*%
%TD*%
%TA.AperFunction,SMDPad,CuDef*%
%ADD13RoundRect,0.140000X-0.170000X0.140000X-0.170000X-0.140000X0.170000X-0.140000X0.170000X0.140000X0*%
%TD*%
%TA.AperFunction,SMDPad,CuDef*%
%ADD14R,0.850000X0.750000*%
%TD*%
%TA.AperFunction,SMDPad,CuDef*%
%ADD15RoundRect,0.150000X-0.587500X-0.150000X0.587500X-0.150000X0.587500X0.150000X-0.587500X0.150000X0*%
%TD*%
%TA.AperFunction,SMDPad,CuDef*%
%ADD16RoundRect,0.218750X-0.218750X-0.256250X0.218750X-0.256250X0.218750X0.256250X-0.218750X0.256250X0*%
%TD*%
%TA.AperFunction,SMDPad,CuDef*%
%ADD17R,0.280000X0.410000*%
%TD*%
%TA.AperFunction,SMDPad,CuDef*%
%ADD18R,0.410000X0.280000*%
%TD*%
%TA.AperFunction,ComponentPad*%
%ADD19R,1.700000X1.700000*%
%TD*%
%TA.AperFunction,ComponentPad*%
%ADD20O,1.700000X1.700000*%
%TD*%
%TA.AperFunction,ComponentPad*%
%ADD21R,1.950000X1.950000*%
%TD*%
%TA.AperFunction,ComponentPad*%
%ADD22C,1.950000*%
%TD*%
%TA.AperFunction,SMDPad,CuDef*%
%ADD23RoundRect,0.140000X0.170000X-0.140000X0.170000X0.140000X-0.170000X0.140000X-0.170000X-0.140000X0*%
%TD*%
%TA.AperFunction,SMDPad,CuDef*%
%ADD24R,0.400000X3.000000*%
%TD*%
%TA.AperFunction,SMDPad,CuDef*%
%ADD25RoundRect,0.140000X0.140000X0.170000X-0.140000X0.170000X-0.140000X-0.170000X0.140000X-0.170000X0*%
%TD*%
%TA.AperFunction,SMDPad,CuDef*%
%ADD26RoundRect,0.135000X-0.185000X0.135000X-0.185000X-0.135000X0.185000X-0.135000X0.185000X0.135000X0*%
%TD*%
%TA.AperFunction,SMDPad,CuDef*%
%ADD27RoundRect,0.135000X-0.135000X-0.185000X0.135000X-0.185000X0.135000X0.185000X-0.135000X0.185000X0*%
%TD*%
%TA.AperFunction,SMDPad,CuDef*%
%ADD28RoundRect,0.218750X0.256250X-0.218750X0.256250X0.218750X-0.256250X0.218750X-0.256250X-0.218750X0*%
%TD*%
%TA.AperFunction,SMDPad,CuDef*%
%ADD29R,0.750000X0.300000*%
%TD*%
%TA.AperFunction,SMDPad,CuDef*%
%ADD30R,0.900000X1.300000*%
%TD*%
%TA.AperFunction,SMDPad,CuDef*%
%ADD31R,1.100000X0.450000*%
%TD*%
%TA.AperFunction,SMDPad,CuDef*%
%ADD32R,0.850000X0.200000*%
%TD*%
%TA.AperFunction,SMDPad,CuDef*%
%ADD33R,0.200000X0.850000*%
%TD*%
%TA.AperFunction,SMDPad,CuDef*%
%ADD34R,4.700000X4.700000*%
%TD*%
%TA.AperFunction,SMDPad,CuDef*%
%ADD35RoundRect,0.135000X0.135000X0.185000X-0.135000X0.185000X-0.135000X-0.185000X0.135000X-0.185000X0*%
%TD*%
%TA.AperFunction,SMDPad,CuDef*%
%ADD36R,0.640000X0.420000*%
%TD*%
%TA.AperFunction,SMDPad,CuDef*%
%ADD37R,0.300000X1.150000*%
%TD*%
%TA.AperFunction,SMDPad,CuDef*%
%ADD38R,2.180000X2.000000*%
%TD*%
%TA.AperFunction,SMDPad,CuDef*%
%ADD39RoundRect,0.140000X-0.140000X-0.170000X0.140000X-0.170000X0.140000X0.170000X-0.140000X0.170000X0*%
%TD*%
%TA.AperFunction,SMDPad,CuDef*%
%ADD40RoundRect,0.147500X-0.147500X-0.172500X0.147500X-0.172500X0.147500X0.172500X-0.147500X0.172500X0*%
%TD*%
%TA.AperFunction,SMDPad,CuDef*%
%ADD41R,1.000000X1.600000*%
%TD*%
%TA.AperFunction,SMDPad,CuDef*%
%ADD42RoundRect,0.135000X0.185000X-0.135000X0.185000X0.135000X-0.185000X0.135000X-0.185000X-0.135000X0*%
%TD*%
%TA.AperFunction,SMDPad,CuDef*%
%ADD43R,2.770000X0.650000*%
%TD*%
%TA.AperFunction,SMDPad,CuDef*%
%ADD44R,0.300000X1.000000*%
%TD*%
%TA.AperFunction,SMDPad,CuDef*%
%ADD45R,1.000000X0.300000*%
%TD*%
%TA.AperFunction,SMDPad,CuDef*%
%ADD46R,3.350000X3.350000*%
%TD*%
%TA.AperFunction,SMDPad,CuDef*%
%ADD47R,1.200000X0.550000*%
%TD*%
%TA.AperFunction,SMDPad,CuDef*%
%ADD48R,1.000000X3.500000*%
%TD*%
%TA.AperFunction,SMDPad,CuDef*%
%ADD49R,1.500000X3.400000*%
%TD*%
%TA.AperFunction,SMDPad,CuDef*%
%ADD50R,0.800000X1.500000*%
%TD*%
%TA.AperFunction,SMDPad,CuDef*%
%ADD51R,1.800000X1.500000*%
%TD*%
%TA.AperFunction,SMDPad,CuDef*%
%ADD52C,0.787000*%
%TD*%
%TA.AperFunction,SMDPad,CuDef*%
%ADD53R,1.300000X0.800000*%
%TD*%
%TA.AperFunction,SMDPad,CuDef*%
%ADD54R,0.800000X0.300000*%
%TD*%
%TA.AperFunction,SMDPad,CuDef*%
%ADD55R,0.300000X0.800000*%
%TD*%
%TA.AperFunction,SMDPad,CuDef*%
%ADD56R,2.800000X2.800000*%
%TD*%
%TA.AperFunction,SMDPad,CuDef*%
%ADD57RoundRect,0.147500X0.147500X0.172500X-0.147500X0.172500X-0.147500X-0.172500X0.147500X-0.172500X0*%
%TD*%
%TA.AperFunction,SMDPad,CuDef*%
%ADD58RoundRect,0.147500X-0.172500X0.147500X-0.172500X-0.147500X0.172500X-0.147500X0.172500X0.147500X0*%
%TD*%
%TA.AperFunction,SMDPad,CuDef*%
%ADD59R,1.075000X0.500000*%
%TD*%
%TA.AperFunction,ViaPad*%
%ADD60C,0.450000*%
%TD*%
%TA.AperFunction,Conductor*%
%ADD61C,0.349300*%
%TD*%
%TA.AperFunction,Conductor*%
%ADD62C,0.590000*%
%TD*%
%TA.AperFunction,Conductor*%
%ADD63C,0.254000*%
%TD*%
%TA.AperFunction,Conductor*%
%ADD64C,0.200000*%
%TD*%
%TA.AperFunction,Conductor*%
%ADD65C,2.000000*%
%TD*%
%TA.AperFunction,Conductor*%
%ADD66C,0.570000*%
%TD*%
%TA.AperFunction,Conductor*%
%ADD67C,0.300000*%
%TD*%
%TA.AperFunction,Conductor*%
%ADD68C,0.317800*%
%TD*%
G04 APERTURE END LIST*
D10*
%TA.AperFunction,EtchedComponent*%
%TO.C,G\u002A\u002A\u002A*%
G36*
X120708716Y-53351228D02*
G01*
X120718472Y-53363481D01*
X120726387Y-53382175D01*
X120730464Y-53405898D01*
X120730842Y-53437446D01*
X120727655Y-53479609D01*
X120725199Y-53501889D01*
X120720303Y-53549464D01*
X120718496Y-53582732D01*
X120719773Y-53602064D01*
X120723138Y-53607786D01*
X120729871Y-53603171D01*
X120743169Y-53590007D01*
X120758143Y-53573431D01*
X120782599Y-53548269D01*
X120811559Y-53522713D01*
X120827824Y-53510193D01*
X120866773Y-53482454D01*
X120933862Y-53502570D01*
X120964033Y-53512612D01*
X120988777Y-53522701D01*
X121004461Y-53531267D01*
X121007749Y-53534459D01*
X121007569Y-53548674D01*
X120993462Y-53567228D01*
X120965772Y-53589803D01*
X120924835Y-53616075D01*
X120918008Y-53620064D01*
X120861766Y-53655641D01*
X120818652Y-53689589D01*
X120788946Y-53721524D01*
X120772930Y-53751053D01*
X120770888Y-53777789D01*
X120783099Y-53801346D01*
X120785017Y-53803410D01*
X120795154Y-53810329D01*
X120816837Y-53822731D01*
X120848098Y-53839578D01*
X120886981Y-53859826D01*
X120931513Y-53882433D01*
X120972424Y-53902767D01*
X121021791Y-53927517D01*
X121068551Y-53951801D01*
X121110407Y-53974357D01*
X121145065Y-53993930D01*
X121170225Y-54009262D01*
X121181597Y-54017318D01*
X121199537Y-54033533D01*
X121215709Y-54052020D01*
X121232647Y-54076153D01*
X121252884Y-54109300D01*
X121260387Y-54122218D01*
X121279924Y-54156850D01*
X121292986Y-54182453D01*
X121301048Y-54202719D01*
X121305594Y-54221338D01*
X121308026Y-54241161D01*
X121306463Y-54298083D01*
X121292703Y-54361013D01*
X121267206Y-54427902D01*
X121265710Y-54431141D01*
X121236625Y-54496341D01*
X121215288Y-54550860D01*
X121201263Y-54596604D01*
X121194128Y-54635472D01*
X121193450Y-54669367D01*
X121198801Y-54700190D01*
X121202380Y-54711648D01*
X121210435Y-54731712D01*
X121220641Y-54749934D01*
X121234497Y-54767577D01*
X121253508Y-54785906D01*
X121279174Y-54806184D01*
X121312995Y-54829674D01*
X121356474Y-54857643D01*
X121411114Y-54891349D01*
X121428449Y-54901886D01*
X121495664Y-54942587D01*
X121551764Y-54976317D01*
X121598428Y-55003946D01*
X121637336Y-55026337D01*
X121670167Y-55044356D01*
X121698602Y-55058867D01*
X121724320Y-55070737D01*
X121749001Y-55080830D01*
X121774323Y-55090016D01*
X121801968Y-55099153D01*
X121826070Y-55106759D01*
X121937827Y-55143648D01*
X122038206Y-55181292D01*
X122130800Y-55221355D01*
X122219210Y-55265502D01*
X122307026Y-55315399D01*
X122390752Y-55368046D01*
X122530237Y-55464645D01*
X122656482Y-55563496D01*
X122771232Y-55666161D01*
X122876230Y-55774201D01*
X122973225Y-55889178D01*
X122973483Y-55889505D01*
X123028037Y-55961404D01*
X123076657Y-56031325D01*
X123120414Y-56101445D01*
X123160383Y-56173948D01*
X123197640Y-56251012D01*
X123233261Y-56334816D01*
X123268319Y-56427542D01*
X123303888Y-56531369D01*
X123329860Y-56612439D01*
X123357790Y-56698910D01*
X123383613Y-56772786D01*
X123408151Y-56836186D01*
X123432232Y-56891225D01*
X123456682Y-56940024D01*
X123460532Y-56947113D01*
X123475484Y-56973918D01*
X123488118Y-56993099D01*
X123501382Y-57006303D01*
X123518219Y-57015169D01*
X123541577Y-57021336D01*
X123574402Y-57026452D01*
X123611222Y-57031109D01*
X123747358Y-57050291D01*
X123869919Y-57072506D01*
X123980102Y-57098148D01*
X124079106Y-57127612D01*
X124168125Y-57161295D01*
X124248353Y-57199585D01*
X124320988Y-57242880D01*
X124377188Y-57283545D01*
X124407764Y-57312472D01*
X124435711Y-57349624D01*
X124461863Y-57396564D01*
X124487046Y-57454848D01*
X124512094Y-57526035D01*
X124520354Y-57552243D01*
X124544516Y-57628029D01*
X124566141Y-57689961D01*
X124585582Y-57738905D01*
X124603182Y-57775731D01*
X124619291Y-57801310D01*
X124620681Y-57803092D01*
X124640603Y-57828112D01*
X124646549Y-57775193D01*
X124653991Y-57728371D01*
X124664681Y-57687764D01*
X124677639Y-57656460D01*
X124689638Y-57639536D01*
X124711136Y-57625783D01*
X124737963Y-57622822D01*
X124765549Y-57627895D01*
X124791765Y-57639955D01*
X124811135Y-57660887D01*
X124823939Y-57691721D01*
X124830456Y-57733489D01*
X124830966Y-57787215D01*
X124826090Y-57850759D01*
X124822961Y-57883465D01*
X124821022Y-57910500D01*
X124820479Y-57928469D01*
X124821066Y-57933884D01*
X124828855Y-57933351D01*
X124846105Y-57921977D01*
X124872330Y-57900153D01*
X124907045Y-57868269D01*
X124930432Y-57845757D01*
X124997547Y-57788130D01*
X125043124Y-57757612D01*
X125100407Y-57723527D01*
X125161941Y-57757296D01*
X125188925Y-57772344D01*
X125210389Y-57784768D01*
X125223303Y-57792787D01*
X125225648Y-57794652D01*
X125227937Y-57805055D01*
X125222906Y-57818719D01*
X125209494Y-57837017D01*
X125186634Y-57861324D01*
X125153272Y-57893024D01*
X125141500Y-57903778D01*
X125078177Y-57964348D01*
X125028452Y-58018804D01*
X124992260Y-58067239D01*
X124969540Y-58109748D01*
X124960230Y-58146423D01*
X124962910Y-58173405D01*
X124966662Y-58181963D01*
X124973588Y-58188855D01*
X124986129Y-58195081D01*
X125006728Y-58201650D01*
X125037830Y-58209566D01*
X125067750Y-58216585D01*
X125138438Y-58233072D01*
X125196547Y-58247316D01*
X125244145Y-58260314D01*
X125283302Y-58273066D01*
X125316088Y-58286569D01*
X125344571Y-58301821D01*
X125370821Y-58319821D01*
X125396907Y-58341564D01*
X125424897Y-58368050D01*
X125456862Y-58400278D01*
X125464162Y-58407753D01*
X125471027Y-58418208D01*
X125468824Y-58427525D01*
X125456299Y-58436406D01*
X125432195Y-58445554D01*
X125395256Y-58455670D01*
X125365940Y-58462603D01*
X125315496Y-58473863D01*
X125276132Y-58481485D01*
X125244329Y-58485287D01*
X125216569Y-58485094D01*
X125189333Y-58480720D01*
X125159104Y-58471989D01*
X125122362Y-58458721D01*
X125096617Y-58448854D01*
X125015368Y-58419663D01*
X124946007Y-58399386D01*
X124888559Y-58388019D01*
X124843051Y-58385565D01*
X124809515Y-58392021D01*
X124787974Y-58407388D01*
X124778460Y-58431663D01*
X124778739Y-58452254D01*
X124783466Y-58470331D01*
X124794181Y-58487108D01*
X124813089Y-58504942D01*
X124842385Y-58526177D01*
X124857028Y-58535840D01*
X124876016Y-58549857D01*
X124889932Y-58565644D01*
X124902917Y-58588389D01*
X124908709Y-58600440D01*
X124921122Y-58630567D01*
X124931339Y-58661674D01*
X124935835Y-58680408D01*
X124939674Y-58699011D01*
X124945065Y-58712822D01*
X124954729Y-58726016D01*
X124971384Y-58742767D01*
X124984315Y-58754827D01*
X125009800Y-58780431D01*
X125023314Y-58799981D01*
X125025506Y-58815536D01*
X125017020Y-58829163D01*
X125009602Y-58835432D01*
X124996155Y-58841313D01*
X124976501Y-58841648D01*
X124947007Y-58836429D01*
X124942508Y-58835402D01*
X124919407Y-58829670D01*
X124899320Y-58823305D01*
X124880874Y-58815068D01*
X124862691Y-58803728D01*
X124843394Y-58788049D01*
X124821608Y-58766790D01*
X124795954Y-58738721D01*
X124765059Y-58702602D01*
X124727542Y-58657201D01*
X124682896Y-58602348D01*
X124649863Y-58562945D01*
X124613243Y-58521403D01*
X124576874Y-58481952D01*
X124544598Y-58448827D01*
X124535877Y-58440363D01*
X124487734Y-58394219D01*
X124448946Y-58356188D01*
X124417798Y-58324264D01*
X124392561Y-58296445D01*
X124371518Y-58270727D01*
X124352944Y-58245105D01*
X124335122Y-58217574D01*
X124316328Y-58186133D01*
X124313896Y-58181951D01*
X124295419Y-58149417D01*
X124280004Y-58120222D01*
X124266272Y-58091162D01*
X124252842Y-58059028D01*
X124238330Y-58020609D01*
X124221357Y-57972698D01*
X124211524Y-57944206D01*
X124192166Y-57889466D01*
X124173413Y-57839517D01*
X124156284Y-57796927D01*
X124141801Y-57764262D01*
X124133559Y-57748285D01*
X124107134Y-57702516D01*
X123985263Y-57712722D01*
X123887065Y-57720344D01*
X123803559Y-57725539D01*
X123734776Y-57728302D01*
X123680752Y-57728636D01*
X123664852Y-57728159D01*
X123639286Y-57727676D01*
X123619787Y-57728425D01*
X123611524Y-57729932D01*
X123608597Y-57733406D01*
X123607531Y-57740787D01*
X123608626Y-57754018D01*
X123612181Y-57775044D01*
X123618497Y-57805809D01*
X123627869Y-57848262D01*
X123633711Y-57874094D01*
X123655662Y-57970749D01*
X123751869Y-58137387D01*
X123790972Y-58206064D01*
X123823702Y-58265859D01*
X123851937Y-58320414D01*
X123877559Y-58373376D01*
X123902449Y-58428389D01*
X123904708Y-58433545D01*
X123941927Y-58513298D01*
X123985713Y-58598149D01*
X124034074Y-58684739D01*
X124085012Y-58769710D01*
X124136535Y-58849701D01*
X124186644Y-58921359D01*
X124221701Y-58967115D01*
X124260298Y-59014752D01*
X124297037Y-59059235D01*
X124332841Y-59101467D01*
X124368626Y-59142356D01*
X124405308Y-59182810D01*
X124443804Y-59223729D01*
X124485033Y-59266027D01*
X124529911Y-59310605D01*
X124579356Y-59358373D01*
X124634285Y-59410233D01*
X124695617Y-59467096D01*
X124764263Y-59529864D01*
X124841149Y-59599448D01*
X124927187Y-59676751D01*
X125023295Y-59762681D01*
X125059989Y-59795414D01*
X125200220Y-59921195D01*
X125329458Y-60038731D01*
X125448596Y-60148938D01*
X125558532Y-60252728D01*
X125660159Y-60351009D01*
X125754372Y-60444693D01*
X125842064Y-60534692D01*
X125924132Y-60621922D01*
X126001471Y-60707287D01*
X126074972Y-60791703D01*
X126145533Y-60876080D01*
X126214049Y-60961331D01*
X126251215Y-61008961D01*
X126273048Y-61037525D01*
X126292663Y-61064048D01*
X126311261Y-61090418D01*
X126330045Y-61118519D01*
X126350215Y-61150244D01*
X126372966Y-61187477D01*
X126399500Y-61232107D01*
X126431020Y-61286022D01*
X126468721Y-61351107D01*
X126468731Y-61351124D01*
X126505495Y-61414880D01*
X126535593Y-61467467D01*
X126559947Y-61510662D01*
X126579480Y-61546240D01*
X126595109Y-61575976D01*
X126607760Y-61601647D01*
X126618351Y-61625028D01*
X126627805Y-61647893D01*
X126637043Y-61672019D01*
X126641458Y-61683990D01*
X126670986Y-61768676D01*
X126694203Y-61845474D01*
X126712237Y-61919358D01*
X126726210Y-61995304D01*
X126737248Y-62078289D01*
X126742858Y-62132747D01*
X126754383Y-62324262D01*
X126752217Y-62510366D01*
X126736295Y-62691926D01*
X126706548Y-62869813D01*
X126677117Y-62993919D01*
X126657129Y-63065722D01*
X126636785Y-63131290D01*
X126615147Y-63192362D01*
X126591271Y-63250687D01*
X126564215Y-63308011D01*
X126533043Y-63366080D01*
X126496807Y-63426637D01*
X126454571Y-63491431D01*
X126405391Y-63562207D01*
X126348330Y-63640708D01*
X126282445Y-63728682D01*
X126277685Y-63734968D01*
X126244072Y-63780496D01*
X126206255Y-63833637D01*
X126167845Y-63889196D01*
X126132454Y-63941980D01*
X126115574Y-63967967D01*
X126088170Y-64010584D01*
X126067104Y-64042524D01*
X126050721Y-64065800D01*
X126037366Y-64082435D01*
X126025387Y-64094447D01*
X126013128Y-64103848D01*
X125998934Y-64112663D01*
X125995167Y-64114850D01*
X125972480Y-64126734D01*
X125954521Y-64133937D01*
X125945756Y-64134970D01*
X125938765Y-64122793D01*
X125937864Y-64097394D01*
X125943004Y-64059236D01*
X125954148Y-64008790D01*
X125959420Y-63988456D01*
X125967437Y-63959511D01*
X125976184Y-63930246D01*
X125986172Y-63899320D01*
X125997917Y-63865386D01*
X126011930Y-63827103D01*
X126028727Y-63783124D01*
X126048823Y-63732107D01*
X126072728Y-63672710D01*
X126100955Y-63603584D01*
X126134023Y-63523392D01*
X126172438Y-63430783D01*
X126173801Y-63427509D01*
X126209043Y-63342598D01*
X126239007Y-63270005D01*
X126264247Y-63208222D01*
X126285321Y-63155748D01*
X126302789Y-63111079D01*
X126317210Y-63072708D01*
X126329140Y-63039135D01*
X126339138Y-63008853D01*
X126347763Y-62980360D01*
X126355572Y-62952152D01*
X126363121Y-62922722D01*
X126366991Y-62907026D01*
X126396031Y-62756531D01*
X126410436Y-62603635D01*
X126410303Y-62448771D01*
X126395731Y-62292381D01*
X126366811Y-62134897D01*
X126323646Y-61976757D01*
X126266329Y-61818398D01*
X126194962Y-61660257D01*
X126109636Y-61502768D01*
X126025113Y-61368102D01*
X125981518Y-61304106D01*
X125942253Y-61249624D01*
X125904397Y-61201028D01*
X125865024Y-61154701D01*
X125821215Y-61107020D01*
X125780015Y-61064459D01*
X125726914Y-61011478D01*
X125673507Y-60960245D01*
X125618686Y-60909889D01*
X125561341Y-60859535D01*
X125500366Y-60808307D01*
X125434651Y-60755336D01*
X125363087Y-60699744D01*
X125284566Y-60640658D01*
X125197982Y-60577205D01*
X125102226Y-60508512D01*
X124996187Y-60433703D01*
X124878757Y-60351906D01*
X124857725Y-60337343D01*
X124779264Y-60282974D01*
X124711555Y-60235845D01*
X124652956Y-60194747D01*
X124601820Y-60158470D01*
X124556502Y-60125808D01*
X124515357Y-60095551D01*
X124476741Y-60066493D01*
X124439010Y-60037419D01*
X124400514Y-60007128D01*
X124359616Y-59974410D01*
X124319100Y-59941655D01*
X124166786Y-59815869D01*
X124026467Y-59695167D01*
X123896669Y-59578037D01*
X123775912Y-59462968D01*
X123662716Y-59348443D01*
X123555606Y-59232952D01*
X123453103Y-59114983D01*
X123353729Y-58993023D01*
X123256005Y-58865561D01*
X123220563Y-58817518D01*
X123169793Y-58744409D01*
X123115452Y-58659571D01*
X123058914Y-58565429D01*
X123001555Y-58464416D01*
X122944752Y-58358968D01*
X122889877Y-58251512D01*
X122838307Y-58144481D01*
X122830948Y-58128626D01*
X122805237Y-58073143D01*
X122779620Y-58018221D01*
X122755315Y-57966445D01*
X122733538Y-57920391D01*
X122715505Y-57882649D01*
X122702434Y-57855799D01*
X122701805Y-57854530D01*
X122665825Y-57782179D01*
X122605146Y-57767416D01*
X122575688Y-57759322D01*
X122536685Y-57747290D01*
X122492601Y-57732760D01*
X122447897Y-57717175D01*
X122434377Y-57712270D01*
X122392569Y-57697258D01*
X122352107Y-57683308D01*
X122316716Y-57671668D01*
X122290125Y-57663581D01*
X122282713Y-57661599D01*
X122258815Y-57656375D01*
X122245573Y-57656004D01*
X122239320Y-57660850D01*
X122237491Y-57666055D01*
X122236462Y-57678499D01*
X122236076Y-57702889D01*
X122236324Y-57736183D01*
X122237197Y-57775337D01*
X122237805Y-57794396D01*
X122239427Y-57845040D01*
X122240099Y-57884493D01*
X122239557Y-57916546D01*
X122237529Y-57944993D01*
X122233743Y-57973631D01*
X122227938Y-58006249D01*
X122220008Y-58045838D01*
X122203469Y-58126599D01*
X122243491Y-58157739D01*
X122271155Y-58177674D01*
X122304737Y-58199637D01*
X122335955Y-58218292D01*
X122359919Y-58232457D01*
X122377958Y-58245975D01*
X122391592Y-58261520D01*
X122402332Y-58281777D01*
X122411700Y-58309426D01*
X122421208Y-58347147D01*
X122429258Y-58383276D01*
X122439894Y-58435397D01*
X122445896Y-58474684D01*
X122446979Y-58502657D01*
X122442861Y-58520840D01*
X122433257Y-58530759D01*
X122417883Y-58533932D01*
X122401453Y-58532672D01*
X122372736Y-58522119D01*
X122339222Y-58498517D01*
X122301778Y-58462714D01*
X122261261Y-58415558D01*
X122218535Y-58357898D01*
X122207251Y-58341411D01*
X122170023Y-58290571D01*
X122135371Y-58253268D01*
X122101770Y-58228607D01*
X122067695Y-58215692D01*
X122031622Y-58213629D01*
X121999493Y-58219405D01*
X121959448Y-58237237D01*
X121925075Y-58266252D01*
X121911921Y-58283345D01*
X121905166Y-58297070D01*
X121895017Y-58321906D01*
X121882693Y-58354685D01*
X121869416Y-58392239D01*
X121865217Y-58404602D01*
X121851268Y-58444073D01*
X121837102Y-58480740D01*
X121824164Y-58511085D01*
X121813894Y-58531579D01*
X121811792Y-58534931D01*
X121777115Y-58577326D01*
X121733982Y-58617438D01*
X121688551Y-58649584D01*
X121686410Y-58650833D01*
X121662505Y-58663684D01*
X121647001Y-58668988D01*
X121636010Y-58667796D01*
X121631794Y-58665609D01*
X121618060Y-58649281D01*
X121615165Y-58623743D01*
X121623081Y-58588455D01*
X121627189Y-58576862D01*
X121635808Y-58545424D01*
X121641211Y-58509029D01*
X121642204Y-58486974D01*
X121642600Y-58452365D01*
X121645724Y-58424655D01*
X121652991Y-58399501D01*
X121665809Y-58372552D01*
X121685594Y-58339465D01*
X121694874Y-58324935D01*
X121722059Y-58278562D01*
X121744290Y-58232290D01*
X121760445Y-58189088D01*
X121769396Y-58151928D01*
X121770319Y-58125747D01*
X121766524Y-58107959D01*
X121758641Y-58099387D01*
X121747613Y-58095577D01*
X121732116Y-58095236D01*
X121706494Y-58098518D01*
X121675019Y-58104777D01*
X121656758Y-58109255D01*
X121622366Y-58117703D01*
X121590083Y-58124610D01*
X121564865Y-58128959D01*
X121556610Y-58129847D01*
X121532612Y-58127145D01*
X121500853Y-58117694D01*
X121464481Y-58103111D01*
X121426651Y-58085021D01*
X121390510Y-58065044D01*
X121359212Y-58044802D01*
X121335905Y-58025916D01*
X121323759Y-58010051D01*
X121321620Y-57998455D01*
X121327387Y-57987484D01*
X121343353Y-57973127D01*
X121346078Y-57970972D01*
X121368567Y-57951218D01*
X121389509Y-57929497D01*
X121394580Y-57923403D01*
X121419120Y-57898355D01*
X121447378Y-57882514D01*
X121481683Y-57875415D01*
X121524347Y-57876589D01*
X121577688Y-57885575D01*
X121580151Y-57886104D01*
X121627879Y-57895215D01*
X121666793Y-57900061D01*
X121695283Y-57900552D01*
X121711738Y-57896597D01*
X121714587Y-57893752D01*
X121715101Y-57886458D01*
X121709262Y-57875947D01*
X121695859Y-57860962D01*
X121673675Y-57840241D01*
X121641501Y-57812525D01*
X121615551Y-57790901D01*
X121573564Y-57755139D01*
X121542500Y-57725897D01*
X121520827Y-57701322D01*
X121507014Y-57679572D01*
X121499525Y-57658795D01*
X121497765Y-57648911D01*
X121498332Y-57619970D01*
X121509109Y-57600607D01*
X121530670Y-57590524D01*
X121563586Y-57589423D01*
X121600624Y-57595262D01*
X121633357Y-57606591D01*
X121661878Y-57626720D01*
X121688608Y-57657787D01*
X121710295Y-57691883D01*
X121723712Y-57712695D01*
X121735571Y-57726942D01*
X121741993Y-57731125D01*
X121752111Y-57726547D01*
X121758036Y-57711562D01*
X121759752Y-57685401D01*
X121757242Y-57647287D01*
X121750491Y-57596454D01*
X121739481Y-57532130D01*
X121737465Y-57521287D01*
X121724429Y-57447147D01*
X121715736Y-57385366D01*
X121711413Y-57333936D01*
X121711489Y-57290847D01*
X121715999Y-57254090D01*
X121724971Y-57221650D01*
X121738432Y-57191524D01*
X121742508Y-57184107D01*
X121769434Y-57147446D01*
X121803356Y-57121700D01*
X121846754Y-57105304D01*
X121875496Y-57099708D01*
X121916577Y-57094736D01*
X121968593Y-57090046D01*
X122027477Y-57085859D01*
X122089157Y-57082401D01*
X122149569Y-57079889D01*
X122204644Y-57078551D01*
X122250312Y-57078609D01*
X122257265Y-57078786D01*
X122290166Y-57079432D01*
X122317458Y-57079303D01*
X122335668Y-57078456D01*
X122341163Y-57077460D01*
X122344729Y-57067420D01*
X122339974Y-57048385D01*
X122328279Y-57022805D01*
X122311029Y-56993120D01*
X122289606Y-56961783D01*
X122265398Y-56931237D01*
X122247103Y-56911191D01*
X122221805Y-56887425D01*
X122189312Y-56859854D01*
X122154963Y-56832920D01*
X122139078Y-56821302D01*
X122080911Y-56776468D01*
X122021724Y-56723572D01*
X121960327Y-56661379D01*
X121895530Y-56588651D01*
X121826145Y-56504152D01*
X121791202Y-56459490D01*
X121738904Y-56393703D01*
X121687757Y-56333873D01*
X121635955Y-56278405D01*
X121581681Y-56225708D01*
X121523127Y-56174187D01*
X121458480Y-56122252D01*
X121385927Y-56068306D01*
X121303656Y-56010755D01*
X121209855Y-55948011D01*
X121208435Y-55947078D01*
X121148395Y-55907861D01*
X121099561Y-55876612D01*
X121060827Y-55852744D01*
X121031075Y-55835663D01*
X121009193Y-55824785D01*
X120994073Y-55819516D01*
X120984597Y-55819269D01*
X120979651Y-55823456D01*
X120978870Y-55825539D01*
X120979563Y-55836584D01*
X120983637Y-55859385D01*
X120990520Y-55891215D01*
X120999637Y-55929360D01*
X121006621Y-55956769D01*
X121020849Y-56012478D01*
X121031077Y-56056051D01*
X121037596Y-56089726D01*
X121040707Y-56115741D01*
X121040693Y-56136333D01*
X121037855Y-56153740D01*
X121034038Y-56166087D01*
X121025245Y-56183525D01*
X121011774Y-56196473D01*
X120991260Y-56205893D01*
X120961330Y-56212742D01*
X120919605Y-56217981D01*
X120901641Y-56219624D01*
X120866419Y-56223154D01*
X120840686Y-56227684D01*
X120818944Y-56234836D01*
X120795687Y-56246244D01*
X120777949Y-56256253D01*
X120744327Y-56277217D01*
X120721734Y-56296611D01*
X120707331Y-56318601D01*
X120698291Y-56347361D01*
X120692452Y-56382064D01*
X120683911Y-56423294D01*
X120670958Y-56460004D01*
X120655044Y-56489235D01*
X120637626Y-56508021D01*
X120628195Y-56512759D01*
X120609214Y-56512570D01*
X120592821Y-56506293D01*
X120576799Y-56499614D01*
X120565910Y-56499941D01*
X120557513Y-56501904D01*
X120553057Y-56495174D01*
X120552656Y-56478721D01*
X120556419Y-56451516D01*
X120564456Y-56412531D01*
X120576881Y-56360733D01*
X120583823Y-56333393D01*
X120596841Y-56282140D01*
X120606210Y-56243247D01*
X120612249Y-56214596D01*
X120615271Y-56194075D01*
X120615594Y-56179570D01*
X120613531Y-56168968D01*
X120609658Y-56160598D01*
X120596112Y-56143275D01*
X120579120Y-56135032D01*
X120556202Y-56135729D01*
X120524882Y-56145227D01*
X120502177Y-56154591D01*
X120472053Y-56166774D01*
X120443774Y-56176530D01*
X120422745Y-56182020D01*
X120420301Y-56182395D01*
X120399294Y-56183605D01*
X120369266Y-56183554D01*
X120334288Y-56182450D01*
X120298433Y-56180514D01*
X120265774Y-56177962D01*
X120240383Y-56175004D01*
X120227112Y-56172180D01*
X120218236Y-56167505D01*
X120215690Y-56160958D01*
X120220554Y-56150768D01*
X120233921Y-56135168D01*
X120256874Y-56112391D01*
X120273745Y-56096384D01*
X120313917Y-56059621D01*
X120346883Y-56032753D01*
X120375516Y-56014561D01*
X120402693Y-56003825D01*
X120431287Y-55999329D01*
X120464176Y-55999854D01*
X120494326Y-56002925D01*
X120535057Y-56005825D01*
X120564071Y-56002554D01*
X120583552Y-55992575D01*
X120594224Y-55978476D01*
X120597356Y-55971085D01*
X120598285Y-55963180D01*
X120596188Y-55952605D01*
X120590252Y-55937195D01*
X120579657Y-55914785D01*
X120563587Y-55883218D01*
X120543892Y-55845435D01*
X120521566Y-55802360D01*
X120505230Y-55769458D01*
X120493699Y-55743728D01*
X120485781Y-55722171D01*
X120480287Y-55701788D01*
X120476029Y-55679580D01*
X120474579Y-55670616D01*
X120469423Y-55641048D01*
X120464237Y-55616613D01*
X120459969Y-55601624D01*
X120459142Y-55599840D01*
X120444508Y-55588246D01*
X120416712Y-55579578D01*
X120377311Y-55573840D01*
X120327860Y-55571034D01*
X120269914Y-55571166D01*
X120205028Y-55574237D01*
X120134760Y-55580258D01*
X120060661Y-55589226D01*
X119999335Y-55598584D01*
X119907706Y-55613691D01*
X119830470Y-55626021D01*
X119767699Y-55635564D01*
X119719472Y-55642309D01*
X119685860Y-55646244D01*
X119673380Y-55647219D01*
X119629486Y-55643338D01*
X119577445Y-55627506D01*
X119517056Y-55599645D01*
X119448128Y-55559678D01*
X119442653Y-55556221D01*
X119394903Y-55526806D01*
X119356734Y-55505719D01*
X119325857Y-55492107D01*
X119299985Y-55485119D01*
X119276829Y-55483906D01*
X119256467Y-55487036D01*
X119230950Y-55489375D01*
X119200110Y-55487210D01*
X119182939Y-55483957D01*
X119143601Y-55468919D01*
X119111328Y-55443980D01*
X119083208Y-55406780D01*
X119079064Y-55399819D01*
X119070783Y-55387705D01*
X119059004Y-55375083D01*
X119041867Y-55360499D01*
X119017513Y-55342494D01*
X118984091Y-55319609D01*
X118939735Y-55290388D01*
X118939174Y-55290023D01*
X118863341Y-55238081D01*
X118801251Y-55189752D01*
X118752316Y-55144221D01*
X118715942Y-55100665D01*
X118691544Y-55058266D01*
X118678528Y-55016206D01*
X118676308Y-54973665D01*
X118683069Y-54934221D01*
X118697954Y-54898071D01*
X118723607Y-54861953D01*
X118760751Y-54825267D01*
X118810108Y-54787420D01*
X118872402Y-54747818D01*
X118948360Y-54705866D01*
X118981287Y-54689015D01*
X119019962Y-54669362D01*
X119047639Y-54654515D01*
X119066860Y-54642823D01*
X119080167Y-54632625D01*
X119090099Y-54622269D01*
X119096494Y-54613914D01*
X119122915Y-54586659D01*
X119156856Y-54564767D01*
X119192714Y-54551436D01*
X119210613Y-54548932D01*
X119233777Y-54550066D01*
X119263854Y-54554200D01*
X119286920Y-54558804D01*
X119306812Y-54563175D01*
X119322798Y-54565192D01*
X119338340Y-54564256D01*
X119356903Y-54559764D01*
X119381945Y-54551113D01*
X119416928Y-54537700D01*
X119423888Y-54534992D01*
X119484771Y-54511906D01*
X119534995Y-54494828D01*
X119577552Y-54483542D01*
X119615432Y-54477821D01*
X119651625Y-54477451D01*
X119689119Y-54482208D01*
X119730906Y-54491868D01*
X119779976Y-54506213D01*
X119786333Y-54508188D01*
X119829266Y-54521055D01*
X119863259Y-54529520D01*
X119893465Y-54534346D01*
X119925027Y-54536294D01*
X119963100Y-54536124D01*
X119973459Y-54535863D01*
X120022222Y-54535814D01*
X120066882Y-54539039D01*
X120110140Y-54546293D01*
X120154693Y-54558335D01*
X120203243Y-54575927D01*
X120258490Y-54599827D01*
X120323134Y-54630795D01*
X120339007Y-54638694D01*
X120384827Y-54661183D01*
X120429625Y-54682394D01*
X120470412Y-54700968D01*
X120504199Y-54715549D01*
X120527996Y-54724776D01*
X120530039Y-54725461D01*
X120580395Y-54741863D01*
X120621701Y-54718016D01*
X120667801Y-54687576D01*
X120703071Y-54656155D01*
X120725860Y-54625322D01*
X120730887Y-54614142D01*
X120736078Y-54595554D01*
X120742475Y-54566336D01*
X120749213Y-54530709D01*
X120754649Y-54498001D01*
X120762543Y-54454174D01*
X120772779Y-54407270D01*
X120783796Y-54364091D01*
X120790566Y-54341470D01*
X120812785Y-54273298D01*
X120711331Y-54129878D01*
X120681917Y-54088734D01*
X120654699Y-54051487D01*
X120631071Y-54019976D01*
X120612427Y-53996043D01*
X120600159Y-53981533D01*
X120596550Y-53978180D01*
X120584550Y-53974465D01*
X120566721Y-53975726D01*
X120541140Y-53982462D01*
X120505874Y-53995168D01*
X120464830Y-54011874D01*
X120422093Y-54029381D01*
X120391796Y-54039995D01*
X120372754Y-54043102D01*
X120363781Y-54038090D01*
X120363690Y-54024343D01*
X120371295Y-54001243D01*
X120384495Y-53970248D01*
X120396017Y-53942892D01*
X120404210Y-53920830D01*
X120407825Y-53907533D01*
X120407716Y-53905446D01*
X120399356Y-53904077D01*
X120380827Y-53905992D01*
X120361197Y-53909710D01*
X120316618Y-53914505D01*
X120279467Y-53908342D01*
X120251079Y-53892239D01*
X120232787Y-53867206D01*
X120225931Y-53834260D01*
X120228299Y-53808766D01*
X120231228Y-53799538D01*
X120237967Y-53793962D01*
X120252237Y-53790413D01*
X120277558Y-53787292D01*
X120311268Y-53784805D01*
X120346815Y-53783899D01*
X120364461Y-53784256D01*
X120388427Y-53784665D01*
X120406211Y-53783660D01*
X120412023Y-53782314D01*
X120416375Y-53773153D01*
X120419848Y-53754272D01*
X120420901Y-53742614D01*
X120430235Y-53695031D01*
X120452373Y-53654675D01*
X120487990Y-53620390D01*
X120493592Y-53616353D01*
X120515382Y-53600148D01*
X120532522Y-53585611D01*
X120540172Y-53577345D01*
X120544546Y-53564600D01*
X120549316Y-53541409D01*
X120553595Y-53512270D01*
X120554407Y-53505265D01*
X120563621Y-53456176D01*
X120580447Y-53417187D01*
X120606977Y-53384445D01*
X120631019Y-53364237D01*
X120661778Y-53346456D01*
X120687936Y-53342118D01*
X120708716Y-53351228D01*
G37*
%TD.AperFunction*%
%TD*%
D11*
%TO.P,D200,1,K*%
%TO.N,Net-(D200-K)*%
X68100000Y-64000000D03*
%TO.P,D200,2,A*%
%TO.N,Net-(D200-A)*%
X71100000Y-64000000D03*
%TD*%
D12*
%TO.P,R101,1*%
%TO.N,Net-(D100-A)*%
X67705000Y-88795000D03*
%TO.P,R101,2*%
%TO.N,Net-(Q100-D)*%
X69355000Y-88795000D03*
%TD*%
D13*
%TO.P,C26,1*%
%TO.N,ANT*%
X109340000Y-76000000D03*
%TO.P,C26,2*%
%TO.N,GND*%
X109340000Y-76960000D03*
%TD*%
D14*
%TO.P,Y2,1,1*%
%TO.N,Net-(U1-XC1)*%
X112325000Y-70875000D03*
%TO.P,Y2,2,2*%
%TO.N,GND*%
X110975000Y-70875000D03*
%TO.P,Y2,3,3*%
%TO.N,Net-(U1-XC2)*%
X110975000Y-71925000D03*
%TO.P,Y2,4,4*%
%TO.N,GND*%
X112325000Y-71925000D03*
%TD*%
D15*
%TO.P,Q100,1,G*%
%TO.N,Net-(Q100-G)*%
X67562500Y-84745000D03*
%TO.P,Q100,2,S*%
%TO.N,GND*%
X67562500Y-86645000D03*
%TO.P,Q100,3,D*%
%TO.N,Net-(Q100-D)*%
X69437500Y-85695000D03*
%TD*%
D16*
%TO.P,D202,1,K*%
%TO.N,GND*%
X58872500Y-64600000D03*
%TO.P,D202,2,A*%
%TO.N,Net-(D202-A)*%
X60447500Y-64600000D03*
%TD*%
D17*
%TO.P,U102,1,SDO/MISO*%
%TO.N,GND*%
X96025000Y-67638330D03*
%TO.P,U102,2,SDX/MOSI*%
%TO.N,SDA*%
X96525000Y-67638330D03*
%TO.P,U102,3,VDDIO*%
%TO.N,Net-(JP103-B)*%
X97025000Y-67638330D03*
%TO.P,U102,4,NC*%
%TO.N,unconnected-(U102-NC-Pad4)*%
X97525000Y-67638330D03*
D18*
%TO.P,U102,5,INT1*%
%TO.N,BMA400_INT1*%
X97590000Y-67073330D03*
%TO.P,U102,6,INT2*%
%TO.N,BMA400_INT2*%
X97590000Y-66573330D03*
D17*
%TO.P,U102,7,VDD*%
%TO.N,Net-(JP103-B)*%
X97525000Y-66008330D03*
%TO.P,U102,8,GNDIO*%
%TO.N,GND*%
X97025000Y-66008330D03*
%TO.P,U102,9,GND*%
X96525000Y-66008330D03*
%TO.P,U102,10,CSB/CS*%
%TO.N,Net-(JP103-B)*%
X96025000Y-66008330D03*
D18*
%TO.P,U102,11,NC*%
%TO.N,unconnected-(U102-NC-Pad11)*%
X95960000Y-66573330D03*
%TO.P,U102,12,SCX/SCK*%
%TO.N,SCL*%
X95960000Y-67073330D03*
%TD*%
D19*
%TO.P,J202,1,Pin_1*%
%TO.N,+3V0*%
X125860000Y-112540000D03*
D20*
%TO.P,J202,2,Pin_2*%
%TO.N,P1.15*%
X125860000Y-110000000D03*
%TO.P,J202,3,Pin_3*%
%TO.N,GND*%
X125860000Y-107460000D03*
%TO.P,J202,4,Pin_4*%
X125860000Y-104920000D03*
%TO.P,J202,5,Pin_5*%
X125860000Y-102380000D03*
%TD*%
D21*
%TO.P,JP104,1,A*%
%TO.N,+3V0*%
X118240000Y-115075000D03*
D22*
%TO.P,JP104,2,B*%
%TO.N,Net-(JP104-B)*%
X115700000Y-115075000D03*
%TD*%
D21*
%TO.P,JP201,1,A*%
%TO.N,+3V0*%
X118240000Y-125235000D03*
D22*
%TO.P,JP201,2,B*%
%TO.N,Net-(IC200-VDD)*%
X115700000Y-125235000D03*
%TD*%
D23*
%TO.P,C12,1*%
%TO.N,Net-(U1-DEC1)*%
X100500000Y-73780000D03*
%TO.P,C12,2*%
%TO.N,GND*%
X100500000Y-72820000D03*
%TD*%
D13*
%TO.P,C201,1*%
%TO.N,VBUS*%
X87300000Y-70120000D03*
%TO.P,C201,2*%
%TO.N,GND*%
X87300000Y-71080000D03*
%TD*%
D24*
%TO.P,U101,1,GND*%
%TO.N,GND*%
X96360000Y-117500000D03*
%TO.P,U101,2,LEDK*%
%TO.N,Net-(U101-LEDK)*%
X95660000Y-117500000D03*
%TO.P,U101,3,LEDA*%
%TO.N,Net-(JP104-B)*%
X94960000Y-117500000D03*
%TO.P,U101,4,VDD*%
%TO.N,Net-(JP102-B)*%
X94260000Y-117500000D03*
%TO.P,U101,5,GND*%
%TO.N,GND*%
X93560000Y-117500000D03*
%TO.P,U101,6,GND*%
X92860000Y-117500000D03*
%TO.P,U101,7,DC*%
%TO.N,LCD_D{slash}C*%
X92160000Y-117500000D03*
%TO.P,U101,8,CS*%
%TO.N,LCD_CS*%
X91460000Y-117500000D03*
%TO.P,U101,9,SCL-SCK*%
%TO.N,SCK*%
X90760000Y-117500000D03*
%TO.P,U101,10,SDA-MOSI*%
%TO.N,MOSI*%
X90060000Y-117500000D03*
%TO.P,U101,11,~{RESET}*%
%TO.N,LCD_RESET*%
X89360000Y-117500000D03*
%TO.P,U101,12,GND*%
%TO.N,GND*%
X88660000Y-117500000D03*
%TD*%
D25*
%TO.P,C205,1*%
%TO.N,Net-(JP203-B)*%
X92580000Y-73200000D03*
%TO.P,C205,2*%
%TO.N,GND*%
X91620000Y-73200000D03*
%TD*%
%TO.P,C103,1*%
%TO.N,Net-(JP103-B)*%
X97230000Y-64900000D03*
%TO.P,C103,2*%
%TO.N,GND*%
X96270000Y-64900000D03*
%TD*%
D26*
%TO.P,R203,1*%
%TO.N,GND*%
X65100000Y-56490000D03*
%TO.P,R203,2*%
%TO.N,Net-(J200-B5{slash}CC2)*%
X65100000Y-57510000D03*
%TD*%
D13*
%TO.P,C30,1*%
%TO.N,Net-(C30-Pad1)*%
X124190000Y-76000000D03*
%TO.P,C30,2*%
%TO.N,GND*%
X124190000Y-76960000D03*
%TD*%
D27*
%TO.P,R201,1*%
%TO.N,VBUS_DETECT*%
X108690000Y-67600000D03*
%TO.P,R201,2*%
%TO.N,VBUS*%
X109710000Y-67600000D03*
%TD*%
D28*
%TO.P,L1,1,1*%
%TO.N,Net-(U1-DCC)*%
X102100000Y-70287500D03*
%TO.P,L1,2,2*%
%TO.N,Net-(L1-Pad2)*%
X102100000Y-68712500D03*
%TD*%
D29*
%TO.P,IC200,1,CTG*%
%TO.N,GND*%
X101700000Y-61250000D03*
%TO.P,IC200,2,CELL*%
%TO.N,VCELL*%
X101700000Y-60750000D03*
%TO.P,IC200,3,VDD*%
%TO.N,Net-(IC200-VDD)*%
X101700000Y-60250000D03*
%TO.P,IC200,4,GND*%
%TO.N,GND*%
X101700000Y-59750000D03*
%TO.P,IC200,5,~{ALRT}*%
%TO.N,FUEL_ALERT*%
X99700000Y-59750000D03*
%TO.P,IC200,6,QSTRT*%
%TO.N,GND*%
X99700000Y-60250000D03*
%TO.P,IC200,7,SCL*%
%TO.N,SCL*%
X99700000Y-60750000D03*
%TO.P,IC200,8,SDA*%
%TO.N,SDA*%
X99700000Y-61250000D03*
D30*
%TO.P,IC200,9,EP*%
%TO.N,GND*%
X100700000Y-60500000D03*
%TD*%
D31*
%TO.P,U100,1,~{CS}*%
%TO.N,EXT_FLASH_CS*%
X89800000Y-82695000D03*
%TO.P,U100,2,SO/MISO*%
%TO.N,MISO*%
X89800000Y-83965000D03*
%TO.P,U100,3,~{WP}*%
%TO.N,~{WP}*%
X89800000Y-85235000D03*
%TO.P,U100,4,GND*%
%TO.N,GND*%
X89800000Y-86505000D03*
%TO.P,U100,5,SI/MOSI*%
%TO.N,MOSI*%
X95400000Y-86505000D03*
%TO.P,U100,6,SCK*%
%TO.N,SCK*%
X95400000Y-85235000D03*
%TO.P,U100,7,~{HOLD}*%
%TO.N,~{HOLD}*%
X95400000Y-83965000D03*
%TO.P,U100,8,VCC*%
%TO.N,Net-(JP101-B)*%
X95400000Y-82695000D03*
%TD*%
D25*
%TO.P,C8,1*%
%TO.N,Net-(U1-P0.01{slash}XL2)*%
X98880000Y-74400000D03*
%TO.P,C8,2*%
%TO.N,GND*%
X97920000Y-74400000D03*
%TD*%
D32*
%TO.P,U1,1,DEC1*%
%TO.N,Net-(U1-DEC1)*%
X102050000Y-74000000D03*
%TO.P,U1,2,P0.00/XL1*%
%TO.N,Net-(U1-P0.00{slash}XL1)*%
X102050000Y-74400000D03*
%TO.P,U1,3,P0.01/XL2*%
%TO.N,Net-(U1-P0.01{slash}XL2)*%
X102050000Y-74800000D03*
%TO.P,U1,4,P0.04/AIN2*%
%TO.N,SDA*%
X102050000Y-75200000D03*
%TO.P,U1,5,P0.05/AIN3*%
%TO.N,SCL*%
X102050000Y-75600000D03*
%TO.P,U1,6,P0.07/TRACECLK*%
%TO.N,USB_TX*%
X102050000Y-76000000D03*
%TO.P,U1,7,P0.08*%
%TO.N,USB_RX*%
X102050000Y-76400000D03*
%TO.P,U1,8,P1.08*%
%TO.N,USB_RTS*%
X102050000Y-76800000D03*
%TO.P,U1,9,P1.09/TRACEDATA3*%
%TO.N,USB_CTS*%
X102050000Y-77200000D03*
%TO.P,U1,10,P0.11/TRACEDATA2*%
%TO.N,BUZZER*%
X102050000Y-77600000D03*
%TO.P,U1,11,P0.12/TRACEDATA1*%
%TO.N,EXT_FLASH_CS*%
X102050000Y-78000000D03*
%TO.P,U1,12,VDD*%
%TO.N,Net-(JP1-B)*%
X102050000Y-78400000D03*
D33*
%TO.P,U1,13,P0.13*%
%TO.N,MISO*%
X102800000Y-79150000D03*
%TO.P,U1,14,P0.14*%
%TO.N,~{WP}*%
X103200000Y-79150000D03*
%TO.P,U1,15,P0.17*%
%TO.N,~{HOLD}*%
X103600000Y-79150000D03*
%TO.P,U1,16,P0.18/~{RESET}*%
%TO.N,~{RESET}*%
X104000000Y-79150000D03*
%TO.P,U1,17,VDD*%
%TO.N,Net-(JP1-B)*%
X104400000Y-79150000D03*
%TO.P,U1,18,P0.19*%
%TO.N,LCD_RESET*%
X104800000Y-79150000D03*
%TO.P,U1,19,P0.20*%
%TO.N,MOSI*%
X105200000Y-79150000D03*
%TO.P,U1,20,P0.21*%
%TO.N,SCK*%
X105600000Y-79150000D03*
%TO.P,U1,21,P0.22*%
%TO.N,LCD_CS*%
X106000000Y-79150000D03*
%TO.P,U1,22,P0.23*%
%TO.N,LCD_D{slash}C*%
X106400000Y-79150000D03*
%TO.P,U1,23,P0.24*%
%TO.N,LCD_PWM*%
X106800000Y-79150000D03*
%TO.P,U1,24,P1.00/TRACEDATA0*%
%TO.N,SWO*%
X107200000Y-79150000D03*
D32*
%TO.P,U1,25,VDD*%
%TO.N,Net-(JP1-B)*%
X107950000Y-78400000D03*
%TO.P,U1,26,SWDIO*%
%TO.N,SWDIO*%
X107950000Y-78000000D03*
%TO.P,U1,27,SWDCLK*%
%TO.N,SWDCLK*%
X107950000Y-77600000D03*
%TO.P,U1,28,NC*%
%TO.N,unconnected-(U1-NC-Pad28)*%
X107950000Y-77200000D03*
%TO.P,U1,29,P0.09/NFC1*%
%TO.N,unconnected-(U1-P0.09{slash}NFC1-Pad29)*%
X107950000Y-76800000D03*
%TO.P,U1,30,P0.10/NFC2*%
%TO.N,unconnected-(U1-P0.10{slash}NFC2-Pad30)*%
X107950000Y-76400000D03*
%TO.P,U1,31,ANT*%
%TO.N,ANT*%
X107950000Y-76000000D03*
%TO.P,U1,32,VSS_PA*%
%TO.N,GND*%
X107950000Y-75600000D03*
%TO.P,U1,33,DEC6*%
%TO.N,Net-(U1-DEC4)*%
X107950000Y-75200000D03*
%TO.P,U1,34,DEC3*%
%TO.N,Net-(U1-DEC3)*%
X107950000Y-74800000D03*
%TO.P,U1,35,XC1*%
%TO.N,Net-(U1-XC1)*%
X107950000Y-74400000D03*
%TO.P,U1,36,XC2*%
%TO.N,Net-(U1-XC2)*%
X107950000Y-74000000D03*
D33*
%TO.P,U1,37,VDD*%
%TO.N,Net-(JP1-B)*%
X107200000Y-73250000D03*
%TO.P,U1,38,P1.15*%
%TO.N,P1.15*%
X106800000Y-73250000D03*
%TO.P,U1,39,P0.03/AIN1*%
%TO.N,VBUS_DETECT*%
X106400000Y-73250000D03*
%TO.P,U1,40,P0.02/AIN0*%
%TO.N,Charge Error*%
X106000000Y-73250000D03*
%TO.P,U1,41,P0.28/AIN4*%
%TO.N,Charging*%
X105600000Y-73250000D03*
%TO.P,U1,42,P0.29/AIN5*%
%TO.N,FUEL_ALERT*%
X105200000Y-73250000D03*
%TO.P,U1,43,P0.30/AIN6*%
%TO.N,BMA400_INT2*%
X104800000Y-73250000D03*
%TO.P,U1,44,P0.31/AIN7*%
%TO.N,BMA400_INT1*%
X104400000Y-73250000D03*
%TO.P,U1,45,VSS*%
%TO.N,GND*%
X104000000Y-73250000D03*
%TO.P,U1,46,DEC4*%
%TO.N,Net-(U1-DEC4)*%
X103600000Y-73250000D03*
%TO.P,U1,47,DCC*%
%TO.N,Net-(U1-DCC)*%
X103200000Y-73250000D03*
%TO.P,U1,48,VDD*%
%TO.N,Net-(JP1-B)*%
X102800000Y-73250000D03*
D34*
%TO.P,U1,49,VSS*%
%TO.N,GND*%
X105000000Y-76200000D03*
%TD*%
D27*
%TO.P,R14,1*%
%TO.N,VBUS*%
X78590000Y-73900000D03*
%TO.P,R14,2*%
%TO.N,Net-(IC1-VBUS)*%
X79610000Y-73900000D03*
%TD*%
D35*
%TO.P,R204,1*%
%TO.N,GND*%
X109710000Y-68800000D03*
%TO.P,R204,2*%
%TO.N,VBUS_DETECT*%
X108690000Y-68800000D03*
%TD*%
D36*
%TO.P,D100,1,K*%
%TO.N,Net-(D100-K)*%
X69270000Y-90795000D03*
%TO.P,D100,2,A*%
%TO.N,Net-(D100-A)*%
X67770000Y-90795000D03*
%TD*%
D35*
%TO.P,R102,1*%
%TO.N,BUZZER*%
X69020000Y-81695000D03*
%TO.P,R102,2*%
%TO.N,Net-(Q100-G)*%
X68000000Y-81695000D03*
%TD*%
D37*
%TO.P,J200,A1,A1/GND*%
%TO.N,GND*%
X77100000Y-59928000D03*
%TO.P,J200,A4,A4/VBUS*%
%TO.N,Net-(D200-A)*%
X76300000Y-59928000D03*
%TO.P,J200,A5,A5/CC1*%
%TO.N,Net-(J200-A5{slash}CC1)*%
X75000000Y-59928000D03*
%TO.P,J200,A6,A6/D+1*%
%TO.N,D+*%
X74000000Y-59928000D03*
%TO.P,J200,A7,A7/D-1*%
%TO.N,D-*%
X73500000Y-59928000D03*
%TO.P,J200,A8,A8/SBU1*%
%TO.N,unconnected-(J200-A8{slash}SBU1-PadA8)*%
X72500000Y-59928000D03*
%TO.P,J200,A9,A9/VBUS*%
%TO.N,Net-(D200-A)*%
X71200000Y-59928000D03*
%TO.P,J200,A12,A12/GND*%
%TO.N,GND*%
X70400000Y-59928000D03*
%TO.P,J200,B1,B1/GND*%
X70700000Y-59928000D03*
%TO.P,J200,B4,B4/VBUS*%
%TO.N,Net-(D200-A)*%
X71500000Y-59928000D03*
%TO.P,J200,B5,B5/CC2*%
%TO.N,Net-(J200-B5{slash}CC2)*%
X72000000Y-59928000D03*
%TO.P,J200,B6,B6/D+2*%
%TO.N,D+*%
X73000000Y-59928000D03*
%TO.P,J200,B7,B7/D-2*%
%TO.N,D-*%
X74500000Y-59928000D03*
%TO.P,J200,B8,B8/SBU2*%
%TO.N,unconnected-(J200-B8{slash}SBU2-PadB8)*%
X75500000Y-59928000D03*
%TO.P,J200,B9,B9/VBUS*%
%TO.N,Net-(D200-A)*%
X76000000Y-59928000D03*
%TO.P,J200,B12,B12/GND*%
%TO.N,GND*%
X76800000Y-59928000D03*
D38*
%TO.P,J200,MP1,MP1*%
%TO.N,unconnected-(J200-PadMP1)*%
X78860000Y-55423000D03*
%TO.P,J200,MP2,MP2*%
%TO.N,unconnected-(J200-PadMP2)*%
X68640000Y-55423000D03*
%TO.P,J200,MP3,MP3*%
%TO.N,unconnected-(J200-PadMP3)*%
X78860000Y-59353000D03*
%TO.P,J200,MP4,MP4*%
%TO.N,unconnected-(J200-PadMP4)*%
X68640000Y-59353000D03*
%TD*%
D21*
%TO.P,JP202,1,A*%
%TO.N,VCELL*%
X99730000Y-55400000D03*
D22*
%TO.P,JP202,2,B*%
%TO.N,Net-(JP202-B)*%
X102270000Y-55400000D03*
%TD*%
D39*
%TO.P,C102,1*%
%TO.N,Net-(JP103-B)*%
X97295000Y-68650000D03*
%TO.P,C102,2*%
%TO.N,GND*%
X98255000Y-68650000D03*
%TD*%
D40*
%TO.P,L6,1,1*%
%TO.N,Net-(C29-Pad1)*%
X122065000Y-76000000D03*
%TO.P,L6,2,2*%
%TO.N,Net-(C30-Pad1)*%
X123035000Y-76000000D03*
%TD*%
D25*
%TO.P,C6,1*%
%TO.N,Net-(IC1-VDD)*%
X82080000Y-71300000D03*
%TO.P,C6,2*%
%TO.N,GND*%
X81120000Y-71300000D03*
%TD*%
D41*
%TO.P,SW200,1,A*%
%TO.N,GND*%
X108750000Y-55550000D03*
%TO.P,SW200,1.1*%
%TO.N,N/C*%
X108750000Y-57950000D03*
%TO.P,SW200,2,B*%
%TO.N,Net-(SW200-B)*%
X111250000Y-55550000D03*
%TO.P,SW200,2.1*%
%TO.N,N/C*%
X111250000Y-57950000D03*
%TO.P,SW200,3,C*%
%TO.N,Net-(JP202-B)*%
X113750000Y-55550000D03*
%TO.P,SW200,3.1*%
%TO.N,N/C*%
X113750000Y-57950000D03*
%TD*%
D42*
%TO.P,R10,1*%
%TO.N,SCL*%
X93900000Y-74510000D03*
%TO.P,R10,2*%
%TO.N,Net-(JP1-B)*%
X93900000Y-73490000D03*
%TD*%
D13*
%TO.P,C5,1*%
%TO.N,Net-(JP1-B)*%
X100500000Y-78740000D03*
%TO.P,C5,2*%
%TO.N,GND*%
X100500000Y-79700000D03*
%TD*%
%TO.P,C27,1*%
%TO.N,Net-(C27-Pad1)*%
X112340000Y-76000000D03*
%TO.P,C27,2*%
%TO.N,GND*%
X112340000Y-76960000D03*
%TD*%
D35*
%TO.P,R103,1*%
%TO.N,GND*%
X69020000Y-82995000D03*
%TO.P,R103,2*%
%TO.N,Net-(Q100-G)*%
X68000000Y-82995000D03*
%TD*%
%TO.P,R207,1*%
%TO.N,Net-(U200-ICHG)*%
X89410000Y-65200000D03*
%TO.P,R207,2*%
%TO.N,GND*%
X88390000Y-65200000D03*
%TD*%
D42*
%TO.P,R100,1*%
%TO.N,Net-(JP101-B)*%
X88030000Y-83225000D03*
%TO.P,R100,2*%
%TO.N,EXT_FLASH_CS*%
X88030000Y-82205000D03*
%TD*%
D35*
%TO.P,R206,1*%
%TO.N,Net-(U200-NTC)*%
X85810000Y-66800000D03*
%TO.P,R206,2*%
%TO.N,GND*%
X84790000Y-66800000D03*
%TD*%
D27*
%TO.P,R104,1*%
%TO.N,Net-(JP102-B)*%
X102340000Y-125925000D03*
%TO.P,R104,2*%
%TO.N,LCD_CS*%
X103360000Y-125925000D03*
%TD*%
D35*
%TO.P,R200,1*%
%TO.N,VBUS*%
X60180000Y-66940000D03*
%TO.P,R200,2*%
%TO.N,Net-(D202-A)*%
X59160000Y-66940000D03*
%TD*%
D25*
%TO.P,C11,1*%
%TO.N,Net-(U1-DEC4)*%
X102480000Y-67300000D03*
%TO.P,C11,2*%
%TO.N,GND*%
X101520000Y-67300000D03*
%TD*%
D39*
%TO.P,C9,1*%
%TO.N,GND*%
X97920000Y-70450000D03*
%TO.P,C9,2*%
%TO.N,Net-(U1-P0.00{slash}XL1)*%
X98880000Y-70450000D03*
%TD*%
%TO.P,C2,1*%
%TO.N,Net-(JP1-B)*%
X107645000Y-71700000D03*
%TO.P,C2,2*%
%TO.N,GND*%
X108605000Y-71700000D03*
%TD*%
D13*
%TO.P,C206,1*%
%TO.N,Net-(U200-DEC)*%
X90300000Y-72120000D03*
%TO.P,C206,2*%
%TO.N,GND*%
X90300000Y-73080000D03*
%TD*%
D27*
%TO.P,R11,1*%
%TO.N,Net-(IC1-VDD)*%
X78590000Y-76500000D03*
%TO.P,R11,2*%
%TO.N,Net-(IC1-RSTB)*%
X79610000Y-76500000D03*
%TD*%
D40*
%TO.P,L4,1,1*%
%TO.N,ANT*%
X110355000Y-76000000D03*
%TO.P,L4,2,2*%
%TO.N,Net-(C27-Pad1)*%
X111325000Y-76000000D03*
%TD*%
D13*
%TO.P,C100,1*%
%TO.N,Net-(JP101-B)*%
X97130000Y-82235000D03*
%TO.P,C100,2*%
%TO.N,GND*%
X97130000Y-83195000D03*
%TD*%
D21*
%TO.P,JP1,1,A*%
%TO.N,+3V0*%
X118240000Y-89675000D03*
D22*
%TO.P,JP1,2,B*%
%TO.N,Net-(JP1-B)*%
X115700000Y-89675000D03*
%TD*%
D25*
%TO.P,C204,1*%
%TO.N,Net-(SW200-B)*%
X85780000Y-67900000D03*
%TO.P,C204,2*%
%TO.N,GND*%
X84820000Y-67900000D03*
%TD*%
D35*
%TO.P,R15,1*%
%TO.N,Net-(IC1-VBUS)*%
X79610000Y-75200000D03*
%TO.P,R15,2*%
%TO.N,GND*%
X78590000Y-75200000D03*
%TD*%
D43*
%TO.P,J4,1,Pin_1*%
%TO.N,+3V0*%
X66350000Y-118380000D03*
%TO.P,J4,2,Pin_2*%
%TO.N,SWDIO*%
X62310000Y-118380000D03*
%TO.P,J4,3,Pin_3*%
%TO.N,GND*%
X66350000Y-117110000D03*
%TO.P,J4,4,Pin_4*%
%TO.N,SWDCLK*%
X62310000Y-117110000D03*
%TO.P,J4,5,Pin_5*%
%TO.N,GND*%
X66350000Y-115840000D03*
%TO.P,J4,6,Pin_6*%
%TO.N,SWO*%
X62310000Y-115840000D03*
%TO.P,J4,7,Pin_7*%
%TO.N,unconnected-(J4-Pin_7-Pad7)*%
X66350000Y-114570000D03*
%TO.P,J4,8,Pin_8*%
%TO.N,unconnected-(J4-Pin_8-Pad8)*%
X62310000Y-114570000D03*
%TO.P,J4,9,Pin_9*%
%TO.N,unconnected-(J4-Pin_9-Pad9)*%
X66350000Y-113300000D03*
%TO.P,J4,10,Pin_10*%
%TO.N,~{RESET}*%
X62310000Y-113300000D03*
%TD*%
D44*
%TO.P,IC1,1,DCD*%
%TO.N,unconnected-(IC1-DCD-Pad1)*%
X85250000Y-74130000D03*
%TO.P,IC1,2,RI/CLK*%
%TO.N,unconnected-(IC1-RI{slash}CLK-Pad2)*%
X84750000Y-74130000D03*
%TO.P,IC1,3,GND*%
%TO.N,GND*%
X84250000Y-74130000D03*
%TO.P,IC1,4,D+*%
%TO.N,D+*%
X83750000Y-74130000D03*
%TO.P,IC1,5,D-*%
%TO.N,D-*%
X83250000Y-74130000D03*
%TO.P,IC1,6,VDD*%
%TO.N,Net-(IC1-VDD)*%
X82750000Y-74130000D03*
%TO.P,IC1,7,VREGIN*%
X82250000Y-74130000D03*
D45*
%TO.P,IC1,8,VBUS*%
%TO.N,Net-(IC1-VBUS)*%
X81400000Y-74980000D03*
%TO.P,IC1,9,RSTB*%
%TO.N,Net-(IC1-RSTB)*%
X81400000Y-75480000D03*
%TO.P,IC1,10,NC*%
%TO.N,unconnected-(IC1-NC-Pad10)*%
X81400000Y-75980000D03*
%TO.P,IC1,11,SUSPENDB*%
%TO.N,unconnected-(IC1-SUSPENDB-Pad11)*%
X81400000Y-76480000D03*
%TO.P,IC1,12,SUSPEND*%
%TO.N,unconnected-(IC1-SUSPEND-Pad12)*%
X81400000Y-76980000D03*
%TO.P,IC1,13,CHREN*%
%TO.N,unconnected-(IC1-CHREN-Pad13)*%
X81400000Y-77480000D03*
%TO.P,IC1,14,CHR1*%
%TO.N,unconnected-(IC1-CHR1-Pad14)*%
X81400000Y-77980000D03*
D44*
%TO.P,IC1,15,CHR0*%
%TO.N,unconnected-(IC1-CHR0-Pad15)*%
X82250000Y-78830000D03*
%TO.P,IC1,16,GPIO.3/WAKEUP*%
%TO.N,unconnected-(IC1-GPIO.3{slash}WAKEUP-Pad16)*%
X82750000Y-78830000D03*
%TO.P,IC1,17,GPIO.2/RS485*%
%TO.N,unconnected-(IC1-GPIO.2{slash}RS485-Pad17)*%
X83250000Y-78830000D03*
%TO.P,IC1,18,GPIO.1/RXT*%
%TO.N,unconnected-(IC1-GPIO.1{slash}RXT-Pad18)*%
X83750000Y-78830000D03*
%TO.P,IC1,19,GPIO.0/TXT*%
%TO.N,unconnected-(IC1-GPIO.0{slash}TXT-Pad19)*%
X84250000Y-78830000D03*
%TO.P,IC1,20,GPIO.6*%
%TO.N,unconnected-(IC1-GPIO.6-Pad20)*%
X84750000Y-78830000D03*
%TO.P,IC1,21,GPIO.5*%
%TO.N,unconnected-(IC1-GPIO.5-Pad21)*%
X85250000Y-78830000D03*
D45*
%TO.P,IC1,22,GPIO.4*%
%TO.N,unconnected-(IC1-GPIO.4-Pad22)*%
X86100000Y-77980000D03*
%TO.P,IC1,23,CTS*%
%TO.N,USB_CTS*%
X86100000Y-77480000D03*
%TO.P,IC1,24,RTS*%
%TO.N,USB_RTS*%
X86100000Y-76980000D03*
%TO.P,IC1,25,RXD*%
%TO.N,USB_RX*%
X86100000Y-76480000D03*
%TO.P,IC1,26,TXD*%
%TO.N,USB_TX*%
X86100000Y-75980000D03*
%TO.P,IC1,27,DSR*%
%TO.N,unconnected-(IC1-DSR-Pad27)*%
X86100000Y-75480000D03*
%TO.P,IC1,28,DTR*%
%TO.N,unconnected-(IC1-DTR-Pad28)*%
X86100000Y-74980000D03*
D46*
%TO.P,IC1,29,BGND*%
%TO.N,GND*%
X83750000Y-76480000D03*
%TD*%
D23*
%TO.P,C10,1*%
%TO.N,Net-(U1-DEC4)*%
X103600000Y-68280000D03*
%TO.P,C10,2*%
%TO.N,GND*%
X103600000Y-67320000D03*
%TD*%
%TO.P,C25,1*%
%TO.N,Net-(U1-XC1)*%
X113800000Y-71780000D03*
%TO.P,C25,2*%
%TO.N,GND*%
X113800000Y-70820000D03*
%TD*%
D47*
%TO.P,U103,1,EN*%
%TO.N,LCD_PWM*%
X114350000Y-86125000D03*
%TO.P,U103,2,GND*%
%TO.N,GND*%
X114350000Y-85175000D03*
%TO.P,U103,3,LED4*%
%TO.N,unconnected-(U103-LED4-Pad3)*%
X114350000Y-84225000D03*
%TO.P,U103,4,LED3*%
%TO.N,unconnected-(U103-LED3-Pad4)*%
X111850000Y-84225000D03*
%TO.P,U103,5,LED2*%
%TO.N,Net-(U101-LEDK)*%
X111850000Y-85175000D03*
%TO.P,U103,6,LED1*%
X111850000Y-86125000D03*
%TD*%
D40*
%TO.P,L5,1,1*%
%TO.N,Net-(C27-Pad1)*%
X113355000Y-76000000D03*
%TO.P,L5,2,2*%
%TO.N,Net-(C29-Pad1)*%
X114325000Y-76000000D03*
%TD*%
D27*
%TO.P,R205,1*%
%TO.N,FUEL_ALERT*%
X99490000Y-58450000D03*
%TO.P,R205,2*%
%TO.N,Net-(IC200-VDD)*%
X100510000Y-58450000D03*
%TD*%
D25*
%TO.P,C203,1*%
%TO.N,/Power/VSYS*%
X85780000Y-69000000D03*
%TO.P,C203,2*%
%TO.N,GND*%
X84820000Y-69000000D03*
%TD*%
D13*
%TO.P,C200,1*%
%TO.N,VBUS*%
X86100000Y-70120000D03*
%TO.P,C200,2*%
%TO.N,GND*%
X86100000Y-71080000D03*
%TD*%
D48*
%TO.P,J201,1,+*%
%TO.N,VCELL*%
X93550000Y-60750000D03*
%TO.P,J201,2,-*%
%TO.N,GND*%
X91550000Y-60750000D03*
D49*
%TO.P,J201,3*%
%TO.N,N/C*%
X95900000Y-55200000D03*
%TO.P,J201,4*%
X89200000Y-55200000D03*
%TD*%
D21*
%TO.P,JP10,1,A*%
%TO.N,+3V0*%
X118240000Y-109995000D03*
D22*
%TO.P,JP10,2,B*%
%TO.N,Net-(IC1-VDD)*%
X115700000Y-109995000D03*
%TD*%
D50*
%TO.P,M100,1,+*%
%TO.N,Net-(D100-K)*%
X61120000Y-90445000D03*
%TO.P,M100,2,-*%
%TO.N,Net-(D100-A)*%
X62420000Y-90445000D03*
%TD*%
D21*
%TO.P,JP102,1,A*%
%TO.N,+3V0*%
X118240000Y-120155000D03*
D22*
%TO.P,JP102,2,B*%
%TO.N,Net-(JP102-B)*%
X115700000Y-120155000D03*
%TD*%
D51*
%TO.P,E200,1*%
%TO.N,Net-(C30-Pad1)*%
X131790000Y-76000000D03*
%TO.P,E200,2*%
%TO.N,N/C*%
X131790000Y-85000000D03*
%TD*%
D21*
%TO.P,JP203,1,A*%
%TO.N,+3V0*%
X118240000Y-99835000D03*
D22*
%TO.P,JP203,2,B*%
%TO.N,Net-(JP203-B)*%
X115700000Y-99835000D03*
%TD*%
D39*
%TO.P,C13,1*%
%TO.N,Net-(U1-DEC3)*%
X110320000Y-74100000D03*
%TO.P,C13,2*%
%TO.N,GND*%
X111280000Y-74100000D03*
%TD*%
D52*
%TO.P,J3,1,Pin_1*%
%TO.N,+3V0*%
X62090000Y-100845000D03*
%TO.P,J3,2,Pin_2*%
%TO.N,SWDIO*%
X63360000Y-100845000D03*
%TO.P,J3,3,Pin_3*%
%TO.N,GND*%
X64630000Y-100845000D03*
%TO.P,J3,4,Pin_4*%
%TO.N,SWDCLK*%
X65900000Y-100845000D03*
%TO.P,J3,5,Pin_5*%
%TO.N,USB_RTS*%
X67170000Y-100845000D03*
%TO.P,J3,6,Pin_6*%
%TO.N,SWO*%
X67170000Y-99575000D03*
%TO.P,J3,7,Pin_7*%
%TO.N,USB_RX*%
X65900000Y-99575000D03*
%TO.P,J3,8,Pin_8*%
%TO.N,USB_CTS*%
X64630000Y-99575000D03*
%TO.P,J3,9,Pin_9*%
%TO.N,USB_TX*%
X63360000Y-99575000D03*
%TO.P,J3,10,Pin_10*%
%TO.N,~{RESET}*%
X62090000Y-99575000D03*
%TD*%
D53*
%TO.P,Y1,1,1*%
%TO.N,Net-(U1-P0.00{slash}XL1)*%
X98400000Y-71700000D03*
%TO.P,Y1,2,2*%
%TO.N,Net-(U1-P0.01{slash}XL2)*%
X98400000Y-73100000D03*
%TD*%
D21*
%TO.P,JP100,1,A*%
%TO.N,+3V0*%
X64250000Y-77595000D03*
D22*
%TO.P,JP100,2,B*%
%TO.N,Net-(D100-K)*%
X66790000Y-77595000D03*
%TD*%
D42*
%TO.P,R9,1*%
%TO.N,SDA*%
X96100000Y-73010000D03*
%TO.P,R9,2*%
%TO.N,Net-(JP1-B)*%
X96100000Y-71990000D03*
%TD*%
D21*
%TO.P,JP200,1,A*%
%TO.N,VBUS*%
X64470000Y-66940000D03*
D22*
%TO.P,JP200,2,B*%
%TO.N,Net-(D200-K)*%
X64470000Y-64400000D03*
%TD*%
D23*
%TO.P,C202,1*%
%TO.N,Net-(IC200-VDD)*%
X102900000Y-59880000D03*
%TO.P,C202,2*%
%TO.N,GND*%
X102900000Y-58920000D03*
%TD*%
D13*
%TO.P,C29,1*%
%TO.N,Net-(C29-Pad1)*%
X120920000Y-76000000D03*
%TO.P,C29,2*%
%TO.N,GND*%
X120920000Y-76960000D03*
%TD*%
D25*
%TO.P,C7,1*%
%TO.N,Net-(IC1-VDD)*%
X82080000Y-72400000D03*
%TO.P,C7,2*%
%TO.N,GND*%
X81120000Y-72400000D03*
%TD*%
D26*
%TO.P,R202,1*%
%TO.N,GND*%
X82300000Y-56390000D03*
%TO.P,R202,2*%
%TO.N,Net-(J200-A5{slash}CC1)*%
X82300000Y-57410000D03*
%TD*%
D13*
%TO.P,C4,1*%
%TO.N,Net-(JP1-B)*%
X104175000Y-81320000D03*
%TO.P,C4,2*%
%TO.N,GND*%
X104175000Y-82280000D03*
%TD*%
D54*
%TO.P,U200,1,VOUTB*%
%TO.N,Net-(JP203-B)*%
X92600000Y-69850000D03*
%TO.P,U200,2,VOUT_BSET1*%
%TO.N,/Power/VSYS*%
X92600000Y-69350000D03*
%TO.P,U200,3,VOUT_BSET2*%
X92600000Y-68850000D03*
%TO.P,U200,4,NC*%
%TO.N,unconnected-(U200-NC-Pad4)*%
X92600000Y-68350000D03*
%TO.P,U200,5,ISET*%
%TO.N,/Power/VSYS*%
X92600000Y-67850000D03*
%TO.P,U200,6,SHPACT*%
%TO.N,GND*%
X92600000Y-67350000D03*
D55*
%TO.P,U200,7,MODE*%
X91850000Y-66600000D03*
%TO.P,U200,8,CHG*%
%TO.N,Charging*%
X91350000Y-66600000D03*
%TO.P,U200,9,VTERM_SET*%
%TO.N,/Power/VSYS*%
X90850000Y-66600000D03*
%TO.P,U200,10,ERR*%
%TO.N,Charge Error*%
X90350000Y-66600000D03*
%TO.P,U200,11,SHPHLD*%
%TO.N,GND*%
X89850000Y-66600000D03*
%TO.P,U200,12,ICHG*%
%TO.N,Net-(U200-ICHG)*%
X89350000Y-66600000D03*
D54*
%TO.P,U200,13,NC*%
%TO.N,unconnected-(U200-NC-Pad13)*%
X88600000Y-67350000D03*
%TO.P,U200,14,NTC*%
%TO.N,Net-(U200-NTC)*%
X88600000Y-67850000D03*
%TO.P,U200,15,VBAT*%
%TO.N,Net-(SW200-B)*%
X88600000Y-68350000D03*
%TO.P,U200,16,VSYS*%
%TO.N,/Power/VSYS*%
X88600000Y-68850000D03*
%TO.P,U200,17,VBUS*%
%TO.N,VBUS*%
X88600000Y-69350000D03*
%TO.P,U200,18,NC*%
%TO.N,unconnected-(U200-NC-Pad18)*%
X88600000Y-69850000D03*
D55*
%TO.P,U200,19,D-*%
%TO.N,GND*%
X89350000Y-70600000D03*
%TO.P,U200,20,D+*%
%TO.N,unconnected-(U200-D+-Pad20)*%
X89850000Y-70600000D03*
%TO.P,U200,21,DEC*%
%TO.N,Net-(U200-DEC)*%
X90350000Y-70600000D03*
%TO.P,U200,22,SW*%
%TO.N,Net-(U200-SW)*%
X90850000Y-70600000D03*
%TO.P,U200,23,PVSS*%
%TO.N,GND*%
X91350000Y-70600000D03*
%TO.P,U200,24,NC*%
%TO.N,unconnected-(U200-NC-Pad24)*%
X91850000Y-70600000D03*
D56*
%TO.P,U200,25,Die*%
%TO.N,GND*%
X90600000Y-68600000D03*
%TD*%
D57*
%TO.P,L200,1,1*%
%TO.N,Net-(JP203-B)*%
X92585000Y-72000000D03*
%TO.P,L200,2,2*%
%TO.N,Net-(U200-SW)*%
X91615000Y-72000000D03*
%TD*%
D58*
%TO.P,L2,1,1*%
%TO.N,Net-(L1-Pad2)*%
X103600000Y-69415000D03*
%TO.P,L2,2,2*%
%TO.N,Net-(U1-DEC4)*%
X103600000Y-70385000D03*
%TD*%
D23*
%TO.P,C21,1*%
%TO.N,Net-(U1-XC2)*%
X109800000Y-71880000D03*
%TO.P,C21,2*%
%TO.N,GND*%
X109800000Y-70920000D03*
%TD*%
D25*
%TO.P,C1,1*%
%TO.N,Net-(JP1-B)*%
X102560000Y-71700000D03*
%TO.P,C1,2*%
%TO.N,GND*%
X101600000Y-71700000D03*
%TD*%
D21*
%TO.P,JP101,1,A*%
%TO.N,+3V0*%
X118240000Y-104915000D03*
D22*
%TO.P,JP101,2,B*%
%TO.N,Net-(JP101-B)*%
X115700000Y-104915000D03*
%TD*%
D21*
%TO.P,JP103,1,A*%
%TO.N,+3V0*%
X118240000Y-94755000D03*
D22*
%TO.P,JP103,2,B*%
%TO.N,Net-(JP103-B)*%
X115700000Y-94755000D03*
%TD*%
D13*
%TO.P,C3,1*%
%TO.N,Net-(JP1-B)*%
X109600000Y-78820000D03*
%TO.P,C3,2*%
%TO.N,GND*%
X109600000Y-79780000D03*
%TD*%
D39*
%TO.P,C101,1*%
%TO.N,Net-(JP102-B)*%
X102320000Y-124025000D03*
%TO.P,C101,2*%
%TO.N,GND*%
X103280000Y-124025000D03*
%TD*%
D59*
%TO.P,D201,1,A1*%
%TO.N,GND*%
X68438000Y-66900000D03*
%TO.P,D201,2,A2*%
%TO.N,Net-(D200-A)*%
X70762000Y-66900000D03*
%TD*%
D60*
%TO.N,GND*%
X120925000Y-77700000D03*
X103750000Y-77450000D03*
X98975000Y-68625000D03*
X88475000Y-70675000D03*
X77500000Y-60900000D03*
X84475000Y-75750000D03*
X111000000Y-70025000D03*
X84000000Y-67900000D03*
X82975000Y-77250000D03*
X104100000Y-124025000D03*
X65100000Y-55650000D03*
X87675000Y-65225000D03*
X97925000Y-83175000D03*
X88650000Y-115350000D03*
X66025000Y-86650000D03*
X112325000Y-77700000D03*
X124200000Y-77725000D03*
X69900000Y-83000000D03*
X109710000Y-70000000D03*
X82975000Y-75750000D03*
X82300000Y-55550000D03*
X96350000Y-119500000D03*
X79075000Y-74525000D03*
X112350000Y-72750000D03*
X69975000Y-61050000D03*
X90900000Y-73725000D03*
X90150000Y-61700000D03*
X90175000Y-60750000D03*
X106290000Y-77450000D03*
X110150000Y-76950000D03*
X100575000Y-71825000D03*
X115600000Y-85175000D03*
X103775000Y-83000000D03*
X111950000Y-74075000D03*
X107600000Y-55525000D03*
X89825000Y-69375000D03*
X68400000Y-67875000D03*
X97100000Y-70600000D03*
X110050000Y-80475000D03*
X104325000Y-67775000D03*
X106290000Y-74910000D03*
X80425000Y-71875000D03*
X102200175Y-59225175D03*
X103750000Y-74910000D03*
X89825000Y-67875000D03*
X58850000Y-63425000D03*
X94850000Y-67850000D03*
X91325000Y-69375000D03*
X93225000Y-115325000D03*
X96750000Y-66775000D03*
X99750000Y-79250000D03*
X97150000Y-74400000D03*
X90200000Y-59825000D03*
X68525000Y-115825000D03*
X90900000Y-86475000D03*
X64550000Y-102875000D03*
X84475000Y-77250000D03*
X100775000Y-67275000D03*
X91325000Y-67875000D03*
%TO.N,Net-(JP1-B)*%
X101375000Y-78975000D03*
X93900000Y-72725000D03*
X103550000Y-81575000D03*
X107950000Y-70875000D03*
X96100000Y-71225000D03*
X102086382Y-72411382D03*
X108650000Y-78975000D03*
%TO.N,Net-(U1-DEC4)*%
X109700000Y-74700000D03*
X104300000Y-68600000D03*
%TO.N,/Power/VSYS*%
X93600000Y-68375000D03*
X91566268Y-65066268D03*
X87425000Y-69000000D03*
%TO.N,VBUS*%
X84225000Y-70225000D03*
X84950000Y-69875000D03*
X84950000Y-70675000D03*
X110750000Y-67575000D03*
%TO.N,Net-(IC1-VDD)*%
X81425000Y-70505000D03*
X77750000Y-76500000D03*
%TO.N,USB_RTS*%
X91900000Y-76800000D03*
X82900000Y-83650000D03*
%TO.N,Net-(JP103-B)*%
X97300000Y-69225000D03*
X98050000Y-65300000D03*
%TO.N,D+*%
X72948000Y-58700000D03*
X74200000Y-58700000D03*
%TO.N,USB_CTS*%
X81050000Y-80875000D03*
X78025000Y-83875000D03*
%TO.N,FUEL_ALERT*%
X99600000Y-57400000D03*
X104100000Y-61700000D03*
%TO.N,SDA*%
X99700000Y-67900000D03*
X99700000Y-65300000D03*
%TO.N,SWO*%
X71850000Y-100575000D03*
X64325000Y-108200000D03*
X109500000Y-81075000D03*
%TO.N,SWDCLK*%
X112375000Y-81650000D03*
X71025000Y-113175000D03*
%TO.N,~{RESET}*%
X102475000Y-82125000D03*
X62150000Y-96175000D03*
%TO.N,SWDIO*%
X111000000Y-81450000D03*
X70175000Y-109675000D03*
%TO.N,+3V0*%
X62125000Y-102950000D03*
X66375000Y-119425000D03*
%TO.N,USB_TX*%
X89350000Y-75550000D03*
X63350000Y-93925000D03*
%TO.N,USB_RX*%
X90700000Y-76175000D03*
X79850000Y-83600000D03*
%TO.N,Net-(JP101-B)*%
X94250000Y-83175000D03*
X88025000Y-83975000D03*
%TO.N,Net-(JP203-B)*%
X92575000Y-73975000D03*
%TO.N,Net-(IC200-VDD)*%
X101325000Y-58450000D03*
%TO.N,Net-(SW200-B)*%
X110000000Y-58575000D03*
X87425000Y-68075000D03*
X86625000Y-68075000D03*
X110000000Y-57675000D03*
%TO.N,Net-(D200-A)*%
X76150000Y-60875000D03*
X71200000Y-62125000D03*
X71200000Y-62925000D03*
%TO.N,SCK*%
X100700000Y-85235000D03*
X103600000Y-85200000D03*
%TO.N,LCD_RESET*%
X105000582Y-81249418D03*
X89500000Y-98775000D03*
%TO.N,Charge Error*%
X107200000Y-66300000D03*
X90400000Y-65400000D03*
%TO.N,Charging*%
X92600000Y-64775000D03*
X106900000Y-67400000D03*
%TO.N,P1.15*%
X106925000Y-71796232D03*
%TD*%
D61*
%TO.N,GND*%
X87700000Y-65200000D02*
X87675000Y-65225000D01*
D62*
X90650000Y-60350000D02*
X90650000Y-61075000D01*
D61*
X120920000Y-76960000D02*
X120920000Y-77695000D01*
D63*
X97025000Y-66008330D02*
X97025000Y-66500000D01*
D61*
X102505350Y-58920000D02*
X102200175Y-59225175D01*
X109600000Y-79780000D02*
X109600000Y-80025000D01*
D62*
X67562500Y-86645000D02*
X66030000Y-86645000D01*
D61*
X104175000Y-82600000D02*
X103775000Y-83000000D01*
X111025000Y-70050000D02*
X111000000Y-70025000D01*
X103870000Y-67320000D02*
X104325000Y-67775000D01*
D62*
X97920000Y-70450000D02*
X97250000Y-70450000D01*
D61*
X112375000Y-72725000D02*
X112350000Y-72750000D01*
D63*
X99700000Y-60250000D02*
X100450000Y-60250000D01*
X96270000Y-64900000D02*
X96525000Y-65155000D01*
D61*
X109340000Y-76960000D02*
X110140000Y-76960000D01*
X100700000Y-61024300D02*
X100950350Y-61274650D01*
D63*
X96525000Y-65155000D02*
X96525000Y-66008330D01*
D62*
X90175000Y-61675000D02*
X90150000Y-61700000D01*
D61*
X100700000Y-59975700D02*
X100950350Y-59725350D01*
D63*
X96525000Y-66008330D02*
X97025000Y-66008330D01*
D61*
X100500000Y-71900000D02*
X100575000Y-71825000D01*
X84790000Y-67870000D02*
X84820000Y-67900000D01*
D62*
X97250000Y-70450000D02*
X97100000Y-70600000D01*
X65100000Y-56490000D02*
X65100000Y-55650000D01*
D64*
X105600000Y-75600000D02*
X105000000Y-76200000D01*
D61*
X96360000Y-119490000D02*
X96350000Y-119500000D01*
X100500000Y-79700000D02*
X100200000Y-79700000D01*
X64550000Y-102875000D02*
X64550000Y-101019650D01*
X88660000Y-115360000D02*
X88650000Y-115350000D01*
X90870000Y-86505000D02*
X90900000Y-86475000D01*
X112375000Y-71925000D02*
X112375000Y-72725000D01*
X100700000Y-60500000D02*
X100700000Y-61024300D01*
X98950000Y-68650000D02*
X98975000Y-68625000D01*
X102200175Y-59225175D02*
X101700000Y-59725350D01*
X100500000Y-72820000D02*
X100500000Y-71900000D01*
X64550000Y-101019650D02*
X64630000Y-101019650D01*
D65*
X125860000Y-102380000D02*
X125860000Y-104920000D01*
D61*
X88660000Y-117500000D02*
X88660000Y-115360000D01*
X84790000Y-66800000D02*
X84790000Y-67870000D01*
D62*
X90300000Y-73080000D02*
X91500000Y-73080000D01*
D61*
X109710000Y-68800000D02*
X109710000Y-70000000D01*
X109710000Y-70830000D02*
X109800000Y-70920000D01*
X92860000Y-117500000D02*
X92860000Y-115690000D01*
D63*
X89350000Y-70600000D02*
X89350000Y-69850000D01*
D61*
X93560000Y-115660000D02*
X93225000Y-115325000D01*
X100950350Y-61274650D02*
X101700000Y-61274650D01*
X68510000Y-115840000D02*
X68525000Y-115825000D01*
X81120000Y-71300000D02*
X81000000Y-71300000D01*
D62*
X77100000Y-60500000D02*
X77500000Y-60900000D01*
D63*
X89350000Y-69850000D02*
X90600000Y-68600000D01*
X84250000Y-75980000D02*
X83750000Y-76480000D01*
D61*
X103600000Y-67320000D02*
X103870000Y-67320000D01*
X111025000Y-70875000D02*
X111025000Y-70050000D01*
D64*
X107950000Y-75600000D02*
X105600000Y-75600000D01*
D61*
X110140000Y-76960000D02*
X110150000Y-76950000D01*
X86100000Y-71080000D02*
X87300000Y-71080000D01*
D63*
X100450000Y-60250000D02*
X100700000Y-60500000D01*
D61*
X58872500Y-64600000D02*
X58872500Y-63447500D01*
X112340000Y-76960000D02*
X112340000Y-77685000D01*
D63*
X91350000Y-70600000D02*
X91350000Y-69350000D01*
X89850000Y-67850000D02*
X90600000Y-68600000D01*
D64*
X104000000Y-73250000D02*
X104000000Y-74775000D01*
D61*
X68438000Y-66900000D02*
X68438000Y-67837000D01*
X113005000Y-70025000D02*
X111000000Y-70025000D01*
X97130000Y-83195000D02*
X97905000Y-83195000D01*
D63*
X96025000Y-67638330D02*
X95061670Y-67638330D01*
X91850000Y-67350000D02*
X90600000Y-68600000D01*
D62*
X77100000Y-59928000D02*
X77100000Y-60500000D01*
D61*
X100200000Y-79700000D02*
X99750000Y-79250000D01*
X93560000Y-117500000D02*
X93560000Y-115660000D01*
D64*
X104000000Y-75200000D02*
X105000000Y-76200000D01*
D61*
X100700000Y-71700000D02*
X100575000Y-71825000D01*
X58872500Y-63447500D02*
X58850000Y-63425000D01*
D62*
X90175000Y-60750000D02*
X90175000Y-61675000D01*
D63*
X91850000Y-66600000D02*
X91850000Y-67350000D01*
D61*
X80950000Y-72400000D02*
X80425000Y-71875000D01*
D62*
X90200000Y-59825000D02*
X90200000Y-59900000D01*
X70400000Y-59928000D02*
X70400000Y-60625000D01*
X90200000Y-60725000D02*
X90175000Y-60750000D01*
D63*
X96525000Y-66008330D02*
X96525000Y-66550000D01*
D61*
X109600000Y-80025000D02*
X110050000Y-80475000D01*
D63*
X95061670Y-67638330D02*
X94850000Y-67850000D01*
D61*
X66350000Y-115840000D02*
X68510000Y-115840000D01*
X89800000Y-86505000D02*
X90870000Y-86505000D01*
X109710000Y-70000000D02*
X109710000Y-70830000D01*
X97920000Y-74400000D02*
X97150000Y-74400000D01*
X81120000Y-71300000D02*
X81120000Y-72400000D01*
X108605000Y-71700000D02*
X109385000Y-70920000D01*
D62*
X90900000Y-73725000D02*
X90900000Y-73680000D01*
D61*
X111280000Y-74100000D02*
X111925000Y-74100000D01*
D64*
X104000000Y-74825000D02*
X104000000Y-75200000D01*
D62*
X90200000Y-59900000D02*
X90650000Y-60350000D01*
X90600000Y-61700000D02*
X91550000Y-60750000D01*
D61*
X97905000Y-83195000D02*
X97925000Y-83175000D01*
X68438000Y-67837000D02*
X68400000Y-67875000D01*
D66*
X114350000Y-85175000D02*
X115600000Y-85175000D01*
D61*
X101600000Y-71700000D02*
X100700000Y-71700000D01*
D62*
X90650000Y-61075000D02*
X90550000Y-61175000D01*
D61*
X111925000Y-74100000D02*
X111950000Y-74075000D01*
D64*
X104000000Y-74775000D02*
X103975000Y-74800000D01*
D63*
X84250000Y-74130000D02*
X84250000Y-75980000D01*
D61*
X100950350Y-59725350D02*
X101700000Y-59725350D01*
D63*
X91350000Y-69350000D02*
X90600000Y-68600000D01*
D61*
X66350000Y-115840000D02*
X66350000Y-117110000D01*
X81000000Y-71300000D02*
X80425000Y-71875000D01*
X120920000Y-77695000D02*
X120925000Y-77700000D01*
X88070000Y-71080000D02*
X88475000Y-70675000D01*
D62*
X91550000Y-60750000D02*
X90175000Y-60750000D01*
D61*
X104175000Y-82280000D02*
X104175000Y-82600000D01*
X111000000Y-70025000D02*
X109735000Y-70025000D01*
D62*
X70400000Y-60625000D02*
X69975000Y-61050000D01*
D61*
X92860000Y-117500000D02*
X93560000Y-117500000D01*
D62*
X90900000Y-73680000D02*
X90300000Y-73080000D01*
X90150000Y-61700000D02*
X90600000Y-61700000D01*
D61*
X100700000Y-60500000D02*
X100700000Y-59975700D01*
X78590000Y-75010000D02*
X79075000Y-74525000D01*
X69895000Y-82995000D02*
X69900000Y-83000000D01*
X112340000Y-77685000D02*
X112325000Y-77700000D01*
X69020000Y-82995000D02*
X69895000Y-82995000D01*
D65*
X125860000Y-104920000D02*
X125860000Y-107460000D01*
D61*
X84820000Y-67900000D02*
X84000000Y-67900000D01*
X102900000Y-58920000D02*
X102505350Y-58920000D01*
D62*
X91425000Y-73200000D02*
X90900000Y-73725000D01*
D61*
X109385000Y-70920000D02*
X109800000Y-70920000D01*
D62*
X66030000Y-86645000D02*
X66025000Y-86650000D01*
D64*
X103975000Y-74800000D02*
X104000000Y-74825000D01*
D62*
X91620000Y-73200000D02*
X91425000Y-73200000D01*
X90625000Y-59825000D02*
X91550000Y-60750000D01*
D63*
X97025000Y-66500000D02*
X96750000Y-66775000D01*
D62*
X82300000Y-56390000D02*
X82300000Y-55550000D01*
D63*
X89850000Y-66600000D02*
X89850000Y-67850000D01*
D61*
X78590000Y-75200000D02*
X78590000Y-75010000D01*
X124190000Y-77715000D02*
X124200000Y-77725000D01*
D63*
X96525000Y-66550000D02*
X96750000Y-66775000D01*
D61*
X84820000Y-67900000D02*
X84820000Y-69000000D01*
X103280000Y-124025000D02*
X104100000Y-124025000D01*
D62*
X90200000Y-59825000D02*
X90200000Y-60725000D01*
D61*
X124190000Y-76960000D02*
X124190000Y-77715000D01*
X113800000Y-70820000D02*
X113005000Y-70025000D01*
X88390000Y-65200000D02*
X87700000Y-65200000D01*
X92860000Y-115690000D02*
X93225000Y-115325000D01*
X108750000Y-55550000D02*
X107625000Y-55550000D01*
D62*
X91500000Y-73080000D02*
X91620000Y-73200000D01*
D61*
X81120000Y-72400000D02*
X80950000Y-72400000D01*
X87300000Y-71080000D02*
X88070000Y-71080000D01*
X100800000Y-67300000D02*
X100775000Y-67275000D01*
D63*
X92600000Y-67350000D02*
X91850000Y-67350000D01*
D61*
X96360000Y-117500000D02*
X96360000Y-119490000D01*
X101520000Y-67300000D02*
X100800000Y-67300000D01*
X109735000Y-70025000D02*
X109710000Y-70000000D01*
D62*
X90200000Y-59825000D02*
X90625000Y-59825000D01*
D61*
X107625000Y-55550000D02*
X107600000Y-55525000D01*
X98255000Y-68650000D02*
X98950000Y-68650000D01*
D64*
%TO.N,Net-(U1-P0.00{slash}XL1)*%
X98650000Y-71700000D02*
X98400000Y-71700000D01*
X99600000Y-72650000D02*
X98650000Y-71700000D01*
X98880000Y-70450000D02*
X98880000Y-71220000D01*
X102050000Y-74400000D02*
X100183866Y-74400000D01*
X98880000Y-71220000D02*
X98400000Y-71700000D01*
X99600000Y-73816134D02*
X99600000Y-72650000D01*
X100183866Y-74400000D02*
X99600000Y-73816134D01*
%TO.N,Net-(U1-P0.01{slash}XL2)*%
X102050000Y-74800000D02*
X99280000Y-74800000D01*
X98400000Y-73100000D02*
X98400000Y-73920000D01*
X99280000Y-74800000D02*
X98880000Y-74400000D01*
X98400000Y-73920000D02*
X98880000Y-74400000D01*
D66*
%TO.N,Net-(JP1-B)*%
X107645000Y-71180000D02*
X107950000Y-70875000D01*
X101140000Y-78740000D02*
X101375000Y-78975000D01*
X102560000Y-71700000D02*
X102560000Y-71937764D01*
X102560000Y-71937764D02*
X102086382Y-72411382D01*
X100500000Y-78740000D02*
X101140000Y-78740000D01*
X96100000Y-71990000D02*
X96100000Y-71225000D01*
D64*
X102800000Y-71940000D02*
X102560000Y-71700000D01*
X104400000Y-80197058D02*
X104175000Y-80422058D01*
D66*
X103805000Y-81320000D02*
X103550000Y-81575000D01*
D64*
X107950000Y-78400000D02*
X109180000Y-78400000D01*
D66*
X107645000Y-71700000D02*
X107645000Y-71180000D01*
D64*
X102050000Y-78400000D02*
X100840000Y-78400000D01*
X100840000Y-78400000D02*
X100500000Y-78740000D01*
D66*
X104175000Y-81320000D02*
X103805000Y-81320000D01*
D64*
X104400000Y-79150000D02*
X104400000Y-80197058D01*
X109180000Y-78400000D02*
X109600000Y-78820000D01*
D66*
X93900000Y-73490000D02*
X93900000Y-72725000D01*
X108805000Y-78820000D02*
X109600000Y-78820000D01*
D64*
X107645000Y-72805000D02*
X107645000Y-71700000D01*
D66*
X108650000Y-78975000D02*
X108805000Y-78820000D01*
D64*
X107200000Y-73250000D02*
X107645000Y-72805000D01*
X102800000Y-73250000D02*
X102800000Y-71940000D01*
X104175000Y-80422058D02*
X104175000Y-81320000D01*
%TO.N,Net-(U1-DEC1)*%
X100720000Y-74000000D02*
X100500000Y-73780000D01*
X102050000Y-74000000D02*
X100720000Y-74000000D01*
%TO.N,Net-(U1-DEC3)*%
X108840686Y-74800000D02*
X109540686Y-74100000D01*
X109540686Y-74100000D02*
X110320000Y-74100000D01*
X107950000Y-74800000D02*
X108840686Y-74800000D01*
%TO.N,Net-(U1-DEC4)*%
X107950000Y-75200000D02*
X109200000Y-75200000D01*
X103600000Y-68280000D02*
X103460000Y-68280000D01*
X103600000Y-73250000D02*
X103600000Y-70685000D01*
X103600000Y-68280000D02*
X103980000Y-68280000D01*
X103980000Y-68280000D02*
X104300000Y-68600000D01*
X104300000Y-68600000D02*
X104300000Y-69685000D01*
X104300000Y-69685000D02*
X103600000Y-70385000D01*
X103460000Y-68280000D02*
X102480000Y-67300000D01*
X109200000Y-75200000D02*
X109700000Y-74700000D01*
%TO.N,Net-(U1-XC2)*%
X108509314Y-74000000D02*
X109800000Y-72709314D01*
X109800000Y-72709314D02*
X109800000Y-71880000D01*
X111025000Y-71925000D02*
X109845000Y-71925000D01*
X109845000Y-71925000D02*
X109800000Y-71880000D01*
X107950000Y-74000000D02*
X108509314Y-74000000D01*
%TO.N,Net-(U1-XC1)*%
X113800000Y-72600000D02*
X113800000Y-71780000D01*
X112375000Y-70875000D02*
X112675000Y-70875000D01*
X109375000Y-73700000D02*
X109575000Y-73700000D01*
X113125000Y-73275000D02*
X113800000Y-72600000D01*
X112675000Y-70875000D02*
X113580000Y-71780000D01*
X109575000Y-73700000D02*
X110000000Y-73275000D01*
X113580000Y-71780000D02*
X113800000Y-71780000D01*
X108675000Y-74400000D02*
X109375000Y-73700000D01*
X107950000Y-74400000D02*
X108675000Y-74400000D01*
X110000000Y-73275000D02*
X113125000Y-73275000D01*
D63*
%TO.N,/Power/VSYS*%
X87425000Y-69000000D02*
X85780000Y-69000000D01*
X93600000Y-67998000D02*
X93452000Y-67850000D01*
X93600000Y-68375000D02*
X93600000Y-67998000D01*
X87575000Y-68850000D02*
X87425000Y-69000000D01*
X88600000Y-68850000D02*
X87575000Y-68850000D01*
X93452000Y-67850000D02*
X92600000Y-67850000D01*
X92600000Y-68850000D02*
X92600000Y-69350000D01*
X90850000Y-65782536D02*
X90850000Y-66600000D01*
X93300000Y-68850000D02*
X93600000Y-68550000D01*
X91566268Y-65066268D02*
X90850000Y-65782536D01*
X93600000Y-68550000D02*
X93600000Y-68375000D01*
X92600000Y-68850000D02*
X93300000Y-68850000D01*
D66*
%TO.N,ANT*%
X109340000Y-76000000D02*
X110355000Y-76000000D01*
D64*
X107950000Y-76000000D02*
X109340000Y-76000000D01*
D63*
%TO.N,VBUS*%
X86100000Y-70120000D02*
X87300000Y-70120000D01*
X109710000Y-67600000D02*
X110725000Y-67600000D01*
X110725000Y-67600000D02*
X110750000Y-67575000D01*
D62*
X84575000Y-69875000D02*
X84225000Y-70225000D01*
D63*
X87300000Y-70120000D02*
X88070000Y-69350000D01*
D62*
X64470000Y-66940000D02*
X60180000Y-66940000D01*
D61*
X78590000Y-73900000D02*
X71430000Y-73900000D01*
D62*
X84950000Y-69875000D02*
X84950000Y-70675000D01*
X84950000Y-69875000D02*
X84575000Y-69875000D01*
X84950000Y-70675000D02*
X84675000Y-70675000D01*
X84675000Y-70675000D02*
X84225000Y-70225000D01*
D61*
X71430000Y-73900000D02*
X64470000Y-66940000D01*
X86100000Y-70120000D02*
X85195000Y-70120000D01*
X85195000Y-70120000D02*
X84950000Y-69875000D01*
D63*
X88070000Y-69350000D02*
X88600000Y-69350000D01*
D66*
%TO.N,Net-(IC1-VDD)*%
X78590000Y-76500000D02*
X77750000Y-76500000D01*
D67*
X82750000Y-74130000D02*
X82750000Y-73070000D01*
X82250000Y-72570000D02*
X82080000Y-72400000D01*
D66*
X82080000Y-70990001D02*
X81594999Y-70505000D01*
D67*
X82250000Y-74130000D02*
X82250000Y-72570000D01*
X82080000Y-71300000D02*
X82080000Y-72400000D01*
X82750000Y-73070000D02*
X82080000Y-72400000D01*
D66*
X81594999Y-70505000D02*
X81425000Y-70505000D01*
X82080000Y-71300000D02*
X82080000Y-70990001D01*
D67*
%TO.N,VCELL*%
X101855000Y-57525000D02*
X99730000Y-55400000D01*
X104425000Y-60225000D02*
X104425000Y-58300000D01*
X103900000Y-60750000D02*
X104425000Y-60225000D01*
X101700000Y-60750000D02*
X103900000Y-60750000D01*
X103650000Y-57525000D02*
X101855000Y-57525000D01*
D62*
X94350000Y-60750000D02*
X99700000Y-55400000D01*
X93550000Y-60750000D02*
X94350000Y-60750000D01*
X99700000Y-55400000D02*
X99730000Y-55400000D01*
D67*
X104425000Y-58300000D02*
X103650000Y-57525000D01*
D68*
%TO.N,Net-(C29-Pad1)*%
X114325000Y-76000000D02*
X120920000Y-76000000D01*
X120920000Y-76000000D02*
X122065000Y-76000000D01*
%TO.N,Net-(C30-Pad1)*%
X124190000Y-76000000D02*
X131790000Y-76000000D01*
X123035000Y-76000000D02*
X124190000Y-76000000D01*
D61*
%TO.N,Net-(JP102-B)*%
X102320000Y-124025000D02*
X102270000Y-123975000D01*
X110930000Y-124925000D02*
X102320000Y-124925000D01*
X94260000Y-120535000D02*
X94260000Y-117500000D01*
X115700000Y-120155000D02*
X110930000Y-124925000D01*
X97700000Y-123975000D02*
X94260000Y-120535000D01*
X102320000Y-124025000D02*
X102320000Y-124925000D01*
X102340000Y-124945000D02*
X102320000Y-124925000D01*
X102320000Y-125905000D02*
X102340000Y-125925000D01*
X102340000Y-125925000D02*
X102340000Y-124945000D01*
X102270000Y-123975000D02*
X97700000Y-123975000D01*
D64*
%TO.N,USB_RTS*%
X82900000Y-83650000D02*
X82900000Y-91425000D01*
X86885686Y-76980000D02*
X86100000Y-76980000D01*
X87065686Y-76800000D02*
X86885686Y-76980000D01*
X82900000Y-91425000D02*
X71450000Y-102875000D01*
X67170000Y-102345000D02*
X67170000Y-100945000D01*
X71450000Y-102875000D02*
X67700000Y-102875000D01*
X102050000Y-76800000D02*
X87065686Y-76800000D01*
X67700000Y-102875000D02*
X67170000Y-102345000D01*
D63*
%TO.N,D-*%
X74752000Y-58948000D02*
X74752000Y-58471354D01*
X73971354Y-58148000D02*
X73500000Y-58619354D01*
X74500000Y-59928000D02*
X74500000Y-59200000D01*
X74428646Y-58148000D02*
X73971354Y-58148000D01*
X74752000Y-58471354D02*
X74428646Y-58148000D01*
X73500000Y-61542052D02*
X73500000Y-59928000D01*
X73500000Y-58619354D02*
X73500000Y-59928000D01*
X74500000Y-59200000D02*
X74752000Y-58948000D01*
X83250000Y-71292052D02*
X73500000Y-61542052D01*
X83250000Y-74130000D02*
X83250000Y-71292052D01*
D64*
%TO.N,Net-(IC1-RSTB)*%
X80630000Y-75480000D02*
X79610000Y-76500000D01*
X81400000Y-75480000D02*
X80630000Y-75480000D01*
D66*
%TO.N,Net-(JP103-B)*%
X97295000Y-68650000D02*
X97295000Y-69220000D01*
D63*
X95400000Y-65383330D02*
X95400000Y-64525000D01*
D66*
X97295000Y-69220000D02*
X97300000Y-69225000D01*
D63*
X97525000Y-65195000D02*
X97230000Y-64900000D01*
X97295000Y-68650000D02*
X97025000Y-68380000D01*
D66*
X97650000Y-64900000D02*
X98050000Y-65300000D01*
D63*
X97525000Y-66008330D02*
X97525000Y-65195000D01*
X96025000Y-66008330D02*
X95400000Y-65383330D01*
D66*
X97230000Y-64900000D02*
X97650000Y-64900000D01*
D63*
X97025000Y-68380000D02*
X97025000Y-67638330D01*
X95400000Y-64525000D02*
X95675000Y-64250000D01*
X97230000Y-64480000D02*
X97230000Y-64900000D01*
X97000000Y-64250000D02*
X97230000Y-64480000D01*
X95675000Y-64250000D02*
X97000000Y-64250000D01*
%TO.N,D+*%
X83750000Y-74130000D02*
X83750000Y-71150000D01*
X74000000Y-61400000D02*
X74000000Y-59928000D01*
X74000000Y-59928000D02*
X74000000Y-58900000D01*
X72948000Y-58700000D02*
X73000000Y-58752000D01*
X73000000Y-58752000D02*
X73000000Y-59928000D01*
X83750000Y-71150000D02*
X74000000Y-61400000D01*
X74000000Y-58900000D02*
X74200000Y-58700000D01*
D64*
%TO.N,USB_CTS*%
X102050000Y-77200000D02*
X96784314Y-77200000D01*
X86605000Y-80875000D02*
X90000000Y-77480000D01*
X90000000Y-77480000D02*
X89350000Y-77480000D01*
X77975000Y-83875000D02*
X64630000Y-97220000D01*
X81050000Y-80875000D02*
X86605000Y-80875000D01*
X64630000Y-97220000D02*
X64630000Y-99475000D01*
X96784314Y-77200000D02*
X96504314Y-77480000D01*
X89350000Y-77480000D02*
X86100000Y-77480000D01*
X96504314Y-77480000D02*
X90000000Y-77480000D01*
X78025000Y-83875000D02*
X77975000Y-83875000D01*
%TO.N,Net-(IC1-VBUS)*%
X79610000Y-75200000D02*
X79830000Y-74980000D01*
X79610000Y-73900000D02*
X79610000Y-75200000D01*
X79830000Y-74980000D02*
X81400000Y-74980000D01*
%TO.N,SCL*%
X94310000Y-74510000D02*
X93900000Y-74510000D01*
X94600000Y-67046660D02*
X94626670Y-67073330D01*
X94310000Y-74510000D02*
X94800000Y-74020000D01*
X94150000Y-67550000D02*
X94626670Y-67073330D01*
X94600000Y-63900000D02*
X94600000Y-67046660D01*
X94626670Y-67073330D02*
X95960000Y-67073330D01*
X94800000Y-71800000D02*
X94150000Y-71150000D01*
X99700000Y-60750000D02*
X97750000Y-60750000D01*
X95400000Y-75600000D02*
X94310000Y-74510000D01*
X94150000Y-71150000D02*
X94150000Y-67550000D01*
X97750000Y-60750000D02*
X94600000Y-63900000D01*
X102050000Y-75600000D02*
X95400000Y-75600000D01*
X94800000Y-74020000D02*
X94800000Y-71800000D01*
%TO.N,FUEL_ALERT*%
X104100000Y-61700000D02*
X106000000Y-63600000D01*
X106000000Y-63600000D02*
X106000000Y-69800000D01*
X105200000Y-70600000D02*
X105200000Y-73250000D01*
D67*
X99490000Y-59540000D02*
X99700000Y-59750000D01*
D64*
X99600000Y-57400000D02*
X99490000Y-57510000D01*
D67*
X99490000Y-58450000D02*
X99490000Y-59540000D01*
D64*
X99490000Y-57510000D02*
X99490000Y-58450000D01*
X106000000Y-69800000D02*
X105200000Y-70600000D01*
%TO.N,SDA*%
X95300000Y-69500000D02*
X95600000Y-69200000D01*
X99700000Y-65300000D02*
X99700000Y-61250000D01*
X95310000Y-73010000D02*
X95300000Y-73000000D01*
X95625000Y-69825000D02*
X98575000Y-69825000D01*
X95300000Y-73000000D02*
X95300000Y-69500000D01*
X96800000Y-75200000D02*
X95300000Y-73700000D01*
X98575000Y-69825000D02*
X99700000Y-68700000D01*
X96200000Y-73010000D02*
X95310000Y-73010000D01*
X99700000Y-68700000D02*
X99700000Y-67900000D01*
X102050000Y-75200000D02*
X96800000Y-75200000D01*
X95600000Y-69200000D02*
X96525000Y-68275000D01*
X95300000Y-69500000D02*
X95625000Y-69825000D01*
X95300000Y-73700000D02*
X95300000Y-73000000D01*
X96525000Y-68275000D02*
X96525000Y-67638330D01*
%TO.N,SWO*%
X107200000Y-79150000D02*
X107575000Y-79150000D01*
X63370000Y-115840000D02*
X62310000Y-115840000D01*
X64325000Y-114885000D02*
X63370000Y-115840000D01*
X107575000Y-79150000D02*
X109500000Y-81075000D01*
X71850000Y-100575000D02*
X71850000Y-98325000D01*
X71850000Y-98325000D02*
X71125000Y-97600000D01*
X71125000Y-97600000D02*
X68175000Y-97600000D01*
X68175000Y-97600000D02*
X67240711Y-98534289D01*
X67240711Y-98534289D02*
X67240711Y-99504289D01*
X64325000Y-108200000D02*
X64325000Y-114885000D01*
%TO.N,SWDCLK*%
X110750000Y-77600000D02*
X107950000Y-77600000D01*
X62310000Y-117110000D02*
X60115000Y-117110000D01*
X60115000Y-117110000D02*
X59450000Y-117775000D01*
X71025000Y-108500000D02*
X65900000Y-103375000D01*
X61800000Y-121675000D02*
X68600000Y-121675000D01*
X71025000Y-113175000D02*
X71025000Y-108500000D01*
X68600000Y-121675000D02*
X71025000Y-119250000D01*
X59450000Y-117775000D02*
X59450000Y-119325000D01*
X65900000Y-103375000D02*
X65900000Y-100945000D01*
X112375000Y-79225000D02*
X110750000Y-77600000D01*
X112375000Y-81650000D02*
X112375000Y-79225000D01*
X71025000Y-119250000D02*
X71025000Y-113175000D01*
X59450000Y-119325000D02*
X61800000Y-121675000D01*
%TO.N,~{RESET}*%
X62150000Y-99475000D02*
X62090000Y-99475000D01*
X60450000Y-113300000D02*
X58250000Y-111100000D01*
X102475000Y-81556372D02*
X104000000Y-80031372D01*
X62310000Y-113300000D02*
X60450000Y-113300000D01*
X62150000Y-96175000D02*
X62150000Y-99475000D01*
X102475000Y-82125000D02*
X102475000Y-81556372D01*
X104000000Y-80031372D02*
X104000000Y-79150000D01*
X58250000Y-111100000D02*
X58250000Y-100075000D01*
X58250000Y-100075000D02*
X62150000Y-96175000D01*
%TO.N,SWDIO*%
X63360000Y-103635000D02*
X63360000Y-100945000D01*
X70175000Y-109675000D02*
X69400000Y-109675000D01*
X67875000Y-120225000D02*
X69400000Y-118700000D01*
X62310000Y-119385000D02*
X63150000Y-120225000D01*
X69400000Y-118700000D02*
X69400000Y-109675000D01*
X111000000Y-81450000D02*
X111000000Y-79050000D01*
X63150000Y-120225000D02*
X67875000Y-120225000D01*
X109950000Y-78000000D02*
X107950000Y-78000000D01*
X69400000Y-109675000D02*
X63360000Y-103635000D01*
X111000000Y-79050000D02*
X109950000Y-78000000D01*
X62310000Y-118380000D02*
X62310000Y-119385000D01*
%TO.N,Net-(U1-DCC)*%
X103200000Y-71100000D02*
X102900000Y-70800000D01*
X102612500Y-70800000D02*
X102100000Y-70287500D01*
X103200000Y-73250000D02*
X103200000Y-71100000D01*
X102900000Y-70800000D02*
X102612500Y-70800000D01*
%TO.N,Net-(L1-Pad2)*%
X102802500Y-69415000D02*
X102100000Y-68712500D01*
X103600000Y-69415000D02*
X102802500Y-69415000D01*
%TO.N,BUZZER*%
X86405000Y-81695000D02*
X89900000Y-78200000D01*
X96834314Y-78200000D02*
X97434314Y-77600000D01*
X69020000Y-81695000D02*
X86405000Y-81695000D01*
X89900000Y-78200000D02*
X96834314Y-78200000D01*
X97434314Y-77600000D02*
X102050000Y-77600000D01*
%TO.N,EXT_FLASH_CS*%
X90305000Y-82695000D02*
X89800000Y-82695000D01*
X89800000Y-82695000D02*
X88520000Y-82695000D01*
X93800000Y-79200000D02*
X90305000Y-82695000D01*
X102050000Y-78000000D02*
X97600000Y-78000000D01*
X97600000Y-78000000D02*
X96400000Y-79200000D01*
X96400000Y-79200000D02*
X93800000Y-79200000D01*
X88520000Y-82695000D02*
X88030000Y-82205000D01*
%TO.N,LCD_D{slash}C*%
X109050000Y-96450000D02*
X92160000Y-113340000D01*
X106400000Y-80150000D02*
X109050000Y-82800000D01*
X106400000Y-79150000D02*
X106400000Y-80150000D01*
X92160000Y-113340000D02*
X92160000Y-117500000D01*
X109050000Y-82800000D02*
X109050000Y-96450000D01*
D63*
%TO.N,+3V0*%
X62125000Y-102950000D02*
X62125000Y-100972000D01*
X66350000Y-118380000D02*
X66350000Y-119400000D01*
X66350000Y-119400000D02*
X66375000Y-119425000D01*
X62125000Y-100972000D02*
X62090000Y-100972000D01*
D64*
%TO.N,USB_TX*%
X87225000Y-75550000D02*
X86795000Y-75980000D01*
X102050000Y-76000000D02*
X95234314Y-76000000D01*
X63350000Y-99465000D02*
X63360000Y-99475000D01*
X95234314Y-76000000D02*
X94784314Y-75550000D01*
X63350000Y-93925000D02*
X63350000Y-99465000D01*
X94784314Y-75550000D02*
X87225000Y-75550000D01*
X86795000Y-75980000D02*
X86100000Y-75980000D01*
%TO.N,USB_RX*%
X90600000Y-76175000D02*
X90700000Y-76175000D01*
X79850000Y-83600000D02*
X65900000Y-97550000D01*
X95068628Y-76400000D02*
X102050000Y-76400000D01*
X87165686Y-76175000D02*
X90600000Y-76175000D01*
X86100000Y-76480000D02*
X86820000Y-76480000D01*
X90600000Y-76175000D02*
X94843628Y-76175000D01*
X65900000Y-97550000D02*
X65900000Y-99475000D01*
X94843628Y-76175000D02*
X95068628Y-76400000D01*
X86820000Y-76480000D02*
X86920000Y-76380000D01*
X86960686Y-76380000D02*
X87165686Y-76175000D01*
X86920000Y-76380000D02*
X86960686Y-76380000D01*
D66*
%TO.N,Net-(C27-Pad1)*%
X111325000Y-76000000D02*
X112340000Y-76000000D01*
X112340000Y-76000000D02*
X113355000Y-76000000D01*
%TO.N,Net-(JP101-B)*%
X88030000Y-83225000D02*
X88030000Y-83970000D01*
D64*
X95400000Y-82695000D02*
X96670000Y-82695000D01*
X96670000Y-82695000D02*
X97130000Y-82235000D01*
D66*
X95400000Y-82695000D02*
X94730000Y-82695000D01*
X94730000Y-82695000D02*
X94250000Y-83175000D01*
X88030000Y-83970000D02*
X88025000Y-83975000D01*
D63*
%TO.N,Net-(JP203-B)*%
X92600000Y-69850000D02*
X92600000Y-71985000D01*
D66*
X92580000Y-73200000D02*
X92580000Y-73970000D01*
X92580000Y-73970000D02*
X92575000Y-73975000D01*
D63*
X92585000Y-73195000D02*
X92580000Y-73200000D01*
X92600000Y-71985000D02*
X92585000Y-72000000D01*
X92585000Y-72000000D02*
X92585000Y-73195000D01*
D68*
%TO.N,Net-(IC200-VDD)*%
X103375000Y-58100000D02*
X101675000Y-58100000D01*
D67*
X102900000Y-59880000D02*
X102530000Y-60250000D01*
D68*
X103545000Y-59880000D02*
X103825000Y-59600000D01*
X102900000Y-59880000D02*
X103545000Y-59880000D01*
D66*
X100510000Y-58450000D02*
X101325000Y-58450000D01*
D68*
X103825000Y-58550000D02*
X103375000Y-58100000D01*
X103825000Y-59600000D02*
X103825000Y-58550000D01*
X101675000Y-58100000D02*
X101325000Y-58450000D01*
D67*
X102530000Y-60250000D02*
X101700000Y-60250000D01*
D63*
%TO.N,Net-(SW200-B)*%
X88600000Y-68350000D02*
X87700000Y-68350000D01*
X87607947Y-68075000D02*
X86625000Y-68075000D01*
D66*
X86625000Y-68075000D02*
X87384502Y-68075000D01*
D63*
X88600000Y-68350000D02*
X87882947Y-68350000D01*
D62*
X110000000Y-56800000D02*
X111250000Y-55550000D01*
D66*
X87384502Y-68075000D02*
X87404751Y-68095249D01*
X85780000Y-67900000D02*
X86450000Y-67900000D01*
D63*
X87882947Y-68350000D02*
X87607947Y-68075000D01*
X87700000Y-68350000D02*
X87425000Y-68075000D01*
D66*
X86450000Y-67900000D02*
X86625000Y-68075000D01*
D62*
X110000000Y-57675000D02*
X110000000Y-56800000D01*
D63*
%TO.N,Net-(U200-DEC)*%
X90350000Y-72070000D02*
X90300000Y-72120000D01*
X90350000Y-70600000D02*
X90350000Y-72070000D01*
D62*
%TO.N,Net-(D202-A)*%
X60447500Y-64600000D02*
X60447500Y-64752500D01*
X59160000Y-66040000D02*
X59160000Y-66940000D01*
X60447500Y-64752500D02*
X59160000Y-66040000D01*
D66*
%TO.N,Net-(D100-K)*%
X61120000Y-90445000D02*
X61120000Y-84643858D01*
X66790000Y-78973858D02*
X66790000Y-77595000D01*
X61120000Y-91495000D02*
X61120000Y-90445000D01*
X62120000Y-92495000D02*
X61120000Y-91495000D01*
X61120000Y-84643858D02*
X66790000Y-78973858D01*
X69270000Y-90795000D02*
X67570000Y-92495000D01*
X67570000Y-92495000D02*
X62120000Y-92495000D01*
%TO.N,Net-(D100-A)*%
X67770000Y-90795000D02*
X62770000Y-90795000D01*
X67617500Y-88795000D02*
X67670000Y-88847500D01*
X67670000Y-90695000D02*
X67770000Y-90795000D01*
X62470000Y-90395000D02*
X62420000Y-90445000D01*
X67670000Y-88847500D02*
X67670000Y-90695000D01*
X62770000Y-90795000D02*
X62420000Y-90445000D01*
D62*
%TO.N,Net-(D200-K)*%
X64870000Y-64000000D02*
X64470000Y-64400000D01*
X68100000Y-64000000D02*
X64870000Y-64000000D01*
D63*
%TO.N,Net-(D200-A)*%
X76300000Y-59928000D02*
X76300000Y-60725000D01*
X76300000Y-59928000D02*
X76300000Y-60325000D01*
X71500000Y-63600000D02*
X71100000Y-64000000D01*
X71100000Y-64000000D02*
X71100000Y-66562000D01*
X76300000Y-60725000D02*
X76150000Y-60875000D01*
X71200000Y-59928000D02*
X71200000Y-62925000D01*
X76000000Y-59928000D02*
X76000000Y-60625000D01*
X71100000Y-63025000D02*
X71200000Y-62925000D01*
X71100000Y-64000000D02*
X71100000Y-63025000D01*
X76000000Y-60625000D02*
X76000000Y-60725000D01*
X76300000Y-60325000D02*
X76000000Y-60625000D01*
X71100000Y-66562000D02*
X70762000Y-66900000D01*
X76000000Y-60725000D02*
X76150000Y-60875000D01*
D64*
%TO.N,LCD_PWM*%
X106800000Y-79150000D02*
X106800000Y-79875000D01*
X112600000Y-82250000D02*
X113175000Y-82825000D01*
X113175000Y-82825000D02*
X113175000Y-85475000D01*
X106800000Y-79875000D02*
X109175000Y-82250000D01*
X109175000Y-82250000D02*
X112600000Y-82250000D01*
X113175000Y-85475000D02*
X113825000Y-86125000D01*
D63*
%TO.N,Net-(J200-A5{slash}CC1)*%
X80700000Y-61700000D02*
X82300000Y-60100000D01*
X75000000Y-59928000D02*
X75000000Y-60807000D01*
X75893000Y-61700000D02*
X80700000Y-61700000D01*
X82300000Y-60100000D02*
X82300000Y-57410000D01*
X75000000Y-60807000D02*
X75893000Y-61700000D01*
D64*
%TO.N,MOSI*%
X105575000Y-82100000D02*
X101200000Y-86475000D01*
X105200000Y-79150000D02*
X105200000Y-80706372D01*
X90060000Y-114450000D02*
X90060000Y-117500000D01*
X90060000Y-97640000D02*
X90060000Y-114450000D01*
X101200000Y-86500000D02*
X90060000Y-97640000D01*
X105200000Y-80706372D02*
X105575000Y-81081372D01*
X101195000Y-86505000D02*
X101200000Y-86500000D01*
X105575000Y-81081372D02*
X105575000Y-82100000D01*
X95400000Y-86505000D02*
X101195000Y-86505000D01*
X101200000Y-86475000D02*
X101200000Y-86500000D01*
%TO.N,~{HOLD}*%
X99500686Y-83965000D02*
X95400000Y-83965000D01*
X103600000Y-79150000D02*
X103600000Y-79865686D01*
X103600000Y-79865686D02*
X99500686Y-83965000D01*
%TO.N,SCK*%
X103600000Y-85200000D02*
X105600000Y-85200000D01*
X106350000Y-84450000D02*
X105600000Y-85200000D01*
X106350000Y-81290686D02*
X106350000Y-84450000D01*
X105600000Y-80540686D02*
X106350000Y-81290686D01*
X105600000Y-79150000D02*
X105600000Y-80540686D01*
X105600000Y-86600000D02*
X90760000Y-101440000D01*
X90760000Y-101440000D02*
X90760000Y-117500000D01*
X105600000Y-85200000D02*
X105600000Y-86600000D01*
X100700000Y-85235000D02*
X95400000Y-85235000D01*
%TO.N,~{WP}*%
X101500000Y-81400000D02*
X95000000Y-81400000D01*
X91165000Y-85235000D02*
X89800000Y-85235000D01*
X95000000Y-81400000D02*
X91165000Y-85235000D01*
X103200000Y-79150000D02*
X103200000Y-79700000D01*
X103200000Y-79700000D02*
X101500000Y-81400000D01*
%TO.N,MISO*%
X90935000Y-83965000D02*
X89800000Y-83965000D01*
X94200000Y-80700000D02*
X90935000Y-83965000D01*
X101250000Y-80700000D02*
X94200000Y-80700000D01*
X102800000Y-79150000D02*
X101250000Y-80700000D01*
D61*
%TO.N,LCD_CS*%
X103360000Y-126315000D02*
X103360000Y-125925000D01*
D64*
X107525000Y-81900000D02*
X107525000Y-90800000D01*
X106000000Y-79150000D02*
X106000000Y-80375000D01*
D61*
X91460000Y-119349300D02*
X98985700Y-126875000D01*
D64*
X106000000Y-80375000D02*
X107525000Y-81900000D01*
D61*
X102800000Y-126875000D02*
X103360000Y-126315000D01*
X98985700Y-126875000D02*
X102800000Y-126875000D01*
X91460000Y-117500000D02*
X91460000Y-119349300D01*
D64*
X107525000Y-90800000D02*
X91460000Y-106865000D01*
X91460000Y-106865000D02*
X91460000Y-117500000D01*
%TO.N,LCD_RESET*%
X89500000Y-98775000D02*
X89360000Y-98915000D01*
X104800000Y-81048836D02*
X104800000Y-79150000D01*
X105000582Y-81249418D02*
X104800000Y-81048836D01*
X89360000Y-98915000D02*
X89360000Y-117500000D01*
D63*
%TO.N,Net-(J200-B5{slash}CC2)*%
X71310000Y-57510000D02*
X72000000Y-58200000D01*
X65100000Y-57510000D02*
X71310000Y-57510000D01*
X72000000Y-58200000D02*
X72000000Y-59928000D01*
D64*
%TO.N,BMA400_INT2*%
X105450000Y-66750000D02*
X104700000Y-66000000D01*
X104700000Y-66000000D02*
X98500000Y-66000000D01*
X104800000Y-73250000D02*
X104800000Y-70316372D01*
X104800000Y-70316372D02*
X105450000Y-69666372D01*
X98500000Y-66000000D02*
X97926670Y-66573330D01*
X105450000Y-69666372D02*
X105450000Y-66750000D01*
X97926670Y-66573330D02*
X97590000Y-66573330D01*
%TO.N,BMA400_INT1*%
X104400000Y-73250000D02*
X104400000Y-70150686D01*
X104100000Y-66500000D02*
X98865000Y-66500000D01*
X104900000Y-69650686D02*
X104900000Y-67300000D01*
X98865000Y-66500000D02*
X98291670Y-67073330D01*
X98291670Y-67073330D02*
X97590000Y-67073330D01*
X104900000Y-67300000D02*
X104100000Y-66500000D01*
X104400000Y-70150686D02*
X104900000Y-69650686D01*
D61*
%TO.N,Net-(JP104-B)*%
X97235700Y-121625000D02*
X109150000Y-121625000D01*
X94960000Y-119349300D02*
X97235700Y-121625000D01*
X109150000Y-121625000D02*
X115700000Y-115075000D01*
X94960000Y-117500000D02*
X94960000Y-119349300D01*
D64*
%TO.N,Charge Error*%
X107725000Y-69500000D02*
X107725000Y-66825000D01*
X90300000Y-66550000D02*
X90350000Y-66600000D01*
X90300000Y-65500000D02*
X90300000Y-66550000D01*
X106000000Y-71225000D02*
X107725000Y-69500000D01*
X90400000Y-65400000D02*
X90300000Y-65500000D01*
X107725000Y-66825000D02*
X107200000Y-66300000D01*
X106000000Y-73250000D02*
X106000000Y-71225000D01*
%TO.N,Charging*%
X91350000Y-66025000D02*
X91350000Y-66600000D01*
X106900000Y-69575000D02*
X106900000Y-67400000D01*
X92600000Y-64775000D02*
X91350000Y-66025000D01*
X105600000Y-70875000D02*
X106900000Y-69575000D01*
X105600000Y-73250000D02*
X105600000Y-70875000D01*
D62*
%TO.N,Net-(JP202-B)*%
X104900000Y-55400000D02*
X106300000Y-54000000D01*
X102270000Y-55400000D02*
X104900000Y-55400000D01*
X113750000Y-54950000D02*
X113750000Y-55550000D01*
X112800000Y-54000000D02*
X113750000Y-54950000D01*
X106300000Y-54000000D02*
X112800000Y-54000000D01*
D63*
%TO.N,Net-(U200-SW)*%
X90850000Y-70600000D02*
X90850000Y-71235000D01*
X90850000Y-71235000D02*
X91615000Y-72000000D01*
D64*
%TO.N,Net-(Q100-G)*%
X68000000Y-81695000D02*
X68000000Y-82995000D01*
X68000000Y-84307500D02*
X67562500Y-84745000D01*
X68000000Y-82995000D02*
X68000000Y-84307500D01*
D66*
%TO.N,Net-(Q100-D)*%
X69442500Y-88795000D02*
X69442500Y-85700000D01*
X69442500Y-85700000D02*
X69437500Y-85695000D01*
D63*
%TO.N,Net-(U200-NTC)*%
X86975000Y-66800000D02*
X85810000Y-66800000D01*
X88025000Y-67850000D02*
X86975000Y-66800000D01*
X88600000Y-67850000D02*
X88025000Y-67850000D01*
%TO.N,Net-(U200-ICHG)*%
X89350000Y-65260000D02*
X89410000Y-65200000D01*
X89350000Y-66600000D02*
X89350000Y-65260000D01*
D61*
%TO.N,Net-(U101-LEDK)*%
X111850000Y-98950000D02*
X95660000Y-115140000D01*
X95660000Y-115140000D02*
X95660000Y-117500000D01*
X111850000Y-85175000D02*
X111850000Y-86125000D01*
X111850000Y-86125000D02*
X111850000Y-98950000D01*
D64*
%TO.N,VBUS_DETECT*%
X106400000Y-73250000D02*
X106400000Y-71500000D01*
X108690000Y-67600000D02*
X108690000Y-68800000D01*
X106400000Y-71500000D02*
X108690000Y-69210000D01*
X108690000Y-69210000D02*
X108690000Y-68800000D01*
%TO.N,P1.15*%
X106800000Y-71921232D02*
X106800000Y-73250000D01*
X106925000Y-71796232D02*
X106800000Y-71921232D01*
%TD*%
%TA.AperFunction,Conductor*%
%TO.N,Net-(D200-A)*%
G36*
X71575750Y-59389685D02*
G01*
X71621505Y-59442489D01*
X71632681Y-59491259D01*
X71719970Y-63438643D01*
X71720000Y-63441384D01*
X71720000Y-64444995D01*
X71700315Y-64512034D01*
X71647511Y-64557789D01*
X71595000Y-64568991D01*
X70601906Y-64560983D01*
X70535028Y-64540758D01*
X70489700Y-64487587D01*
X70478911Y-64438096D01*
X70470112Y-63452626D01*
X70472435Y-63427614D01*
X71050000Y-60490000D01*
X71050000Y-59494000D01*
X71069685Y-59426961D01*
X71122489Y-59381206D01*
X71174000Y-59370000D01*
X71508711Y-59370000D01*
X71575750Y-59389685D01*
G37*
%TD.AperFunction*%
%TD*%
M02*
