M48
; DRILL file {KiCad 8.0.3} date 2024-06-23T22:11:44-0500
; FORMAT={-:-/ absolute / inch / decimal}
; #@! TF.CreationDate,2024-06-23T22:11:44-05:00
; #@! TF.GenerationSoftware,Kicad,Pcbnew,8.0.3
; #@! TF.FileFunction,Plated,1,4,PTH
FMAT,2
INCH
; #@! TA.AperFunction,Plated,PTH,ViaDrill
T1C0.0118
; #@! TA.AperFunction,Plated,PTH,ComponentDrill
T2C0.0394
; #@! TA.AperFunction,Plated,PTH,ComponentDrill
T3C0.0512
%
G90
G05
T1
X2.3169Y-2.497
X2.4459Y-4.0531
X2.4469Y-3.7864
X2.4941Y-3.6978
X2.5325Y-4.2598
X2.5413Y-4.0502
X2.563Y-2.1909
X2.5994Y-3.4114
X2.6132Y-4.7018
X2.6929Y-2.6722
X2.6978Y-4.56
X2.752Y-3.2677
X2.7549Y-2.4035
X2.7628Y-4.3179
X2.7963Y-4.4557
X2.8031Y-2.4459
X2.8031Y-2.4774
X2.8287Y-3.9596
X2.872Y-2.311
X2.9213Y-2.311
X2.998Y-2.3967
X3.0512Y-2.3976
X3.061Y-3.0118
X3.0719Y-3.3022
X3.1132Y-2.9341
X3.1437Y-3.2913
X3.1663Y-2.8297
X3.1909Y-3.1841
X3.2057Y-2.7758
X3.2402Y-2.187
X3.2638Y-3.2933
X3.2667Y-2.9823
X3.2667Y-3.0413
X3.3071Y-2.6732
X3.3159Y-2.7648
X3.3258Y-2.9823
X3.3258Y-3.0413
X3.3445Y-2.751
X3.3445Y-2.7825
X3.4104Y-2.6801
X3.4419Y-2.6801
X3.4419Y-2.7165
X3.4518Y-2.5679
X3.4656Y-3.3061
X3.4833Y-2.7825
X3.4902Y-4.5413
X3.5177Y-2.9744
X3.5236Y-3.8888
X3.5364Y-2.6722
X3.5364Y-2.7313
X3.5492Y-2.4291
X3.5502Y-2.3917
X3.5512Y-2.3553
X3.5591Y-2.5748
X3.5709Y-2.999
X3.5787Y-2.9026
X3.5787Y-3.4045
X3.5955Y-2.6722
X3.5955Y-2.7313
X3.605Y-2.5617
X3.6181Y-3.0236
X3.6447Y-2.9124
X3.6457Y-2.5502
X3.6703Y-4.5404
X3.685Y-2.6919
X3.6969Y-2.8632
X3.7106Y-3.2746
X3.7343Y-2.6713
X3.7835Y-2.8041
X3.7933Y-4.7047
X3.8091Y-2.6289
X3.8228Y-2.7795
X3.8248Y-2.9291
X3.8307Y-2.7254
X3.8553Y-3.2746
X3.8602Y-2.5709
X3.8967Y-2.7018
X3.9213Y-2.2598
X3.9252Y-2.5709
X3.9252Y-2.6732
X3.9272Y-3.1201
X3.9596Y-2.8278
X3.9646Y-3.3557
X3.9675Y-2.6486
X3.9892Y-2.3012
X3.9911Y-3.1093
X4.0191Y-2.8508
X4.0236Y-2.3317
X4.0344Y-3.2333
X4.0768Y-3.2116
X4.0787Y-3.3543
X4.0846Y-2.9492
X4.0846Y-3.0492
X4.0856Y-3.2677
X4.0984Y-2.4291
X4.0984Y-4.8829
X4.1063Y-2.7008
X4.1073Y-2.6683
X4.1339Y-3.1988
X4.1846Y-2.9492
X4.1846Y-3.0492
X4.2087Y-2.6535
X4.2096Y-2.8266
X4.2205Y-2.6102
X4.2362Y-2.186
X4.25Y-2.7904
X4.2776Y-3.1093
X4.311Y-3.1919
X4.3189Y-2.9409
X4.3193Y-2.7559
X4.3307Y-2.2707
X4.3307Y-2.3061
X4.3327Y-3.1683
X4.3366Y-3.0295
X4.3602Y-2.6604
X4.3701Y-2.7569
X4.3701Y-3.2067
X4.4075Y-2.9163
X4.4222Y-3.0591
X4.4232Y-2.8642
X4.4242Y-3.2146
X4.5512Y-3.3533
X4.7608Y-3.0591
X4.8898Y-3.06
T2
X4.9551Y-4.0307
X4.9551Y-4.1307
X4.9551Y-4.2307
X4.9551Y-4.3307
X4.9551Y-4.4307
T3
X2.5295Y-3.0549
X2.5382Y-2.5354
X2.5382Y-2.6354
X2.6295Y-3.0549
X3.9264Y-2.1811
X4.0264Y-2.1811
X4.5551Y-3.5305
X4.5551Y-3.7305
X4.5551Y-3.9305
X4.5551Y-4.1305
X4.5551Y-4.3305
X4.5551Y-4.5305
X4.5551Y-4.7305
X4.5551Y-4.9305
X4.6551Y-3.5305
X4.6551Y-3.7305
X4.6551Y-3.9305
X4.6551Y-4.1305
X4.6551Y-4.3305
X4.6551Y-4.5305
X4.6551Y-4.7305
X4.6551Y-4.9305
M30
