%TF.GenerationSoftware,KiCad,Pcbnew,8.0.3*%
%TF.CreationDate,2024-06-23T22:11:50-05:00*%
%TF.ProjectId,GeckoDevelopmentBoard,4765636b-6f44-4657-9665-6c6f706d656e,rev?*%
%TF.SameCoordinates,Original*%
%TF.FileFunction,Copper,L3,Inr*%
%TF.FilePolarity,Positive*%
%FSLAX46Y46*%
G04 Gerber Fmt 4.6, Leading zero omitted, Abs format (unit mm)*
G04 Created by KiCad (PCBNEW 8.0.3) date 2024-06-23 22:11:50*
%MOMM*%
%LPD*%
G01*
G04 APERTURE LIST*
%TA.AperFunction,ComponentPad*%
%ADD10R,1.700000X1.700000*%
%TD*%
%TA.AperFunction,ComponentPad*%
%ADD11O,1.700000X1.700000*%
%TD*%
%TA.AperFunction,ComponentPad*%
%ADD12R,1.950000X1.950000*%
%TD*%
%TA.AperFunction,ComponentPad*%
%ADD13C,1.950000*%
%TD*%
%TA.AperFunction,ViaPad*%
%ADD14C,0.450000*%
%TD*%
%TA.AperFunction,Conductor*%
%ADD15C,1.000000*%
%TD*%
%TA.AperFunction,Conductor*%
%ADD16C,0.570000*%
%TD*%
%TA.AperFunction,Conductor*%
%ADD17C,0.254000*%
%TD*%
%TA.AperFunction,Conductor*%
%ADD18C,2.000000*%
%TD*%
G04 APERTURE END LIST*
D10*
%TO.N,+3V0*%
%TO.C,J202*%
X125860000Y-112540000D03*
D11*
%TO.N,P1.15*%
X125860000Y-110000000D03*
%TO.N,GND*%
X125860000Y-107460000D03*
X125860000Y-104920000D03*
X125860000Y-102380000D03*
%TD*%
D12*
%TO.N,+3V0*%
%TO.C,JP104*%
X118240000Y-115075000D03*
D13*
%TO.N,Net-(JP104-B)*%
X115700000Y-115075000D03*
%TD*%
D12*
%TO.N,+3V0*%
%TO.C,JP201*%
X118240000Y-125235000D03*
D13*
%TO.N,Net-(IC200-VDD)*%
X115700000Y-125235000D03*
%TD*%
D12*
%TO.N,VCELL*%
%TO.C,JP202*%
X99730000Y-55400000D03*
D13*
%TO.N,Net-(JP202-B)*%
X102270000Y-55400000D03*
%TD*%
D12*
%TO.N,+3V0*%
%TO.C,JP1*%
X118240000Y-89675000D03*
D13*
%TO.N,Net-(JP1-B)*%
X115700000Y-89675000D03*
%TD*%
D12*
%TO.N,+3V0*%
%TO.C,JP10*%
X118240000Y-109995000D03*
D13*
%TO.N,Net-(IC1-VDD)*%
X115700000Y-109995000D03*
%TD*%
D12*
%TO.N,+3V0*%
%TO.C,JP102*%
X118240000Y-120155000D03*
D13*
%TO.N,Net-(JP102-B)*%
X115700000Y-120155000D03*
%TD*%
D12*
%TO.N,+3V0*%
%TO.C,JP203*%
X118240000Y-99835000D03*
D13*
%TO.N,Net-(JP203-B)*%
X115700000Y-99835000D03*
%TD*%
D12*
%TO.N,+3V0*%
%TO.C,JP100*%
X64250000Y-77595000D03*
D13*
%TO.N,Net-(D100-K)*%
X66790000Y-77595000D03*
%TD*%
D12*
%TO.N,VBUS*%
%TO.C,JP200*%
X64470000Y-66940000D03*
D13*
%TO.N,Net-(D200-K)*%
X64470000Y-64400000D03*
%TD*%
D12*
%TO.N,+3V0*%
%TO.C,JP101*%
X118240000Y-104915000D03*
D13*
%TO.N,Net-(JP101-B)*%
X115700000Y-104915000D03*
%TD*%
D12*
%TO.N,+3V0*%
%TO.C,JP103*%
X118240000Y-94755000D03*
D13*
%TO.N,Net-(JP103-B)*%
X115700000Y-94755000D03*
%TD*%
D14*
%TO.N,GND*%
X120925000Y-77700000D03*
X103750000Y-77450000D03*
X98975000Y-68625000D03*
X88475000Y-70675000D03*
X77500000Y-60900000D03*
X84475000Y-75750000D03*
X111000000Y-70025000D03*
X84000000Y-67900000D03*
X82975000Y-77250000D03*
X104100000Y-124025000D03*
X65100000Y-55650000D03*
X87675000Y-65225000D03*
X97925000Y-83175000D03*
X88650000Y-115350000D03*
X66025000Y-86650000D03*
X112325000Y-77700000D03*
X124200000Y-77725000D03*
X69900000Y-83000000D03*
X109710000Y-70000000D03*
X82975000Y-75750000D03*
X82300000Y-55550000D03*
X96350000Y-119500000D03*
X79075000Y-74525000D03*
X112350000Y-72750000D03*
X69975000Y-61050000D03*
X90900000Y-73725000D03*
X90150000Y-61700000D03*
X90175000Y-60750000D03*
X106290000Y-77450000D03*
X110150000Y-76950000D03*
X100575000Y-71825000D03*
X115600000Y-85175000D03*
X103775000Y-83000000D03*
X111950000Y-74075000D03*
X107600000Y-55525000D03*
X89825000Y-69375000D03*
X68400000Y-67875000D03*
X97100000Y-70600000D03*
X110050000Y-80475000D03*
X104325000Y-67775000D03*
X106290000Y-74910000D03*
X80425000Y-71875000D03*
X102200175Y-59225175D03*
X103750000Y-74910000D03*
X89825000Y-67875000D03*
X58850000Y-63425000D03*
X94850000Y-67850000D03*
X91325000Y-69375000D03*
X93225000Y-115325000D03*
X96750000Y-66775000D03*
X99750000Y-79250000D03*
X97150000Y-74400000D03*
X90200000Y-59825000D03*
X68525000Y-115825000D03*
X90900000Y-86475000D03*
X64550000Y-102875000D03*
X84475000Y-77250000D03*
X100775000Y-67275000D03*
X91325000Y-67875000D03*
%TO.N,Net-(JP1-B)*%
X101375000Y-78975000D03*
X93900000Y-72725000D03*
X103550000Y-81575000D03*
X107950000Y-70875000D03*
X96100000Y-71225000D03*
X102086382Y-72411382D03*
X108650000Y-78975000D03*
%TO.N,Net-(U1-DEC4)*%
X109700000Y-74700000D03*
X104300000Y-68600000D03*
%TO.N,/Power/VSYS*%
X93600000Y-68375000D03*
X91566268Y-65066268D03*
X87425000Y-69000000D03*
%TO.N,VBUS*%
X84225000Y-70225000D03*
X84950000Y-69875000D03*
X84950000Y-70675000D03*
X110750000Y-67575000D03*
%TO.N,Net-(IC1-VDD)*%
X81425000Y-70505000D03*
X77750000Y-76500000D03*
%TO.N,USB_RTS*%
X91900000Y-76800000D03*
X82900000Y-83650000D03*
%TO.N,Net-(JP103-B)*%
X97300000Y-69225000D03*
X98050000Y-65300000D03*
%TO.N,D+*%
X72948000Y-58700000D03*
X74200000Y-58700000D03*
%TO.N,USB_CTS*%
X81050000Y-80875000D03*
X78025000Y-83875000D03*
%TO.N,FUEL_ALERT*%
X99600000Y-57400000D03*
X104100000Y-61700000D03*
%TO.N,SDA*%
X99700000Y-67900000D03*
X99700000Y-65300000D03*
%TO.N,SWO*%
X71850000Y-100575000D03*
X64325000Y-108200000D03*
X109500000Y-81075000D03*
%TO.N,SWDCLK*%
X112375000Y-81650000D03*
X71025000Y-113175000D03*
%TO.N,~{RESET}*%
X102475000Y-82125000D03*
X62150000Y-96175000D03*
%TO.N,SWDIO*%
X111000000Y-81450000D03*
X70175000Y-109675000D03*
%TO.N,+3V0*%
X62125000Y-102950000D03*
X66375000Y-119425000D03*
%TO.N,USB_TX*%
X89350000Y-75550000D03*
X63350000Y-93925000D03*
%TO.N,USB_RX*%
X90700000Y-76175000D03*
X79850000Y-83600000D03*
%TO.N,Net-(JP101-B)*%
X94250000Y-83175000D03*
X88025000Y-83975000D03*
%TO.N,Net-(JP203-B)*%
X92575000Y-73975000D03*
%TO.N,Net-(IC200-VDD)*%
X101325000Y-58450000D03*
%TO.N,Net-(SW200-B)*%
X110000000Y-58575000D03*
X87425000Y-68075000D03*
X86625000Y-68075000D03*
X110000000Y-57675000D03*
%TO.N,Net-(D200-A)*%
X76150000Y-60875000D03*
X71200000Y-62125000D03*
X71200000Y-62925000D03*
%TO.N,SCK*%
X100700000Y-85235000D03*
X103600000Y-85200000D03*
%TO.N,LCD_RESET*%
X105000582Y-81249418D03*
X89500000Y-98775000D03*
%TO.N,Charge Error*%
X107200000Y-66300000D03*
X90400000Y-65400000D03*
%TO.N,Charging*%
X92600000Y-64775000D03*
X106900000Y-67400000D03*
%TO.N,P1.15*%
X106925000Y-71796232D03*
%TD*%
D15*
%TO.N,Net-(JP1-B)*%
X101375000Y-79400000D02*
X101375000Y-78975000D01*
X102086382Y-65736382D02*
X100500000Y-64150000D01*
X106225000Y-85525000D02*
X106225000Y-84141852D01*
X115700000Y-89675000D02*
X110375000Y-89675000D01*
X101375000Y-78975000D02*
X102086382Y-78263618D01*
X97100000Y-64150000D02*
X95825000Y-65425000D01*
D16*
X106150000Y-78975000D02*
X108650000Y-78975000D01*
X107950000Y-70875000D02*
X106842140Y-70875000D01*
X104975000Y-72742140D02*
X104975000Y-77800000D01*
D15*
X96100000Y-71225000D02*
X95400000Y-71225000D01*
D16*
X103550000Y-81575000D02*
X106150000Y-78975000D01*
D15*
X95400000Y-71225000D02*
X93900000Y-72725000D01*
X102086382Y-78263618D02*
X102086382Y-65736382D01*
X103550000Y-81575000D02*
X101375000Y-79400000D01*
D16*
X106842140Y-70875000D02*
X104975000Y-72742140D01*
X102086382Y-72411382D02*
X102086382Y-78263618D01*
D15*
X110375000Y-89675000D02*
X106225000Y-85525000D01*
D16*
X102086382Y-65736382D02*
X102086382Y-72411382D01*
D15*
X95825000Y-65425000D02*
X95825000Y-70950000D01*
D16*
X104975000Y-77800000D02*
X106150000Y-78975000D01*
D15*
X100500000Y-64150000D02*
X97100000Y-64150000D01*
X106225000Y-84141852D02*
X103604074Y-81520926D01*
X95825000Y-70950000D02*
X96100000Y-71225000D01*
D17*
%TO.N,VBUS*%
X89300000Y-62750000D02*
X84950000Y-67100000D01*
X110750000Y-67575000D02*
X110750000Y-66275000D01*
X110750000Y-66275000D02*
X107225000Y-62750000D01*
X84950000Y-67100000D02*
X84950000Y-69875000D01*
X107225000Y-62750000D02*
X89300000Y-62750000D01*
D15*
%TO.N,Net-(IC1-VDD)*%
X107936852Y-109995000D02*
X77750000Y-79808148D01*
X77750000Y-76500000D02*
X77750000Y-73075000D01*
X81425000Y-70505000D02*
X80320000Y-70505000D01*
X77750000Y-79808148D02*
X77750000Y-76500000D01*
X115700000Y-109995000D02*
X107936852Y-109995000D01*
X77750000Y-73075000D02*
X80320000Y-70505000D01*
%TO.N,Net-(JP103-B)*%
X98800000Y-70725000D02*
X97300000Y-69225000D01*
X98800000Y-80125000D02*
X98800000Y-70725000D01*
X115700000Y-94755000D02*
X110330000Y-94755000D01*
D16*
X98050000Y-68475000D02*
X97300000Y-69225000D01*
D15*
X101925000Y-86350000D02*
X101925000Y-83250000D01*
X110330000Y-94755000D02*
X101925000Y-86350000D01*
X101925000Y-83250000D02*
X98800000Y-80125000D01*
D16*
X98050000Y-65300000D02*
X98050000Y-68475000D01*
D17*
%TO.N,+3V0*%
X63150000Y-103975000D02*
X62125000Y-102950000D01*
D16*
X116780000Y-126695000D02*
X110170000Y-126695000D01*
X91525000Y-108050000D02*
X87450000Y-103975000D01*
D18*
X118250000Y-112540000D02*
X118240000Y-112550000D01*
D17*
X87450000Y-103975000D02*
X63150000Y-103975000D01*
D18*
X125860000Y-112540000D02*
X118250000Y-112540000D01*
D16*
X64250000Y-80775000D02*
X64250000Y-77595000D01*
D17*
X80150000Y-119425000D02*
X91525000Y-108050000D01*
X66375000Y-119425000D02*
X80150000Y-119425000D01*
D16*
X110170000Y-126695000D02*
X91525000Y-108050000D01*
X87450000Y-103975000D02*
X64250000Y-80775000D01*
X118240000Y-125235000D02*
X116780000Y-126695000D01*
D18*
X118240000Y-89675000D02*
X118240000Y-112550000D01*
X118240000Y-112550000D02*
X118240000Y-125235000D01*
D15*
%TO.N,Net-(JP101-B)*%
X93450000Y-87745000D02*
X93450000Y-83975000D01*
X93450000Y-83975000D02*
X88025000Y-83975000D01*
X115700000Y-104915000D02*
X110620000Y-104915000D01*
X110620000Y-104915000D02*
X93450000Y-87745000D01*
X93450000Y-83975000D02*
X94250000Y-83175000D01*
%TO.N,Net-(JP203-B)*%
X110620000Y-99835000D02*
X96700000Y-85915000D01*
X96700000Y-85915000D02*
X96700000Y-78100000D01*
X115700000Y-99835000D02*
X110620000Y-99835000D01*
X96700000Y-78100000D02*
X92575000Y-73975000D01*
%TO.N,Net-(IC200-VDD)*%
X72525000Y-80675000D02*
X72525000Y-72625000D01*
X115700000Y-123850000D02*
X90425000Y-98575000D01*
X90425000Y-98575000D02*
X90425000Y-98391852D01*
X89883148Y-97850000D02*
X89700000Y-97850000D01*
X90425000Y-98391852D02*
X89883148Y-97850000D01*
X72525000Y-72625000D02*
X86700000Y-58450000D01*
X86700000Y-58450000D02*
X101325000Y-58450000D01*
X89700000Y-97850000D02*
X72525000Y-80675000D01*
X115700000Y-125235000D02*
X115700000Y-123850000D01*
D16*
%TO.N,Net-(D200-A)*%
X71200000Y-62125000D02*
X71200000Y-62925000D01*
X76150000Y-60875000D02*
X72450000Y-60875000D01*
X72450000Y-60875000D02*
X71200000Y-62125000D01*
%TD*%
M02*
