%TF.GenerationSoftware,KiCad,Pcbnew,8.0.3*%
%TF.CreationDate,2024-06-23T22:11:50-05:00*%
%TF.ProjectId,GeckoDevelopmentBoard,4765636b-6f44-4657-9665-6c6f706d656e,rev?*%
%TF.SameCoordinates,Original*%
%TF.FileFunction,Soldermask,Top*%
%TF.FilePolarity,Negative*%
%FSLAX46Y46*%
G04 Gerber Fmt 4.6, Leading zero omitted, Abs format (unit mm)*
G04 Created by KiCad (PCBNEW 8.0.3) date 2024-06-23 22:11:50*
%MOMM*%
%LPD*%
G01*
G04 APERTURE LIST*
G04 Aperture macros list*
%AMRoundRect*
0 Rectangle with rounded corners*
0 $1 Rounding radius*
0 $2 $3 $4 $5 $6 $7 $8 $9 X,Y pos of 4 corners*
0 Add a 4 corners polygon primitive as box body*
4,1,4,$2,$3,$4,$5,$6,$7,$8,$9,$2,$3,0*
0 Add four circle primitives for the rounded corners*
1,1,$1+$1,$2,$3*
1,1,$1+$1,$4,$5*
1,1,$1+$1,$6,$7*
1,1,$1+$1,$8,$9*
0 Add four rect primitives between the rounded corners*
20,1,$1+$1,$2,$3,$4,$5,0*
20,1,$1+$1,$4,$5,$6,$7,0*
20,1,$1+$1,$6,$7,$8,$9,0*
20,1,$1+$1,$8,$9,$2,$3,0*%
G04 Aperture macros list end*
%ADD10C,0.000000*%
%ADD11R,1.240000X1.120000*%
%ADD12RoundRect,0.200000X-0.200000X-0.275000X0.200000X-0.275000X0.200000X0.275000X-0.200000X0.275000X0*%
%ADD13RoundRect,0.140000X-0.170000X0.140000X-0.170000X-0.140000X0.170000X-0.140000X0.170000X0.140000X0*%
%ADD14R,0.850000X0.750000*%
%ADD15RoundRect,0.150000X-0.587500X-0.150000X0.587500X-0.150000X0.587500X0.150000X-0.587500X0.150000X0*%
%ADD16RoundRect,0.218750X-0.218750X-0.256250X0.218750X-0.256250X0.218750X0.256250X-0.218750X0.256250X0*%
%ADD17R,0.280000X0.410000*%
%ADD18R,0.410000X0.280000*%
%ADD19R,1.700000X1.700000*%
%ADD20O,1.700000X1.700000*%
%ADD21R,1.950000X1.950000*%
%ADD22C,1.950000*%
%ADD23RoundRect,0.140000X0.170000X-0.140000X0.170000X0.140000X-0.170000X0.140000X-0.170000X-0.140000X0*%
%ADD24C,1.250000*%
%ADD25R,0.400000X3.000000*%
%ADD26RoundRect,0.140000X0.140000X0.170000X-0.140000X0.170000X-0.140000X-0.170000X0.140000X-0.170000X0*%
%ADD27RoundRect,0.135000X-0.185000X0.135000X-0.185000X-0.135000X0.185000X-0.135000X0.185000X0.135000X0*%
%ADD28RoundRect,0.135000X-0.135000X-0.185000X0.135000X-0.185000X0.135000X0.185000X-0.135000X0.185000X0*%
%ADD29RoundRect,0.218750X0.256250X-0.218750X0.256250X0.218750X-0.256250X0.218750X-0.256250X-0.218750X0*%
%ADD30R,0.750000X0.300000*%
%ADD31R,0.900000X1.300000*%
%ADD32R,1.100000X0.450000*%
%ADD33R,0.850000X0.200000*%
%ADD34R,0.200000X0.850000*%
%ADD35R,4.700000X4.700000*%
%ADD36RoundRect,0.135000X0.135000X0.185000X-0.135000X0.185000X-0.135000X-0.185000X0.135000X-0.185000X0*%
%ADD37R,0.640000X0.420000*%
%ADD38C,0.650000*%
%ADD39R,0.300000X1.150000*%
%ADD40R,2.180000X2.000000*%
%ADD41RoundRect,0.140000X-0.140000X-0.170000X0.140000X-0.170000X0.140000X0.170000X-0.140000X0.170000X0*%
%ADD42RoundRect,0.147500X-0.147500X-0.172500X0.147500X-0.172500X0.147500X0.172500X-0.147500X0.172500X0*%
%ADD43C,0.900000*%
%ADD44RoundRect,0.102000X-0.500000X-0.800000X0.500000X-0.800000X0.500000X0.800000X-0.500000X0.800000X0*%
%ADD45RoundRect,0.102000X0.500000X0.800000X-0.500000X0.800000X-0.500000X-0.800000X0.500000X-0.800000X0*%
%ADD46RoundRect,0.135000X0.185000X-0.135000X0.185000X0.135000X-0.185000X0.135000X-0.185000X-0.135000X0*%
%ADD47R,2.770000X0.650000*%
%ADD48R,0.300000X1.000000*%
%ADD49R,1.000000X0.300000*%
%ADD50R,3.350000X3.350000*%
%ADD51R,1.200000X0.550000*%
%ADD52R,1.000000X3.500000*%
%ADD53R,1.500000X3.400000*%
%ADD54R,0.800000X1.500000*%
%ADD55RoundRect,0.102000X-0.900000X0.750000X-0.900000X-0.750000X0.900000X-0.750000X0.900000X0.750000X0*%
%ADD56C,0.991000*%
%ADD57R,1.300000X0.800000*%
%ADD58R,0.800000X0.300000*%
%ADD59R,0.300000X0.800000*%
%ADD60R,2.800000X2.800000*%
%ADD61RoundRect,0.147500X0.147500X0.172500X-0.147500X0.172500X-0.147500X-0.172500X0.147500X-0.172500X0*%
%ADD62RoundRect,0.147500X-0.172500X0.147500X-0.172500X-0.147500X0.172500X-0.147500X0.172500X0.147500X0*%
%ADD63R,1.075000X0.500000*%
G04 APERTURE END LIST*
D10*
%TO.C,G\u002A\u002A\u002A*%
G36*
X120708671Y-53349121D02*
G01*
X120718427Y-53361372D01*
X120726341Y-53380067D01*
X120730419Y-53403790D01*
X120730798Y-53435338D01*
X120727610Y-53477500D01*
X120725154Y-53499781D01*
X120720257Y-53547356D01*
X120718452Y-53580625D01*
X120719727Y-53599956D01*
X120723093Y-53605677D01*
X120729825Y-53601064D01*
X120743125Y-53587898D01*
X120758098Y-53571324D01*
X120782554Y-53546161D01*
X120811513Y-53520606D01*
X120827780Y-53508086D01*
X120866729Y-53480347D01*
X120933818Y-53500462D01*
X120963989Y-53510504D01*
X120988733Y-53520593D01*
X121004414Y-53529159D01*
X121007705Y-53532352D01*
X121007522Y-53546567D01*
X120993417Y-53565121D01*
X120965727Y-53587694D01*
X120924788Y-53613967D01*
X120917963Y-53617957D01*
X120861721Y-53653533D01*
X120818608Y-53687482D01*
X120788901Y-53719416D01*
X120772884Y-53748946D01*
X120770843Y-53775681D01*
X120783053Y-53799237D01*
X120784973Y-53801302D01*
X120795109Y-53808221D01*
X120816792Y-53820624D01*
X120848055Y-53837470D01*
X120886936Y-53857717D01*
X120931468Y-53880326D01*
X120972379Y-53900659D01*
X121021746Y-53925409D01*
X121068506Y-53949691D01*
X121110363Y-53972250D01*
X121145019Y-53991823D01*
X121170181Y-54007155D01*
X121181551Y-54015210D01*
X121199492Y-54031425D01*
X121215664Y-54049912D01*
X121232602Y-54074044D01*
X121252839Y-54107192D01*
X121260342Y-54120109D01*
X121279880Y-54154742D01*
X121292941Y-54180345D01*
X121301003Y-54200610D01*
X121305549Y-54219229D01*
X121307981Y-54239053D01*
X121306419Y-54295975D01*
X121292658Y-54358905D01*
X121267159Y-54425795D01*
X121265665Y-54429033D01*
X121236581Y-54494232D01*
X121215243Y-54548752D01*
X121201218Y-54594496D01*
X121194083Y-54633364D01*
X121193407Y-54667259D01*
X121198755Y-54698083D01*
X121202334Y-54709541D01*
X121210390Y-54729604D01*
X121220596Y-54747826D01*
X121234451Y-54765468D01*
X121253462Y-54783799D01*
X121279128Y-54804077D01*
X121312950Y-54827568D01*
X121356429Y-54855535D01*
X121411069Y-54889241D01*
X121428402Y-54899778D01*
X121495619Y-54940478D01*
X121551720Y-54974210D01*
X121598383Y-55001838D01*
X121637291Y-55024228D01*
X121670122Y-55042247D01*
X121698557Y-55056759D01*
X121724275Y-55068629D01*
X121748955Y-55078721D01*
X121774277Y-55087907D01*
X121801923Y-55097045D01*
X121826025Y-55104651D01*
X121937782Y-55141540D01*
X122038161Y-55179183D01*
X122130756Y-55219248D01*
X122219164Y-55263395D01*
X122306981Y-55313290D01*
X122390707Y-55365939D01*
X122530192Y-55462538D01*
X122656437Y-55561388D01*
X122771186Y-55664054D01*
X122876185Y-55772095D01*
X122973180Y-55887068D01*
X122973438Y-55887397D01*
X123027992Y-55959298D01*
X123076610Y-56029216D01*
X123120369Y-56099337D01*
X123160338Y-56171841D01*
X123197595Y-56248904D01*
X123233216Y-56332708D01*
X123268274Y-56425434D01*
X123303842Y-56529262D01*
X123329815Y-56610331D01*
X123357746Y-56696803D01*
X123383567Y-56770679D01*
X123408106Y-56834078D01*
X123432187Y-56889117D01*
X123456637Y-56937914D01*
X123460485Y-56945005D01*
X123475439Y-56971810D01*
X123488073Y-56990992D01*
X123501336Y-57004196D01*
X123518173Y-57013060D01*
X123541532Y-57019228D01*
X123574357Y-57024344D01*
X123611177Y-57029003D01*
X123747312Y-57048183D01*
X123869874Y-57070397D01*
X123980058Y-57096041D01*
X124079061Y-57125505D01*
X124168080Y-57159186D01*
X124248308Y-57197477D01*
X124320945Y-57240772D01*
X124377143Y-57281436D01*
X124407719Y-57310364D01*
X124435666Y-57347516D01*
X124461817Y-57394456D01*
X124487002Y-57452739D01*
X124512049Y-57523928D01*
X124520309Y-57550135D01*
X124544471Y-57625921D01*
X124566096Y-57687851D01*
X124585535Y-57736797D01*
X124603137Y-57773624D01*
X124619246Y-57799203D01*
X124620637Y-57800984D01*
X124640558Y-57826004D01*
X124646503Y-57773085D01*
X124653946Y-57726262D01*
X124664638Y-57685656D01*
X124677594Y-57654353D01*
X124689592Y-57637428D01*
X124711093Y-57623676D01*
X124737920Y-57620714D01*
X124765504Y-57625786D01*
X124791719Y-57637847D01*
X124811089Y-57658779D01*
X124823893Y-57689614D01*
X124830411Y-57731382D01*
X124830920Y-57785108D01*
X124826045Y-57848650D01*
X124822916Y-57881356D01*
X124820978Y-57908393D01*
X124820433Y-57926362D01*
X124821022Y-57931776D01*
X124828809Y-57931243D01*
X124846061Y-57919870D01*
X124872285Y-57898044D01*
X124906999Y-57866162D01*
X124930387Y-57843649D01*
X124997502Y-57786022D01*
X125043078Y-57755504D01*
X125100362Y-57721419D01*
X125161896Y-57755189D01*
X125188879Y-57770237D01*
X125210344Y-57782660D01*
X125223257Y-57790680D01*
X125225604Y-57792544D01*
X125227891Y-57802947D01*
X125222860Y-57816612D01*
X125209448Y-57834909D01*
X125186590Y-57859216D01*
X125153227Y-57890916D01*
X125141455Y-57901670D01*
X125078133Y-57962240D01*
X125028407Y-58016695D01*
X124992215Y-58065130D01*
X124969495Y-58107641D01*
X124960185Y-58144316D01*
X124962865Y-58171298D01*
X124966617Y-58179857D01*
X124973543Y-58186746D01*
X124986084Y-58192973D01*
X125006683Y-58199542D01*
X125037784Y-58207457D01*
X125067705Y-58214477D01*
X125138393Y-58230963D01*
X125196501Y-58245207D01*
X125244100Y-58258206D01*
X125283257Y-58270957D01*
X125316043Y-58284461D01*
X125344526Y-58299713D01*
X125370777Y-58317712D01*
X125396862Y-58339455D01*
X125424852Y-58365942D01*
X125456817Y-58398170D01*
X125464117Y-58405645D01*
X125470981Y-58416098D01*
X125468779Y-58425416D01*
X125456252Y-58434299D01*
X125432149Y-58443447D01*
X125395211Y-58453564D01*
X125365895Y-58460495D01*
X125315451Y-58471756D01*
X125276087Y-58479377D01*
X125244284Y-58483180D01*
X125216525Y-58482984D01*
X125189289Y-58478612D01*
X125159058Y-58469882D01*
X125122317Y-58456614D01*
X125096572Y-58446744D01*
X125015323Y-58417557D01*
X124945961Y-58397278D01*
X124888513Y-58385912D01*
X124843005Y-58383457D01*
X124809470Y-58389913D01*
X124787929Y-58405280D01*
X124778415Y-58429555D01*
X124778696Y-58450146D01*
X124783421Y-58468222D01*
X124794138Y-58485001D01*
X124813044Y-58502834D01*
X124842340Y-58524069D01*
X124856984Y-58533731D01*
X124875972Y-58547750D01*
X124889887Y-58563536D01*
X124902873Y-58586282D01*
X124908664Y-58598332D01*
X124921077Y-58628460D01*
X124931295Y-58659567D01*
X124935791Y-58678301D01*
X124939629Y-58696903D01*
X124945020Y-58710714D01*
X124954683Y-58723908D01*
X124971339Y-58740659D01*
X124984270Y-58752719D01*
X125009755Y-58778323D01*
X125023269Y-58797872D01*
X125025461Y-58813428D01*
X125016975Y-58827055D01*
X125009557Y-58833324D01*
X124996109Y-58839206D01*
X124976458Y-58839540D01*
X124946962Y-58834321D01*
X124942465Y-58833294D01*
X124919361Y-58827562D01*
X124899276Y-58821195D01*
X124880829Y-58812960D01*
X124862646Y-58801620D01*
X124843349Y-58785939D01*
X124821563Y-58764681D01*
X124795911Y-58736613D01*
X124765014Y-58700496D01*
X124727498Y-58655094D01*
X124682850Y-58600240D01*
X124649818Y-58560837D01*
X124613198Y-58519296D01*
X124576829Y-58479845D01*
X124544553Y-58446719D01*
X124535831Y-58438254D01*
X124487689Y-58392112D01*
X124448902Y-58354080D01*
X124417753Y-58322156D01*
X124392516Y-58294337D01*
X124371473Y-58268619D01*
X124352900Y-58242996D01*
X124335076Y-58215467D01*
X124316282Y-58184025D01*
X124313851Y-58179843D01*
X124295374Y-58147309D01*
X124279959Y-58118115D01*
X124266227Y-58089055D01*
X124252796Y-58056919D01*
X124238285Y-58018500D01*
X124221313Y-57970591D01*
X124211479Y-57942099D01*
X124192121Y-57887357D01*
X124173367Y-57837408D01*
X124156239Y-57794820D01*
X124141755Y-57762153D01*
X124133514Y-57746176D01*
X124107090Y-57700409D01*
X123985218Y-57710612D01*
X123887020Y-57718236D01*
X123803515Y-57723431D01*
X123734732Y-57726195D01*
X123680706Y-57726529D01*
X123664807Y-57726052D01*
X123639241Y-57725566D01*
X123619742Y-57726316D01*
X123611479Y-57727824D01*
X123608552Y-57731298D01*
X123607485Y-57738678D01*
X123608580Y-57751909D01*
X123612137Y-57772936D01*
X123618452Y-57803702D01*
X123627824Y-57846154D01*
X123633667Y-57871985D01*
X123655617Y-57968643D01*
X123751824Y-58135280D01*
X123790928Y-58203956D01*
X123823656Y-58263751D01*
X123851892Y-58318306D01*
X123877514Y-58371269D01*
X123902404Y-58426282D01*
X123904664Y-58431437D01*
X123941883Y-58511191D01*
X123985668Y-58596042D01*
X124034029Y-58682631D01*
X124084967Y-58767601D01*
X124136489Y-58847594D01*
X124186600Y-58919251D01*
X124221657Y-58965006D01*
X124260252Y-59012645D01*
X124296992Y-59057129D01*
X124332796Y-59099359D01*
X124368581Y-59140248D01*
X124405263Y-59180700D01*
X124443760Y-59221622D01*
X124484990Y-59263918D01*
X124529866Y-59308497D01*
X124579310Y-59356265D01*
X124634240Y-59408125D01*
X124695571Y-59464988D01*
X124764219Y-59527757D01*
X124841104Y-59597340D01*
X124927142Y-59674644D01*
X125023249Y-59760573D01*
X125059944Y-59793308D01*
X125200175Y-59919088D01*
X125329413Y-60036624D01*
X125448550Y-60146831D01*
X125558487Y-60250620D01*
X125660114Y-60348899D01*
X125754327Y-60442585D01*
X125842020Y-60532585D01*
X125924089Y-60619813D01*
X126001427Y-60705180D01*
X126074928Y-60789596D01*
X126145488Y-60873972D01*
X126214003Y-60959222D01*
X126251170Y-61006853D01*
X126273003Y-61035417D01*
X126292618Y-61061940D01*
X126311216Y-61088309D01*
X126330002Y-61116412D01*
X126350169Y-61148136D01*
X126372921Y-61185369D01*
X126399455Y-61229999D01*
X126430975Y-61283914D01*
X126468677Y-61349000D01*
X126468686Y-61349016D01*
X126505449Y-61412772D01*
X126535548Y-61465359D01*
X126559902Y-61508555D01*
X126579434Y-61544130D01*
X126595065Y-61573869D01*
X126607715Y-61599539D01*
X126618306Y-61622920D01*
X126627760Y-61645786D01*
X126637000Y-61669912D01*
X126641413Y-61681882D01*
X126670941Y-61766568D01*
X126694158Y-61843366D01*
X126712192Y-61917250D01*
X126726165Y-61993196D01*
X126737203Y-62076181D01*
X126742812Y-62130639D01*
X126754338Y-62322154D01*
X126752172Y-62508258D01*
X126736250Y-62689819D01*
X126706503Y-62867705D01*
X126677071Y-62991811D01*
X126657084Y-63063615D01*
X126636740Y-63129182D01*
X126615103Y-63190254D01*
X126591225Y-63248580D01*
X126564170Y-63305903D01*
X126532995Y-63363971D01*
X126496761Y-63424528D01*
X126454526Y-63489323D01*
X126405347Y-63560099D01*
X126348287Y-63638601D01*
X126282401Y-63726575D01*
X126277641Y-63732860D01*
X126244028Y-63778388D01*
X126206210Y-63831529D01*
X126167799Y-63887088D01*
X126132409Y-63939873D01*
X126115530Y-63965859D01*
X126088125Y-64008477D01*
X126067060Y-64040416D01*
X126050676Y-64063693D01*
X126037321Y-64080328D01*
X126025342Y-64092337D01*
X126013083Y-64101740D01*
X125998890Y-64110554D01*
X125995122Y-64112742D01*
X125972436Y-64124627D01*
X125954476Y-64131829D01*
X125945711Y-64132862D01*
X125938721Y-64120686D01*
X125937817Y-64095286D01*
X125942960Y-64057129D01*
X125954103Y-64006683D01*
X125959373Y-63986348D01*
X125967392Y-63957402D01*
X125976138Y-63928139D01*
X125986127Y-63897212D01*
X125997872Y-63863280D01*
X126011885Y-63824995D01*
X126028683Y-63781017D01*
X126048777Y-63730000D01*
X126072683Y-63670602D01*
X126100910Y-63601477D01*
X126133977Y-63521284D01*
X126172393Y-63428674D01*
X126173756Y-63425401D01*
X126208999Y-63340490D01*
X126238962Y-63267897D01*
X126264201Y-63206115D01*
X126285276Y-63153639D01*
X126302744Y-63108970D01*
X126317165Y-63070599D01*
X126329094Y-63037027D01*
X126339093Y-63006746D01*
X126347717Y-62978251D01*
X126355526Y-62950044D01*
X126363078Y-62920614D01*
X126366946Y-62904918D01*
X126395987Y-62754423D01*
X126410391Y-62601527D01*
X126410259Y-62446663D01*
X126395686Y-62290271D01*
X126366767Y-62132790D01*
X126323601Y-61974650D01*
X126266284Y-61816290D01*
X126194918Y-61658148D01*
X126109590Y-61500660D01*
X126025068Y-61365994D01*
X125981474Y-61301999D01*
X125942207Y-61247515D01*
X125904352Y-61198920D01*
X125864981Y-61152595D01*
X125821169Y-61104912D01*
X125779971Y-61062351D01*
X125726868Y-61009370D01*
X125673461Y-60958137D01*
X125618641Y-60907780D01*
X125561296Y-60857427D01*
X125500321Y-60806200D01*
X125434606Y-60753228D01*
X125363042Y-60697634D01*
X125284523Y-60638550D01*
X125197939Y-60575099D01*
X125102180Y-60506403D01*
X124996140Y-60431596D01*
X124878712Y-60349798D01*
X124857680Y-60335235D01*
X124779219Y-60280866D01*
X124711510Y-60233736D01*
X124652910Y-60192638D01*
X124601775Y-60156362D01*
X124556457Y-60123701D01*
X124515313Y-60093444D01*
X124476696Y-60064384D01*
X124438965Y-60035313D01*
X124400470Y-60005020D01*
X124359569Y-59972301D01*
X124319055Y-59939547D01*
X124166742Y-59813762D01*
X124026424Y-59693060D01*
X123896624Y-59575929D01*
X123775866Y-59460859D01*
X123662671Y-59346333D01*
X123555560Y-59230845D01*
X123453057Y-59112876D01*
X123353683Y-58990916D01*
X123255959Y-58863453D01*
X123220520Y-58815409D01*
X123169747Y-58742302D01*
X123115408Y-58657462D01*
X123058869Y-58563321D01*
X123001510Y-58462310D01*
X122944707Y-58356859D01*
X122889832Y-58249404D01*
X122838262Y-58142372D01*
X122830903Y-58126518D01*
X122805192Y-58071036D01*
X122779575Y-58016114D01*
X122755270Y-57964335D01*
X122733494Y-57918285D01*
X122715461Y-57880542D01*
X122702390Y-57853691D01*
X122701761Y-57852423D01*
X122665779Y-57780071D01*
X122605101Y-57765308D01*
X122575642Y-57757214D01*
X122536640Y-57745182D01*
X122492555Y-57730652D01*
X122447852Y-57715067D01*
X122434333Y-57710161D01*
X122392526Y-57695150D01*
X122352063Y-57681201D01*
X122316672Y-57669560D01*
X122290080Y-57661472D01*
X122282669Y-57659492D01*
X122258769Y-57654267D01*
X122245527Y-57653897D01*
X122239275Y-57658740D01*
X122237445Y-57663947D01*
X122236418Y-57676390D01*
X122236031Y-57700780D01*
X122236278Y-57734075D01*
X122237153Y-57773231D01*
X122237760Y-57792288D01*
X122239381Y-57842932D01*
X122240054Y-57882385D01*
X122239512Y-57914438D01*
X122237483Y-57942885D01*
X122233698Y-57971522D01*
X122227894Y-58004141D01*
X122219962Y-58043731D01*
X122203424Y-58124491D01*
X122243445Y-58155631D01*
X122271110Y-58175565D01*
X122304694Y-58197530D01*
X122335910Y-58216185D01*
X122359873Y-58230350D01*
X122377913Y-58243866D01*
X122391547Y-58259412D01*
X122402289Y-58279670D01*
X122411655Y-58307318D01*
X122421161Y-58345039D01*
X122429213Y-58381168D01*
X122439849Y-58433289D01*
X122445851Y-58472575D01*
X122446934Y-58500550D01*
X122442815Y-58518732D01*
X122433213Y-58528650D01*
X122417837Y-58531825D01*
X122401409Y-58530563D01*
X122372690Y-58520010D01*
X122339177Y-58496408D01*
X122301732Y-58460605D01*
X122261215Y-58413452D01*
X122218489Y-58355792D01*
X122207205Y-58339303D01*
X122169978Y-58288463D01*
X122135326Y-58251161D01*
X122101725Y-58226499D01*
X122067650Y-58213585D01*
X122031577Y-58211521D01*
X121999449Y-58217297D01*
X121959402Y-58235130D01*
X121925030Y-58264144D01*
X121911875Y-58281236D01*
X121905121Y-58294962D01*
X121894973Y-58319800D01*
X121882649Y-58352578D01*
X121869371Y-58390131D01*
X121865171Y-58402493D01*
X121851222Y-58441965D01*
X121837057Y-58478632D01*
X121824118Y-58508977D01*
X121813850Y-58529472D01*
X121811748Y-58532823D01*
X121777071Y-58575219D01*
X121733937Y-58615331D01*
X121688507Y-58647475D01*
X121686365Y-58648724D01*
X121662460Y-58661577D01*
X121646956Y-58666880D01*
X121635964Y-58665689D01*
X121631749Y-58663501D01*
X121618015Y-58647173D01*
X121615121Y-58621635D01*
X121623036Y-58586345D01*
X121627145Y-58574755D01*
X121635763Y-58543317D01*
X121641166Y-58506922D01*
X121642159Y-58484865D01*
X121642556Y-58450255D01*
X121645681Y-58422548D01*
X121652946Y-58397393D01*
X121665764Y-58370445D01*
X121685548Y-58337356D01*
X121694829Y-58322826D01*
X121722014Y-58276453D01*
X121744245Y-58230183D01*
X121760401Y-58186981D01*
X121769351Y-58149821D01*
X121770275Y-58123640D01*
X121766479Y-58105851D01*
X121758596Y-58097279D01*
X121747569Y-58093470D01*
X121732071Y-58093129D01*
X121706450Y-58096410D01*
X121674974Y-58102668D01*
X121656714Y-58107147D01*
X121622321Y-58115595D01*
X121590038Y-58122502D01*
X121564820Y-58126852D01*
X121556566Y-58127740D01*
X121532567Y-58125038D01*
X121500807Y-58115585D01*
X121464437Y-58101003D01*
X121426607Y-58082914D01*
X121390466Y-58062937D01*
X121359166Y-58042696D01*
X121335860Y-58023809D01*
X121323714Y-58007942D01*
X121321575Y-57996346D01*
X121327341Y-57985375D01*
X121343309Y-57971019D01*
X121346033Y-57968865D01*
X121368522Y-57949109D01*
X121389465Y-57927390D01*
X121394536Y-57921295D01*
X121419075Y-57896247D01*
X121447335Y-57880407D01*
X121481637Y-57873307D01*
X121524302Y-57874482D01*
X121577643Y-57883465D01*
X121580106Y-57883996D01*
X121627834Y-57893106D01*
X121666747Y-57897953D01*
X121695238Y-57898444D01*
X121711693Y-57894488D01*
X121714541Y-57891645D01*
X121715056Y-57884351D01*
X121709218Y-57873840D01*
X121695813Y-57858854D01*
X121673630Y-57838134D01*
X121641456Y-57810417D01*
X121615505Y-57788792D01*
X121573519Y-57753032D01*
X121542455Y-57723791D01*
X121520783Y-57699215D01*
X121506969Y-57677462D01*
X121499480Y-57656688D01*
X121497720Y-57646803D01*
X121498287Y-57617861D01*
X121509065Y-57598499D01*
X121530625Y-57588416D01*
X121563541Y-57587315D01*
X121600579Y-57593155D01*
X121633312Y-57604483D01*
X121661833Y-57624612D01*
X121688563Y-57655679D01*
X121710250Y-57689776D01*
X121723666Y-57710589D01*
X121735525Y-57724836D01*
X121741947Y-57729018D01*
X121752067Y-57724439D01*
X121757991Y-57709454D01*
X121759707Y-57683290D01*
X121757197Y-57645179D01*
X121750446Y-57594347D01*
X121739436Y-57530022D01*
X121737420Y-57519180D01*
X121724385Y-57445039D01*
X121715690Y-57383258D01*
X121711368Y-57331828D01*
X121711445Y-57288738D01*
X121715954Y-57251980D01*
X121724926Y-57219542D01*
X121738387Y-57189416D01*
X121742462Y-57182000D01*
X121769390Y-57145336D01*
X121803309Y-57119592D01*
X121846710Y-57103195D01*
X121875451Y-57097601D01*
X121916533Y-57092627D01*
X121968548Y-57087939D01*
X122027431Y-57083752D01*
X122089112Y-57080291D01*
X122149524Y-57077781D01*
X122204599Y-57076444D01*
X122250268Y-57076503D01*
X122257221Y-57076679D01*
X122290121Y-57077323D01*
X122317413Y-57077195D01*
X122335623Y-57076348D01*
X122341118Y-57075352D01*
X122344685Y-57065312D01*
X122339929Y-57046278D01*
X122328234Y-57020698D01*
X122310985Y-56991013D01*
X122289564Y-56959675D01*
X122265353Y-56929128D01*
X122247059Y-56909083D01*
X122221759Y-56885318D01*
X122189267Y-56857746D01*
X122154918Y-56830812D01*
X122139034Y-56819195D01*
X122080865Y-56774361D01*
X122021678Y-56721464D01*
X121960282Y-56659272D01*
X121895485Y-56586543D01*
X121826100Y-56502045D01*
X121791157Y-56457382D01*
X121738858Y-56391595D01*
X121687712Y-56331763D01*
X121635910Y-56276295D01*
X121581636Y-56223600D01*
X121523082Y-56172080D01*
X121458435Y-56120144D01*
X121385882Y-56066196D01*
X121303611Y-56008648D01*
X121209810Y-55945905D01*
X121208390Y-55944970D01*
X121148349Y-55905751D01*
X121099515Y-55874505D01*
X121060782Y-55850635D01*
X121031030Y-55833556D01*
X121009149Y-55822676D01*
X120994028Y-55817408D01*
X120984550Y-55817161D01*
X120979606Y-55821347D01*
X120978826Y-55823430D01*
X120979517Y-55834478D01*
X120983592Y-55857276D01*
X120990475Y-55889107D01*
X120999592Y-55927254D01*
X121006577Y-55954660D01*
X121020803Y-56010371D01*
X121031031Y-56053945D01*
X121037551Y-56087617D01*
X121040662Y-56113633D01*
X121040648Y-56134224D01*
X121037811Y-56151633D01*
X121033992Y-56163980D01*
X121025199Y-56181417D01*
X121011730Y-56194366D01*
X120991216Y-56203784D01*
X120961285Y-56210635D01*
X120919559Y-56215873D01*
X120901596Y-56217515D01*
X120866375Y-56221046D01*
X120840641Y-56225576D01*
X120818898Y-56232729D01*
X120795643Y-56244136D01*
X120777904Y-56254144D01*
X120744282Y-56275110D01*
X120721689Y-56294501D01*
X120707286Y-56316494D01*
X120698247Y-56345254D01*
X120692407Y-56379955D01*
X120683868Y-56421186D01*
X120670914Y-56457896D01*
X120654998Y-56487126D01*
X120637581Y-56505914D01*
X120628152Y-56510651D01*
X120609168Y-56510464D01*
X120592776Y-56504184D01*
X120576754Y-56497507D01*
X120565865Y-56497833D01*
X120557468Y-56499796D01*
X120553013Y-56493065D01*
X120552611Y-56476613D01*
X120556374Y-56449407D01*
X120564412Y-56410421D01*
X120576836Y-56358626D01*
X120583778Y-56331283D01*
X120596796Y-56280033D01*
X120606165Y-56241139D01*
X120612205Y-56212488D01*
X120615227Y-56191966D01*
X120615549Y-56177461D01*
X120613486Y-56166861D01*
X120609613Y-56158491D01*
X120596067Y-56141167D01*
X120579075Y-56132924D01*
X120556158Y-56133620D01*
X120524837Y-56143120D01*
X120502131Y-56152482D01*
X120472008Y-56164666D01*
X120443729Y-56174420D01*
X120422700Y-56179912D01*
X120420256Y-56180287D01*
X120399249Y-56181498D01*
X120369220Y-56181444D01*
X120334243Y-56180342D01*
X120298389Y-56178406D01*
X120265729Y-56175853D01*
X120240337Y-56172897D01*
X120227067Y-56170070D01*
X120218192Y-56165397D01*
X120215645Y-56158850D01*
X120220508Y-56148659D01*
X120233875Y-56133061D01*
X120256830Y-56110282D01*
X120273700Y-56094275D01*
X120313872Y-56057513D01*
X120346835Y-56030645D01*
X120375472Y-56012453D01*
X120402648Y-56001716D01*
X120431242Y-55997221D01*
X120464131Y-55997747D01*
X120494281Y-56000818D01*
X120535014Y-56003718D01*
X120564027Y-56000447D01*
X120583509Y-55990467D01*
X120594178Y-55976367D01*
X120597313Y-55968978D01*
X120598240Y-55961074D01*
X120596144Y-55950498D01*
X120590208Y-55935087D01*
X120579612Y-55912677D01*
X120563541Y-55881109D01*
X120543848Y-55843328D01*
X120521520Y-55800253D01*
X120505186Y-55767348D01*
X120493655Y-55741619D01*
X120485737Y-55720063D01*
X120480241Y-55699681D01*
X120475984Y-55677471D01*
X120474534Y-55668508D01*
X120469378Y-55638940D01*
X120464194Y-55614506D01*
X120459924Y-55599516D01*
X120459097Y-55597730D01*
X120444462Y-55586139D01*
X120416667Y-55577470D01*
X120377266Y-55571731D01*
X120327814Y-55568926D01*
X120269869Y-55569058D01*
X120204983Y-55572129D01*
X120134714Y-55578150D01*
X120060616Y-55587119D01*
X119999290Y-55596476D01*
X119907661Y-55611583D01*
X119830425Y-55623913D01*
X119767655Y-55633457D01*
X119719426Y-55640201D01*
X119685816Y-55644135D01*
X119673335Y-55645112D01*
X119629443Y-55641230D01*
X119577400Y-55625398D01*
X119517010Y-55597538D01*
X119448082Y-55557570D01*
X119442608Y-55554112D01*
X119394858Y-55524698D01*
X119356690Y-55503611D01*
X119325812Y-55489999D01*
X119299940Y-55483011D01*
X119276784Y-55481798D01*
X119256422Y-55484928D01*
X119230907Y-55487267D01*
X119200064Y-55485103D01*
X119182894Y-55481849D01*
X119143556Y-55466811D01*
X119111284Y-55441873D01*
X119083163Y-55404674D01*
X119079017Y-55397712D01*
X119070738Y-55385596D01*
X119058959Y-55372974D01*
X119041822Y-55358391D01*
X119017469Y-55340386D01*
X118984044Y-55317503D01*
X118939690Y-55288281D01*
X118939129Y-55287914D01*
X118863296Y-55235973D01*
X118801207Y-55187646D01*
X118752271Y-55142113D01*
X118715898Y-55098557D01*
X118691499Y-55056158D01*
X118678483Y-55014098D01*
X118676262Y-54971558D01*
X118683024Y-54932113D01*
X118697910Y-54895964D01*
X118723562Y-54859845D01*
X118760705Y-54823160D01*
X118810061Y-54785313D01*
X118872357Y-54745712D01*
X118948315Y-54703757D01*
X118981243Y-54686907D01*
X119019917Y-54667252D01*
X119047594Y-54652407D01*
X119066815Y-54640714D01*
X119080121Y-54630517D01*
X119090054Y-54620163D01*
X119096450Y-54611806D01*
X119122869Y-54584550D01*
X119156811Y-54562658D01*
X119192670Y-54549330D01*
X119210569Y-54546825D01*
X119233732Y-54547959D01*
X119263808Y-54552093D01*
X119286875Y-54556696D01*
X119306766Y-54561066D01*
X119322752Y-54563085D01*
X119338296Y-54562148D01*
X119356858Y-54557655D01*
X119381899Y-54549006D01*
X119416883Y-54535593D01*
X119423843Y-54532884D01*
X119484727Y-54509796D01*
X119534951Y-54492721D01*
X119577507Y-54481433D01*
X119615388Y-54475714D01*
X119651580Y-54475344D01*
X119689075Y-54480100D01*
X119730860Y-54489761D01*
X119779930Y-54504106D01*
X119786288Y-54506081D01*
X119829221Y-54518947D01*
X119863214Y-54527412D01*
X119893420Y-54532238D01*
X119924982Y-54534186D01*
X119963056Y-54534017D01*
X119973413Y-54533755D01*
X120022178Y-54533708D01*
X120066837Y-54536931D01*
X120110095Y-54544185D01*
X120154648Y-54556227D01*
X120203199Y-54573818D01*
X120258446Y-54597719D01*
X120323089Y-54628687D01*
X120338962Y-54636586D01*
X120384784Y-54659075D01*
X120429579Y-54680285D01*
X120470366Y-54698860D01*
X120504155Y-54713440D01*
X120527952Y-54722669D01*
X120529994Y-54723353D01*
X120580350Y-54739755D01*
X120621654Y-54715908D01*
X120667756Y-54685467D01*
X120703025Y-54654047D01*
X120725815Y-54623213D01*
X120730843Y-54612035D01*
X120736033Y-54593446D01*
X120742429Y-54564227D01*
X120749168Y-54528601D01*
X120754604Y-54495894D01*
X120762498Y-54452065D01*
X120772734Y-54405161D01*
X120783752Y-54361984D01*
X120790520Y-54339361D01*
X120812740Y-54271190D01*
X120711286Y-54127770D01*
X120681872Y-54086626D01*
X120654654Y-54049380D01*
X120631026Y-54017867D01*
X120612383Y-53993936D01*
X120600114Y-53979425D01*
X120596506Y-53976072D01*
X120584504Y-53972356D01*
X120566677Y-53973619D01*
X120541096Y-53980355D01*
X120505828Y-53993060D01*
X120464784Y-54009766D01*
X120422048Y-54027273D01*
X120391751Y-54037887D01*
X120372710Y-54040995D01*
X120363736Y-54035982D01*
X120363645Y-54022233D01*
X120371251Y-53999135D01*
X120384449Y-53968140D01*
X120395972Y-53940783D01*
X120404164Y-53918723D01*
X120407780Y-53905426D01*
X120407669Y-53903339D01*
X120399311Y-53901970D01*
X120380783Y-53903883D01*
X120361151Y-53907601D01*
X120316573Y-53912397D01*
X120279422Y-53906234D01*
X120251033Y-53890130D01*
X120232742Y-53865098D01*
X120225886Y-53832152D01*
X120228254Y-53806658D01*
X120231183Y-53797431D01*
X120237922Y-53791854D01*
X120252193Y-53788305D01*
X120277513Y-53785183D01*
X120311224Y-53782696D01*
X120346768Y-53781791D01*
X120364416Y-53782149D01*
X120388382Y-53782556D01*
X120406166Y-53781552D01*
X120411978Y-53780206D01*
X120416329Y-53771046D01*
X120419803Y-53752163D01*
X120420856Y-53740507D01*
X120430189Y-53692921D01*
X120452328Y-53652568D01*
X120487945Y-53618282D01*
X120493547Y-53614246D01*
X120515337Y-53598040D01*
X120532475Y-53583503D01*
X120540127Y-53575237D01*
X120544502Y-53562492D01*
X120549271Y-53539301D01*
X120553549Y-53510162D01*
X120554362Y-53503157D01*
X120563577Y-53454068D01*
X120580402Y-53415079D01*
X120606932Y-53382336D01*
X120630974Y-53362128D01*
X120661733Y-53344348D01*
X120687890Y-53340010D01*
X120708671Y-53349121D01*
G37*
%TD*%
D11*
%TO.C,D200*%
X68100000Y-64000000D03*
X71100000Y-64000000D03*
%TD*%
D12*
%TO.C,R101*%
X67705000Y-88795000D03*
X69355000Y-88795000D03*
%TD*%
D13*
%TO.C,C26*%
X109340000Y-76000000D03*
X109340000Y-76960000D03*
%TD*%
D14*
%TO.C,Y2*%
X112325000Y-70875000D03*
X110975000Y-70875000D03*
X110975000Y-71925000D03*
X112325000Y-71925000D03*
%TD*%
D15*
%TO.C,Q100*%
X67562500Y-84745000D03*
X67562500Y-86645000D03*
X69437500Y-85695000D03*
%TD*%
D16*
%TO.C,D202*%
X58872500Y-64600000D03*
X60447500Y-64600000D03*
%TD*%
D17*
%TO.C,U102*%
X96025000Y-67638330D03*
X96525000Y-67638330D03*
X97025000Y-67638330D03*
X97525000Y-67638330D03*
D18*
X97590000Y-67073330D03*
X97590000Y-66573330D03*
D17*
X97525000Y-66008330D03*
X97025000Y-66008330D03*
X96525000Y-66008330D03*
X96025000Y-66008330D03*
D18*
X95960000Y-66573330D03*
X95960000Y-67073330D03*
%TD*%
D19*
%TO.C,J202*%
X125860000Y-112540000D03*
D20*
X125860000Y-110000000D03*
X125860000Y-107460000D03*
X125860000Y-104920000D03*
X125860000Y-102380000D03*
%TD*%
D21*
%TO.C,JP104*%
X118240000Y-115075000D03*
D22*
X115700000Y-115075000D03*
%TD*%
D21*
%TO.C,JP201*%
X118240000Y-125235000D03*
D22*
X115700000Y-125235000D03*
%TD*%
D23*
%TO.C,C12*%
X100500000Y-73780000D03*
X100500000Y-72820000D03*
%TD*%
D13*
%TO.C,C201*%
X87300000Y-70120000D03*
X87300000Y-71080000D03*
%TD*%
D24*
%TO.C,U101*%
X87810000Y-120250000D03*
X97815424Y-120251527D03*
D25*
X96360000Y-117500000D03*
X95660000Y-117500000D03*
X94960000Y-117500000D03*
X94260000Y-117500000D03*
X93560000Y-117500000D03*
X92860000Y-117500000D03*
X92160000Y-117500000D03*
X91460000Y-117500000D03*
X90760000Y-117500000D03*
X90060000Y-117500000D03*
X89360000Y-117500000D03*
X88660000Y-117500000D03*
%TD*%
D26*
%TO.C,C205*%
X92580000Y-73200000D03*
X91620000Y-73200000D03*
%TD*%
%TO.C,C103*%
X97230000Y-64900000D03*
X96270000Y-64900000D03*
%TD*%
D27*
%TO.C,R203*%
X65100000Y-56490000D03*
X65100000Y-57510000D03*
%TD*%
D13*
%TO.C,C30*%
X124190000Y-76000000D03*
X124190000Y-76960000D03*
%TD*%
D28*
%TO.C,R201*%
X108690000Y-67600000D03*
X109710000Y-67600000D03*
%TD*%
D29*
%TO.C,L1*%
X102100000Y-70287500D03*
X102100000Y-68712500D03*
%TD*%
D30*
%TO.C,IC200*%
X101700000Y-61250000D03*
X101700000Y-60750000D03*
X101700000Y-60250000D03*
X101700000Y-59750000D03*
X99700000Y-59750000D03*
X99700000Y-60250000D03*
X99700000Y-60750000D03*
X99700000Y-61250000D03*
D31*
X100700000Y-60500000D03*
%TD*%
D32*
%TO.C,U100*%
X89800000Y-82695000D03*
X89800000Y-83965000D03*
X89800000Y-85235000D03*
X89800000Y-86505000D03*
X95400000Y-86505000D03*
X95400000Y-85235000D03*
X95400000Y-83965000D03*
X95400000Y-82695000D03*
%TD*%
D26*
%TO.C,C8*%
X98880000Y-74400000D03*
X97920000Y-74400000D03*
%TD*%
D33*
%TO.C,U1*%
X102050000Y-74000000D03*
X102050000Y-74400000D03*
X102050000Y-74800000D03*
X102050000Y-75200000D03*
X102050000Y-75600000D03*
X102050000Y-76000000D03*
X102050000Y-76400000D03*
X102050000Y-76800000D03*
X102050000Y-77200000D03*
X102050000Y-77600000D03*
X102050000Y-78000000D03*
X102050000Y-78400000D03*
D34*
X102800000Y-79150000D03*
X103200000Y-79150000D03*
X103600000Y-79150000D03*
X104000000Y-79150000D03*
X104400000Y-79150000D03*
X104800000Y-79150000D03*
X105200000Y-79150000D03*
X105600000Y-79150000D03*
X106000000Y-79150000D03*
X106400000Y-79150000D03*
X106800000Y-79150000D03*
X107200000Y-79150000D03*
D33*
X107950000Y-78400000D03*
X107950000Y-78000000D03*
X107950000Y-77600000D03*
X107950000Y-77200000D03*
X107950000Y-76800000D03*
X107950000Y-76400000D03*
X107950000Y-76000000D03*
X107950000Y-75600000D03*
X107950000Y-75200000D03*
X107950000Y-74800000D03*
X107950000Y-74400000D03*
X107950000Y-74000000D03*
D34*
X107200000Y-73250000D03*
X106800000Y-73250000D03*
X106400000Y-73250000D03*
X106000000Y-73250000D03*
X105600000Y-73250000D03*
X105200000Y-73250000D03*
X104800000Y-73250000D03*
X104400000Y-73250000D03*
X104000000Y-73250000D03*
X103600000Y-73250000D03*
X103200000Y-73250000D03*
X102800000Y-73250000D03*
D35*
X105000000Y-76200000D03*
%TD*%
D28*
%TO.C,R14*%
X78590000Y-73900000D03*
X79610000Y-73900000D03*
%TD*%
D36*
%TO.C,R204*%
X109710000Y-68800000D03*
X108690000Y-68800000D03*
%TD*%
D37*
%TO.C,D100*%
X69270000Y-90795000D03*
X67770000Y-90795000D03*
%TD*%
D36*
%TO.C,R102*%
X69020000Y-81695000D03*
X68000000Y-81695000D03*
%TD*%
D38*
%TO.C,J200*%
X76640000Y-58853000D03*
X70860000Y-58853000D03*
D39*
X77100000Y-59928000D03*
X76300000Y-59928000D03*
X75000000Y-59928000D03*
X74000000Y-59928000D03*
X73500000Y-59928000D03*
X72500000Y-59928000D03*
X71200000Y-59928000D03*
X70400000Y-59928000D03*
X70700000Y-59928000D03*
X71500000Y-59928000D03*
X72000000Y-59928000D03*
X73000000Y-59928000D03*
X74500000Y-59928000D03*
X75500000Y-59928000D03*
X76000000Y-59928000D03*
X76800000Y-59928000D03*
D40*
X78860000Y-55423000D03*
X68640000Y-55423000D03*
X78860000Y-59353000D03*
X68640000Y-59353000D03*
%TD*%
D21*
%TO.C,JP202*%
X99730000Y-55400000D03*
D22*
X102270000Y-55400000D03*
%TD*%
D41*
%TO.C,C102*%
X97295000Y-68650000D03*
X98255000Y-68650000D03*
%TD*%
D42*
%TO.C,L6*%
X122065000Y-76000000D03*
X123035000Y-76000000D03*
%TD*%
D26*
%TO.C,C6*%
X82080000Y-71300000D03*
X81120000Y-71300000D03*
%TD*%
D43*
%TO.C,SW200*%
X107850000Y-56750000D03*
X114650000Y-56750000D03*
D44*
X108750000Y-55550000D03*
D45*
X108750000Y-57950000D03*
D44*
X111250000Y-55550000D03*
D45*
X111250000Y-57950000D03*
D44*
X113750000Y-55550000D03*
D45*
X113750000Y-57950000D03*
%TD*%
D46*
%TO.C,R10*%
X93900000Y-74510000D03*
X93900000Y-73490000D03*
%TD*%
D13*
%TO.C,C5*%
X100500000Y-78740000D03*
X100500000Y-79700000D03*
%TD*%
%TO.C,C27*%
X112340000Y-76000000D03*
X112340000Y-76960000D03*
%TD*%
D36*
%TO.C,R103*%
X69020000Y-82995000D03*
X68000000Y-82995000D03*
%TD*%
%TO.C,R207*%
X89410000Y-65200000D03*
X88390000Y-65200000D03*
%TD*%
D46*
%TO.C,R100*%
X88030000Y-83225000D03*
X88030000Y-82205000D03*
%TD*%
D36*
%TO.C,R206*%
X85810000Y-66800000D03*
X84790000Y-66800000D03*
%TD*%
D28*
%TO.C,R104*%
X102340000Y-125925000D03*
X103360000Y-125925000D03*
%TD*%
D36*
%TO.C,R200*%
X60180000Y-66940000D03*
X59160000Y-66940000D03*
%TD*%
D26*
%TO.C,C11*%
X102480000Y-67300000D03*
X101520000Y-67300000D03*
%TD*%
D41*
%TO.C,C9*%
X97920000Y-70450000D03*
X98880000Y-70450000D03*
%TD*%
%TO.C,C2*%
X107645000Y-71700000D03*
X108605000Y-71700000D03*
%TD*%
D13*
%TO.C,C206*%
X90300000Y-72120000D03*
X90300000Y-73080000D03*
%TD*%
D28*
%TO.C,R11*%
X78590000Y-76500000D03*
X79610000Y-76500000D03*
%TD*%
D42*
%TO.C,L4*%
X110355000Y-76000000D03*
X111325000Y-76000000D03*
%TD*%
D13*
%TO.C,C100*%
X97130000Y-82235000D03*
X97130000Y-83195000D03*
%TD*%
D21*
%TO.C,JP1*%
X118240000Y-89675000D03*
D22*
X115700000Y-89675000D03*
%TD*%
D26*
%TO.C,C204*%
X85780000Y-67900000D03*
X84820000Y-67900000D03*
%TD*%
D36*
%TO.C,R15*%
X79610000Y-75200000D03*
X78590000Y-75200000D03*
%TD*%
D47*
%TO.C,J4*%
X66350000Y-118380000D03*
X62310000Y-118380000D03*
X66350000Y-117110000D03*
X62310000Y-117110000D03*
X66350000Y-115840000D03*
X62310000Y-115840000D03*
X66350000Y-114570000D03*
X62310000Y-114570000D03*
X66350000Y-113300000D03*
X62310000Y-113300000D03*
%TD*%
D48*
%TO.C,IC1*%
X85250000Y-74130000D03*
X84750000Y-74130000D03*
X84250000Y-74130000D03*
X83750000Y-74130000D03*
X83250000Y-74130000D03*
X82750000Y-74130000D03*
X82250000Y-74130000D03*
D49*
X81400000Y-74980000D03*
X81400000Y-75480000D03*
X81400000Y-75980000D03*
X81400000Y-76480000D03*
X81400000Y-76980000D03*
X81400000Y-77480000D03*
X81400000Y-77980000D03*
D48*
X82250000Y-78830000D03*
X82750000Y-78830000D03*
X83250000Y-78830000D03*
X83750000Y-78830000D03*
X84250000Y-78830000D03*
X84750000Y-78830000D03*
X85250000Y-78830000D03*
D49*
X86100000Y-77980000D03*
X86100000Y-77480000D03*
X86100000Y-76980000D03*
X86100000Y-76480000D03*
X86100000Y-75980000D03*
X86100000Y-75480000D03*
X86100000Y-74980000D03*
D50*
X83750000Y-76480000D03*
%TD*%
D23*
%TO.C,C10*%
X103600000Y-68280000D03*
X103600000Y-67320000D03*
%TD*%
%TO.C,C25*%
X113800000Y-71780000D03*
X113800000Y-70820000D03*
%TD*%
D51*
%TO.C,U103*%
X114350000Y-86125000D03*
X114350000Y-85175000D03*
X114350000Y-84225000D03*
X111850000Y-84225000D03*
X111850000Y-85175000D03*
X111850000Y-86125000D03*
%TD*%
D42*
%TO.C,L5*%
X113355000Y-76000000D03*
X114325000Y-76000000D03*
%TD*%
D28*
%TO.C,R205*%
X99490000Y-58450000D03*
X100510000Y-58450000D03*
%TD*%
D26*
%TO.C,C203*%
X85780000Y-69000000D03*
X84820000Y-69000000D03*
%TD*%
D13*
%TO.C,C200*%
X86100000Y-70120000D03*
X86100000Y-71080000D03*
%TD*%
D52*
%TO.C,J201*%
X93550000Y-60750000D03*
X91550000Y-60750000D03*
D53*
X95900000Y-55200000D03*
X89200000Y-55200000D03*
%TD*%
D21*
%TO.C,JP10*%
X118240000Y-109995000D03*
D22*
X115700000Y-109995000D03*
%TD*%
D54*
%TO.C,M100*%
X61120000Y-90445000D03*
X62420000Y-90445000D03*
%TD*%
D21*
%TO.C,JP102*%
X118240000Y-120155000D03*
D22*
X115700000Y-120155000D03*
%TD*%
D55*
%TO.C,E200*%
X131790000Y-76000000D03*
X131790000Y-85000000D03*
%TD*%
D21*
%TO.C,JP203*%
X118240000Y-99835000D03*
D22*
X115700000Y-99835000D03*
%TD*%
D41*
%TO.C,C13*%
X110320000Y-74100000D03*
X111280000Y-74100000D03*
%TD*%
D56*
%TO.C,J3*%
X68440000Y-101225000D03*
X60820000Y-100210000D03*
X68440000Y-99195000D03*
X62090000Y-100845000D03*
X63360000Y-100845000D03*
X64630000Y-100845000D03*
X65900000Y-100845000D03*
X67170000Y-100845000D03*
X67170000Y-99575000D03*
X65900000Y-99575000D03*
X64630000Y-99575000D03*
X63360000Y-99575000D03*
X62090000Y-99575000D03*
%TD*%
D57*
%TO.C,Y1*%
X98400000Y-71700000D03*
X98400000Y-73100000D03*
%TD*%
D21*
%TO.C,JP100*%
X64250000Y-77595000D03*
D22*
X66790000Y-77595000D03*
%TD*%
D46*
%TO.C,R9*%
X96100000Y-73010000D03*
X96100000Y-71990000D03*
%TD*%
D21*
%TO.C,JP200*%
X64470000Y-66940000D03*
D22*
X64470000Y-64400000D03*
%TD*%
D23*
%TO.C,C202*%
X102900000Y-59880000D03*
X102900000Y-58920000D03*
%TD*%
D13*
%TO.C,C29*%
X120920000Y-76000000D03*
X120920000Y-76960000D03*
%TD*%
D26*
%TO.C,C7*%
X82080000Y-72400000D03*
X81120000Y-72400000D03*
%TD*%
D27*
%TO.C,R202*%
X82300000Y-56390000D03*
X82300000Y-57410000D03*
%TD*%
D13*
%TO.C,C4*%
X104175000Y-81320000D03*
X104175000Y-82280000D03*
%TD*%
D58*
%TO.C,U200*%
X92600000Y-69850000D03*
X92600000Y-69350000D03*
X92600000Y-68850000D03*
X92600000Y-68350000D03*
X92600000Y-67850000D03*
X92600000Y-67350000D03*
D59*
X91850000Y-66600000D03*
X91350000Y-66600000D03*
X90850000Y-66600000D03*
X90350000Y-66600000D03*
X89850000Y-66600000D03*
X89350000Y-66600000D03*
D58*
X88600000Y-67350000D03*
X88600000Y-67850000D03*
X88600000Y-68350000D03*
X88600000Y-68850000D03*
X88600000Y-69350000D03*
X88600000Y-69850000D03*
D59*
X89350000Y-70600000D03*
X89850000Y-70600000D03*
X90350000Y-70600000D03*
X90850000Y-70600000D03*
X91350000Y-70600000D03*
X91850000Y-70600000D03*
D60*
X90600000Y-68600000D03*
%TD*%
D61*
%TO.C,L200*%
X92585000Y-72000000D03*
X91615000Y-72000000D03*
%TD*%
D62*
%TO.C,L2*%
X103600000Y-69415000D03*
X103600000Y-70385000D03*
%TD*%
D23*
%TO.C,C21*%
X109800000Y-71880000D03*
X109800000Y-70920000D03*
%TD*%
D26*
%TO.C,C1*%
X102560000Y-71700000D03*
X101600000Y-71700000D03*
%TD*%
D21*
%TO.C,JP101*%
X118240000Y-104915000D03*
D22*
X115700000Y-104915000D03*
%TD*%
D21*
%TO.C,JP103*%
X118240000Y-94755000D03*
D22*
X115700000Y-94755000D03*
%TD*%
D13*
%TO.C,C3*%
X109600000Y-78820000D03*
X109600000Y-79780000D03*
%TD*%
D41*
%TO.C,C101*%
X102320000Y-124025000D03*
X103280000Y-124025000D03*
%TD*%
D63*
%TO.C,D201*%
X68438000Y-66900000D03*
X70762000Y-66900000D03*
%TD*%
M02*
