%TF.GenerationSoftware,KiCad,Pcbnew,8.0.3*%
%TF.CreationDate,2024-06-23T22:11:50-05:00*%
%TF.ProjectId,GeckoDevelopmentBoard,4765636b-6f44-4657-9665-6c6f706d656e,rev?*%
%TF.SameCoordinates,Original*%
%TF.FileFunction,Copper,L4,Bot*%
%TF.FilePolarity,Positive*%
%FSLAX46Y46*%
G04 Gerber Fmt 4.6, Leading zero omitted, Abs format (unit mm)*
G04 Created by KiCad (PCBNEW 8.0.3) date 2024-06-23 22:11:50*
%MOMM*%
%LPD*%
G01*
G04 APERTURE LIST*
%TA.AperFunction,ComponentPad*%
%ADD10R,1.700000X1.700000*%
%TD*%
%TA.AperFunction,ComponentPad*%
%ADD11O,1.700000X1.700000*%
%TD*%
%TA.AperFunction,ComponentPad*%
%ADD12R,1.950000X1.950000*%
%TD*%
%TA.AperFunction,ComponentPad*%
%ADD13C,1.950000*%
%TD*%
%TA.AperFunction,ViaPad*%
%ADD14C,0.450000*%
%TD*%
%TA.AperFunction,Conductor*%
%ADD15C,0.200000*%
%TD*%
%TA.AperFunction,Conductor*%
%ADD16C,0.254000*%
%TD*%
%TA.AperFunction,Conductor*%
%ADD17C,1.000000*%
%TD*%
%TA.AperFunction,Conductor*%
%ADD18C,0.590000*%
%TD*%
G04 APERTURE END LIST*
D10*
%TO.P,J202,1,Pin_1*%
%TO.N,+3V0*%
X125860000Y-112540000D03*
D11*
%TO.P,J202,2,Pin_2*%
%TO.N,P1.15*%
X125860000Y-110000000D03*
%TO.P,J202,3,Pin_3*%
%TO.N,GND*%
X125860000Y-107460000D03*
%TO.P,J202,4,Pin_4*%
X125860000Y-104920000D03*
%TO.P,J202,5,Pin_5*%
X125860000Y-102380000D03*
%TD*%
D12*
%TO.P,JP104,1,A*%
%TO.N,+3V0*%
X118240000Y-115075000D03*
D13*
%TO.P,JP104,2,B*%
%TO.N,Net-(JP104-B)*%
X115700000Y-115075000D03*
%TD*%
D12*
%TO.P,JP201,1,A*%
%TO.N,+3V0*%
X118240000Y-125235000D03*
D13*
%TO.P,JP201,2,B*%
%TO.N,Net-(IC200-VDD)*%
X115700000Y-125235000D03*
%TD*%
D12*
%TO.P,JP202,1,A*%
%TO.N,VCELL*%
X99730000Y-55400000D03*
D13*
%TO.P,JP202,2,B*%
%TO.N,Net-(JP202-B)*%
X102270000Y-55400000D03*
%TD*%
D12*
%TO.P,JP1,1,A*%
%TO.N,+3V0*%
X118240000Y-89675000D03*
D13*
%TO.P,JP1,2,B*%
%TO.N,Net-(JP1-B)*%
X115700000Y-89675000D03*
%TD*%
D12*
%TO.P,JP10,1,A*%
%TO.N,+3V0*%
X118240000Y-109995000D03*
D13*
%TO.P,JP10,2,B*%
%TO.N,Net-(IC1-VDD)*%
X115700000Y-109995000D03*
%TD*%
D12*
%TO.P,JP102,1,A*%
%TO.N,+3V0*%
X118240000Y-120155000D03*
D13*
%TO.P,JP102,2,B*%
%TO.N,Net-(JP102-B)*%
X115700000Y-120155000D03*
%TD*%
D12*
%TO.P,JP203,1,A*%
%TO.N,+3V0*%
X118240000Y-99835000D03*
D13*
%TO.P,JP203,2,B*%
%TO.N,Net-(JP203-B)*%
X115700000Y-99835000D03*
%TD*%
D12*
%TO.P,JP100,1,A*%
%TO.N,+3V0*%
X64250000Y-77595000D03*
D13*
%TO.P,JP100,2,B*%
%TO.N,Net-(D100-K)*%
X66790000Y-77595000D03*
%TD*%
D12*
%TO.P,JP200,1,A*%
%TO.N,VBUS*%
X64470000Y-66940000D03*
D13*
%TO.P,JP200,2,B*%
%TO.N,Net-(D200-K)*%
X64470000Y-64400000D03*
%TD*%
D12*
%TO.P,JP101,1,A*%
%TO.N,+3V0*%
X118240000Y-104915000D03*
D13*
%TO.P,JP101,2,B*%
%TO.N,Net-(JP101-B)*%
X115700000Y-104915000D03*
%TD*%
D12*
%TO.P,JP103,1,A*%
%TO.N,+3V0*%
X118240000Y-94755000D03*
D13*
%TO.P,JP103,2,B*%
%TO.N,Net-(JP103-B)*%
X115700000Y-94755000D03*
%TD*%
D14*
%TO.N,GND*%
X120925000Y-77700000D03*
X103750000Y-77450000D03*
X98975000Y-68625000D03*
X88475000Y-70675000D03*
X77500000Y-60900000D03*
X84475000Y-75750000D03*
X111000000Y-70025000D03*
X84000000Y-67900000D03*
X82975000Y-77250000D03*
X104100000Y-124025000D03*
X65100000Y-55650000D03*
X87675000Y-65225000D03*
X97925000Y-83175000D03*
X88650000Y-115350000D03*
X66025000Y-86650000D03*
X112325000Y-77700000D03*
X124200000Y-77725000D03*
X69900000Y-83000000D03*
X109710000Y-70000000D03*
X82975000Y-75750000D03*
X82300000Y-55550000D03*
X96350000Y-119500000D03*
X79075000Y-74525000D03*
X112350000Y-72750000D03*
X69975000Y-61050000D03*
X90900000Y-73725000D03*
X90150000Y-61700000D03*
X90175000Y-60750000D03*
X106290000Y-77450000D03*
X110150000Y-76950000D03*
X100575000Y-71825000D03*
X115600000Y-85175000D03*
X103775000Y-83000000D03*
X111950000Y-74075000D03*
X107600000Y-55525000D03*
X89825000Y-69375000D03*
X68400000Y-67875000D03*
X97100000Y-70600000D03*
X110050000Y-80475000D03*
X104325000Y-67775000D03*
X106290000Y-74910000D03*
X80425000Y-71875000D03*
X102200175Y-59225175D03*
X103750000Y-74910000D03*
X89825000Y-67875000D03*
X58850000Y-63425000D03*
X94850000Y-67850000D03*
X91325000Y-69375000D03*
X93225000Y-115325000D03*
X96750000Y-66775000D03*
X99750000Y-79250000D03*
X97150000Y-74400000D03*
X90200000Y-59825000D03*
X68525000Y-115825000D03*
X90900000Y-86475000D03*
X64550000Y-102875000D03*
X84475000Y-77250000D03*
X100775000Y-67275000D03*
X91325000Y-67875000D03*
%TO.N,Net-(JP1-B)*%
X101375000Y-78975000D03*
X93900000Y-72725000D03*
X103550000Y-81575000D03*
X107950000Y-70875000D03*
X96100000Y-71225000D03*
X102086382Y-72411382D03*
X108650000Y-78975000D03*
%TO.N,Net-(U1-DEC4)*%
X109700000Y-74700000D03*
X104300000Y-68600000D03*
%TO.N,/Power/VSYS*%
X93600000Y-68375000D03*
X91566268Y-65066268D03*
X87425000Y-69000000D03*
%TO.N,VBUS*%
X84225000Y-70225000D03*
X84950000Y-69875000D03*
X84950000Y-70675000D03*
X110750000Y-67575000D03*
%TO.N,Net-(IC1-VDD)*%
X81425000Y-70505000D03*
X77750000Y-76500000D03*
%TO.N,USB_RTS*%
X91900000Y-76800000D03*
X82900000Y-83650000D03*
%TO.N,Net-(JP103-B)*%
X97300000Y-69225000D03*
X98050000Y-65300000D03*
%TO.N,D+*%
X72948000Y-58700000D03*
X74200000Y-58700000D03*
%TO.N,USB_CTS*%
X81050000Y-80875000D03*
X78025000Y-83875000D03*
%TO.N,FUEL_ALERT*%
X99600000Y-57400000D03*
X104100000Y-61700000D03*
%TO.N,SDA*%
X99700000Y-67900000D03*
X99700000Y-65300000D03*
%TO.N,SWO*%
X71850000Y-100575000D03*
X64325000Y-108200000D03*
X109500000Y-81075000D03*
%TO.N,SWDCLK*%
X112375000Y-81650000D03*
X71025000Y-113175000D03*
%TO.N,~{RESET}*%
X102475000Y-82125000D03*
X62150000Y-96175000D03*
%TO.N,SWDIO*%
X111000000Y-81450000D03*
X70175000Y-109675000D03*
%TO.N,+3V0*%
X62125000Y-102950000D03*
X66375000Y-119425000D03*
%TO.N,USB_TX*%
X89350000Y-75550000D03*
X63350000Y-93925000D03*
%TO.N,USB_RX*%
X90700000Y-76175000D03*
X79850000Y-83600000D03*
%TO.N,Net-(JP101-B)*%
X94250000Y-83175000D03*
X88025000Y-83975000D03*
%TO.N,Net-(JP203-B)*%
X92575000Y-73975000D03*
%TO.N,Net-(IC200-VDD)*%
X101325000Y-58450000D03*
%TO.N,Net-(SW200-B)*%
X110000000Y-58575000D03*
X87425000Y-68075000D03*
X86625000Y-68075000D03*
X110000000Y-57675000D03*
%TO.N,Net-(D200-A)*%
X76150000Y-60875000D03*
X71200000Y-62125000D03*
X71200000Y-62925000D03*
%TO.N,SCK*%
X100700000Y-85235000D03*
X103600000Y-85200000D03*
%TO.N,LCD_RESET*%
X105000582Y-81249418D03*
X89500000Y-98775000D03*
%TO.N,Charge Error*%
X107200000Y-66300000D03*
X90400000Y-65400000D03*
%TO.N,Charging*%
X92600000Y-64775000D03*
X106900000Y-67400000D03*
%TO.N,P1.15*%
X106925000Y-71796232D03*
%TD*%
D15*
%TO.N,Net-(U1-DEC4)*%
X109700000Y-71350000D02*
X106950000Y-68600000D01*
X109700000Y-74700000D02*
X109700000Y-71350000D01*
X106950000Y-68600000D02*
X104300000Y-68600000D01*
D16*
%TO.N,/Power/VSYS*%
X90473000Y-65952000D02*
X87425000Y-69000000D01*
X93600000Y-68375000D02*
X93450000Y-68525000D01*
X87900000Y-68525000D02*
X87425000Y-69000000D01*
X90680536Y-65952000D02*
X90473000Y-65952000D01*
X91566268Y-65066268D02*
X90680536Y-65952000D01*
X93450000Y-68525000D02*
X87900000Y-68525000D01*
D17*
%TO.N,VBUS*%
X64470000Y-66940000D02*
X80940000Y-66940000D01*
X81215000Y-66940000D02*
X84950000Y-70675000D01*
D18*
X84225000Y-70225000D02*
X80940000Y-66940000D01*
D17*
X80940000Y-66940000D02*
X81215000Y-66940000D01*
D15*
%TO.N,USB_RTS*%
X82900000Y-83600000D02*
X89700000Y-76800000D01*
X89700000Y-76800000D02*
X91900000Y-76800000D01*
X82900000Y-83650000D02*
X82900000Y-83600000D01*
D16*
%TO.N,D+*%
X74200000Y-58700000D02*
X72948000Y-58700000D01*
D15*
%TO.N,USB_CTS*%
X81025000Y-80875000D02*
X81050000Y-80875000D01*
X78025000Y-83875000D02*
X81025000Y-80875000D01*
%TO.N,FUEL_ALERT*%
X101925000Y-61700000D02*
X99600000Y-59375000D01*
X104100000Y-61700000D02*
X101925000Y-61700000D01*
X99600000Y-59375000D02*
X99600000Y-57400000D01*
%TO.N,SDA*%
X99700000Y-67900000D02*
X99700000Y-65300000D01*
%TO.N,SWO*%
X71850000Y-100600000D02*
X71850000Y-100575000D01*
X109500000Y-81075000D02*
X109500000Y-81825000D01*
X90750000Y-100575000D02*
X71850000Y-100575000D01*
X109500000Y-81825000D02*
X90750000Y-100575000D01*
X64325000Y-108200000D02*
X64325000Y-108125000D01*
X64325000Y-108125000D02*
X71850000Y-100600000D01*
%TO.N,SWDCLK*%
X112375000Y-81650000D02*
X112400000Y-81675000D01*
X89750000Y-113175000D02*
X71025000Y-113175000D01*
X112400000Y-81675000D02*
X112400000Y-90525000D01*
X112400000Y-90525000D02*
X89750000Y-113175000D01*
%TO.N,~{RESET}*%
X102475000Y-82625000D02*
X100175000Y-84925000D01*
X100175000Y-84925000D02*
X73400000Y-84925000D01*
X102475000Y-82125000D02*
X102475000Y-82625000D01*
X73400000Y-84925000D02*
X62150000Y-96175000D01*
%TO.N,SWDIO*%
X111000000Y-82500000D02*
X83825000Y-109675000D01*
X111000000Y-81450000D02*
X111000000Y-82500000D01*
X83825000Y-109675000D02*
X70175000Y-109675000D01*
%TO.N,USB_TX*%
X85425000Y-76500000D02*
X86375000Y-75550000D01*
X63350000Y-93900000D02*
X80750000Y-76500000D01*
X63350000Y-93925000D02*
X63350000Y-93900000D01*
X86375000Y-75550000D02*
X89350000Y-75550000D01*
X80750000Y-76500000D02*
X85425000Y-76500000D01*
%TO.N,USB_RX*%
X87375000Y-76175000D02*
X90700000Y-76175000D01*
X79850000Y-83600000D02*
X79950000Y-83600000D01*
X79950000Y-83600000D02*
X87375000Y-76175000D01*
D18*
%TO.N,Net-(SW200-B)*%
X106100000Y-63400000D02*
X91300000Y-63400000D01*
X87425000Y-68075000D02*
X86625000Y-68075000D01*
X91300000Y-63400000D02*
X86625000Y-68075000D01*
X110000000Y-59500000D02*
X106100000Y-63400000D01*
X110000000Y-58575000D02*
X110000000Y-57675000D01*
X110000000Y-58575000D02*
X110000000Y-59500000D01*
D15*
%TO.N,SCK*%
X103600000Y-85200000D02*
X100735000Y-85200000D01*
X100735000Y-85200000D02*
X100700000Y-85235000D01*
%TO.N,LCD_RESET*%
X105000582Y-84999418D02*
X105000582Y-81249418D01*
X103225000Y-86775000D02*
X105000582Y-84999418D01*
X89500000Y-98775000D02*
X101500000Y-86775000D01*
X101500000Y-86775000D02*
X103225000Y-86775000D01*
%TO.N,Charge Error*%
X105150000Y-64250000D02*
X107200000Y-66300000D01*
X90400000Y-65400000D02*
X91550000Y-64250000D01*
X91550000Y-64250000D02*
X105150000Y-64250000D01*
%TO.N,Charging*%
X104275000Y-64775000D02*
X106900000Y-67400000D01*
X92600000Y-64775000D02*
X104275000Y-64775000D01*
%TO.N,P1.15*%
X123925000Y-110000000D02*
X125860000Y-110000000D01*
X106475000Y-79575000D02*
X111675000Y-79575000D01*
X104875000Y-73846232D02*
X104875000Y-77975000D01*
X122050000Y-89950000D02*
X122050000Y-108125000D01*
X104875000Y-77975000D02*
X106475000Y-79575000D01*
X111675000Y-79575000D02*
X122050000Y-89950000D01*
X122050000Y-108125000D02*
X123925000Y-110000000D01*
X106925000Y-71796232D02*
X104875000Y-73846232D01*
%TD*%
M02*
