%TF.GenerationSoftware,KiCad,Pcbnew,8.0.3*%
%TF.CreationDate,2024-06-23T22:11:50-05:00*%
%TF.ProjectId,GeckoDevelopmentBoard,4765636b-6f44-4657-9665-6c6f706d656e,rev?*%
%TF.SameCoordinates,Original*%
%TF.FileFunction,Legend,Top*%
%TF.FilePolarity,Positive*%
%FSLAX46Y46*%
G04 Gerber Fmt 4.6, Leading zero omitted, Abs format (unit mm)*
G04 Created by KiCad (PCBNEW 8.0.3) date 2024-06-23 22:11:50*
%MOMM*%
%LPD*%
G01*
G04 APERTURE LIST*
%ADD10C,0.300000*%
%ADD11C,0.200000*%
%ADD12C,0.150000*%
%ADD13C,0.155000*%
%ADD14C,0.120000*%
%ADD15C,0.100000*%
%ADD16C,0.250000*%
%ADD17C,0.127000*%
G04 APERTURE END LIST*
D10*
X95945489Y-61690600D02*
X94802632Y-61690600D01*
X95374060Y-61119171D02*
X95374060Y-62262028D01*
D11*
X113625000Y-60025000D02*
X112741117Y-59141117D01*
X108625000Y-60025000D02*
X113625000Y-60025000D01*
X113616941Y-60033058D02*
X112733058Y-60916941D01*
D12*
X62593922Y-61844819D02*
X62927255Y-62844819D01*
X62927255Y-62844819D02*
X63260588Y-61844819D01*
X63927255Y-62321009D02*
X64070112Y-62368628D01*
X64070112Y-62368628D02*
X64117731Y-62416247D01*
X64117731Y-62416247D02*
X64165350Y-62511485D01*
X64165350Y-62511485D02*
X64165350Y-62654342D01*
X64165350Y-62654342D02*
X64117731Y-62749580D01*
X64117731Y-62749580D02*
X64070112Y-62797200D01*
X64070112Y-62797200D02*
X63974874Y-62844819D01*
X63974874Y-62844819D02*
X63593922Y-62844819D01*
X63593922Y-62844819D02*
X63593922Y-61844819D01*
X63593922Y-61844819D02*
X63927255Y-61844819D01*
X63927255Y-61844819D02*
X64022493Y-61892438D01*
X64022493Y-61892438D02*
X64070112Y-61940057D01*
X64070112Y-61940057D02*
X64117731Y-62035295D01*
X64117731Y-62035295D02*
X64117731Y-62130533D01*
X64117731Y-62130533D02*
X64070112Y-62225771D01*
X64070112Y-62225771D02*
X64022493Y-62273390D01*
X64022493Y-62273390D02*
X63927255Y-62321009D01*
X63927255Y-62321009D02*
X63593922Y-62321009D01*
X64593922Y-61844819D02*
X64593922Y-62654342D01*
X64593922Y-62654342D02*
X64641541Y-62749580D01*
X64641541Y-62749580D02*
X64689160Y-62797200D01*
X64689160Y-62797200D02*
X64784398Y-62844819D01*
X64784398Y-62844819D02*
X64974874Y-62844819D01*
X64974874Y-62844819D02*
X65070112Y-62797200D01*
X65070112Y-62797200D02*
X65117731Y-62749580D01*
X65117731Y-62749580D02*
X65165350Y-62654342D01*
X65165350Y-62654342D02*
X65165350Y-61844819D01*
X65593922Y-62797200D02*
X65736779Y-62844819D01*
X65736779Y-62844819D02*
X65974874Y-62844819D01*
X65974874Y-62844819D02*
X66070112Y-62797200D01*
X66070112Y-62797200D02*
X66117731Y-62749580D01*
X66117731Y-62749580D02*
X66165350Y-62654342D01*
X66165350Y-62654342D02*
X66165350Y-62559104D01*
X66165350Y-62559104D02*
X66117731Y-62463866D01*
X66117731Y-62463866D02*
X66070112Y-62416247D01*
X66070112Y-62416247D02*
X65974874Y-62368628D01*
X65974874Y-62368628D02*
X65784398Y-62321009D01*
X65784398Y-62321009D02*
X65689160Y-62273390D01*
X65689160Y-62273390D02*
X65641541Y-62225771D01*
X65641541Y-62225771D02*
X65593922Y-62130533D01*
X65593922Y-62130533D02*
X65593922Y-62035295D01*
X65593922Y-62035295D02*
X65641541Y-61940057D01*
X65641541Y-61940057D02*
X65689160Y-61892438D01*
X65689160Y-61892438D02*
X65784398Y-61844819D01*
X65784398Y-61844819D02*
X66022493Y-61844819D01*
X66022493Y-61844819D02*
X66165350Y-61892438D01*
D10*
X120139510Y-104144400D02*
X121282368Y-104144400D01*
X120710939Y-104715828D02*
X120710939Y-103572971D01*
D12*
X115025112Y-102916009D02*
X114691779Y-102916009D01*
X114691779Y-103439819D02*
X114691779Y-102439819D01*
X114691779Y-102439819D02*
X115167969Y-102439819D01*
X116025112Y-103439819D02*
X115548922Y-103439819D01*
X115548922Y-103439819D02*
X115548922Y-102439819D01*
X116310827Y-103154104D02*
X116787017Y-103154104D01*
X116215589Y-103439819D02*
X116548922Y-102439819D01*
X116548922Y-102439819D02*
X116882255Y-103439819D01*
X117167970Y-103392200D02*
X117310827Y-103439819D01*
X117310827Y-103439819D02*
X117548922Y-103439819D01*
X117548922Y-103439819D02*
X117644160Y-103392200D01*
X117644160Y-103392200D02*
X117691779Y-103344580D01*
X117691779Y-103344580D02*
X117739398Y-103249342D01*
X117739398Y-103249342D02*
X117739398Y-103154104D01*
X117739398Y-103154104D02*
X117691779Y-103058866D01*
X117691779Y-103058866D02*
X117644160Y-103011247D01*
X117644160Y-103011247D02*
X117548922Y-102963628D01*
X117548922Y-102963628D02*
X117358446Y-102916009D01*
X117358446Y-102916009D02*
X117263208Y-102868390D01*
X117263208Y-102868390D02*
X117215589Y-102820771D01*
X117215589Y-102820771D02*
X117167970Y-102725533D01*
X117167970Y-102725533D02*
X117167970Y-102630295D01*
X117167970Y-102630295D02*
X117215589Y-102535057D01*
X117215589Y-102535057D02*
X117263208Y-102487438D01*
X117263208Y-102487438D02*
X117358446Y-102439819D01*
X117358446Y-102439819D02*
X117596541Y-102439819D01*
X117596541Y-102439819D02*
X117739398Y-102487438D01*
X118167970Y-103439819D02*
X118167970Y-102439819D01*
X118167970Y-102916009D02*
X118739398Y-102916009D01*
X118739398Y-103439819D02*
X118739398Y-102439819D01*
D10*
X120139510Y-93984400D02*
X121282368Y-93984400D01*
X120710939Y-94555828D02*
X120710939Y-93412971D01*
D12*
X100400112Y-53401009D02*
X100542969Y-53448628D01*
X100542969Y-53448628D02*
X100590588Y-53496247D01*
X100590588Y-53496247D02*
X100638207Y-53591485D01*
X100638207Y-53591485D02*
X100638207Y-53734342D01*
X100638207Y-53734342D02*
X100590588Y-53829580D01*
X100590588Y-53829580D02*
X100542969Y-53877200D01*
X100542969Y-53877200D02*
X100447731Y-53924819D01*
X100447731Y-53924819D02*
X100066779Y-53924819D01*
X100066779Y-53924819D02*
X100066779Y-52924819D01*
X100066779Y-52924819D02*
X100400112Y-52924819D01*
X100400112Y-52924819D02*
X100495350Y-52972438D01*
X100495350Y-52972438D02*
X100542969Y-53020057D01*
X100542969Y-53020057D02*
X100590588Y-53115295D01*
X100590588Y-53115295D02*
X100590588Y-53210533D01*
X100590588Y-53210533D02*
X100542969Y-53305771D01*
X100542969Y-53305771D02*
X100495350Y-53353390D01*
X100495350Y-53353390D02*
X100400112Y-53401009D01*
X100400112Y-53401009D02*
X100066779Y-53401009D01*
X101019160Y-53639104D02*
X101495350Y-53639104D01*
X100923922Y-53924819D02*
X101257255Y-52924819D01*
X101257255Y-52924819D02*
X101590588Y-53924819D01*
X101781065Y-52924819D02*
X102352493Y-52924819D01*
X102066779Y-53924819D02*
X102066779Y-52924819D01*
X102542970Y-52924819D02*
X103114398Y-52924819D01*
X102828684Y-53924819D02*
X102828684Y-52924819D01*
X103447732Y-53401009D02*
X103781065Y-53401009D01*
X103923922Y-53924819D02*
X103447732Y-53924819D01*
X103447732Y-53924819D02*
X103447732Y-52924819D01*
X103447732Y-52924819D02*
X103923922Y-52924819D01*
X104923922Y-53924819D02*
X104590589Y-53448628D01*
X104352494Y-53924819D02*
X104352494Y-52924819D01*
X104352494Y-52924819D02*
X104733446Y-52924819D01*
X104733446Y-52924819D02*
X104828684Y-52972438D01*
X104828684Y-52972438D02*
X104876303Y-53020057D01*
X104876303Y-53020057D02*
X104923922Y-53115295D01*
X104923922Y-53115295D02*
X104923922Y-53258152D01*
X104923922Y-53258152D02*
X104876303Y-53353390D01*
X104876303Y-53353390D02*
X104828684Y-53401009D01*
X104828684Y-53401009D02*
X104733446Y-53448628D01*
X104733446Y-53448628D02*
X104352494Y-53448628D01*
X105542970Y-53448628D02*
X105542970Y-53924819D01*
X105209637Y-52924819D02*
X105542970Y-53448628D01*
X105542970Y-53448628D02*
X105876303Y-52924819D01*
X128944819Y-112063220D02*
X127944819Y-112063220D01*
X127944819Y-112063220D02*
X127944819Y-111682268D01*
X127944819Y-111682268D02*
X127992438Y-111587030D01*
X127992438Y-111587030D02*
X128040057Y-111539411D01*
X128040057Y-111539411D02*
X128135295Y-111491792D01*
X128135295Y-111491792D02*
X128278152Y-111491792D01*
X128278152Y-111491792D02*
X128373390Y-111539411D01*
X128373390Y-111539411D02*
X128421009Y-111587030D01*
X128421009Y-111587030D02*
X128468628Y-111682268D01*
X128468628Y-111682268D02*
X128468628Y-112063220D01*
X128944819Y-110539411D02*
X128944819Y-111110839D01*
X128944819Y-110825125D02*
X127944819Y-110825125D01*
X127944819Y-110825125D02*
X128087676Y-110920363D01*
X128087676Y-110920363D02*
X128182914Y-111015601D01*
X128182914Y-111015601D02*
X128230533Y-111110839D01*
X128849580Y-110110839D02*
X128897200Y-110063220D01*
X128897200Y-110063220D02*
X128944819Y-110110839D01*
X128944819Y-110110839D02*
X128897200Y-110158458D01*
X128897200Y-110158458D02*
X128849580Y-110110839D01*
X128849580Y-110110839D02*
X128944819Y-110110839D01*
X128944819Y-109110840D02*
X128944819Y-109682268D01*
X128944819Y-109396554D02*
X127944819Y-109396554D01*
X127944819Y-109396554D02*
X128087676Y-109491792D01*
X128087676Y-109491792D02*
X128182914Y-109587030D01*
X128182914Y-109587030D02*
X128230533Y-109682268D01*
X127944819Y-108206078D02*
X127944819Y-108682268D01*
X127944819Y-108682268D02*
X128421009Y-108729887D01*
X128421009Y-108729887D02*
X128373390Y-108682268D01*
X128373390Y-108682268D02*
X128325771Y-108587030D01*
X128325771Y-108587030D02*
X128325771Y-108348935D01*
X128325771Y-108348935D02*
X128373390Y-108253697D01*
X128373390Y-108253697D02*
X128421009Y-108206078D01*
X128421009Y-108206078D02*
X128516247Y-108158459D01*
X128516247Y-108158459D02*
X128754342Y-108158459D01*
X128754342Y-108158459D02*
X128849580Y-108206078D01*
X128849580Y-108206078D02*
X128897200Y-108253697D01*
X128897200Y-108253697D02*
X128944819Y-108348935D01*
X128944819Y-108348935D02*
X128944819Y-108587030D01*
X128944819Y-108587030D02*
X128897200Y-108682268D01*
X128897200Y-108682268D02*
X128849580Y-108729887D01*
D10*
X97614400Y-54845489D02*
X97614400Y-53702632D01*
X98185828Y-54274060D02*
X97042971Y-54274060D01*
D12*
X115025112Y-123236009D02*
X115167969Y-123283628D01*
X115167969Y-123283628D02*
X115215588Y-123331247D01*
X115215588Y-123331247D02*
X115263207Y-123426485D01*
X115263207Y-123426485D02*
X115263207Y-123569342D01*
X115263207Y-123569342D02*
X115215588Y-123664580D01*
X115215588Y-123664580D02*
X115167969Y-123712200D01*
X115167969Y-123712200D02*
X115072731Y-123759819D01*
X115072731Y-123759819D02*
X114691779Y-123759819D01*
X114691779Y-123759819D02*
X114691779Y-122759819D01*
X114691779Y-122759819D02*
X115025112Y-122759819D01*
X115025112Y-122759819D02*
X115120350Y-122807438D01*
X115120350Y-122807438D02*
X115167969Y-122855057D01*
X115167969Y-122855057D02*
X115215588Y-122950295D01*
X115215588Y-122950295D02*
X115215588Y-123045533D01*
X115215588Y-123045533D02*
X115167969Y-123140771D01*
X115167969Y-123140771D02*
X115120350Y-123188390D01*
X115120350Y-123188390D02*
X115025112Y-123236009D01*
X115025112Y-123236009D02*
X114691779Y-123236009D01*
X115644160Y-123474104D02*
X116120350Y-123474104D01*
X115548922Y-123759819D02*
X115882255Y-122759819D01*
X115882255Y-122759819D02*
X116215588Y-123759819D01*
X116406065Y-122759819D02*
X116977493Y-122759819D01*
X116691779Y-123759819D02*
X116691779Y-122759819D01*
X117072732Y-123855057D02*
X117834636Y-123855057D01*
X118406065Y-123236009D02*
X118072732Y-123236009D01*
X118072732Y-123759819D02*
X118072732Y-122759819D01*
X118072732Y-122759819D02*
X118548922Y-122759819D01*
X118929875Y-122759819D02*
X118929875Y-123569342D01*
X118929875Y-123569342D02*
X118977494Y-123664580D01*
X118977494Y-123664580D02*
X119025113Y-123712200D01*
X119025113Y-123712200D02*
X119120351Y-123759819D01*
X119120351Y-123759819D02*
X119310827Y-123759819D01*
X119310827Y-123759819D02*
X119406065Y-123712200D01*
X119406065Y-123712200D02*
X119453684Y-123664580D01*
X119453684Y-123664580D02*
X119501303Y-123569342D01*
X119501303Y-123569342D02*
X119501303Y-122759819D01*
X119977494Y-123236009D02*
X120310827Y-123236009D01*
X120453684Y-123759819D02*
X119977494Y-123759819D01*
X119977494Y-123759819D02*
X119977494Y-122759819D01*
X119977494Y-122759819D02*
X120453684Y-122759819D01*
X121358446Y-123759819D02*
X120882256Y-123759819D01*
X120882256Y-123759819D02*
X120882256Y-122759819D01*
X115167969Y-113599819D02*
X114691779Y-113599819D01*
X114691779Y-113599819D02*
X114691779Y-112599819D01*
X116072731Y-113504580D02*
X116025112Y-113552200D01*
X116025112Y-113552200D02*
X115882255Y-113599819D01*
X115882255Y-113599819D02*
X115787017Y-113599819D01*
X115787017Y-113599819D02*
X115644160Y-113552200D01*
X115644160Y-113552200D02*
X115548922Y-113456961D01*
X115548922Y-113456961D02*
X115501303Y-113361723D01*
X115501303Y-113361723D02*
X115453684Y-113171247D01*
X115453684Y-113171247D02*
X115453684Y-113028390D01*
X115453684Y-113028390D02*
X115501303Y-112837914D01*
X115501303Y-112837914D02*
X115548922Y-112742676D01*
X115548922Y-112742676D02*
X115644160Y-112647438D01*
X115644160Y-112647438D02*
X115787017Y-112599819D01*
X115787017Y-112599819D02*
X115882255Y-112599819D01*
X115882255Y-112599819D02*
X116025112Y-112647438D01*
X116025112Y-112647438D02*
X116072731Y-112695057D01*
X116501303Y-113599819D02*
X116501303Y-112599819D01*
X116501303Y-112599819D02*
X116739398Y-112599819D01*
X116739398Y-112599819D02*
X116882255Y-112647438D01*
X116882255Y-112647438D02*
X116977493Y-112742676D01*
X116977493Y-112742676D02*
X117025112Y-112837914D01*
X117025112Y-112837914D02*
X117072731Y-113028390D01*
X117072731Y-113028390D02*
X117072731Y-113171247D01*
X117072731Y-113171247D02*
X117025112Y-113361723D01*
X117025112Y-113361723D02*
X116977493Y-113456961D01*
X116977493Y-113456961D02*
X116882255Y-113552200D01*
X116882255Y-113552200D02*
X116739398Y-113599819D01*
X116739398Y-113599819D02*
X116501303Y-113599819D01*
X117263208Y-113695057D02*
X118025112Y-113695057D01*
X118739398Y-113599819D02*
X118263208Y-113599819D01*
X118263208Y-113599819D02*
X118263208Y-112599819D01*
X119072732Y-113076009D02*
X119406065Y-113076009D01*
X119548922Y-113599819D02*
X119072732Y-113599819D01*
X119072732Y-113599819D02*
X119072732Y-112599819D01*
X119072732Y-112599819D02*
X119548922Y-112599819D01*
X119977494Y-113599819D02*
X119977494Y-112599819D01*
X119977494Y-112599819D02*
X120215589Y-112599819D01*
X120215589Y-112599819D02*
X120358446Y-112647438D01*
X120358446Y-112647438D02*
X120453684Y-112742676D01*
X120453684Y-112742676D02*
X120501303Y-112837914D01*
X120501303Y-112837914D02*
X120548922Y-113028390D01*
X120548922Y-113028390D02*
X120548922Y-113171247D01*
X120548922Y-113171247D02*
X120501303Y-113361723D01*
X120501303Y-113361723D02*
X120453684Y-113456961D01*
X120453684Y-113456961D02*
X120358446Y-113552200D01*
X120358446Y-113552200D02*
X120215589Y-113599819D01*
X120215589Y-113599819D02*
X119977494Y-113599819D01*
D10*
X120139510Y-109224400D02*
X121282368Y-109224400D01*
X120710939Y-109795828D02*
X120710939Y-108652971D01*
D12*
X115167969Y-118679819D02*
X114691779Y-118679819D01*
X114691779Y-118679819D02*
X114691779Y-117679819D01*
X116072731Y-118584580D02*
X116025112Y-118632200D01*
X116025112Y-118632200D02*
X115882255Y-118679819D01*
X115882255Y-118679819D02*
X115787017Y-118679819D01*
X115787017Y-118679819D02*
X115644160Y-118632200D01*
X115644160Y-118632200D02*
X115548922Y-118536961D01*
X115548922Y-118536961D02*
X115501303Y-118441723D01*
X115501303Y-118441723D02*
X115453684Y-118251247D01*
X115453684Y-118251247D02*
X115453684Y-118108390D01*
X115453684Y-118108390D02*
X115501303Y-117917914D01*
X115501303Y-117917914D02*
X115548922Y-117822676D01*
X115548922Y-117822676D02*
X115644160Y-117727438D01*
X115644160Y-117727438D02*
X115787017Y-117679819D01*
X115787017Y-117679819D02*
X115882255Y-117679819D01*
X115882255Y-117679819D02*
X116025112Y-117727438D01*
X116025112Y-117727438D02*
X116072731Y-117775057D01*
X116501303Y-118679819D02*
X116501303Y-117679819D01*
X116501303Y-117679819D02*
X116739398Y-117679819D01*
X116739398Y-117679819D02*
X116882255Y-117727438D01*
X116882255Y-117727438D02*
X116977493Y-117822676D01*
X116977493Y-117822676D02*
X117025112Y-117917914D01*
X117025112Y-117917914D02*
X117072731Y-118108390D01*
X117072731Y-118108390D02*
X117072731Y-118251247D01*
X117072731Y-118251247D02*
X117025112Y-118441723D01*
X117025112Y-118441723D02*
X116977493Y-118536961D01*
X116977493Y-118536961D02*
X116882255Y-118632200D01*
X116882255Y-118632200D02*
X116739398Y-118679819D01*
X116739398Y-118679819D02*
X116501303Y-118679819D01*
X117263208Y-118775057D02*
X118025112Y-118775057D01*
X118120351Y-117679819D02*
X118453684Y-118679819D01*
X118453684Y-118679819D02*
X118787017Y-117679819D01*
X119120351Y-118679819D02*
X119120351Y-117679819D01*
X119120351Y-117679819D02*
X119358446Y-117679819D01*
X119358446Y-117679819D02*
X119501303Y-117727438D01*
X119501303Y-117727438D02*
X119596541Y-117822676D01*
X119596541Y-117822676D02*
X119644160Y-117917914D01*
X119644160Y-117917914D02*
X119691779Y-118108390D01*
X119691779Y-118108390D02*
X119691779Y-118251247D01*
X119691779Y-118251247D02*
X119644160Y-118441723D01*
X119644160Y-118441723D02*
X119596541Y-118536961D01*
X119596541Y-118536961D02*
X119501303Y-118632200D01*
X119501303Y-118632200D02*
X119358446Y-118679819D01*
X119358446Y-118679819D02*
X119120351Y-118679819D01*
X120120351Y-118679819D02*
X120120351Y-117679819D01*
X120120351Y-117679819D02*
X120358446Y-117679819D01*
X120358446Y-117679819D02*
X120501303Y-117727438D01*
X120501303Y-117727438D02*
X120596541Y-117822676D01*
X120596541Y-117822676D02*
X120644160Y-117917914D01*
X120644160Y-117917914D02*
X120691779Y-118108390D01*
X120691779Y-118108390D02*
X120691779Y-118251247D01*
X120691779Y-118251247D02*
X120644160Y-118441723D01*
X120644160Y-118441723D02*
X120596541Y-118536961D01*
X120596541Y-118536961D02*
X120501303Y-118632200D01*
X120501303Y-118632200D02*
X120358446Y-118679819D01*
X120358446Y-118679819D02*
X120120351Y-118679819D01*
X115025112Y-92756009D02*
X115167969Y-92803628D01*
X115167969Y-92803628D02*
X115215588Y-92851247D01*
X115215588Y-92851247D02*
X115263207Y-92946485D01*
X115263207Y-92946485D02*
X115263207Y-93089342D01*
X115263207Y-93089342D02*
X115215588Y-93184580D01*
X115215588Y-93184580D02*
X115167969Y-93232200D01*
X115167969Y-93232200D02*
X115072731Y-93279819D01*
X115072731Y-93279819D02*
X114691779Y-93279819D01*
X114691779Y-93279819D02*
X114691779Y-92279819D01*
X114691779Y-92279819D02*
X115025112Y-92279819D01*
X115025112Y-92279819D02*
X115120350Y-92327438D01*
X115120350Y-92327438D02*
X115167969Y-92375057D01*
X115167969Y-92375057D02*
X115215588Y-92470295D01*
X115215588Y-92470295D02*
X115215588Y-92565533D01*
X115215588Y-92565533D02*
X115167969Y-92660771D01*
X115167969Y-92660771D02*
X115120350Y-92708390D01*
X115120350Y-92708390D02*
X115025112Y-92756009D01*
X115025112Y-92756009D02*
X114691779Y-92756009D01*
X115691779Y-93279819D02*
X115691779Y-92279819D01*
X115691779Y-92279819D02*
X116025112Y-92994104D01*
X116025112Y-92994104D02*
X116358445Y-92279819D01*
X116358445Y-92279819D02*
X116358445Y-93279819D01*
X116787017Y-92994104D02*
X117263207Y-92994104D01*
X116691779Y-93279819D02*
X117025112Y-92279819D01*
X117025112Y-92279819D02*
X117358445Y-93279819D01*
X118120350Y-92613152D02*
X118120350Y-93279819D01*
X117882255Y-92232200D02*
X117644160Y-92946485D01*
X117644160Y-92946485D02*
X118263207Y-92946485D01*
X118834636Y-92279819D02*
X118929874Y-92279819D01*
X118929874Y-92279819D02*
X119025112Y-92327438D01*
X119025112Y-92327438D02*
X119072731Y-92375057D01*
X119072731Y-92375057D02*
X119120350Y-92470295D01*
X119120350Y-92470295D02*
X119167969Y-92660771D01*
X119167969Y-92660771D02*
X119167969Y-92898866D01*
X119167969Y-92898866D02*
X119120350Y-93089342D01*
X119120350Y-93089342D02*
X119072731Y-93184580D01*
X119072731Y-93184580D02*
X119025112Y-93232200D01*
X119025112Y-93232200D02*
X118929874Y-93279819D01*
X118929874Y-93279819D02*
X118834636Y-93279819D01*
X118834636Y-93279819D02*
X118739398Y-93232200D01*
X118739398Y-93232200D02*
X118691779Y-93184580D01*
X118691779Y-93184580D02*
X118644160Y-93089342D01*
X118644160Y-93089342D02*
X118596541Y-92898866D01*
X118596541Y-92898866D02*
X118596541Y-92660771D01*
X118596541Y-92660771D02*
X118644160Y-92470295D01*
X118644160Y-92470295D02*
X118691779Y-92375057D01*
X118691779Y-92375057D02*
X118739398Y-92327438D01*
X118739398Y-92327438D02*
X118834636Y-92279819D01*
X119787017Y-92279819D02*
X119882255Y-92279819D01*
X119882255Y-92279819D02*
X119977493Y-92327438D01*
X119977493Y-92327438D02*
X120025112Y-92375057D01*
X120025112Y-92375057D02*
X120072731Y-92470295D01*
X120072731Y-92470295D02*
X120120350Y-92660771D01*
X120120350Y-92660771D02*
X120120350Y-92898866D01*
X120120350Y-92898866D02*
X120072731Y-93089342D01*
X120072731Y-93089342D02*
X120025112Y-93184580D01*
X120025112Y-93184580D02*
X119977493Y-93232200D01*
X119977493Y-93232200D02*
X119882255Y-93279819D01*
X119882255Y-93279819D02*
X119787017Y-93279819D01*
X119787017Y-93279819D02*
X119691779Y-93232200D01*
X119691779Y-93232200D02*
X119644160Y-93184580D01*
X119644160Y-93184580D02*
X119596541Y-93089342D01*
X119596541Y-93089342D02*
X119548922Y-92898866D01*
X119548922Y-92898866D02*
X119548922Y-92660771D01*
X119548922Y-92660771D02*
X119596541Y-92470295D01*
X119596541Y-92470295D02*
X119644160Y-92375057D01*
X119644160Y-92375057D02*
X119691779Y-92327438D01*
X119691779Y-92327438D02*
X119787017Y-92279819D01*
X114691779Y-97978866D02*
X115453684Y-97978866D01*
X115072731Y-98359819D02*
X115072731Y-97597914D01*
X115834636Y-97359819D02*
X116453683Y-97359819D01*
X116453683Y-97359819D02*
X116120350Y-97740771D01*
X116120350Y-97740771D02*
X116263207Y-97740771D01*
X116263207Y-97740771D02*
X116358445Y-97788390D01*
X116358445Y-97788390D02*
X116406064Y-97836009D01*
X116406064Y-97836009D02*
X116453683Y-97931247D01*
X116453683Y-97931247D02*
X116453683Y-98169342D01*
X116453683Y-98169342D02*
X116406064Y-98264580D01*
X116406064Y-98264580D02*
X116358445Y-98312200D01*
X116358445Y-98312200D02*
X116263207Y-98359819D01*
X116263207Y-98359819D02*
X115977493Y-98359819D01*
X115977493Y-98359819D02*
X115882255Y-98312200D01*
X115882255Y-98312200D02*
X115834636Y-98264580D01*
X116739398Y-97359819D02*
X117072731Y-98359819D01*
X117072731Y-98359819D02*
X117406064Y-97359819D01*
X117929874Y-97359819D02*
X118025112Y-97359819D01*
X118025112Y-97359819D02*
X118120350Y-97407438D01*
X118120350Y-97407438D02*
X118167969Y-97455057D01*
X118167969Y-97455057D02*
X118215588Y-97550295D01*
X118215588Y-97550295D02*
X118263207Y-97740771D01*
X118263207Y-97740771D02*
X118263207Y-97978866D01*
X118263207Y-97978866D02*
X118215588Y-98169342D01*
X118215588Y-98169342D02*
X118167969Y-98264580D01*
X118167969Y-98264580D02*
X118120350Y-98312200D01*
X118120350Y-98312200D02*
X118025112Y-98359819D01*
X118025112Y-98359819D02*
X117929874Y-98359819D01*
X117929874Y-98359819D02*
X117834636Y-98312200D01*
X117834636Y-98312200D02*
X117787017Y-98264580D01*
X117787017Y-98264580D02*
X117739398Y-98169342D01*
X117739398Y-98169342D02*
X117691779Y-97978866D01*
X117691779Y-97978866D02*
X117691779Y-97740771D01*
X117691779Y-97740771D02*
X117739398Y-97550295D01*
X117739398Y-97550295D02*
X117787017Y-97455057D01*
X117787017Y-97455057D02*
X117834636Y-97407438D01*
X117834636Y-97407438D02*
X117929874Y-97359819D01*
X64920112Y-75596009D02*
X65062969Y-75643628D01*
X65062969Y-75643628D02*
X65110588Y-75691247D01*
X65110588Y-75691247D02*
X65158207Y-75786485D01*
X65158207Y-75786485D02*
X65158207Y-75929342D01*
X65158207Y-75929342D02*
X65110588Y-76024580D01*
X65110588Y-76024580D02*
X65062969Y-76072200D01*
X65062969Y-76072200D02*
X64967731Y-76119819D01*
X64967731Y-76119819D02*
X64586779Y-76119819D01*
X64586779Y-76119819D02*
X64586779Y-75119819D01*
X64586779Y-75119819D02*
X64920112Y-75119819D01*
X64920112Y-75119819D02*
X65015350Y-75167438D01*
X65015350Y-75167438D02*
X65062969Y-75215057D01*
X65062969Y-75215057D02*
X65110588Y-75310295D01*
X65110588Y-75310295D02*
X65110588Y-75405533D01*
X65110588Y-75405533D02*
X65062969Y-75500771D01*
X65062969Y-75500771D02*
X65015350Y-75548390D01*
X65015350Y-75548390D02*
X64920112Y-75596009D01*
X64920112Y-75596009D02*
X64586779Y-75596009D01*
X65586779Y-75119819D02*
X65586779Y-75929342D01*
X65586779Y-75929342D02*
X65634398Y-76024580D01*
X65634398Y-76024580D02*
X65682017Y-76072200D01*
X65682017Y-76072200D02*
X65777255Y-76119819D01*
X65777255Y-76119819D02*
X65967731Y-76119819D01*
X65967731Y-76119819D02*
X66062969Y-76072200D01*
X66062969Y-76072200D02*
X66110588Y-76024580D01*
X66110588Y-76024580D02*
X66158207Y-75929342D01*
X66158207Y-75929342D02*
X66158207Y-75119819D01*
X66539160Y-75119819D02*
X67205826Y-75119819D01*
X67205826Y-75119819D02*
X66539160Y-76119819D01*
X66539160Y-76119819D02*
X67205826Y-76119819D01*
X67491541Y-75119819D02*
X68158207Y-75119819D01*
X68158207Y-75119819D02*
X67491541Y-76119819D01*
X67491541Y-76119819D02*
X68158207Y-76119819D01*
X68539160Y-75596009D02*
X68872493Y-75596009D01*
X69015350Y-76119819D02*
X68539160Y-76119819D01*
X68539160Y-76119819D02*
X68539160Y-75119819D01*
X68539160Y-75119819D02*
X69015350Y-75119819D01*
X70015350Y-76119819D02*
X69682017Y-75643628D01*
X69443922Y-76119819D02*
X69443922Y-75119819D01*
X69443922Y-75119819D02*
X69824874Y-75119819D01*
X69824874Y-75119819D02*
X69920112Y-75167438D01*
X69920112Y-75167438D02*
X69967731Y-75215057D01*
X69967731Y-75215057D02*
X70015350Y-75310295D01*
X70015350Y-75310295D02*
X70015350Y-75453152D01*
X70015350Y-75453152D02*
X69967731Y-75548390D01*
X69967731Y-75548390D02*
X69920112Y-75596009D01*
X69920112Y-75596009D02*
X69824874Y-75643628D01*
X69824874Y-75643628D02*
X69443922Y-75643628D01*
X127867438Y-105764411D02*
X127819819Y-105859649D01*
X127819819Y-105859649D02*
X127819819Y-106002506D01*
X127819819Y-106002506D02*
X127867438Y-106145363D01*
X127867438Y-106145363D02*
X127962676Y-106240601D01*
X127962676Y-106240601D02*
X128057914Y-106288220D01*
X128057914Y-106288220D02*
X128248390Y-106335839D01*
X128248390Y-106335839D02*
X128391247Y-106335839D01*
X128391247Y-106335839D02*
X128581723Y-106288220D01*
X128581723Y-106288220D02*
X128676961Y-106240601D01*
X128676961Y-106240601D02*
X128772200Y-106145363D01*
X128772200Y-106145363D02*
X128819819Y-106002506D01*
X128819819Y-106002506D02*
X128819819Y-105907268D01*
X128819819Y-105907268D02*
X128772200Y-105764411D01*
X128772200Y-105764411D02*
X128724580Y-105716792D01*
X128724580Y-105716792D02*
X128391247Y-105716792D01*
X128391247Y-105716792D02*
X128391247Y-105907268D01*
X128819819Y-105288220D02*
X127819819Y-105288220D01*
X127819819Y-105288220D02*
X128819819Y-104716792D01*
X128819819Y-104716792D02*
X127819819Y-104716792D01*
X128819819Y-104240601D02*
X127819819Y-104240601D01*
X127819819Y-104240601D02*
X127819819Y-104002506D01*
X127819819Y-104002506D02*
X127867438Y-103859649D01*
X127867438Y-103859649D02*
X127962676Y-103764411D01*
X127962676Y-103764411D02*
X128057914Y-103716792D01*
X128057914Y-103716792D02*
X128248390Y-103669173D01*
X128248390Y-103669173D02*
X128391247Y-103669173D01*
X128391247Y-103669173D02*
X128581723Y-103716792D01*
X128581723Y-103716792D02*
X128676961Y-103764411D01*
X128676961Y-103764411D02*
X128772200Y-103859649D01*
X128772200Y-103859649D02*
X128819819Y-104002506D01*
X128819819Y-104002506D02*
X128819819Y-104240601D01*
D10*
X120139510Y-114304400D02*
X121282368Y-114304400D01*
X120710939Y-114875828D02*
X120710939Y-113732971D01*
D13*
X59228571Y-94684615D02*
X59228571Y-95494138D01*
X59228571Y-95494138D02*
X59276190Y-95589376D01*
X59276190Y-95589376D02*
X59323809Y-95636996D01*
X59323809Y-95636996D02*
X59419047Y-95684615D01*
X59419047Y-95684615D02*
X59609523Y-95684615D01*
X59609523Y-95684615D02*
X59704761Y-95636996D01*
X59704761Y-95636996D02*
X59752380Y-95589376D01*
X59752380Y-95589376D02*
X59799999Y-95494138D01*
X59799999Y-95494138D02*
X59799999Y-94684615D01*
X60228571Y-95636996D02*
X60371428Y-95684615D01*
X60371428Y-95684615D02*
X60609523Y-95684615D01*
X60609523Y-95684615D02*
X60704761Y-95636996D01*
X60704761Y-95636996D02*
X60752380Y-95589376D01*
X60752380Y-95589376D02*
X60799999Y-95494138D01*
X60799999Y-95494138D02*
X60799999Y-95398900D01*
X60799999Y-95398900D02*
X60752380Y-95303662D01*
X60752380Y-95303662D02*
X60704761Y-95256043D01*
X60704761Y-95256043D02*
X60609523Y-95208424D01*
X60609523Y-95208424D02*
X60419047Y-95160805D01*
X60419047Y-95160805D02*
X60323809Y-95113186D01*
X60323809Y-95113186D02*
X60276190Y-95065567D01*
X60276190Y-95065567D02*
X60228571Y-94970329D01*
X60228571Y-94970329D02*
X60228571Y-94875091D01*
X60228571Y-94875091D02*
X60276190Y-94779853D01*
X60276190Y-94779853D02*
X60323809Y-94732234D01*
X60323809Y-94732234D02*
X60419047Y-94684615D01*
X60419047Y-94684615D02*
X60657142Y-94684615D01*
X60657142Y-94684615D02*
X60799999Y-94732234D01*
X61228571Y-95160805D02*
X61561904Y-95160805D01*
X61704761Y-95684615D02*
X61228571Y-95684615D01*
X61228571Y-95684615D02*
X61228571Y-94684615D01*
X61228571Y-94684615D02*
X61704761Y-94684615D01*
X63085714Y-94684615D02*
X63276190Y-94684615D01*
X63276190Y-94684615D02*
X63371428Y-94732234D01*
X63371428Y-94732234D02*
X63466666Y-94827472D01*
X63466666Y-94827472D02*
X63514285Y-95017948D01*
X63514285Y-95017948D02*
X63514285Y-95351281D01*
X63514285Y-95351281D02*
X63466666Y-95541757D01*
X63466666Y-95541757D02*
X63371428Y-95636996D01*
X63371428Y-95636996D02*
X63276190Y-95684615D01*
X63276190Y-95684615D02*
X63085714Y-95684615D01*
X63085714Y-95684615D02*
X62990476Y-95636996D01*
X62990476Y-95636996D02*
X62895238Y-95541757D01*
X62895238Y-95541757D02*
X62847619Y-95351281D01*
X62847619Y-95351281D02*
X62847619Y-95017948D01*
X62847619Y-95017948D02*
X62895238Y-94827472D01*
X62895238Y-94827472D02*
X62990476Y-94732234D01*
X62990476Y-94732234D02*
X63085714Y-94684615D01*
X63942857Y-95684615D02*
X63942857Y-94684615D01*
X63942857Y-94684615D02*
X64514285Y-95684615D01*
X64514285Y-95684615D02*
X64514285Y-94684615D01*
X65466666Y-95684615D02*
X64990476Y-95684615D01*
X64990476Y-95684615D02*
X64990476Y-94684615D01*
X65990476Y-95208424D02*
X65990476Y-95684615D01*
X65657143Y-94684615D02*
X65990476Y-95208424D01*
X65990476Y-95208424D02*
X66323809Y-94684615D01*
X67323810Y-94684615D02*
X67561905Y-95684615D01*
X67561905Y-95684615D02*
X67752381Y-94970329D01*
X67752381Y-94970329D02*
X67942857Y-95684615D01*
X67942857Y-95684615D02*
X68180953Y-94684615D01*
X68561905Y-95684615D02*
X68561905Y-94684615D01*
X68895238Y-94684615D02*
X69466666Y-94684615D01*
X69180952Y-95684615D02*
X69180952Y-94684615D01*
X69800000Y-95684615D02*
X69800000Y-94684615D01*
X69800000Y-95160805D02*
X70371428Y-95160805D01*
X70371428Y-95684615D02*
X70371428Y-94684615D01*
X61561905Y-97008844D02*
X62038095Y-97008844D01*
X61466667Y-97294559D02*
X61800000Y-96294559D01*
X61800000Y-96294559D02*
X62133333Y-97294559D01*
X62466667Y-97294559D02*
X62466667Y-96294559D01*
X62466667Y-96294559D02*
X62704762Y-96294559D01*
X62704762Y-96294559D02*
X62847619Y-96342178D01*
X62847619Y-96342178D02*
X62942857Y-96437416D01*
X62942857Y-96437416D02*
X62990476Y-96532654D01*
X62990476Y-96532654D02*
X63038095Y-96723130D01*
X63038095Y-96723130D02*
X63038095Y-96865987D01*
X63038095Y-96865987D02*
X62990476Y-97056463D01*
X62990476Y-97056463D02*
X62942857Y-97151701D01*
X62942857Y-97151701D02*
X62847619Y-97246940D01*
X62847619Y-97246940D02*
X62704762Y-97294559D01*
X62704762Y-97294559D02*
X62466667Y-97294559D01*
X63419048Y-97008844D02*
X63895238Y-97008844D01*
X63323810Y-97294559D02*
X63657143Y-96294559D01*
X63657143Y-96294559D02*
X63990476Y-97294559D01*
X64323810Y-97294559D02*
X64323810Y-96294559D01*
X64323810Y-96294559D02*
X64704762Y-96294559D01*
X64704762Y-96294559D02*
X64800000Y-96342178D01*
X64800000Y-96342178D02*
X64847619Y-96389797D01*
X64847619Y-96389797D02*
X64895238Y-96485035D01*
X64895238Y-96485035D02*
X64895238Y-96627892D01*
X64895238Y-96627892D02*
X64847619Y-96723130D01*
X64847619Y-96723130D02*
X64800000Y-96770749D01*
X64800000Y-96770749D02*
X64704762Y-96818368D01*
X64704762Y-96818368D02*
X64323810Y-96818368D01*
X65180953Y-96294559D02*
X65752381Y-96294559D01*
X65466667Y-97294559D02*
X65466667Y-96294559D01*
X66085715Y-96770749D02*
X66419048Y-96770749D01*
X66561905Y-97294559D02*
X66085715Y-97294559D01*
X66085715Y-97294559D02*
X66085715Y-96294559D01*
X66085715Y-96294559D02*
X66561905Y-96294559D01*
X67561905Y-97294559D02*
X67228572Y-96818368D01*
X66990477Y-97294559D02*
X66990477Y-96294559D01*
X66990477Y-96294559D02*
X67371429Y-96294559D01*
X67371429Y-96294559D02*
X67466667Y-96342178D01*
X67466667Y-96342178D02*
X67514286Y-96389797D01*
X67514286Y-96389797D02*
X67561905Y-96485035D01*
X67561905Y-96485035D02*
X67561905Y-96627892D01*
X67561905Y-96627892D02*
X67514286Y-96723130D01*
X67514286Y-96723130D02*
X67466667Y-96770749D01*
X67466667Y-96770749D02*
X67371429Y-96818368D01*
X67371429Y-96818368D02*
X66990477Y-96818368D01*
X67990477Y-97199320D02*
X68038096Y-97246940D01*
X68038096Y-97246940D02*
X67990477Y-97294559D01*
X67990477Y-97294559D02*
X67942858Y-97246940D01*
X67942858Y-97246940D02*
X67990477Y-97199320D01*
X67990477Y-97199320D02*
X67990477Y-97294559D01*
X67990477Y-96913606D02*
X67942858Y-96342178D01*
X67942858Y-96342178D02*
X67990477Y-96294559D01*
X67990477Y-96294559D02*
X68038096Y-96342178D01*
X68038096Y-96342178D02*
X67990477Y-96913606D01*
X67990477Y-96913606D02*
X67990477Y-96294559D01*
D12*
X107320112Y-61921009D02*
X107462969Y-61968628D01*
X107462969Y-61968628D02*
X107510588Y-62016247D01*
X107510588Y-62016247D02*
X107558207Y-62111485D01*
X107558207Y-62111485D02*
X107558207Y-62254342D01*
X107558207Y-62254342D02*
X107510588Y-62349580D01*
X107510588Y-62349580D02*
X107462969Y-62397200D01*
X107462969Y-62397200D02*
X107367731Y-62444819D01*
X107367731Y-62444819D02*
X106986779Y-62444819D01*
X106986779Y-62444819D02*
X106986779Y-61444819D01*
X106986779Y-61444819D02*
X107320112Y-61444819D01*
X107320112Y-61444819D02*
X107415350Y-61492438D01*
X107415350Y-61492438D02*
X107462969Y-61540057D01*
X107462969Y-61540057D02*
X107510588Y-61635295D01*
X107510588Y-61635295D02*
X107510588Y-61730533D01*
X107510588Y-61730533D02*
X107462969Y-61825771D01*
X107462969Y-61825771D02*
X107415350Y-61873390D01*
X107415350Y-61873390D02*
X107320112Y-61921009D01*
X107320112Y-61921009D02*
X106986779Y-61921009D01*
X107939160Y-62159104D02*
X108415350Y-62159104D01*
X107843922Y-62444819D02*
X108177255Y-61444819D01*
X108177255Y-61444819D02*
X108510588Y-62444819D01*
X108701065Y-61444819D02*
X109272493Y-61444819D01*
X108986779Y-62444819D02*
X108986779Y-61444819D01*
X109462970Y-61444819D02*
X110034398Y-61444819D01*
X109748684Y-62444819D02*
X109748684Y-61444819D01*
X110367732Y-61921009D02*
X110701065Y-61921009D01*
X110843922Y-62444819D02*
X110367732Y-62444819D01*
X110367732Y-62444819D02*
X110367732Y-61444819D01*
X110367732Y-61444819D02*
X110843922Y-61444819D01*
X111843922Y-62444819D02*
X111510589Y-61968628D01*
X111272494Y-62444819D02*
X111272494Y-61444819D01*
X111272494Y-61444819D02*
X111653446Y-61444819D01*
X111653446Y-61444819D02*
X111748684Y-61492438D01*
X111748684Y-61492438D02*
X111796303Y-61540057D01*
X111796303Y-61540057D02*
X111843922Y-61635295D01*
X111843922Y-61635295D02*
X111843922Y-61778152D01*
X111843922Y-61778152D02*
X111796303Y-61873390D01*
X111796303Y-61873390D02*
X111748684Y-61921009D01*
X111748684Y-61921009D02*
X111653446Y-61968628D01*
X111653446Y-61968628D02*
X111272494Y-61968628D01*
X112462970Y-61968628D02*
X112462970Y-62444819D01*
X112129637Y-61444819D02*
X112462970Y-61968628D01*
X112462970Y-61968628D02*
X112796303Y-61444819D01*
X114082018Y-61444819D02*
X114272494Y-61444819D01*
X114272494Y-61444819D02*
X114367732Y-61492438D01*
X114367732Y-61492438D02*
X114462970Y-61587676D01*
X114462970Y-61587676D02*
X114510589Y-61778152D01*
X114510589Y-61778152D02*
X114510589Y-62111485D01*
X114510589Y-62111485D02*
X114462970Y-62301961D01*
X114462970Y-62301961D02*
X114367732Y-62397200D01*
X114367732Y-62397200D02*
X114272494Y-62444819D01*
X114272494Y-62444819D02*
X114082018Y-62444819D01*
X114082018Y-62444819D02*
X113986780Y-62397200D01*
X113986780Y-62397200D02*
X113891542Y-62301961D01*
X113891542Y-62301961D02*
X113843923Y-62111485D01*
X113843923Y-62111485D02*
X113843923Y-61778152D01*
X113843923Y-61778152D02*
X113891542Y-61587676D01*
X113891542Y-61587676D02*
X113986780Y-61492438D01*
X113986780Y-61492438D02*
X114082018Y-61444819D01*
X114939161Y-62444819D02*
X114939161Y-61444819D01*
X114939161Y-61444819D02*
X115510589Y-62444819D01*
X115510589Y-62444819D02*
X115510589Y-61444819D01*
X115263207Y-108424580D02*
X115215588Y-108472200D01*
X115215588Y-108472200D02*
X115072731Y-108519819D01*
X115072731Y-108519819D02*
X114977493Y-108519819D01*
X114977493Y-108519819D02*
X114834636Y-108472200D01*
X114834636Y-108472200D02*
X114739398Y-108376961D01*
X114739398Y-108376961D02*
X114691779Y-108281723D01*
X114691779Y-108281723D02*
X114644160Y-108091247D01*
X114644160Y-108091247D02*
X114644160Y-107948390D01*
X114644160Y-107948390D02*
X114691779Y-107757914D01*
X114691779Y-107757914D02*
X114739398Y-107662676D01*
X114739398Y-107662676D02*
X114834636Y-107567438D01*
X114834636Y-107567438D02*
X114977493Y-107519819D01*
X114977493Y-107519819D02*
X115072731Y-107519819D01*
X115072731Y-107519819D02*
X115215588Y-107567438D01*
X115215588Y-107567438D02*
X115263207Y-107615057D01*
X115691779Y-108519819D02*
X115691779Y-107519819D01*
X115691779Y-107519819D02*
X116072731Y-107519819D01*
X116072731Y-107519819D02*
X116167969Y-107567438D01*
X116167969Y-107567438D02*
X116215588Y-107615057D01*
X116215588Y-107615057D02*
X116263207Y-107710295D01*
X116263207Y-107710295D02*
X116263207Y-107853152D01*
X116263207Y-107853152D02*
X116215588Y-107948390D01*
X116215588Y-107948390D02*
X116167969Y-107996009D01*
X116167969Y-107996009D02*
X116072731Y-108043628D01*
X116072731Y-108043628D02*
X115691779Y-108043628D01*
X116644160Y-107615057D02*
X116691779Y-107567438D01*
X116691779Y-107567438D02*
X116787017Y-107519819D01*
X116787017Y-107519819D02*
X117025112Y-107519819D01*
X117025112Y-107519819D02*
X117120350Y-107567438D01*
X117120350Y-107567438D02*
X117167969Y-107615057D01*
X117167969Y-107615057D02*
X117215588Y-107710295D01*
X117215588Y-107710295D02*
X117215588Y-107805533D01*
X117215588Y-107805533D02*
X117167969Y-107948390D01*
X117167969Y-107948390D02*
X116596541Y-108519819D01*
X116596541Y-108519819D02*
X117215588Y-108519819D01*
X118167969Y-108519819D02*
X117596541Y-108519819D01*
X117882255Y-108519819D02*
X117882255Y-107519819D01*
X117882255Y-107519819D02*
X117787017Y-107662676D01*
X117787017Y-107662676D02*
X117691779Y-107757914D01*
X117691779Y-107757914D02*
X117596541Y-107805533D01*
X118787017Y-107519819D02*
X118882255Y-107519819D01*
X118882255Y-107519819D02*
X118977493Y-107567438D01*
X118977493Y-107567438D02*
X119025112Y-107615057D01*
X119025112Y-107615057D02*
X119072731Y-107710295D01*
X119072731Y-107710295D02*
X119120350Y-107900771D01*
X119120350Y-107900771D02*
X119120350Y-108138866D01*
X119120350Y-108138866D02*
X119072731Y-108329342D01*
X119072731Y-108329342D02*
X119025112Y-108424580D01*
X119025112Y-108424580D02*
X118977493Y-108472200D01*
X118977493Y-108472200D02*
X118882255Y-108519819D01*
X118882255Y-108519819D02*
X118787017Y-108519819D01*
X118787017Y-108519819D02*
X118691779Y-108472200D01*
X118691779Y-108472200D02*
X118644160Y-108424580D01*
X118644160Y-108424580D02*
X118596541Y-108329342D01*
X118596541Y-108329342D02*
X118548922Y-108138866D01*
X118548922Y-108138866D02*
X118548922Y-107900771D01*
X118548922Y-107900771D02*
X118596541Y-107710295D01*
X118596541Y-107710295D02*
X118644160Y-107615057D01*
X118644160Y-107615057D02*
X118691779Y-107567438D01*
X118691779Y-107567438D02*
X118787017Y-107519819D01*
X119501303Y-107615057D02*
X119548922Y-107567438D01*
X119548922Y-107567438D02*
X119644160Y-107519819D01*
X119644160Y-107519819D02*
X119882255Y-107519819D01*
X119882255Y-107519819D02*
X119977493Y-107567438D01*
X119977493Y-107567438D02*
X120025112Y-107615057D01*
X120025112Y-107615057D02*
X120072731Y-107710295D01*
X120072731Y-107710295D02*
X120072731Y-107805533D01*
X120072731Y-107805533D02*
X120025112Y-107948390D01*
X120025112Y-107948390D02*
X119453684Y-108519819D01*
X119453684Y-108519819D02*
X120072731Y-108519819D01*
D10*
X120139510Y-124464400D02*
X121282368Y-124464400D01*
X120710939Y-125035828D02*
X120710939Y-123892971D01*
D12*
X114691779Y-88199819D02*
X114691779Y-87199819D01*
X114691779Y-87199819D02*
X115263207Y-88199819D01*
X115263207Y-88199819D02*
X115263207Y-87199819D01*
X116310826Y-88199819D02*
X115977493Y-87723628D01*
X115739398Y-88199819D02*
X115739398Y-87199819D01*
X115739398Y-87199819D02*
X116120350Y-87199819D01*
X116120350Y-87199819D02*
X116215588Y-87247438D01*
X116215588Y-87247438D02*
X116263207Y-87295057D01*
X116263207Y-87295057D02*
X116310826Y-87390295D01*
X116310826Y-87390295D02*
X116310826Y-87533152D01*
X116310826Y-87533152D02*
X116263207Y-87628390D01*
X116263207Y-87628390D02*
X116215588Y-87676009D01*
X116215588Y-87676009D02*
X116120350Y-87723628D01*
X116120350Y-87723628D02*
X115739398Y-87723628D01*
X117072731Y-87676009D02*
X116739398Y-87676009D01*
X116739398Y-88199819D02*
X116739398Y-87199819D01*
X116739398Y-87199819D02*
X117215588Y-87199819D01*
X118072731Y-87199819D02*
X117596541Y-87199819D01*
X117596541Y-87199819D02*
X117548922Y-87676009D01*
X117548922Y-87676009D02*
X117596541Y-87628390D01*
X117596541Y-87628390D02*
X117691779Y-87580771D01*
X117691779Y-87580771D02*
X117929874Y-87580771D01*
X117929874Y-87580771D02*
X118025112Y-87628390D01*
X118025112Y-87628390D02*
X118072731Y-87676009D01*
X118072731Y-87676009D02*
X118120350Y-87771247D01*
X118120350Y-87771247D02*
X118120350Y-88009342D01*
X118120350Y-88009342D02*
X118072731Y-88104580D01*
X118072731Y-88104580D02*
X118025112Y-88152200D01*
X118025112Y-88152200D02*
X117929874Y-88199819D01*
X117929874Y-88199819D02*
X117691779Y-88199819D01*
X117691779Y-88199819D02*
X117596541Y-88152200D01*
X117596541Y-88152200D02*
X117548922Y-88104580D01*
X118501303Y-87295057D02*
X118548922Y-87247438D01*
X118548922Y-87247438D02*
X118644160Y-87199819D01*
X118644160Y-87199819D02*
X118882255Y-87199819D01*
X118882255Y-87199819D02*
X118977493Y-87247438D01*
X118977493Y-87247438D02*
X119025112Y-87295057D01*
X119025112Y-87295057D02*
X119072731Y-87390295D01*
X119072731Y-87390295D02*
X119072731Y-87485533D01*
X119072731Y-87485533D02*
X119025112Y-87628390D01*
X119025112Y-87628390D02*
X118453684Y-88199819D01*
X118453684Y-88199819D02*
X119072731Y-88199819D01*
D10*
X62350489Y-78365600D02*
X61207632Y-78365600D01*
X61779060Y-77794171D02*
X61779060Y-78937028D01*
X120139510Y-99064400D02*
X121282368Y-99064400D01*
X120710939Y-99635828D02*
X120710939Y-98492971D01*
X63915489Y-69055600D02*
X62772632Y-69055600D01*
X63344060Y-68484171D02*
X63344060Y-69627028D01*
X120139510Y-119384400D02*
X121282368Y-119384400D01*
X120710939Y-119955828D02*
X120710939Y-118812971D01*
D12*
X123861779Y-114888866D02*
X124623684Y-114888866D01*
X124242731Y-115269819D02*
X124242731Y-114507914D01*
X125004636Y-114269819D02*
X125623683Y-114269819D01*
X125623683Y-114269819D02*
X125290350Y-114650771D01*
X125290350Y-114650771D02*
X125433207Y-114650771D01*
X125433207Y-114650771D02*
X125528445Y-114698390D01*
X125528445Y-114698390D02*
X125576064Y-114746009D01*
X125576064Y-114746009D02*
X125623683Y-114841247D01*
X125623683Y-114841247D02*
X125623683Y-115079342D01*
X125623683Y-115079342D02*
X125576064Y-115174580D01*
X125576064Y-115174580D02*
X125528445Y-115222200D01*
X125528445Y-115222200D02*
X125433207Y-115269819D01*
X125433207Y-115269819D02*
X125147493Y-115269819D01*
X125147493Y-115269819D02*
X125052255Y-115222200D01*
X125052255Y-115222200D02*
X125004636Y-115174580D01*
X125909398Y-114269819D02*
X126242731Y-115269819D01*
X126242731Y-115269819D02*
X126576064Y-114269819D01*
X127099874Y-114269819D02*
X127195112Y-114269819D01*
X127195112Y-114269819D02*
X127290350Y-114317438D01*
X127290350Y-114317438D02*
X127337969Y-114365057D01*
X127337969Y-114365057D02*
X127385588Y-114460295D01*
X127385588Y-114460295D02*
X127433207Y-114650771D01*
X127433207Y-114650771D02*
X127433207Y-114888866D01*
X127433207Y-114888866D02*
X127385588Y-115079342D01*
X127385588Y-115079342D02*
X127337969Y-115174580D01*
X127337969Y-115174580D02*
X127290350Y-115222200D01*
X127290350Y-115222200D02*
X127195112Y-115269819D01*
X127195112Y-115269819D02*
X127099874Y-115269819D01*
X127099874Y-115269819D02*
X127004636Y-115222200D01*
X127004636Y-115222200D02*
X126957017Y-115174580D01*
X126957017Y-115174580D02*
X126909398Y-115079342D01*
X126909398Y-115079342D02*
X126861779Y-114888866D01*
X126861779Y-114888866D02*
X126861779Y-114650771D01*
X126861779Y-114650771D02*
X126909398Y-114460295D01*
X126909398Y-114460295D02*
X126957017Y-114365057D01*
X126957017Y-114365057D02*
X127004636Y-114317438D01*
X127004636Y-114317438D02*
X127099874Y-114269819D01*
D10*
X120139510Y-88904400D02*
X121282368Y-88904400D01*
X120710939Y-89475828D02*
X120710939Y-88332971D01*
D11*
%TO.C,D200*%
X67480000Y-63175000D02*
X70950000Y-63175000D01*
X68250000Y-64825000D02*
X70950000Y-64825000D01*
D14*
%TO.C,R101*%
X68292742Y-88272500D02*
X68767258Y-88272500D01*
X68292742Y-89317500D02*
X68767258Y-89317500D01*
%TO.C,C26*%
X108980000Y-76372164D02*
X108980000Y-76587836D01*
X109700000Y-76372164D02*
X109700000Y-76587836D01*
D11*
%TO.C,Y2*%
X113250000Y-70875000D02*
X113250000Y-70875000D01*
X113350000Y-70875000D02*
X113250000Y-70875000D01*
X113350000Y-70875000D02*
X113350000Y-70875000D01*
X113250000Y-70875000D02*
G75*
G02*
X113350000Y-70875000I50000J0D01*
G01*
X113350000Y-70875000D02*
G75*
G02*
X113250000Y-70875000I-50000J0D01*
G01*
D14*
%TO.C,Q100*%
X68500000Y-84135000D02*
X67850000Y-84135000D01*
X68500000Y-84135000D02*
X69150000Y-84135000D01*
X68500000Y-87255000D02*
X67850000Y-87255000D01*
X68500000Y-87255000D02*
X69150000Y-87255000D01*
X67337500Y-84185000D02*
X67097500Y-83855000D01*
X67577500Y-83855000D01*
X67337500Y-84185000D01*
G36*
X67337500Y-84185000D02*
G01*
X67097500Y-83855000D01*
X67577500Y-83855000D01*
X67337500Y-84185000D01*
G37*
%TO.C,D202*%
X58175000Y-63865000D02*
X58175000Y-65335000D01*
X58175000Y-65335000D02*
X60460000Y-65335000D01*
X60460000Y-63865000D02*
X58175000Y-63865000D01*
D15*
%TO.C,U102*%
X95605000Y-67993330D02*
X95605000Y-65653330D01*
X97945000Y-65653330D02*
X95605000Y-65653330D01*
X97945000Y-67973330D02*
X97945000Y-65653330D01*
X97945000Y-67993330D02*
X95605000Y-67993330D01*
D11*
X96018340Y-68233330D02*
G75*
G02*
X95991660Y-68233330I-13340J0D01*
G01*
X95991660Y-68233330D02*
G75*
G02*
X96018340Y-68233330I13340J0D01*
G01*
D14*
%TO.C,J202*%
X124530000Y-111270000D02*
X124530000Y-101050000D01*
X127190000Y-101050000D02*
X124530000Y-101050000D01*
X127190000Y-111270000D02*
X124530000Y-111270000D01*
X127190000Y-111270000D02*
X127190000Y-101050000D01*
X127190000Y-112540000D02*
X127190000Y-113870000D01*
X127190000Y-113870000D02*
X125860000Y-113870000D01*
D11*
%TO.C,JP104*%
X114355000Y-113730000D02*
X114355000Y-116420000D01*
X114355000Y-116420000D02*
X118240000Y-116420000D01*
X119585000Y-113730000D02*
X114355000Y-113730000D01*
X119585000Y-115075000D02*
X119585000Y-113730000D01*
%TO.C,JP201*%
X114355000Y-123890000D02*
X114355000Y-126580000D01*
X114355000Y-126580000D02*
X118240000Y-126580000D01*
X119585000Y-123890000D02*
X114355000Y-123890000D01*
X119585000Y-125235000D02*
X119585000Y-123890000D01*
D14*
%TO.C,C12*%
X100140000Y-73407836D02*
X100140000Y-73192164D01*
X100860000Y-73407836D02*
X100860000Y-73192164D01*
%TO.C,C201*%
X86940000Y-70492164D02*
X86940000Y-70707836D01*
X87660000Y-70492164D02*
X87660000Y-70707836D01*
D11*
%TO.C,U101*%
X74730882Y-107063557D02*
X74731456Y-106568124D01*
X74731456Y-106568124D02*
X74762576Y-106072413D01*
X74762576Y-106072413D02*
X74793696Y-105576701D01*
X74771036Y-107558618D02*
X74730882Y-107063557D01*
X74793696Y-105576701D02*
X74824816Y-105080990D01*
X74811190Y-108053680D02*
X74771036Y-107558618D01*
X74824816Y-105080990D02*
X74855936Y-104585278D01*
X74851345Y-108548741D02*
X74811190Y-108053680D01*
X74855936Y-104585278D02*
X74917327Y-104093663D01*
X74891499Y-109043803D02*
X74851345Y-108548741D01*
X74917327Y-104093663D02*
X75019081Y-103607511D01*
X74951781Y-109535766D02*
X74891499Y-109043803D01*
X75019081Y-103607511D02*
X75120834Y-103121358D01*
X75062382Y-110019982D02*
X74951781Y-109535766D01*
X75120834Y-103121358D02*
X75222587Y-102635205D01*
X75172984Y-110504199D02*
X75062382Y-110019982D01*
X75222587Y-102635205D02*
X75324341Y-102149052D01*
X75283585Y-110988415D02*
X75172984Y-110504199D01*
X75324341Y-102149052D02*
X75445676Y-101668491D01*
X75394187Y-111472632D02*
X75283585Y-110988415D01*
X75445676Y-101668491D02*
X75615968Y-101201909D01*
X75514527Y-111953874D02*
X75394187Y-111472632D01*
X75615968Y-101201909D02*
X75786259Y-100735326D01*
X75693298Y-112417274D02*
X75514527Y-111953874D01*
X75786259Y-100735326D02*
X75956550Y-100268744D01*
X75872069Y-112880673D02*
X75693298Y-112417274D01*
X75956550Y-100268744D02*
X76126841Y-99802161D01*
X76050840Y-113344073D02*
X75872069Y-112880673D01*
X76126841Y-99802161D02*
X76306423Y-99339747D01*
X76229611Y-113807473D02*
X76050840Y-113344073D01*
X76306423Y-99339747D02*
X76541745Y-98902344D01*
X76408382Y-114270872D02*
X76229611Y-113807473D01*
X76541745Y-98902344D02*
X76777067Y-98464940D01*
X76612789Y-114708597D02*
X76408382Y-114270872D01*
X76777067Y-98464940D02*
X77012389Y-98027537D01*
X76821286Y-115144300D02*
X76612789Y-114708597D01*
X77012389Y-98027537D02*
X77247711Y-97590134D01*
X77044782Y-115572593D02*
X76821286Y-115144300D01*
X77247711Y-97590134D02*
X77483034Y-97152730D01*
X77276274Y-115996486D02*
X77044782Y-115572593D01*
X77483034Y-97152730D02*
X77778540Y-96753514D01*
X77518427Y-116414513D02*
X77276274Y-115996486D01*
X77772270Y-116825420D02*
X77518427Y-116414513D01*
X77778540Y-96753514D02*
X78074047Y-96354297D01*
X78032608Y-117232371D02*
X77772270Y-116825420D01*
X78074047Y-96354297D02*
X78369554Y-95955080D01*
X78308099Y-117629150D02*
X78032608Y-117232371D01*
X78369554Y-95955080D02*
X78665061Y-95555864D01*
X78587341Y-118023332D02*
X78308099Y-117629150D01*
X78665061Y-95555864D02*
X78960568Y-95156647D01*
X78882498Y-118405781D02*
X78587341Y-118023332D01*
X78960568Y-95156647D02*
X79302446Y-94797209D01*
X79182389Y-118784407D02*
X78882498Y-118405781D01*
X79302446Y-94797209D02*
X79652052Y-94444400D01*
X79494112Y-119153478D02*
X79182389Y-118784407D01*
X79652052Y-94444400D02*
X80001658Y-94091592D01*
X79813816Y-119515502D02*
X79494112Y-119153478D01*
X80001658Y-94091592D02*
X80351264Y-93738783D01*
X80141500Y-119870478D02*
X79813816Y-119515502D01*
X80351264Y-93738783D02*
X80700870Y-93385975D01*
X80480129Y-120214894D02*
X80141500Y-119870478D01*
X80700870Y-93385975D02*
X81083976Y-93071505D01*
X80823137Y-120555086D02*
X80480129Y-120214894D01*
X81083976Y-93071505D02*
X81480482Y-92772370D01*
X81179756Y-120880936D02*
X80823137Y-120555086D01*
X81480482Y-92772370D02*
X81876987Y-92473235D01*
X81539416Y-121203386D02*
X81179756Y-120880936D01*
X81876987Y-92473235D02*
X82273493Y-92174101D01*
X81911044Y-121512056D02*
X81539416Y-121203386D01*
X82273493Y-92174101D02*
X82669999Y-91874966D01*
X82287402Y-121814770D02*
X81911044Y-121512056D01*
X82669999Y-91874966D02*
X83088638Y-91610022D01*
X82672271Y-122106765D02*
X82287402Y-121814770D01*
X83064279Y-122388906D02*
X82672271Y-122106765D01*
X83088638Y-91610022D02*
X83523878Y-91370722D01*
X83461641Y-122663657D02*
X83064279Y-122388906D01*
X83523878Y-91370722D02*
X83959117Y-91131421D01*
X83868213Y-122924440D02*
X83461641Y-122663657D01*
X83959117Y-91131421D02*
X84394357Y-90892120D01*
X84277296Y-123181415D02*
X83868213Y-122924440D01*
X84394357Y-90892120D02*
X84829596Y-90652820D01*
X84525866Y-123450000D02*
X84277296Y-123181415D01*
X84829596Y-90652820D02*
X85277595Y-90441274D01*
X85277595Y-90441274D02*
X85742605Y-90266736D01*
X85742605Y-90266736D02*
X86207615Y-90092197D01*
X86005236Y-126989122D02*
X84525866Y-123450000D01*
X86207615Y-90092197D02*
X86672626Y-89917659D01*
X86672626Y-89917659D02*
X87137636Y-89743121D01*
X87137636Y-89743121D02*
X87608416Y-89588113D01*
X87608416Y-89588113D02*
X88093621Y-89481931D01*
X88093621Y-89481931D02*
X88578826Y-89375749D01*
X88578826Y-89375749D02*
X89064031Y-89269567D01*
X89064031Y-89269567D02*
X89549235Y-89163385D01*
X89549235Y-89163385D02*
X90035898Y-89067281D01*
X90035898Y-89067281D02*
X90531305Y-89031642D01*
X90531305Y-89031642D02*
X91026712Y-88996004D01*
X91026712Y-88996004D02*
X91522119Y-88960365D01*
X91522119Y-88960365D02*
X92017526Y-88924727D01*
X92017526Y-88924727D02*
X92512933Y-88889088D01*
X92512933Y-88889088D02*
X93008340Y-88924727D01*
X93008340Y-88924727D02*
X93503747Y-88960365D01*
X93503747Y-88960365D02*
X93999154Y-88996004D01*
X93999154Y-88996004D02*
X94494561Y-89031642D01*
X94494561Y-89031642D02*
X94989968Y-89067281D01*
X94989968Y-89067281D02*
X95476631Y-89163385D01*
X95476631Y-89163385D02*
X95961835Y-89269567D01*
X95961835Y-89269567D02*
X96447040Y-89375749D01*
X96447040Y-89375749D02*
X96932245Y-89481931D01*
X96932245Y-89481931D02*
X97417450Y-89588113D01*
X97417450Y-89588113D02*
X97888230Y-89743121D01*
X97888230Y-89743121D02*
X98353240Y-89917659D01*
X98353240Y-89917659D02*
X98818251Y-90092197D01*
X98818251Y-90092197D02*
X99283261Y-90266736D01*
X99020643Y-126989122D02*
X86005236Y-126989122D01*
X99283261Y-90266736D02*
X99748271Y-90441274D01*
X99748271Y-90441274D02*
X100196270Y-90652820D01*
X100196270Y-90652820D02*
X100631509Y-90892120D01*
X100500033Y-123449951D02*
X99020643Y-126989122D01*
X100631509Y-90892120D02*
X101066749Y-91131421D01*
X100748570Y-123181415D02*
X100500033Y-123449951D01*
X101066749Y-91131421D02*
X101501988Y-91370722D01*
X101157653Y-122924440D02*
X100748570Y-123181415D01*
X101501988Y-91370722D02*
X101937228Y-91610022D01*
X101564225Y-122663657D02*
X101157653Y-122924440D01*
X101937228Y-91610022D02*
X102355867Y-91874966D01*
X101961587Y-122388906D02*
X101564225Y-122663657D01*
X102353595Y-122106765D02*
X101961587Y-122388906D01*
X102355867Y-91874966D02*
X102752373Y-92174101D01*
X102738464Y-121814770D02*
X102353595Y-122106765D01*
X102752373Y-92174101D02*
X103148879Y-92473235D01*
X103114822Y-121512056D02*
X102738464Y-121814770D01*
X103148879Y-92473235D02*
X103545384Y-92772370D01*
X103486450Y-121203386D02*
X103114822Y-121512056D01*
X103545384Y-92772370D02*
X103941890Y-93071505D01*
X103846110Y-120880936D02*
X103486450Y-121203386D01*
X103941890Y-93071505D02*
X104324996Y-93385975D01*
X104202729Y-120555086D02*
X103846110Y-120880936D01*
X104324996Y-93385975D02*
X104674602Y-93738783D01*
X104545737Y-120214894D02*
X104202729Y-120555086D01*
X104674602Y-93738783D02*
X105024208Y-94091592D01*
X104884366Y-119870478D02*
X104545737Y-120214894D01*
X105024208Y-94091592D02*
X105373814Y-94444400D01*
X105212050Y-119515502D02*
X104884366Y-119870478D01*
X105373814Y-94444400D02*
X105723420Y-94797209D01*
X105531754Y-119153478D02*
X105212050Y-119515502D01*
X105723420Y-94797209D02*
X106065298Y-95156647D01*
X105843477Y-118784407D02*
X105531754Y-119153478D01*
X106065298Y-95156647D02*
X106360805Y-95555864D01*
X106143368Y-118405781D02*
X105843477Y-118784407D01*
X106360805Y-95555864D02*
X106656312Y-95955080D01*
X106438525Y-118023332D02*
X106143368Y-118405781D01*
X106656312Y-95955080D02*
X106951819Y-96354297D01*
X106717767Y-117629150D02*
X106438525Y-118023332D01*
X106951819Y-96354297D02*
X107247326Y-96753514D01*
X106993258Y-117232371D02*
X106717767Y-117629150D01*
X107247326Y-96753514D02*
X107542832Y-97152730D01*
X107253596Y-116825420D02*
X106993258Y-117232371D01*
X107507439Y-116414513D02*
X107253596Y-116825420D01*
X107542832Y-97152730D02*
X107778155Y-97590134D01*
X107749592Y-115996486D02*
X107507439Y-116414513D01*
X107778155Y-97590134D02*
X108013477Y-98027537D01*
X107981084Y-115572593D02*
X107749592Y-115996486D01*
X108013477Y-98027537D02*
X108248799Y-98464940D01*
X108204580Y-115144300D02*
X107981084Y-115572593D01*
X108248799Y-98464940D02*
X108484121Y-98902344D01*
X108413077Y-114708597D02*
X108204580Y-115144300D01*
X108484121Y-98902344D02*
X108719443Y-99339747D01*
X108617484Y-114270872D02*
X108413077Y-114708597D01*
X108719443Y-99339747D02*
X108899025Y-99802161D01*
X108796255Y-113807473D02*
X108617484Y-114270872D01*
X108899025Y-99802161D02*
X109069316Y-100268744D01*
X108975026Y-113344073D02*
X108796255Y-113807473D01*
X109069316Y-100268744D02*
X109239607Y-100735326D01*
X109153797Y-112880673D02*
X108975026Y-113344073D01*
X109239607Y-100735326D02*
X109409898Y-101201909D01*
X109332568Y-112417274D02*
X109153797Y-112880673D01*
X109409898Y-101201909D02*
X109580190Y-101668491D01*
X109511339Y-111953874D02*
X109332568Y-112417274D01*
X109580190Y-101668491D02*
X109701525Y-102149052D01*
X109631679Y-111472632D02*
X109511339Y-111953874D01*
X109701525Y-102149052D02*
X109803279Y-102635205D01*
X109742281Y-110988415D02*
X109631679Y-111472632D01*
X109803279Y-102635205D02*
X109905032Y-103121358D01*
X109852882Y-110504199D02*
X109742281Y-110988415D01*
X109905032Y-103121358D02*
X110006785Y-103607511D01*
X109963484Y-110019982D02*
X109852882Y-110504199D01*
X110006785Y-103607511D02*
X110108539Y-104093663D01*
X110074085Y-109535766D02*
X109963484Y-110019982D01*
X110108539Y-104093663D02*
X110169930Y-104585278D01*
X110134367Y-109043803D02*
X110074085Y-109535766D01*
X110169930Y-104585278D02*
X110201050Y-105080990D01*
X110174521Y-108548741D02*
X110134367Y-109043803D01*
X110201050Y-105080990D02*
X110232170Y-105576701D01*
X110214676Y-108053680D02*
X110174521Y-108548741D01*
X110232170Y-105576701D02*
X110263290Y-106072413D01*
X110254830Y-107558618D02*
X110214676Y-108053680D01*
X110263290Y-106072413D02*
X110294410Y-106568124D01*
X110294410Y-106568124D02*
X110294984Y-107063557D01*
X110294984Y-107063557D02*
X110254830Y-107558618D01*
D14*
%TO.C,C205*%
X92207836Y-72840000D02*
X91992164Y-72840000D01*
X92207836Y-73560000D02*
X91992164Y-73560000D01*
%TO.C,C103*%
X96857836Y-64540000D02*
X96642164Y-64540000D01*
X96857836Y-65260000D02*
X96642164Y-65260000D01*
%TO.C,R203*%
X64720000Y-56846359D02*
X64720000Y-57153641D01*
X65480000Y-56846359D02*
X65480000Y-57153641D01*
%TO.C,C30*%
X123830000Y-76372164D02*
X123830000Y-76587836D01*
X124550000Y-76372164D02*
X124550000Y-76587836D01*
%TO.C,R201*%
X109046359Y-67220000D02*
X109353641Y-67220000D01*
X109046359Y-67980000D02*
X109353641Y-67980000D01*
%TO.C,L1*%
X101590000Y-69662779D02*
X101590000Y-69337221D01*
X102610000Y-69662779D02*
X102610000Y-69337221D01*
D16*
%TO.C,IC200*%
X102200000Y-61900000D02*
G75*
G02*
X101950000Y-61900000I-125000J0D01*
G01*
X101950000Y-61900000D02*
G75*
G02*
X102200000Y-61900000I125000J0D01*
G01*
%TO.C,U100*%
X89375000Y-81970000D02*
G75*
G02*
X89125000Y-81970000I-125000J0D01*
G01*
X89125000Y-81970000D02*
G75*
G02*
X89375000Y-81970000I125000J0D01*
G01*
D14*
%TO.C,C8*%
X98507836Y-74040000D02*
X98292164Y-74040000D01*
X98507836Y-74760000D02*
X98292164Y-74760000D01*
D11*
%TO.C,U1*%
X101725000Y-73400000D02*
G75*
G02*
X101525000Y-73400000I-100000J0D01*
G01*
X101525000Y-73400000D02*
G75*
G02*
X101725000Y-73400000I100000J0D01*
G01*
D14*
%TO.C,R14*%
X78946359Y-73520000D02*
X79253641Y-73520000D01*
X78946359Y-74280000D02*
X79253641Y-74280000D01*
%TO.C,R204*%
X109353641Y-68420000D02*
X109046359Y-68420000D01*
X109353641Y-69180000D02*
X109046359Y-69180000D01*
D11*
%TO.C,D100*%
X69120000Y-90395000D02*
X67920000Y-90395000D01*
X69590000Y-91195000D02*
X67920000Y-91195000D01*
D14*
%TO.C,R102*%
X68663641Y-81315000D02*
X68356359Y-81315000D01*
X68663641Y-82075000D02*
X68356359Y-82075000D01*
D15*
%TO.C,J200*%
X69280000Y-52573000D02*
X69280000Y-52573000D01*
X69280000Y-52573000D02*
X69280000Y-52573000D01*
X69280000Y-52573000D02*
X69280000Y-54000000D01*
X69280000Y-52573000D02*
X78220000Y-52573000D01*
X69280000Y-54000000D02*
X69280000Y-52573000D01*
X69280000Y-54000000D02*
X69280000Y-54000000D01*
X69280000Y-57000000D02*
X69280000Y-57000000D01*
X69280000Y-57000000D02*
X69280000Y-58000000D01*
X69280000Y-58000000D02*
X69280000Y-57000000D01*
X69280000Y-58000000D02*
X69280000Y-58000000D01*
D11*
X77050000Y-60950000D02*
X77050000Y-60950000D01*
X77150000Y-60950000D02*
X77150000Y-60950000D01*
X77150000Y-60950000D02*
X77150000Y-60950000D01*
D15*
X78220000Y-52573000D02*
X69280000Y-52573000D01*
X78220000Y-52573000D02*
X78220000Y-52573000D01*
X78220000Y-52573000D02*
X78220000Y-52573000D01*
X78220000Y-52573000D02*
X78220000Y-53750000D01*
X78220000Y-53750000D02*
X78220000Y-52573000D01*
X78220000Y-53750000D02*
X78220000Y-53750000D01*
X78220000Y-57000000D02*
X78220000Y-57750000D01*
X78220000Y-57750000D02*
X78250000Y-57750000D01*
X78250000Y-57000000D02*
X78220000Y-57000000D01*
X78250000Y-57750000D02*
X78250000Y-57000000D01*
D11*
X77050000Y-60950000D02*
G75*
G02*
X77150000Y-60950000I50000J0D01*
G01*
X77050000Y-60950000D02*
G75*
G02*
X77150000Y-60950000I50000J0D01*
G01*
X77150000Y-60950000D02*
G75*
G02*
X77050000Y-60950000I-50000J0D01*
G01*
%TO.C,JP202*%
X98385000Y-55400000D02*
X98385000Y-56745000D01*
X98385000Y-56745000D02*
X103615000Y-56745000D01*
X103615000Y-54055000D02*
X99730000Y-54055000D01*
X103615000Y-56745000D02*
X103615000Y-54055000D01*
D14*
%TO.C,C102*%
X97667164Y-68290000D02*
X97882836Y-68290000D01*
X97667164Y-69010000D02*
X97882836Y-69010000D01*
%TO.C,C6*%
X81707836Y-70940000D02*
X81492164Y-70940000D01*
X81707836Y-71660000D02*
X81492164Y-71660000D01*
D17*
%TO.C,SW200*%
X106750000Y-55000000D02*
X106750000Y-58500000D01*
X106750000Y-58500000D02*
X107550000Y-58500000D01*
X107600000Y-55000000D02*
X106750000Y-55000000D01*
X114950000Y-55000000D02*
X115750000Y-55000000D01*
X115750000Y-55000000D02*
X115750000Y-58500000D01*
X115750000Y-58500000D02*
X114950000Y-58500000D01*
D11*
X106170000Y-54950000D02*
G75*
G02*
X105930000Y-54950000I-120000J0D01*
G01*
X105930000Y-54950000D02*
G75*
G02*
X106170000Y-54950000I120000J0D01*
G01*
D14*
%TO.C,R10*%
X93520000Y-74153641D02*
X93520000Y-73846359D01*
X94280000Y-74153641D02*
X94280000Y-73846359D01*
%TO.C,C5*%
X100140000Y-79112164D02*
X100140000Y-79327836D01*
X100860000Y-79112164D02*
X100860000Y-79327836D01*
%TO.C,C27*%
X111980000Y-76372164D02*
X111980000Y-76587836D01*
X112700000Y-76372164D02*
X112700000Y-76587836D01*
%TO.C,R103*%
X68663641Y-82615000D02*
X68356359Y-82615000D01*
X68663641Y-83375000D02*
X68356359Y-83375000D01*
%TO.C,R207*%
X89053641Y-64820000D02*
X88746359Y-64820000D01*
X89053641Y-65580000D02*
X88746359Y-65580000D01*
%TO.C,R100*%
X87650000Y-82868641D02*
X87650000Y-82561359D01*
X88410000Y-82868641D02*
X88410000Y-82561359D01*
%TO.C,R206*%
X85453641Y-66420000D02*
X85146359Y-66420000D01*
X85453641Y-67180000D02*
X85146359Y-67180000D01*
%TO.C,R104*%
X102696359Y-125545000D02*
X103003641Y-125545000D01*
X102696359Y-126305000D02*
X103003641Y-126305000D01*
%TO.C,R200*%
X59823641Y-66560000D02*
X59516359Y-66560000D01*
X59823641Y-67320000D02*
X59516359Y-67320000D01*
%TO.C,C11*%
X102107836Y-66940000D02*
X101892164Y-66940000D01*
X102107836Y-67660000D02*
X101892164Y-67660000D01*
%TO.C,C9*%
X98292164Y-70090000D02*
X98507836Y-70090000D01*
X98292164Y-70810000D02*
X98507836Y-70810000D01*
%TO.C,C2*%
X108017164Y-71340000D02*
X108232836Y-71340000D01*
X108017164Y-72060000D02*
X108232836Y-72060000D01*
%TO.C,C206*%
X89940000Y-72492164D02*
X89940000Y-72707836D01*
X90660000Y-72492164D02*
X90660000Y-72707836D01*
%TO.C,R11*%
X78946359Y-76120000D02*
X79253641Y-76120000D01*
X78946359Y-76880000D02*
X79253641Y-76880000D01*
%TO.C,C100*%
X96770000Y-82607164D02*
X96770000Y-82822836D01*
X97490000Y-82607164D02*
X97490000Y-82822836D01*
D11*
%TO.C,JP1*%
X114355000Y-88330000D02*
X114355000Y-91020000D01*
X114355000Y-91020000D02*
X118240000Y-91020000D01*
X119585000Y-88330000D02*
X114355000Y-88330000D01*
X119585000Y-89675000D02*
X119585000Y-88330000D01*
D14*
%TO.C,C204*%
X85407836Y-67540000D02*
X85192164Y-67540000D01*
X85407836Y-68260000D02*
X85192164Y-68260000D01*
%TO.C,R15*%
X79253641Y-74820000D02*
X78946359Y-74820000D01*
X79253641Y-75580000D02*
X78946359Y-75580000D01*
D15*
%TO.C,J4*%
X60320000Y-109490000D02*
X68350000Y-109490000D01*
X60320000Y-122190000D02*
X60320000Y-109490000D01*
X68350000Y-109490000D02*
X68350000Y-122190000D01*
X68350000Y-122190000D02*
X60320000Y-122190000D01*
X68850000Y-109490000D02*
X68850000Y-122190000D01*
D16*
%TO.C,IC1*%
X86125000Y-73630000D02*
G75*
G02*
X85875000Y-73630000I-125000J0D01*
G01*
X85875000Y-73630000D02*
G75*
G02*
X86125000Y-73630000I125000J0D01*
G01*
D14*
%TO.C,C10*%
X103240000Y-67907836D02*
X103240000Y-67692164D01*
X103960000Y-67907836D02*
X103960000Y-67692164D01*
%TO.C,C25*%
X113440000Y-71407836D02*
X113440000Y-71192164D01*
X114160000Y-71407836D02*
X114160000Y-71192164D01*
D11*
%TO.C,U103*%
X112800000Y-83715000D02*
X113400000Y-83715000D01*
X112800000Y-86635000D02*
X112800000Y-83715000D01*
X113400000Y-83715000D02*
X113400000Y-86635000D01*
X113400000Y-86635000D02*
X112800000Y-86635000D01*
X114950000Y-86750000D02*
X113750000Y-86750000D01*
D14*
%TO.C,R205*%
X99846359Y-58070000D02*
X100153641Y-58070000D01*
X99846359Y-58830000D02*
X100153641Y-58830000D01*
%TO.C,C203*%
X85407836Y-68640000D02*
X85192164Y-68640000D01*
X85407836Y-69360000D02*
X85192164Y-69360000D01*
%TO.C,C200*%
X85740000Y-70492164D02*
X85740000Y-70707836D01*
X86460000Y-70492164D02*
X86460000Y-70707836D01*
D11*
%TO.C,J201*%
X88600000Y-60750000D02*
X88600000Y-57325000D01*
X88600000Y-60750000D02*
X90650000Y-60750000D01*
X94746000Y-53901000D02*
X90354000Y-53901000D01*
X96500000Y-60750000D02*
X94450000Y-60750000D01*
X96500000Y-60750000D02*
X96500000Y-57325000D01*
X93671000Y-63332000D02*
G75*
G02*
X93567000Y-63332000I-52000J0D01*
G01*
X93567000Y-63332000D02*
G75*
G02*
X93671000Y-63332000I52000J0D01*
G01*
%TO.C,JP10*%
X114355000Y-108650000D02*
X114355000Y-111340000D01*
X114355000Y-111340000D02*
X118240000Y-111340000D01*
X119585000Y-108650000D02*
X114355000Y-108650000D01*
X119585000Y-109995000D02*
X119585000Y-108650000D01*
D15*
%TO.C,M100*%
X60270000Y-91445000D02*
X60270000Y-86895000D01*
X60270000Y-91445000D02*
X63270000Y-91445000D01*
X63270000Y-86895000D02*
X63270000Y-91445000D01*
X65270000Y-83695000D02*
G75*
G02*
X58270000Y-83695000I-3500000J0D01*
G01*
X58270000Y-83695000D02*
G75*
G02*
X65270000Y-83695000I3500000J0D01*
G01*
D11*
%TO.C,JP102*%
X114355000Y-118810000D02*
X114355000Y-121500000D01*
X114355000Y-121500000D02*
X118240000Y-121500000D01*
X119585000Y-118810000D02*
X114355000Y-118810000D01*
X119585000Y-120155000D02*
X119585000Y-118810000D01*
D17*
%TO.C,E200*%
X130690000Y-77300000D02*
X130690000Y-83700000D01*
X132890000Y-77300000D02*
X132890000Y-83700000D01*
D11*
X131990000Y-74700000D02*
G75*
G02*
X131790000Y-74700000I-100000J0D01*
G01*
X131790000Y-74700000D02*
G75*
G02*
X131990000Y-74700000I100000J0D01*
G01*
%TO.C,JP203*%
X114355000Y-98490000D02*
X114355000Y-101180000D01*
X114355000Y-101180000D02*
X118240000Y-101180000D01*
X119585000Y-98490000D02*
X114355000Y-98490000D01*
X119585000Y-99835000D02*
X119585000Y-98490000D01*
D14*
%TO.C,C13*%
X110692164Y-73740000D02*
X110907836Y-73740000D01*
X110692164Y-74460000D02*
X110907836Y-74460000D01*
D15*
%TO.C,Y1*%
X97800000Y-72300000D02*
X97800000Y-72500000D01*
X98350000Y-71050000D02*
X98350000Y-71050000D01*
X98450000Y-71050000D02*
X98450000Y-71050000D01*
X99000000Y-72300000D02*
X99000000Y-72500000D01*
X98350000Y-71050000D02*
G75*
G02*
X98450000Y-71050000I50000J0D01*
G01*
X98450000Y-71050000D02*
G75*
G02*
X98350000Y-71050000I-50000J0D01*
G01*
D11*
%TO.C,JP100*%
X62905000Y-77595000D02*
X62905000Y-78940000D01*
X62905000Y-78940000D02*
X68135000Y-78940000D01*
X68135000Y-76250000D02*
X64250000Y-76250000D01*
X68135000Y-78940000D02*
X68135000Y-76250000D01*
D14*
%TO.C,R9*%
X95720000Y-72653641D02*
X95720000Y-72346359D01*
X96480000Y-72653641D02*
X96480000Y-72346359D01*
D11*
%TO.C,JP200*%
X63125000Y-63055000D02*
X63125000Y-66940000D01*
X64470000Y-68285000D02*
X65815000Y-68285000D01*
X65815000Y-63055000D02*
X63125000Y-63055000D01*
X65815000Y-68285000D02*
X65815000Y-63055000D01*
D14*
%TO.C,C202*%
X102540000Y-59507836D02*
X102540000Y-59292164D01*
X103260000Y-59507836D02*
X103260000Y-59292164D01*
%TO.C,C29*%
X120560000Y-76372164D02*
X120560000Y-76587836D01*
X121280000Y-76372164D02*
X121280000Y-76587836D01*
%TO.C,C7*%
X81707836Y-72040000D02*
X81492164Y-72040000D01*
X81707836Y-72760000D02*
X81492164Y-72760000D01*
%TO.C,R202*%
X81920000Y-56746359D02*
X81920000Y-57053641D01*
X82680000Y-56746359D02*
X82680000Y-57053641D01*
%TO.C,C4*%
X103815000Y-81692164D02*
X103815000Y-81907836D01*
X104535000Y-81692164D02*
X104535000Y-81907836D01*
D16*
%TO.C,U200*%
X93125000Y-70600000D02*
G75*
G02*
X92875000Y-70600000I-125000J0D01*
G01*
X92875000Y-70600000D02*
G75*
G02*
X93125000Y-70600000I125000J0D01*
G01*
D14*
%TO.C,C21*%
X109440000Y-71507836D02*
X109440000Y-71292164D01*
X110160000Y-71507836D02*
X110160000Y-71292164D01*
%TO.C,C1*%
X102187836Y-71340000D02*
X101972164Y-71340000D01*
X102187836Y-72060000D02*
X101972164Y-72060000D01*
D11*
%TO.C,JP101*%
X114355000Y-103570000D02*
X114355000Y-106260000D01*
X114355000Y-106260000D02*
X118240000Y-106260000D01*
X119585000Y-103570000D02*
X114355000Y-103570000D01*
X119585000Y-104915000D02*
X119585000Y-103570000D01*
%TO.C,JP103*%
X114355000Y-93410000D02*
X114355000Y-96100000D01*
X114355000Y-96100000D02*
X118240000Y-96100000D01*
X119585000Y-93410000D02*
X114355000Y-93410000D01*
X119585000Y-94755000D02*
X119585000Y-93410000D01*
D14*
%TO.C,C3*%
X109240000Y-79192164D02*
X109240000Y-79407836D01*
X109960000Y-79192164D02*
X109960000Y-79407836D01*
%TO.C,C101*%
X102692164Y-123665000D02*
X102907836Y-123665000D01*
X102692164Y-124385000D02*
X102907836Y-124385000D01*
D11*
%TO.C,D201*%
X67900000Y-66250000D02*
X70450000Y-66250000D01*
X68750000Y-67550000D02*
X70450000Y-67550000D01*
%TD*%
M02*
