%TF.GenerationSoftware,KiCad,Pcbnew,8.0.3*%
%TF.CreationDate,2024-06-23T22:17:52-05:00*%
%TF.ProjectId,TagConnectAdapter,54616743-6f6e-46e6-9563-744164617074,rev?*%
%TF.SameCoordinates,Original*%
%TF.FileFunction,Legend,Bot*%
%TF.FilePolarity,Positive*%
%FSLAX46Y46*%
G04 Gerber Fmt 4.6, Leading zero omitted, Abs format (unit mm)*
G04 Created by KiCad (PCBNEW 8.0.3) date 2024-06-23 22:17:52*
%MOMM*%
%LPD*%
G01*
G04 APERTURE LIST*
%ADD10C,0.150000*%
%ADD11C,0.000000*%
%ADD12C,0.200000*%
%ADD13C,0.127000*%
G04 APERTURE END LIST*
D10*
X134865842Y-94025000D02*
X134865842Y-94539286D01*
X134865842Y-94282143D02*
X135765842Y-94282143D01*
X135765842Y-94282143D02*
X135637271Y-94367857D01*
X135637271Y-94367857D02*
X135551557Y-94453572D01*
X135551557Y-94453572D02*
X135508700Y-94539286D01*
X135765842Y-93467857D02*
X135765842Y-93382143D01*
X135765842Y-93382143D02*
X135722985Y-93296429D01*
X135722985Y-93296429D02*
X135680128Y-93253572D01*
X135680128Y-93253572D02*
X135594414Y-93210714D01*
X135594414Y-93210714D02*
X135422985Y-93167857D01*
X135422985Y-93167857D02*
X135208700Y-93167857D01*
X135208700Y-93167857D02*
X135037271Y-93210714D01*
X135037271Y-93210714D02*
X134951557Y-93253572D01*
X134951557Y-93253572D02*
X134908700Y-93296429D01*
X134908700Y-93296429D02*
X134865842Y-93382143D01*
X134865842Y-93382143D02*
X134865842Y-93467857D01*
X134865842Y-93467857D02*
X134908700Y-93553572D01*
X134908700Y-93553572D02*
X134951557Y-93596429D01*
X134951557Y-93596429D02*
X135037271Y-93639286D01*
X135037271Y-93639286D02*
X135208700Y-93682143D01*
X135208700Y-93682143D02*
X135422985Y-93682143D01*
X135422985Y-93682143D02*
X135594414Y-93639286D01*
X135594414Y-93639286D02*
X135680128Y-93596429D01*
X135680128Y-93596429D02*
X135722985Y-93553572D01*
X135722985Y-93553572D02*
X135765842Y-93467857D01*
X135208700Y-92782143D02*
X135208700Y-92096429D01*
X134865842Y-91667857D02*
X135765842Y-91667857D01*
X135765842Y-91667857D02*
X135765842Y-91325000D01*
X135765842Y-91325000D02*
X135722985Y-91239285D01*
X135722985Y-91239285D02*
X135680128Y-91196428D01*
X135680128Y-91196428D02*
X135594414Y-91153571D01*
X135594414Y-91153571D02*
X135465842Y-91153571D01*
X135465842Y-91153571D02*
X135380128Y-91196428D01*
X135380128Y-91196428D02*
X135337271Y-91239285D01*
X135337271Y-91239285D02*
X135294414Y-91325000D01*
X135294414Y-91325000D02*
X135294414Y-91667857D01*
X134865842Y-90767857D02*
X135465842Y-90767857D01*
X135765842Y-90767857D02*
X135722985Y-90810714D01*
X135722985Y-90810714D02*
X135680128Y-90767857D01*
X135680128Y-90767857D02*
X135722985Y-90725000D01*
X135722985Y-90725000D02*
X135765842Y-90767857D01*
X135765842Y-90767857D02*
X135680128Y-90767857D01*
X135465842Y-90339286D02*
X134865842Y-90339286D01*
X135380128Y-90339286D02*
X135422985Y-90296429D01*
X135422985Y-90296429D02*
X135465842Y-90210714D01*
X135465842Y-90210714D02*
X135465842Y-90082143D01*
X135465842Y-90082143D02*
X135422985Y-89996429D01*
X135422985Y-89996429D02*
X135337271Y-89953572D01*
X135337271Y-89953572D02*
X134865842Y-89953572D01*
X135765842Y-88967857D02*
X135765842Y-88453572D01*
X134865842Y-88710714D02*
X135765842Y-88710714D01*
X134865842Y-87767858D02*
X135337271Y-87767858D01*
X135337271Y-87767858D02*
X135422985Y-87810715D01*
X135422985Y-87810715D02*
X135465842Y-87896429D01*
X135465842Y-87896429D02*
X135465842Y-88067858D01*
X135465842Y-88067858D02*
X135422985Y-88153572D01*
X134908700Y-87767858D02*
X134865842Y-87853572D01*
X134865842Y-87853572D02*
X134865842Y-88067858D01*
X134865842Y-88067858D02*
X134908700Y-88153572D01*
X134908700Y-88153572D02*
X134994414Y-88196429D01*
X134994414Y-88196429D02*
X135080128Y-88196429D01*
X135080128Y-88196429D02*
X135165842Y-88153572D01*
X135165842Y-88153572D02*
X135208700Y-88067858D01*
X135208700Y-88067858D02*
X135208700Y-87853572D01*
X135208700Y-87853572D02*
X135251557Y-87767858D01*
X135465842Y-86953572D02*
X134737271Y-86953572D01*
X134737271Y-86953572D02*
X134651557Y-86996429D01*
X134651557Y-86996429D02*
X134608700Y-87039286D01*
X134608700Y-87039286D02*
X134565842Y-87125000D01*
X134565842Y-87125000D02*
X134565842Y-87253572D01*
X134565842Y-87253572D02*
X134608700Y-87339286D01*
X134908700Y-86953572D02*
X134865842Y-87039286D01*
X134865842Y-87039286D02*
X134865842Y-87210714D01*
X134865842Y-87210714D02*
X134908700Y-87296429D01*
X134908700Y-87296429D02*
X134951557Y-87339286D01*
X134951557Y-87339286D02*
X135037271Y-87382143D01*
X135037271Y-87382143D02*
X135294414Y-87382143D01*
X135294414Y-87382143D02*
X135380128Y-87339286D01*
X135380128Y-87339286D02*
X135422985Y-87296429D01*
X135422985Y-87296429D02*
X135465842Y-87210714D01*
X135465842Y-87210714D02*
X135465842Y-87039286D01*
X135465842Y-87039286D02*
X135422985Y-86953572D01*
X135208700Y-86525000D02*
X135208700Y-85839286D01*
X134951557Y-84896428D02*
X134908700Y-84939285D01*
X134908700Y-84939285D02*
X134865842Y-85067857D01*
X134865842Y-85067857D02*
X134865842Y-85153571D01*
X134865842Y-85153571D02*
X134908700Y-85282142D01*
X134908700Y-85282142D02*
X134994414Y-85367857D01*
X134994414Y-85367857D02*
X135080128Y-85410714D01*
X135080128Y-85410714D02*
X135251557Y-85453571D01*
X135251557Y-85453571D02*
X135380128Y-85453571D01*
X135380128Y-85453571D02*
X135551557Y-85410714D01*
X135551557Y-85410714D02*
X135637271Y-85367857D01*
X135637271Y-85367857D02*
X135722985Y-85282142D01*
X135722985Y-85282142D02*
X135765842Y-85153571D01*
X135765842Y-85153571D02*
X135765842Y-85067857D01*
X135765842Y-85067857D02*
X135722985Y-84939285D01*
X135722985Y-84939285D02*
X135680128Y-84896428D01*
X134865842Y-84382142D02*
X134908700Y-84467857D01*
X134908700Y-84467857D02*
X134951557Y-84510714D01*
X134951557Y-84510714D02*
X135037271Y-84553571D01*
X135037271Y-84553571D02*
X135294414Y-84553571D01*
X135294414Y-84553571D02*
X135380128Y-84510714D01*
X135380128Y-84510714D02*
X135422985Y-84467857D01*
X135422985Y-84467857D02*
X135465842Y-84382142D01*
X135465842Y-84382142D02*
X135465842Y-84253571D01*
X135465842Y-84253571D02*
X135422985Y-84167857D01*
X135422985Y-84167857D02*
X135380128Y-84125000D01*
X135380128Y-84125000D02*
X135294414Y-84082142D01*
X135294414Y-84082142D02*
X135037271Y-84082142D01*
X135037271Y-84082142D02*
X134951557Y-84125000D01*
X134951557Y-84125000D02*
X134908700Y-84167857D01*
X134908700Y-84167857D02*
X134865842Y-84253571D01*
X134865842Y-84253571D02*
X134865842Y-84382142D01*
X135465842Y-83696428D02*
X134865842Y-83696428D01*
X135380128Y-83696428D02*
X135422985Y-83653571D01*
X135422985Y-83653571D02*
X135465842Y-83567856D01*
X135465842Y-83567856D02*
X135465842Y-83439285D01*
X135465842Y-83439285D02*
X135422985Y-83353571D01*
X135422985Y-83353571D02*
X135337271Y-83310714D01*
X135337271Y-83310714D02*
X134865842Y-83310714D01*
X135465842Y-82882142D02*
X134865842Y-82882142D01*
X135380128Y-82882142D02*
X135422985Y-82839285D01*
X135422985Y-82839285D02*
X135465842Y-82753570D01*
X135465842Y-82753570D02*
X135465842Y-82624999D01*
X135465842Y-82624999D02*
X135422985Y-82539285D01*
X135422985Y-82539285D02*
X135337271Y-82496428D01*
X135337271Y-82496428D02*
X134865842Y-82496428D01*
X134908700Y-81724999D02*
X134865842Y-81810713D01*
X134865842Y-81810713D02*
X134865842Y-81982142D01*
X134865842Y-81982142D02*
X134908700Y-82067856D01*
X134908700Y-82067856D02*
X134994414Y-82110713D01*
X134994414Y-82110713D02*
X135337271Y-82110713D01*
X135337271Y-82110713D02*
X135422985Y-82067856D01*
X135422985Y-82067856D02*
X135465842Y-81982142D01*
X135465842Y-81982142D02*
X135465842Y-81810713D01*
X135465842Y-81810713D02*
X135422985Y-81724999D01*
X135422985Y-81724999D02*
X135337271Y-81682142D01*
X135337271Y-81682142D02*
X135251557Y-81682142D01*
X135251557Y-81682142D02*
X135165842Y-82110713D01*
X134908700Y-80910713D02*
X134865842Y-80996427D01*
X134865842Y-80996427D02*
X134865842Y-81167855D01*
X134865842Y-81167855D02*
X134908700Y-81253570D01*
X134908700Y-81253570D02*
X134951557Y-81296427D01*
X134951557Y-81296427D02*
X135037271Y-81339284D01*
X135037271Y-81339284D02*
X135294414Y-81339284D01*
X135294414Y-81339284D02*
X135380128Y-81296427D01*
X135380128Y-81296427D02*
X135422985Y-81253570D01*
X135422985Y-81253570D02*
X135465842Y-81167855D01*
X135465842Y-81167855D02*
X135465842Y-80996427D01*
X135465842Y-80996427D02*
X135422985Y-80910713D01*
X135465842Y-80653569D02*
X135465842Y-80310712D01*
X135765842Y-80524998D02*
X134994414Y-80524998D01*
X134994414Y-80524998D02*
X134908700Y-80482141D01*
X134908700Y-80482141D02*
X134865842Y-80396426D01*
X134865842Y-80396426D02*
X134865842Y-80310712D01*
X134016892Y-93874999D02*
X134016892Y-93532142D01*
X134316892Y-93746428D02*
X133545464Y-93746428D01*
X133545464Y-93746428D02*
X133459750Y-93703571D01*
X133459750Y-93703571D02*
X133416892Y-93617856D01*
X133416892Y-93617856D02*
X133416892Y-93532142D01*
X133416892Y-93103570D02*
X133459750Y-93189285D01*
X133459750Y-93189285D02*
X133502607Y-93232142D01*
X133502607Y-93232142D02*
X133588321Y-93274999D01*
X133588321Y-93274999D02*
X133845464Y-93274999D01*
X133845464Y-93274999D02*
X133931178Y-93232142D01*
X133931178Y-93232142D02*
X133974035Y-93189285D01*
X133974035Y-93189285D02*
X134016892Y-93103570D01*
X134016892Y-93103570D02*
X134016892Y-92974999D01*
X134016892Y-92974999D02*
X133974035Y-92889285D01*
X133974035Y-92889285D02*
X133931178Y-92846428D01*
X133931178Y-92846428D02*
X133845464Y-92803570D01*
X133845464Y-92803570D02*
X133588321Y-92803570D01*
X133588321Y-92803570D02*
X133502607Y-92846428D01*
X133502607Y-92846428D02*
X133459750Y-92889285D01*
X133459750Y-92889285D02*
X133416892Y-92974999D01*
X133416892Y-92974999D02*
X133416892Y-93103570D01*
X133416892Y-91260713D02*
X133416892Y-91774999D01*
X133416892Y-91517856D02*
X134316892Y-91517856D01*
X134316892Y-91517856D02*
X134188321Y-91603570D01*
X134188321Y-91603570D02*
X134102607Y-91689285D01*
X134102607Y-91689285D02*
X134059750Y-91774999D01*
X134316892Y-90703570D02*
X134316892Y-90617856D01*
X134316892Y-90617856D02*
X134274035Y-90532142D01*
X134274035Y-90532142D02*
X134231178Y-90489285D01*
X134231178Y-90489285D02*
X134145464Y-90446427D01*
X134145464Y-90446427D02*
X133974035Y-90403570D01*
X133974035Y-90403570D02*
X133759750Y-90403570D01*
X133759750Y-90403570D02*
X133588321Y-90446427D01*
X133588321Y-90446427D02*
X133502607Y-90489285D01*
X133502607Y-90489285D02*
X133459750Y-90532142D01*
X133459750Y-90532142D02*
X133416892Y-90617856D01*
X133416892Y-90617856D02*
X133416892Y-90703570D01*
X133416892Y-90703570D02*
X133459750Y-90789285D01*
X133459750Y-90789285D02*
X133502607Y-90832142D01*
X133502607Y-90832142D02*
X133588321Y-90874999D01*
X133588321Y-90874999D02*
X133759750Y-90917856D01*
X133759750Y-90917856D02*
X133974035Y-90917856D01*
X133974035Y-90917856D02*
X134145464Y-90874999D01*
X134145464Y-90874999D02*
X134231178Y-90832142D01*
X134231178Y-90832142D02*
X134274035Y-90789285D01*
X134274035Y-90789285D02*
X134316892Y-90703570D01*
X133759750Y-90017856D02*
X133759750Y-89332142D01*
X134016892Y-88903570D02*
X133116892Y-88903570D01*
X133974035Y-88903570D02*
X134016892Y-88817856D01*
X134016892Y-88817856D02*
X134016892Y-88646427D01*
X134016892Y-88646427D02*
X133974035Y-88560713D01*
X133974035Y-88560713D02*
X133931178Y-88517856D01*
X133931178Y-88517856D02*
X133845464Y-88474998D01*
X133845464Y-88474998D02*
X133588321Y-88474998D01*
X133588321Y-88474998D02*
X133502607Y-88517856D01*
X133502607Y-88517856D02*
X133459750Y-88560713D01*
X133459750Y-88560713D02*
X133416892Y-88646427D01*
X133416892Y-88646427D02*
X133416892Y-88817856D01*
X133416892Y-88817856D02*
X133459750Y-88903570D01*
X133416892Y-88089284D02*
X134016892Y-88089284D01*
X134316892Y-88089284D02*
X134274035Y-88132141D01*
X134274035Y-88132141D02*
X134231178Y-88089284D01*
X134231178Y-88089284D02*
X134274035Y-88046427D01*
X134274035Y-88046427D02*
X134316892Y-88089284D01*
X134316892Y-88089284D02*
X134231178Y-88089284D01*
X134016892Y-87660713D02*
X133416892Y-87660713D01*
X133931178Y-87660713D02*
X133974035Y-87617856D01*
X133974035Y-87617856D02*
X134016892Y-87532141D01*
X134016892Y-87532141D02*
X134016892Y-87403570D01*
X134016892Y-87403570D02*
X133974035Y-87317856D01*
X133974035Y-87317856D02*
X133888321Y-87274999D01*
X133888321Y-87274999D02*
X133416892Y-87274999D01*
X133416892Y-85689284D02*
X133416892Y-86203570D01*
X133416892Y-85946427D02*
X134316892Y-85946427D01*
X134316892Y-85946427D02*
X134188321Y-86032141D01*
X134188321Y-86032141D02*
X134102607Y-86117856D01*
X134102607Y-86117856D02*
X134059750Y-86203570D01*
X133502607Y-85303570D02*
X133459750Y-85260713D01*
X133459750Y-85260713D02*
X133416892Y-85303570D01*
X133416892Y-85303570D02*
X133459750Y-85346427D01*
X133459750Y-85346427D02*
X133502607Y-85303570D01*
X133502607Y-85303570D02*
X133416892Y-85303570D01*
X134231178Y-84917856D02*
X134274035Y-84874999D01*
X134274035Y-84874999D02*
X134316892Y-84789285D01*
X134316892Y-84789285D02*
X134316892Y-84574999D01*
X134316892Y-84574999D02*
X134274035Y-84489285D01*
X134274035Y-84489285D02*
X134231178Y-84446427D01*
X134231178Y-84446427D02*
X134145464Y-84403570D01*
X134145464Y-84403570D02*
X134059750Y-84403570D01*
X134059750Y-84403570D02*
X133931178Y-84446427D01*
X133931178Y-84446427D02*
X133416892Y-84960713D01*
X133416892Y-84960713D02*
X133416892Y-84403570D01*
X134316892Y-84103570D02*
X134316892Y-83503570D01*
X134316892Y-83503570D02*
X133416892Y-83889284D01*
X133416892Y-83160713D02*
X134016892Y-83160713D01*
X133931178Y-83160713D02*
X133974035Y-83117856D01*
X133974035Y-83117856D02*
X134016892Y-83032141D01*
X134016892Y-83032141D02*
X134016892Y-82903570D01*
X134016892Y-82903570D02*
X133974035Y-82817856D01*
X133974035Y-82817856D02*
X133888321Y-82774999D01*
X133888321Y-82774999D02*
X133416892Y-82774999D01*
X133888321Y-82774999D02*
X133974035Y-82732141D01*
X133974035Y-82732141D02*
X134016892Y-82646427D01*
X134016892Y-82646427D02*
X134016892Y-82517856D01*
X134016892Y-82517856D02*
X133974035Y-82432141D01*
X133974035Y-82432141D02*
X133888321Y-82389284D01*
X133888321Y-82389284D02*
X133416892Y-82389284D01*
X133416892Y-81960713D02*
X134016892Y-81960713D01*
X133931178Y-81960713D02*
X133974035Y-81917856D01*
X133974035Y-81917856D02*
X134016892Y-81832141D01*
X134016892Y-81832141D02*
X134016892Y-81703570D01*
X134016892Y-81703570D02*
X133974035Y-81617856D01*
X133974035Y-81617856D02*
X133888321Y-81574999D01*
X133888321Y-81574999D02*
X133416892Y-81574999D01*
X133888321Y-81574999D02*
X133974035Y-81532141D01*
X133974035Y-81532141D02*
X134016892Y-81446427D01*
X134016892Y-81446427D02*
X134016892Y-81317856D01*
X134016892Y-81317856D02*
X133974035Y-81232141D01*
X133974035Y-81232141D02*
X133888321Y-81189284D01*
X133888321Y-81189284D02*
X133416892Y-81189284D01*
X131967942Y-92996429D02*
X132439371Y-92996429D01*
X132439371Y-92996429D02*
X132525085Y-93039286D01*
X132525085Y-93039286D02*
X132567942Y-93125000D01*
X132567942Y-93125000D02*
X132567942Y-93296429D01*
X132567942Y-93296429D02*
X132525085Y-93382143D01*
X132010800Y-92996429D02*
X131967942Y-93082143D01*
X131967942Y-93082143D02*
X131967942Y-93296429D01*
X131967942Y-93296429D02*
X132010800Y-93382143D01*
X132010800Y-93382143D02*
X132096514Y-93425000D01*
X132096514Y-93425000D02*
X132182228Y-93425000D01*
X132182228Y-93425000D02*
X132267942Y-93382143D01*
X132267942Y-93382143D02*
X132310800Y-93296429D01*
X132310800Y-93296429D02*
X132310800Y-93082143D01*
X132310800Y-93082143D02*
X132353657Y-92996429D01*
X132567942Y-92567857D02*
X131967942Y-92567857D01*
X132482228Y-92567857D02*
X132525085Y-92525000D01*
X132525085Y-92525000D02*
X132567942Y-92439285D01*
X132567942Y-92439285D02*
X132567942Y-92310714D01*
X132567942Y-92310714D02*
X132525085Y-92225000D01*
X132525085Y-92225000D02*
X132439371Y-92182143D01*
X132439371Y-92182143D02*
X131967942Y-92182143D01*
X131967942Y-91367857D02*
X132867942Y-91367857D01*
X132010800Y-91367857D02*
X131967942Y-91453571D01*
X131967942Y-91453571D02*
X131967942Y-91624999D01*
X131967942Y-91624999D02*
X132010800Y-91710714D01*
X132010800Y-91710714D02*
X132053657Y-91753571D01*
X132053657Y-91753571D02*
X132139371Y-91796428D01*
X132139371Y-91796428D02*
X132396514Y-91796428D01*
X132396514Y-91796428D02*
X132482228Y-91753571D01*
X132482228Y-91753571D02*
X132525085Y-91710714D01*
X132525085Y-91710714D02*
X132567942Y-91624999D01*
X132567942Y-91624999D02*
X132567942Y-91453571D01*
X132567942Y-91453571D02*
X132525085Y-91367857D01*
X132867942Y-90253571D02*
X132139371Y-90253571D01*
X132139371Y-90253571D02*
X132053657Y-90210714D01*
X132053657Y-90210714D02*
X132010800Y-90167857D01*
X132010800Y-90167857D02*
X131967942Y-90082142D01*
X131967942Y-90082142D02*
X131967942Y-89910714D01*
X131967942Y-89910714D02*
X132010800Y-89824999D01*
X132010800Y-89824999D02*
X132053657Y-89782142D01*
X132053657Y-89782142D02*
X132139371Y-89739285D01*
X132139371Y-89739285D02*
X132867942Y-89739285D01*
X132225085Y-89353571D02*
X132225085Y-88925000D01*
X131967942Y-89439285D02*
X132867942Y-89139285D01*
X132867942Y-89139285D02*
X131967942Y-88839285D01*
X131967942Y-88024999D02*
X132396514Y-88324999D01*
X131967942Y-88539285D02*
X132867942Y-88539285D01*
X132867942Y-88539285D02*
X132867942Y-88196428D01*
X132867942Y-88196428D02*
X132825085Y-88110713D01*
X132825085Y-88110713D02*
X132782228Y-88067856D01*
X132782228Y-88067856D02*
X132696514Y-88024999D01*
X132696514Y-88024999D02*
X132567942Y-88024999D01*
X132567942Y-88024999D02*
X132482228Y-88067856D01*
X132482228Y-88067856D02*
X132439371Y-88110713D01*
X132439371Y-88110713D02*
X132396514Y-88196428D01*
X132396514Y-88196428D02*
X132396514Y-88539285D01*
X132867942Y-87767856D02*
X132867942Y-87253571D01*
X131967942Y-87510713D02*
X132867942Y-87510713D01*
X131967942Y-86267857D02*
X132867942Y-86267857D01*
X132525085Y-86267857D02*
X132567942Y-86182143D01*
X132567942Y-86182143D02*
X132567942Y-86010714D01*
X132567942Y-86010714D02*
X132525085Y-85925000D01*
X132525085Y-85925000D02*
X132482228Y-85882143D01*
X132482228Y-85882143D02*
X132396514Y-85839285D01*
X132396514Y-85839285D02*
X132139371Y-85839285D01*
X132139371Y-85839285D02*
X132053657Y-85882143D01*
X132053657Y-85882143D02*
X132010800Y-85925000D01*
X132010800Y-85925000D02*
X131967942Y-86010714D01*
X131967942Y-86010714D02*
X131967942Y-86182143D01*
X131967942Y-86182143D02*
X132010800Y-86267857D01*
X131967942Y-85453571D02*
X132567942Y-85453571D01*
X132396514Y-85453571D02*
X132482228Y-85410714D01*
X132482228Y-85410714D02*
X132525085Y-85367857D01*
X132525085Y-85367857D02*
X132567942Y-85282142D01*
X132567942Y-85282142D02*
X132567942Y-85196428D01*
X132010800Y-84553571D02*
X131967942Y-84639285D01*
X131967942Y-84639285D02*
X131967942Y-84810714D01*
X131967942Y-84810714D02*
X132010800Y-84896428D01*
X132010800Y-84896428D02*
X132096514Y-84939285D01*
X132096514Y-84939285D02*
X132439371Y-84939285D01*
X132439371Y-84939285D02*
X132525085Y-84896428D01*
X132525085Y-84896428D02*
X132567942Y-84810714D01*
X132567942Y-84810714D02*
X132567942Y-84639285D01*
X132567942Y-84639285D02*
X132525085Y-84553571D01*
X132525085Y-84553571D02*
X132439371Y-84510714D01*
X132439371Y-84510714D02*
X132353657Y-84510714D01*
X132353657Y-84510714D02*
X132267942Y-84939285D01*
X131967942Y-83739285D02*
X132439371Y-83739285D01*
X132439371Y-83739285D02*
X132525085Y-83782142D01*
X132525085Y-83782142D02*
X132567942Y-83867856D01*
X132567942Y-83867856D02*
X132567942Y-84039285D01*
X132567942Y-84039285D02*
X132525085Y-84124999D01*
X132010800Y-83739285D02*
X131967942Y-83824999D01*
X131967942Y-83824999D02*
X131967942Y-84039285D01*
X131967942Y-84039285D02*
X132010800Y-84124999D01*
X132010800Y-84124999D02*
X132096514Y-84167856D01*
X132096514Y-84167856D02*
X132182228Y-84167856D01*
X132182228Y-84167856D02*
X132267942Y-84124999D01*
X132267942Y-84124999D02*
X132310800Y-84039285D01*
X132310800Y-84039285D02*
X132310800Y-83824999D01*
X132310800Y-83824999D02*
X132353657Y-83739285D01*
X131967942Y-83310713D02*
X132867942Y-83310713D01*
X132310800Y-83224999D02*
X131967942Y-82967856D01*
X132567942Y-82967856D02*
X132225085Y-83310713D01*
X131967942Y-82453570D02*
X132010800Y-82539285D01*
X132010800Y-82539285D02*
X132053657Y-82582142D01*
X132053657Y-82582142D02*
X132139371Y-82624999D01*
X132139371Y-82624999D02*
X132396514Y-82624999D01*
X132396514Y-82624999D02*
X132482228Y-82582142D01*
X132482228Y-82582142D02*
X132525085Y-82539285D01*
X132525085Y-82539285D02*
X132567942Y-82453570D01*
X132567942Y-82453570D02*
X132567942Y-82324999D01*
X132567942Y-82324999D02*
X132525085Y-82239285D01*
X132525085Y-82239285D02*
X132482228Y-82196428D01*
X132482228Y-82196428D02*
X132396514Y-82153570D01*
X132396514Y-82153570D02*
X132139371Y-82153570D01*
X132139371Y-82153570D02*
X132053657Y-82196428D01*
X132053657Y-82196428D02*
X132010800Y-82239285D01*
X132010800Y-82239285D02*
X131967942Y-82324999D01*
X131967942Y-82324999D02*
X131967942Y-82453570D01*
X132567942Y-81382142D02*
X131967942Y-81382142D01*
X132567942Y-81767856D02*
X132096514Y-81767856D01*
X132096514Y-81767856D02*
X132010800Y-81724999D01*
X132010800Y-81724999D02*
X131967942Y-81639284D01*
X131967942Y-81639284D02*
X131967942Y-81510713D01*
X131967942Y-81510713D02*
X132010800Y-81424999D01*
X132010800Y-81424999D02*
X132053657Y-81382142D01*
X132567942Y-81082141D02*
X132567942Y-80739284D01*
X132867942Y-80953570D02*
X132096514Y-80953570D01*
X132096514Y-80953570D02*
X132010800Y-80910713D01*
X132010800Y-80910713D02*
X131967942Y-80824998D01*
X131967942Y-80824998D02*
X131967942Y-80739284D01*
D11*
%TO.C,G\u002A\u002A\u002A*%
G36*
X139234181Y-84859800D02*
G01*
X139425118Y-84860260D01*
X139609595Y-84860955D01*
X139784983Y-84861884D01*
X139948650Y-84863048D01*
X140097968Y-84864448D01*
X140230306Y-84866082D01*
X140343034Y-84867951D01*
X140433523Y-84870055D01*
X140499142Y-84872395D01*
X140537262Y-84874969D01*
X140643399Y-84892752D01*
X140804183Y-84943280D01*
X140950867Y-85019571D01*
X141081326Y-85120166D01*
X141193434Y-85243606D01*
X141285068Y-85388432D01*
X141290658Y-85399113D01*
X141306216Y-85428577D01*
X141320064Y-85455643D01*
X141332301Y-85482118D01*
X141343027Y-85509810D01*
X141352342Y-85540525D01*
X141360344Y-85576071D01*
X141367133Y-85618255D01*
X141372808Y-85668884D01*
X141377469Y-85729764D01*
X141381214Y-85802704D01*
X141384143Y-85889510D01*
X141386356Y-85991990D01*
X141387952Y-86111950D01*
X141389029Y-86251198D01*
X141389688Y-86411540D01*
X141390028Y-86594784D01*
X141390148Y-86802738D01*
X141390147Y-87037207D01*
X141390124Y-87300000D01*
X141390123Y-87344358D01*
X141390063Y-87599084D01*
X141389893Y-87825695D01*
X141389592Y-88025928D01*
X141389134Y-88201516D01*
X141388498Y-88354193D01*
X141387658Y-88485693D01*
X141386593Y-88597751D01*
X141385277Y-88692100D01*
X141383689Y-88770475D01*
X141381804Y-88834609D01*
X141379600Y-88886237D01*
X141377052Y-88927094D01*
X141374137Y-88958912D01*
X141370832Y-88983427D01*
X141367113Y-89002373D01*
X141361513Y-89024871D01*
X141306503Y-89176653D01*
X141225759Y-89316200D01*
X141121889Y-89440806D01*
X140997496Y-89547765D01*
X140855188Y-89634369D01*
X140697568Y-89697911D01*
X140584579Y-89733037D01*
X139760353Y-89733037D01*
X138950000Y-89733037D01*
X138913509Y-89733037D01*
X137315421Y-89733037D01*
X137202432Y-89697911D01*
X137193568Y-89695114D01*
X137033876Y-89629293D01*
X136891027Y-89540568D01*
X136767225Y-89431226D01*
X136664673Y-89303555D01*
X136585577Y-89159842D01*
X136532138Y-89002373D01*
X136529379Y-88987565D01*
X136526340Y-88960579D01*
X136523644Y-88922311D01*
X136521269Y-88871190D01*
X136519351Y-88810521D01*
X136584757Y-88810521D01*
X136590220Y-88817629D01*
X136613905Y-88832284D01*
X136644514Y-88845790D01*
X136668920Y-88851720D01*
X136671970Y-88852358D01*
X136693574Y-88863595D01*
X136725027Y-88884048D01*
X136757478Y-88907425D01*
X136782074Y-88927431D01*
X136789965Y-88937774D01*
X136780887Y-88938785D01*
X136746936Y-88933458D01*
X136693519Y-88920978D01*
X136626186Y-88902537D01*
X136622027Y-88901474D01*
X136604572Y-88905809D01*
X136599822Y-88933564D01*
X136602704Y-88959306D01*
X136611121Y-88972276D01*
X136619366Y-88984253D01*
X136623893Y-89014875D01*
X136624328Y-89022068D01*
X136640150Y-89087558D01*
X136675070Y-89164646D01*
X136724979Y-89247153D01*
X136785766Y-89328899D01*
X136853321Y-89403706D01*
X136923534Y-89465393D01*
X136933957Y-89473215D01*
X137030399Y-89538324D01*
X137116118Y-89580215D01*
X137196832Y-89600389D01*
X137278259Y-89600348D01*
X137366118Y-89581592D01*
X137394961Y-89574397D01*
X137440222Y-89568114D01*
X137476831Y-89568420D01*
X137497805Y-89574997D01*
X137496161Y-89587526D01*
X137483457Y-89594301D01*
X137448405Y-89607491D01*
X137400868Y-89622588D01*
X137385764Y-89627136D01*
X137370281Y-89632591D01*
X137363827Y-89637000D01*
X137368748Y-89640483D01*
X137387388Y-89643159D01*
X137422091Y-89645147D01*
X137475202Y-89646567D01*
X137549065Y-89647538D01*
X137646025Y-89648180D01*
X137768427Y-89648611D01*
X137918614Y-89648952D01*
X138521807Y-89650178D01*
X138533029Y-89631599D01*
X138744280Y-89631599D01*
X138746237Y-89636726D01*
X138761039Y-89641380D01*
X138791988Y-89644690D01*
X138841880Y-89646765D01*
X138913509Y-89647714D01*
X139009668Y-89647644D01*
X139133154Y-89646665D01*
X139529900Y-89642645D01*
X139609232Y-89484460D01*
X139610728Y-89481473D01*
X139691442Y-89303562D01*
X139749450Y-89135028D01*
X139786536Y-88967863D01*
X139804484Y-88794063D01*
X139805078Y-88605621D01*
X139804562Y-88592746D01*
X139793732Y-88451502D01*
X139773552Y-88337769D01*
X139742661Y-88250091D01*
X139699697Y-88187017D01*
X139643298Y-88147092D01*
X139572105Y-88128864D01*
X139484755Y-88130878D01*
X139379886Y-88151682D01*
X139313669Y-88172347D01*
X139192054Y-88230470D01*
X139087488Y-88308554D01*
X139003668Y-88403540D01*
X138944287Y-88512368D01*
X138934916Y-88536736D01*
X138923188Y-88572017D01*
X138913169Y-88610705D01*
X138904336Y-88656607D01*
X138896165Y-88713532D01*
X138888130Y-88785290D01*
X138879709Y-88875688D01*
X138870377Y-88988536D01*
X138859609Y-89127641D01*
X138858865Y-89137305D01*
X138849150Y-89240500D01*
X138836948Y-89324380D01*
X138820482Y-89398931D01*
X138797976Y-89474142D01*
X138786285Y-89509294D01*
X138767054Y-89566441D01*
X138752217Y-89609659D01*
X138744280Y-89631599D01*
X138533029Y-89631599D01*
X138569579Y-89571086D01*
X138576322Y-89559702D01*
X138636037Y-89437942D01*
X138688233Y-89293364D01*
X138731251Y-89132089D01*
X138763431Y-88960237D01*
X138783111Y-88783927D01*
X138799200Y-88637522D01*
X138826519Y-88509316D01*
X138866581Y-88399666D01*
X138921299Y-88303384D01*
X138992583Y-88215279D01*
X139002060Y-88205402D01*
X139093274Y-88131110D01*
X139205465Y-88073226D01*
X139341696Y-88030126D01*
X139431654Y-88011359D01*
X139535008Y-88001353D01*
X139620403Y-88010198D01*
X139691865Y-88039022D01*
X139753418Y-88088953D01*
X139809090Y-88161120D01*
X139827248Y-88190278D01*
X139856048Y-88244761D01*
X139876459Y-88300176D01*
X139889501Y-88362327D01*
X139896196Y-88437018D01*
X139897566Y-88530052D01*
X139894631Y-88647234D01*
X139888215Y-88769855D01*
X139865714Y-88982194D01*
X139828465Y-89176547D01*
X139775167Y-89358988D01*
X139704522Y-89535591D01*
X139700009Y-89545619D01*
X139679325Y-89594222D01*
X139666137Y-89629781D01*
X139663127Y-89645195D01*
X139666474Y-89643672D01*
X139684211Y-89624779D01*
X139713077Y-89588959D01*
X139748841Y-89541340D01*
X139780232Y-89500676D01*
X139813175Y-89465077D01*
X139832223Y-89453047D01*
X139835544Y-89464038D01*
X139821303Y-89497505D01*
X139787670Y-89552902D01*
X139764174Y-89588558D01*
X139742984Y-89623243D01*
X139736248Y-89641641D01*
X139742520Y-89648902D01*
X139760353Y-89650178D01*
X139775762Y-89643584D01*
X139805272Y-89609988D01*
X139842387Y-89548488D01*
X139845372Y-89542993D01*
X139875258Y-89489685D01*
X139902099Y-89444483D01*
X139920404Y-89416667D01*
X139935043Y-89398772D01*
X139942320Y-89400028D01*
X139943827Y-89428566D01*
X139936768Y-89469040D01*
X139916494Y-89523945D01*
X139888257Y-89579525D01*
X139857357Y-89623814D01*
X139856379Y-89624942D01*
X139851270Y-89632897D01*
X139853426Y-89638978D01*
X139866113Y-89643432D01*
X139892598Y-89646509D01*
X139936147Y-89648455D01*
X140000028Y-89649520D01*
X140087505Y-89649952D01*
X140201847Y-89649999D01*
X140289357Y-89649732D01*
X140403289Y-89648354D01*
X140492980Y-89645647D01*
X140562007Y-89641437D01*
X140613945Y-89635546D01*
X140652373Y-89627799D01*
X140707717Y-89610011D01*
X140787750Y-89577079D01*
X140868912Y-89537339D01*
X140941163Y-89495792D01*
X140994462Y-89457438D01*
X141042778Y-89415550D01*
X140992314Y-89299464D01*
X140979824Y-89270228D01*
X140960506Y-89220640D01*
X140955183Y-89197730D01*
X140963837Y-89201504D01*
X140986451Y-89231967D01*
X141023007Y-89289127D01*
X141025095Y-89292506D01*
X141052616Y-89336213D01*
X141073061Y-89367219D01*
X141082141Y-89379004D01*
X141091157Y-89369097D01*
X141109140Y-89343381D01*
X141115071Y-89333996D01*
X141123633Y-89311829D01*
X141117622Y-89288675D01*
X141095264Y-89252990D01*
X141072979Y-89216172D01*
X141069980Y-89200390D01*
X141086254Y-89207306D01*
X141120990Y-89237411D01*
X141128495Y-89244563D01*
X141152315Y-89264550D01*
X141165643Y-89265117D01*
X141177257Y-89247899D01*
X141183619Y-89230671D01*
X141178836Y-89197409D01*
X141174397Y-89189962D01*
X141165157Y-89166616D01*
X141169385Y-89159857D01*
X141185318Y-89175613D01*
X141188154Y-89179448D01*
X141201892Y-89193020D01*
X141213837Y-89185975D01*
X141231355Y-89155016D01*
X141232550Y-89152643D01*
X141249181Y-89111745D01*
X141268282Y-89054156D01*
X141285954Y-88991552D01*
X141290864Y-88971421D01*
X141295791Y-88947589D01*
X141300008Y-88920832D01*
X141303570Y-88888884D01*
X141306531Y-88849478D01*
X141308947Y-88800346D01*
X141310872Y-88739222D01*
X141312362Y-88663838D01*
X141313472Y-88571926D01*
X141314256Y-88461220D01*
X141314771Y-88329453D01*
X141315070Y-88174356D01*
X141315209Y-87993664D01*
X141315243Y-87785108D01*
X141315243Y-86693186D01*
X141275512Y-86751733D01*
X141229525Y-86817556D01*
X141190074Y-86868916D01*
X141164381Y-86895294D01*
X141152979Y-86896065D01*
X141153894Y-86878759D01*
X141171058Y-86836085D01*
X141205838Y-86773955D01*
X141257160Y-86694451D01*
X141265898Y-86681239D01*
X141302849Y-86612393D01*
X141314840Y-86558864D01*
X141314647Y-86544506D01*
X141312557Y-86527280D01*
X141305258Y-86528461D01*
X141289218Y-86550463D01*
X141260900Y-86595700D01*
X141233037Y-86637801D01*
X141204976Y-86672075D01*
X141186385Y-86684315D01*
X141179656Y-86672265D01*
X141181760Y-86665890D01*
X141195120Y-86637286D01*
X141218078Y-86592142D01*
X141247450Y-86536820D01*
X141253678Y-86525141D01*
X141285986Y-86458074D01*
X141307456Y-86401644D01*
X141315243Y-86363130D01*
X141315243Y-86314824D01*
X141268744Y-86378052D01*
X141253244Y-86398202D01*
X141222490Y-86431072D01*
X141202103Y-86441789D01*
X141194721Y-86428552D01*
X141194841Y-86427563D01*
X141204232Y-86406995D01*
X141225667Y-86369561D01*
X141254982Y-86322587D01*
X141257190Y-86319149D01*
X141286522Y-86268988D01*
X141307333Y-86225265D01*
X141315243Y-86197103D01*
X141315233Y-86191515D01*
X141313224Y-86174699D01*
X141302949Y-86177417D01*
X141277580Y-86200237D01*
X141276102Y-86201620D01*
X141249636Y-86223134D01*
X141241378Y-86222509D01*
X141251256Y-86201483D01*
X141279195Y-86161796D01*
X141290833Y-86146191D01*
X141302333Y-86127209D01*
X141309784Y-86105363D01*
X141313813Y-86075203D01*
X141315049Y-86031277D01*
X141314121Y-85968136D01*
X141311658Y-85880328D01*
X141309107Y-85808622D01*
X141304094Y-85723188D01*
X141296882Y-85656396D01*
X141286655Y-85601399D01*
X141272602Y-85551345D01*
X141258994Y-85513001D01*
X141191118Y-85376374D01*
X141099370Y-85253048D01*
X140987541Y-85146229D01*
X140859427Y-85059125D01*
X140718820Y-84994944D01*
X140569514Y-84956892D01*
X140509253Y-84947434D01*
X140589244Y-84994642D01*
X140608497Y-85006712D01*
X140655208Y-85040164D01*
X140703975Y-85079418D01*
X140749553Y-85119715D01*
X140786697Y-85156296D01*
X140810165Y-85184400D01*
X140814711Y-85199268D01*
X140813275Y-85199811D01*
X140793798Y-85192385D01*
X140758287Y-85171100D01*
X140713203Y-85139746D01*
X140701754Y-85131431D01*
X140641284Y-85090290D01*
X140575174Y-85048906D01*
X140509529Y-85010723D01*
X140450456Y-84979185D01*
X140404062Y-84957737D01*
X140376454Y-84949822D01*
X140372138Y-84956945D01*
X140387837Y-84980398D01*
X140423505Y-85017600D01*
X140494188Y-85085379D01*
X140374030Y-85017600D01*
X140309708Y-84984093D01*
X140247698Y-84958745D01*
X140204095Y-84949822D01*
X140154318Y-84949822D01*
X140187595Y-84994833D01*
X140198855Y-85010867D01*
X140212619Y-85038929D01*
X140204239Y-85047145D01*
X140174150Y-85035455D01*
X140122785Y-85003800D01*
X140095457Y-84985803D01*
X140059597Y-84965911D01*
X140025083Y-84955128D01*
X139981429Y-84950688D01*
X139918143Y-84949822D01*
X139901018Y-84949851D01*
X139840993Y-84951602D01*
X139807164Y-84958670D01*
X139796320Y-84974652D01*
X139805251Y-85003145D01*
X139830746Y-85047746D01*
X139869887Y-85113158D01*
X139895520Y-85159254D01*
X139910119Y-85191607D01*
X139916308Y-85216031D01*
X139916709Y-85238345D01*
X139916621Y-85245371D01*
X139920721Y-85284989D01*
X139930409Y-85341140D01*
X139944074Y-85404063D01*
X139951457Y-85437889D01*
X139970085Y-85576810D01*
X139974867Y-85728057D01*
X139965825Y-85880269D01*
X139942977Y-86022083D01*
X139926472Y-86085774D01*
X139889151Y-86195232D01*
X139843015Y-86301320D01*
X139792089Y-86395177D01*
X139740401Y-86467942D01*
X139727887Y-86481627D01*
X139656067Y-86535259D01*
X139570432Y-86566941D01*
X139505076Y-86574402D01*
X139475384Y-86577791D01*
X139375322Y-86568926D01*
X139274646Y-86541465D01*
X139177757Y-86496527D01*
X139089055Y-86435230D01*
X139012940Y-86358692D01*
X138953813Y-86268031D01*
X138942570Y-86245286D01*
X138917183Y-86187725D01*
X138897945Y-86130659D01*
X138883645Y-86067960D01*
X138873071Y-85993506D01*
X138865012Y-85901171D01*
X138858257Y-85784831D01*
X138855071Y-85726911D01*
X138844588Y-85590000D01*
X138831361Y-85480097D01*
X138815556Y-85398715D01*
X138814019Y-85392855D01*
X138789154Y-85316301D01*
X138753652Y-85227468D01*
X138712203Y-85136679D01*
X138669494Y-85054258D01*
X138630212Y-84990529D01*
X138614751Y-84968654D01*
X138876178Y-84968654D01*
X138880375Y-84987554D01*
X138892178Y-85027623D01*
X138908658Y-85077877D01*
X138908724Y-85078071D01*
X138917938Y-85107781D01*
X138925369Y-85139910D01*
X138931325Y-85178416D01*
X138936116Y-85227259D01*
X138940051Y-85290397D01*
X138943438Y-85371787D01*
X138946586Y-85475389D01*
X138949804Y-85605160D01*
X138950726Y-85643961D01*
X138954101Y-85769723D01*
X138957609Y-85870012D01*
X138961513Y-85948495D01*
X138966071Y-86008838D01*
X138971547Y-86054709D01*
X138978201Y-86089773D01*
X138986293Y-86117698D01*
X139009419Y-86172887D01*
X139069032Y-86268857D01*
X139145713Y-86352493D01*
X139233550Y-86417867D01*
X139326631Y-86459047D01*
X139373062Y-86468510D01*
X139438408Y-86475910D01*
X139505076Y-86478799D01*
X139531095Y-86478747D01*
X139579528Y-86476955D01*
X139610074Y-86470643D01*
X139631497Y-86457133D01*
X139652566Y-86433749D01*
X139663204Y-86419159D01*
X139690657Y-86374958D01*
X139723259Y-86316665D01*
X139756037Y-86252966D01*
X139786713Y-86187332D01*
X139811366Y-86122201D01*
X139827209Y-86058092D01*
X139838250Y-85981791D01*
X139849561Y-85848310D01*
X139848672Y-85640777D01*
X139822842Y-85443692D01*
X139771266Y-85251939D01*
X139693137Y-85060402D01*
X139640649Y-84949822D01*
X139257662Y-84949822D01*
X139193621Y-84949898D01*
X139084759Y-84950566D01*
X139001933Y-84952038D01*
X138942401Y-84954447D01*
X138903424Y-84957929D01*
X138882263Y-84962620D01*
X138876178Y-84968654D01*
X138614751Y-84968654D01*
X138600419Y-84948377D01*
X137935322Y-84953330D01*
X137894438Y-84953635D01*
X137742106Y-84954838D01*
X137616183Y-84956045D01*
X137513671Y-84957413D01*
X137431571Y-84959099D01*
X137366884Y-84961260D01*
X137316610Y-84964052D01*
X137277751Y-84967631D01*
X137247307Y-84972155D01*
X137222280Y-84977780D01*
X137199670Y-84984663D01*
X137176478Y-84992960D01*
X137165657Y-84997042D01*
X137021086Y-85067962D01*
X136891413Y-85162319D01*
X136780057Y-85276647D01*
X136690434Y-85407478D01*
X136625964Y-85551345D01*
X136592290Y-85650356D01*
X136588180Y-87190777D01*
X136587851Y-87314318D01*
X136587242Y-87549508D01*
X136586759Y-87757115D01*
X136586430Y-87938861D01*
X136586285Y-88096465D01*
X136586354Y-88231648D01*
X136586665Y-88346130D01*
X136587249Y-88441632D01*
X136588135Y-88519874D01*
X136589351Y-88582576D01*
X136590929Y-88631459D01*
X136592897Y-88668242D01*
X136595284Y-88694647D01*
X136598120Y-88712393D01*
X136601435Y-88723201D01*
X136605257Y-88728791D01*
X136609617Y-88730883D01*
X136614544Y-88731198D01*
X136615398Y-88731202D01*
X136640769Y-88738637D01*
X136640612Y-88756655D01*
X136614887Y-88779890D01*
X136596062Y-88794253D01*
X136584757Y-88810521D01*
X136519351Y-88810521D01*
X136519197Y-88805646D01*
X136517407Y-88724108D01*
X136515881Y-88625005D01*
X136514598Y-88506767D01*
X136513538Y-88367822D01*
X136512683Y-88206601D01*
X136512012Y-88021532D01*
X136511506Y-87811045D01*
X136511145Y-87573568D01*
X136510909Y-87307533D01*
X136510836Y-87202052D01*
X136510648Y-86949843D01*
X136510535Y-86725265D01*
X136510597Y-86526514D01*
X136510930Y-86351788D01*
X136511632Y-86199286D01*
X136512801Y-86067205D01*
X136514535Y-85953743D01*
X136516930Y-85857098D01*
X136520086Y-85775466D01*
X136524100Y-85707047D01*
X136529068Y-85650037D01*
X136535090Y-85602634D01*
X136542262Y-85563037D01*
X136550683Y-85529443D01*
X136560450Y-85500049D01*
X136571661Y-85473053D01*
X136584413Y-85446653D01*
X136598804Y-85419047D01*
X136614932Y-85388432D01*
X136669381Y-85295953D01*
X136773995Y-85164252D01*
X136897762Y-85054844D01*
X137038559Y-84969188D01*
X137194259Y-84908743D01*
X137362738Y-84874969D01*
X137396384Y-84872611D01*
X137459701Y-84870251D01*
X137548117Y-84868126D01*
X137659004Y-84866236D01*
X137789730Y-84864581D01*
X137937666Y-84863162D01*
X138100182Y-84861977D01*
X138274649Y-84861027D01*
X138458435Y-84860311D01*
X138648911Y-84859831D01*
X138843448Y-84859586D01*
X139039415Y-84859576D01*
X139234181Y-84859800D01*
G37*
G36*
X137144217Y-89422607D02*
G01*
X137168894Y-89451640D01*
X137169066Y-89452224D01*
X137159260Y-89463705D01*
X137127099Y-89469090D01*
X137079538Y-89467982D01*
X137023532Y-89459979D01*
X136988292Y-89449601D01*
X136979099Y-89437619D01*
X136998798Y-89425865D01*
X137046781Y-89415499D01*
X137095724Y-89411918D01*
X137144217Y-89422607D01*
G37*
G36*
X137297472Y-89503403D02*
G01*
X137345195Y-89520040D01*
X137300178Y-89539234D01*
X137293019Y-89542052D01*
X137232527Y-89555438D01*
X137162646Y-89558437D01*
X137100144Y-89550135D01*
X137085739Y-89546077D01*
X137073073Y-89540065D01*
X137079269Y-89533488D01*
X137107782Y-89524085D01*
X137162063Y-89509596D01*
X137214216Y-89498029D01*
X137259114Y-89495197D01*
X137297472Y-89503403D01*
G37*
G36*
X137272511Y-85194976D02*
G01*
X137307889Y-85206162D01*
X137310903Y-85208172D01*
X137322912Y-85221650D01*
X137307889Y-85235831D01*
X137280814Y-85245013D01*
X137232508Y-85250064D01*
X137177668Y-85248862D01*
X137128644Y-85241049D01*
X137109802Y-85235444D01*
X137102230Y-85226777D01*
X137120225Y-85211124D01*
X137128115Y-85206549D01*
X137169041Y-85195529D01*
X137221700Y-85191551D01*
X137272511Y-85194976D01*
G37*
G36*
X137414452Y-85113727D02*
G01*
X137451818Y-85131277D01*
X137463391Y-85143547D01*
X137458541Y-85155529D01*
X137428912Y-85170197D01*
X137399999Y-85180502D01*
X137372992Y-85182607D01*
X137338825Y-85175007D01*
X137287188Y-85156722D01*
X137260016Y-85145222D01*
X137254764Y-85134846D01*
X137272123Y-85119288D01*
X137274447Y-85117677D01*
X137312376Y-85106033D01*
X137363508Y-85105014D01*
X137414452Y-85113727D01*
G37*
G36*
X137629467Y-85042079D02*
G01*
X137661782Y-85051285D01*
X137675122Y-85061110D01*
X137669815Y-85070751D01*
X137638941Y-85083286D01*
X137601758Y-85094343D01*
X137547654Y-85098918D01*
X137501129Y-85084014D01*
X137483780Y-85070470D01*
X137484541Y-85053384D01*
X137497644Y-85046601D01*
X137535392Y-85039879D01*
X137583335Y-85038324D01*
X137629467Y-85042079D01*
G37*
G36*
X137661291Y-89337076D02*
G01*
X137660977Y-89353437D01*
X137647330Y-89370500D01*
X137615465Y-89394879D01*
X137578884Y-89415506D01*
X137550374Y-89424199D01*
X137534940Y-89419255D01*
X137535222Y-89402686D01*
X137553814Y-89380537D01*
X137587107Y-89359196D01*
X137600366Y-89353002D01*
X137641901Y-89336867D01*
X137661291Y-89337076D01*
G37*
G36*
X137765554Y-89399137D02*
G01*
X137782916Y-89409785D01*
X137776824Y-89429428D01*
X137772932Y-89433479D01*
X137740059Y-89453565D01*
X137694323Y-89470470D01*
X137648696Y-89480207D01*
X137616150Y-89478791D01*
X137602451Y-89469246D01*
X137605663Y-89451108D01*
X137633478Y-89430284D01*
X137683184Y-89409575D01*
X137730385Y-89398681D01*
X137765554Y-89399137D01*
G37*
G36*
X137957498Y-89454965D02*
G01*
X137970759Y-89467852D01*
X137970705Y-89468846D01*
X137955626Y-89486561D01*
X137919686Y-89504978D01*
X137871452Y-89521596D01*
X137819488Y-89533912D01*
X137772360Y-89539426D01*
X137738634Y-89535636D01*
X137721987Y-89525775D01*
X137721400Y-89508136D01*
X137748958Y-89487940D01*
X137803658Y-89466257D01*
X137824133Y-89460378D01*
X137875991Y-89451150D01*
X137923177Y-89449372D01*
X137957498Y-89454965D01*
G37*
G36*
X137888492Y-87782758D02*
G01*
X137921209Y-87792294D01*
X137958162Y-87808901D01*
X137988379Y-87827143D01*
X138000890Y-87841580D01*
X138000837Y-87842978D01*
X137987733Y-87855949D01*
X137955466Y-87852950D01*
X137909750Y-87834429D01*
X137897241Y-87827313D01*
X137871788Y-87806183D01*
X137865222Y-87789110D01*
X137880852Y-87782088D01*
X137888492Y-87782758D01*
G37*
G36*
X137934001Y-87880610D02*
G01*
X137993357Y-87899423D01*
X138004466Y-87903641D01*
X138047657Y-87926043D01*
X138067101Y-87947541D01*
X138061298Y-87964935D01*
X138028753Y-87975026D01*
X138021695Y-87975484D01*
X137980850Y-87964781D01*
X137932069Y-87929830D01*
X137913324Y-87912394D01*
X137893951Y-87887112D01*
X137900854Y-87876511D01*
X137934001Y-87880610D01*
G37*
G36*
X137900358Y-87693756D02*
G01*
X137928137Y-87709195D01*
X137940629Y-87730971D01*
X137935341Y-87744250D01*
X137914160Y-87751969D01*
X137890411Y-87741914D01*
X137882791Y-87726020D01*
X137880605Y-87703133D01*
X137886668Y-87691696D01*
X137900358Y-87693756D01*
G37*
G36*
X138139359Y-89509694D02*
G01*
X138168481Y-89518030D01*
X138173670Y-89530417D01*
X138165336Y-89535940D01*
X138131833Y-89542292D01*
X138081459Y-89544130D01*
X138022497Y-89541323D01*
X137963227Y-89533740D01*
X137902966Y-89523091D01*
X137993357Y-89511635D01*
X138033312Y-89507678D01*
X138092302Y-89506035D01*
X138139359Y-89509694D01*
G37*
G36*
X138269396Y-86243905D02*
G01*
X138258831Y-86265823D01*
X138245666Y-86285292D01*
X138220505Y-86331193D01*
X138191005Y-86391394D01*
X138160932Y-86457802D01*
X138134050Y-86522324D01*
X138114126Y-86576868D01*
X138108354Y-86594494D01*
X138086493Y-86656254D01*
X138069931Y-86692203D01*
X138057093Y-86705152D01*
X138046408Y-86697912D01*
X138043789Y-86690990D01*
X138043856Y-86655097D01*
X138053828Y-86601910D01*
X138071451Y-86538844D01*
X138094474Y-86473316D01*
X138120641Y-86412742D01*
X138147701Y-86364536D01*
X138158256Y-86349314D01*
X138193512Y-86302999D01*
X138226831Y-86264958D01*
X138253123Y-86240678D01*
X138267298Y-86235645D01*
X138269396Y-86243905D01*
G37*
G36*
X138488569Y-85854753D02*
G01*
X138504464Y-85886864D01*
X138507937Y-85895477D01*
X138526665Y-85946784D01*
X138544024Y-86000489D01*
X138549452Y-86019331D01*
X138555514Y-86052661D01*
X138548672Y-86074867D01*
X138526722Y-86098413D01*
X138518122Y-86107375D01*
X138487975Y-86148521D01*
X138461944Y-86196214D01*
X138433438Y-86259984D01*
X138471348Y-86317270D01*
X138477047Y-86325727D01*
X138565701Y-86430331D01*
X138681038Y-86525581D01*
X138820668Y-86609477D01*
X138928078Y-86669190D01*
X139011452Y-86727011D01*
X139073144Y-86785879D01*
X139117060Y-86849532D01*
X139147108Y-86921706D01*
X139154828Y-86949972D01*
X139169336Y-87024658D01*
X139181648Y-87115588D01*
X139191224Y-87215114D01*
X139197522Y-87315591D01*
X139200000Y-87409372D01*
X139198117Y-87488811D01*
X139191333Y-87546261D01*
X139185413Y-87570803D01*
X139140288Y-87682221D01*
X139068877Y-87781010D01*
X138972860Y-87865245D01*
X138853914Y-87933002D01*
X138825387Y-87947891D01*
X138764965Y-87987384D01*
X138697785Y-88038681D01*
X138630278Y-88096180D01*
X138568877Y-88154279D01*
X138520013Y-88207375D01*
X138490119Y-88249868D01*
X138465229Y-88312081D01*
X138456850Y-88388689D01*
X138476144Y-88456740D01*
X138522829Y-88513931D01*
X138559841Y-88545240D01*
X138535267Y-88653285D01*
X138533415Y-88661381D01*
X138520046Y-88714347D01*
X138508235Y-88744554D01*
X138494589Y-88758162D01*
X138475711Y-88761329D01*
X138454133Y-88755574D01*
X138429564Y-88728430D01*
X138418782Y-88687192D01*
X138425594Y-88640998D01*
X138431861Y-88615593D01*
X138423525Y-88598391D01*
X138416806Y-88594062D01*
X138407651Y-88571010D01*
X138401741Y-88544711D01*
X138397039Y-88533751D01*
X138384240Y-88503916D01*
X138361872Y-88464847D01*
X138341522Y-88441032D01*
X138337175Y-88438984D01*
X138306876Y-88435259D01*
X138264532Y-88437953D01*
X138254034Y-88439384D01*
X138223409Y-88442225D01*
X138217318Y-88437836D01*
X138231536Y-88424494D01*
X138239929Y-88417316D01*
X138248796Y-88402264D01*
X138234418Y-88390834D01*
X138193503Y-88379094D01*
X138165643Y-88367184D01*
X138161138Y-88347090D01*
X138159024Y-88328808D01*
X138130476Y-88309954D01*
X138119226Y-88304897D01*
X138096590Y-88287374D01*
X138091065Y-88271250D01*
X138106635Y-88264176D01*
X138109639Y-88257924D01*
X138102663Y-88231932D01*
X138084739Y-88192616D01*
X138067472Y-88158554D01*
X138048175Y-88115386D01*
X138044816Y-88097492D01*
X138057117Y-88104855D01*
X138084803Y-88137457D01*
X138127599Y-88195283D01*
X138170360Y-88254044D01*
X138204650Y-88297236D01*
X138229447Y-88321896D01*
X138248352Y-88331548D01*
X138264968Y-88329717D01*
X138280356Y-88329775D01*
X138287129Y-88352955D01*
X138291403Y-88372008D01*
X138309354Y-88384698D01*
X138311828Y-88384633D01*
X138324206Y-88376413D01*
X138318285Y-88349729D01*
X138311939Y-88329884D01*
X138299149Y-88283901D01*
X138283128Y-88222254D01*
X138265929Y-88152675D01*
X138244672Y-88049553D01*
X138224692Y-87850536D01*
X138233710Y-87657690D01*
X138271717Y-87472052D01*
X138287724Y-87414704D01*
X138300476Y-87358762D01*
X138306339Y-87308887D01*
X138305062Y-87258064D01*
X138296393Y-87199278D01*
X138280081Y-87125513D01*
X138255874Y-87029755D01*
X138241101Y-86960188D01*
X138229010Y-86837648D01*
X138229086Y-86833682D01*
X138320663Y-86833682D01*
X138337432Y-87028826D01*
X138346810Y-87118096D01*
X138349616Y-87228263D01*
X138345029Y-87360261D01*
X138338157Y-87489211D01*
X138332176Y-87618274D01*
X138327692Y-87735040D01*
X138324803Y-87835956D01*
X138323612Y-87917468D01*
X138324217Y-87976023D01*
X138326720Y-88008067D01*
X138327656Y-88012582D01*
X138336288Y-88049541D01*
X138349767Y-88103556D01*
X138365608Y-88164621D01*
X138397039Y-88283511D01*
X138419710Y-88239947D01*
X138433916Y-88215071D01*
X138487724Y-88141544D01*
X138557754Y-88065518D01*
X138637553Y-87992594D01*
X138720664Y-87928371D01*
X138800635Y-87878448D01*
X138871009Y-87848426D01*
X138897011Y-87840196D01*
X138962371Y-87808287D01*
X139021017Y-87757946D01*
X139036422Y-87741626D01*
X139077213Y-87692143D01*
X139107785Y-87641183D01*
X139129174Y-87584013D01*
X139142418Y-87515903D01*
X139148555Y-87432121D01*
X139148621Y-87327938D01*
X139143655Y-87198621D01*
X139138148Y-87103126D01*
X139131813Y-87030050D01*
X139123839Y-86974885D01*
X139113332Y-86931475D01*
X139099400Y-86893665D01*
X139096470Y-86886945D01*
X139075398Y-86845185D01*
X139050102Y-86810219D01*
X139015903Y-86778277D01*
X138968125Y-86745588D01*
X138902089Y-86708381D01*
X138813119Y-86662886D01*
X138717015Y-86611821D01*
X138605751Y-86541078D01*
X138518620Y-86468928D01*
X138452210Y-86392816D01*
X138410341Y-86335017D01*
X138386331Y-86407304D01*
X138368070Y-86466694D01*
X138330745Y-86647966D01*
X138320663Y-86833682D01*
X138229086Y-86833682D01*
X138231653Y-86699035D01*
X138248957Y-86539205D01*
X138260456Y-86465690D01*
X138277408Y-86384161D01*
X138299551Y-86310093D01*
X138330337Y-86232395D01*
X138373217Y-86139976D01*
X138392734Y-86098107D01*
X138413798Y-86043277D01*
X138423442Y-85997046D01*
X138424497Y-85948859D01*
X138424060Y-85937467D01*
X138425112Y-85893798D01*
X138433685Y-85869009D01*
X138452483Y-85853932D01*
X138473044Y-85846108D01*
X138488569Y-85854753D01*
G37*
G36*
X139945882Y-85098294D02*
G01*
X139972231Y-85123385D01*
X140002428Y-85162319D01*
X140032085Y-85208284D01*
X140056813Y-85254472D01*
X140072222Y-85294074D01*
X140073924Y-85320280D01*
X140071385Y-85325355D01*
X140052008Y-85339487D01*
X140030058Y-85338804D01*
X140019570Y-85322687D01*
X140013365Y-85303829D01*
X139994738Y-85266713D01*
X139968039Y-85220997D01*
X139937295Y-85169099D01*
X139919605Y-85131013D01*
X139917000Y-85107550D01*
X139927918Y-85093759D01*
X139945882Y-85098294D01*
G37*
G36*
X140061495Y-89419413D02*
G01*
X140062044Y-89426110D01*
X140056317Y-89461453D01*
X140041400Y-89500358D01*
X140022339Y-89531792D01*
X140004180Y-89544721D01*
X139999230Y-89544211D01*
X139990493Y-89532145D01*
X139998188Y-89501745D01*
X140022917Y-89449963D01*
X140029581Y-89437467D01*
X140047012Y-89408566D01*
X140056465Y-89403486D01*
X140061495Y-89419413D01*
G37*
G36*
X140109505Y-85236834D02*
G01*
X140129420Y-85258931D01*
X140148981Y-85295687D01*
X140163160Y-85336429D01*
X140166931Y-85370487D01*
X140166486Y-85374084D01*
X140156984Y-85405369D01*
X140142230Y-85408960D01*
X140124646Y-85386151D01*
X140106650Y-85338238D01*
X140093658Y-85290764D01*
X140087102Y-85255345D01*
X140090238Y-85238397D01*
X140102868Y-85234500D01*
X140109505Y-85236834D01*
G37*
G36*
X140843749Y-88215588D02*
G01*
X140842380Y-88245344D01*
X140836888Y-88274718D01*
X140827733Y-88326603D01*
X140817875Y-88384698D01*
X140807135Y-88440924D01*
X140758475Y-88612756D01*
X140687356Y-88783927D01*
X140675189Y-88809121D01*
X140656538Y-88849288D01*
X140650552Y-88866647D01*
X140656604Y-88864055D01*
X140674065Y-88844371D01*
X140677170Y-88840614D01*
X140707347Y-88798040D01*
X140729183Y-88757746D01*
X140733964Y-88747458D01*
X140751235Y-88723012D01*
X140766416Y-88714752D01*
X140772683Y-88727432D01*
X140767583Y-88744533D01*
X140748657Y-88784006D01*
X140719116Y-88837695D01*
X140682524Y-88899607D01*
X140642444Y-88963750D01*
X140629775Y-88982873D01*
X140602440Y-89024134D01*
X140566078Y-89074765D01*
X140532122Y-89116340D01*
X140473616Y-89181266D01*
X140407568Y-89249165D01*
X140342803Y-89310709D01*
X140324550Y-89327142D01*
X140256220Y-89387243D01*
X140205830Y-89428490D01*
X140170612Y-89452854D01*
X140147793Y-89462308D01*
X140134603Y-89458822D01*
X140129067Y-89451676D01*
X140128138Y-89440357D01*
X140136781Y-89423003D01*
X140157751Y-89395623D01*
X140193798Y-89354224D01*
X140247675Y-89294813D01*
X140312125Y-89221739D01*
X140412356Y-89094367D01*
X140502576Y-88958931D01*
X140533563Y-88904449D01*
X140622242Y-88904449D01*
X140629775Y-88911981D01*
X140637307Y-88904449D01*
X140629775Y-88896916D01*
X140622242Y-88904449D01*
X140533563Y-88904449D01*
X140590343Y-88804615D01*
X140613808Y-88759237D01*
X140657733Y-88668227D01*
X140700626Y-88572479D01*
X140739906Y-88478285D01*
X140772996Y-88391937D01*
X140797317Y-88319726D01*
X140810291Y-88267942D01*
X140813617Y-88250881D01*
X140824392Y-88217272D01*
X140835677Y-88203915D01*
X140843749Y-88215588D01*
G37*
G36*
X140261858Y-85455520D02*
G01*
X140291026Y-85475415D01*
X140330934Y-85510267D01*
X140378140Y-85556480D01*
X140429201Y-85610463D01*
X140480674Y-85668623D01*
X140529118Y-85727367D01*
X140571089Y-85783102D01*
X140603146Y-85832236D01*
X140650026Y-85915295D01*
X140722812Y-86055432D01*
X140783055Y-86186539D01*
X140827382Y-86301559D01*
X140832738Y-86317716D01*
X140850041Y-86377514D01*
X140860197Y-86433008D01*
X140864786Y-86495644D01*
X140865387Y-86576868D01*
X140859285Y-86699268D01*
X140836548Y-86837850D01*
X140795982Y-86962185D01*
X140785899Y-86984555D01*
X140770539Y-87007859D01*
X140761766Y-87003573D01*
X140759772Y-86972947D01*
X140764748Y-86917231D01*
X140776886Y-86837675D01*
X140786268Y-86778757D01*
X140800649Y-86629356D01*
X140797463Y-86496024D01*
X140776264Y-86372262D01*
X140736607Y-86251572D01*
X140706010Y-86181750D01*
X140632820Y-86041064D01*
X140537597Y-85883550D01*
X140421208Y-85710609D01*
X140284525Y-85523642D01*
X140275052Y-85510734D01*
X140254007Y-85478320D01*
X140245611Y-85459084D01*
X140246872Y-85454172D01*
X140261858Y-85455520D01*
G37*
G36*
X140806710Y-87734551D02*
G01*
X140816954Y-87759765D01*
X140824523Y-87809215D01*
X140828457Y-87876918D01*
X140829064Y-87907939D01*
X140828838Y-87955991D01*
X140826367Y-87974278D01*
X140821594Y-87962732D01*
X140814464Y-87921288D01*
X140804918Y-87849882D01*
X140804640Y-87847649D01*
X140797873Y-87793506D01*
X140792572Y-87751340D01*
X140789866Y-87730113D01*
X140792100Y-87725327D01*
X140806710Y-87734551D01*
G37*
G36*
X139405386Y-88326424D02*
G01*
X139481629Y-88345084D01*
X139555232Y-88378832D01*
X139612575Y-88422055D01*
X139635068Y-88446856D01*
X139654705Y-88478064D01*
X139664992Y-88516147D01*
X139670389Y-88572733D01*
X139670592Y-88575970D01*
X139672562Y-88650395D01*
X139666256Y-88704645D01*
X139649596Y-88747713D01*
X139620502Y-88788595D01*
X139597111Y-88812512D01*
X139529532Y-88857432D01*
X139449344Y-88887157D01*
X139364895Y-88900033D01*
X139284535Y-88894406D01*
X139216612Y-88868621D01*
X139208103Y-88863040D01*
X139160793Y-88823377D01*
X139121630Y-88778621D01*
X139107503Y-88757041D01*
X139092821Y-88724165D01*
X139087920Y-88685921D01*
X139090220Y-88630107D01*
X139099552Y-88563055D01*
X139130407Y-88477867D01*
X139182663Y-88412084D01*
X139257896Y-88363198D01*
X139295167Y-88347106D01*
X139342731Y-88330767D01*
X139375692Y-88324437D01*
X139405386Y-88326424D01*
G37*
G36*
X139397566Y-85708458D02*
G01*
X139488156Y-85724935D01*
X139578819Y-85764270D01*
X139648643Y-85824107D01*
X139661017Y-85839576D01*
X139690348Y-85890637D01*
X139701883Y-85947413D01*
X139698378Y-86020802D01*
X139692032Y-86055332D01*
X139657642Y-86134277D01*
X139599622Y-86198394D01*
X139521235Y-86244698D01*
X139425747Y-86270204D01*
X139394035Y-86273323D01*
X139305283Y-86266097D01*
X139232564Y-86233624D01*
X139176779Y-86176454D01*
X139138826Y-86095136D01*
X139127385Y-86053070D01*
X139116247Y-85959529D01*
X139130611Y-85879478D01*
X139171393Y-85809757D01*
X139239508Y-85747202D01*
X139275762Y-85722373D01*
X139307345Y-85708590D01*
X139343778Y-85704973D01*
X139397566Y-85708458D01*
G37*
G36*
X138929170Y-86817240D02*
G01*
X138991679Y-86845713D01*
X139034904Y-86886713D01*
X139038482Y-86892578D01*
X139059887Y-86946877D01*
X139077231Y-87024053D01*
X139090033Y-87117987D01*
X139097812Y-87222560D01*
X139100086Y-87331654D01*
X139096374Y-87439148D01*
X139086196Y-87538926D01*
X139070785Y-87610392D01*
X139033589Y-87692657D01*
X139006078Y-87721676D01*
X138978318Y-87750958D01*
X138904577Y-87785666D01*
X138811973Y-87797153D01*
X138774590Y-87794817D01*
X138698483Y-87774967D01*
X138635729Y-87738024D01*
X138593958Y-87687812D01*
X138592128Y-87684017D01*
X138578585Y-87641999D01*
X138566447Y-87582980D01*
X138558150Y-87518476D01*
X138553424Y-87463130D01*
X138548280Y-87390958D01*
X138546246Y-87331032D01*
X138547346Y-87272801D01*
X138551603Y-87205713D01*
X138559041Y-87119217D01*
X138563991Y-87068738D01*
X138574279Y-86994271D01*
X138588203Y-86940185D01*
X138597176Y-86922436D01*
X138906303Y-86922436D01*
X138912677Y-86955936D01*
X138920834Y-87003190D01*
X138923986Y-87051424D01*
X138920864Y-87090194D01*
X138912167Y-87138266D01*
X138907653Y-87158005D01*
X138910074Y-87172914D01*
X138928026Y-87169622D01*
X138934007Y-87167500D01*
X138948676Y-87168796D01*
X138946299Y-87192002D01*
X138943603Y-87212523D01*
X138949710Y-87224674D01*
X138950168Y-87224749D01*
X138956863Y-87240379D01*
X138963109Y-87277956D01*
X138967608Y-87329854D01*
X138974764Y-87398472D01*
X138987824Y-87444981D01*
X139006078Y-87463408D01*
X139029093Y-87452885D01*
X139035800Y-87439664D01*
X139042661Y-87400551D01*
X139046640Y-87335603D01*
X139047924Y-87242725D01*
X139047798Y-87192875D01*
X139046560Y-87126140D01*
X139043169Y-87078713D01*
X139036620Y-87043729D01*
X139025910Y-87014323D01*
X139010035Y-86983630D01*
X139006507Y-86977441D01*
X138970968Y-86929686D01*
X138936326Y-86910741D01*
X138935439Y-86910615D01*
X138912514Y-86909960D01*
X138906303Y-86922436D01*
X138597176Y-86922436D01*
X138608452Y-86900132D01*
X138637712Y-86867767D01*
X138678673Y-86836744D01*
X138712355Y-86819095D01*
X138780866Y-86802718D01*
X138856018Y-86802504D01*
X138929170Y-86817240D01*
G37*
D12*
%TO.C,J2*%
X155470000Y-83635000D02*
G75*
G02*
X155270000Y-83635000I-100000J0D01*
G01*
X155270000Y-83635000D02*
G75*
G02*
X155470000Y-83635000I100000J0D01*
G01*
D13*
X157505000Y-91040000D02*
X154505000Y-91040000D01*
X154505000Y-91040000D02*
X154505000Y-84230000D01*
X154505000Y-84230000D02*
X157505000Y-84230000D01*
X157505000Y-84230000D02*
X157505000Y-91040000D01*
%TD*%
M02*
