M48
; DRILL file {KiCad 8.0.3} date 2024-06-23T22:17:50-0500
; FORMAT={-:-/ absolute / inch / decimal}
; #@! TF.CreationDate,2024-06-23T22:17:50-05:00
; #@! TF.GenerationSoftware,Kicad,Pcbnew,8.0.3
; #@! TF.FileFunction,Plated,1,2,PTH
FMAT,2
INCH
; #@! TA.AperFunction,Plated,PTH,ViaDrill
T1C0.0118
; #@! TA.AperFunction,Plated,PTH,ComponentDrill
T2C0.0276
; #@! TA.AperFunction,Plated,PTH,ComponentDrill
T3C0.0394
%
G90
G05
T1
X5.5423Y-3.54
X5.5502Y-3.44
X5.5531Y-3.3839
X5.5559Y-3.34
X6.0079Y-3.2923
X6.0581Y-3.7028
T2
X6.1169Y-3.3502
X6.1169Y-3.4002
X6.1169Y-3.4502
X6.1169Y-3.5002
X6.1169Y-3.5502
X6.1669Y-3.3502
X6.1669Y-3.4002
X6.1669Y-3.4502
X6.1669Y-3.5002
X6.1669Y-3.5502
T3
X5.6614Y-3.2406
X5.6614Y-3.3406
X5.6614Y-3.4406
X5.6614Y-3.5406
X5.6614Y-3.6406
M30
