%TF.GenerationSoftware,KiCad,Pcbnew,8.0.3*%
%TF.CreationDate,2024-06-23T22:17:52-05:00*%
%TF.ProjectId,TagConnectAdapter,54616743-6f6e-46e6-9563-744164617074,rev?*%
%TF.SameCoordinates,Original*%
%TF.FileFunction,Legend,Top*%
%TF.FilePolarity,Positive*%
%FSLAX46Y46*%
G04 Gerber Fmt 4.6, Leading zero omitted, Abs format (unit mm)*
G04 Created by KiCad (PCBNEW 8.0.3) date 2024-06-23 22:17:52*
%MOMM*%
%LPD*%
G01*
G04 APERTURE LIST*
%ADD10C,0.250000*%
%ADD11C,0.120000*%
%ADD12C,0.100000*%
G04 APERTURE END LIST*
D10*
X146589711Y-83135169D02*
X146513520Y-83211360D01*
X146513520Y-83211360D02*
X146284949Y-83287550D01*
X146284949Y-83287550D02*
X146132568Y-83287550D01*
X146132568Y-83287550D02*
X145903996Y-83211360D01*
X145903996Y-83211360D02*
X145751615Y-83058979D01*
X145751615Y-83058979D02*
X145675425Y-82906598D01*
X145675425Y-82906598D02*
X145599234Y-82601836D01*
X145599234Y-82601836D02*
X145599234Y-82373264D01*
X145599234Y-82373264D02*
X145675425Y-82068502D01*
X145675425Y-82068502D02*
X145751615Y-81916121D01*
X145751615Y-81916121D02*
X145903996Y-81763740D01*
X145903996Y-81763740D02*
X146132568Y-81687550D01*
X146132568Y-81687550D02*
X146284949Y-81687550D01*
X146284949Y-81687550D02*
X146513520Y-81763740D01*
X146513520Y-81763740D02*
X146589711Y-81839931D01*
X147046853Y-81687550D02*
X147961139Y-81687550D01*
X147503996Y-83287550D02*
X147503996Y-81687550D01*
X148418282Y-83211360D02*
X148646854Y-83287550D01*
X148646854Y-83287550D02*
X149027806Y-83287550D01*
X149027806Y-83287550D02*
X149180187Y-83211360D01*
X149180187Y-83211360D02*
X149256378Y-83135169D01*
X149256378Y-83135169D02*
X149332568Y-82982788D01*
X149332568Y-82982788D02*
X149332568Y-82830407D01*
X149332568Y-82830407D02*
X149256378Y-82678026D01*
X149256378Y-82678026D02*
X149180187Y-82601836D01*
X149180187Y-82601836D02*
X149027806Y-82525645D01*
X149027806Y-82525645D02*
X148723044Y-82449455D01*
X148723044Y-82449455D02*
X148570663Y-82373264D01*
X148570663Y-82373264D02*
X148494473Y-82297074D01*
X148494473Y-82297074D02*
X148418282Y-82144693D01*
X148418282Y-82144693D02*
X148418282Y-81992312D01*
X148418282Y-81992312D02*
X148494473Y-81839931D01*
X148494473Y-81839931D02*
X148570663Y-81763740D01*
X148570663Y-81763740D02*
X148723044Y-81687550D01*
X148723044Y-81687550D02*
X149103997Y-81687550D01*
X149103997Y-81687550D02*
X149332568Y-81763740D01*
X146589711Y-85863460D02*
X146056377Y-85101555D01*
X145675425Y-85863460D02*
X145675425Y-84263460D01*
X145675425Y-84263460D02*
X146284949Y-84263460D01*
X146284949Y-84263460D02*
X146437330Y-84339650D01*
X146437330Y-84339650D02*
X146513520Y-84415841D01*
X146513520Y-84415841D02*
X146589711Y-84568222D01*
X146589711Y-84568222D02*
X146589711Y-84796793D01*
X146589711Y-84796793D02*
X146513520Y-84949174D01*
X146513520Y-84949174D02*
X146437330Y-85025365D01*
X146437330Y-85025365D02*
X146284949Y-85101555D01*
X146284949Y-85101555D02*
X145675425Y-85101555D01*
X147046853Y-84263460D02*
X147961139Y-84263460D01*
X147503996Y-85863460D02*
X147503996Y-84263460D01*
X148418282Y-85787270D02*
X148646854Y-85863460D01*
X148646854Y-85863460D02*
X149027806Y-85863460D01*
X149027806Y-85863460D02*
X149180187Y-85787270D01*
X149180187Y-85787270D02*
X149256378Y-85711079D01*
X149256378Y-85711079D02*
X149332568Y-85558698D01*
X149332568Y-85558698D02*
X149332568Y-85406317D01*
X149332568Y-85406317D02*
X149256378Y-85253936D01*
X149256378Y-85253936D02*
X149180187Y-85177746D01*
X149180187Y-85177746D02*
X149027806Y-85101555D01*
X149027806Y-85101555D02*
X148723044Y-85025365D01*
X148723044Y-85025365D02*
X148570663Y-84949174D01*
X148570663Y-84949174D02*
X148494473Y-84872984D01*
X148494473Y-84872984D02*
X148418282Y-84720603D01*
X148418282Y-84720603D02*
X148418282Y-84568222D01*
X148418282Y-84568222D02*
X148494473Y-84415841D01*
X148494473Y-84415841D02*
X148570663Y-84339650D01*
X148570663Y-84339650D02*
X148723044Y-84263460D01*
X148723044Y-84263460D02*
X149103997Y-84263460D01*
X149103997Y-84263460D02*
X149332568Y-84339650D01*
X145675425Y-86839370D02*
X145675425Y-88134608D01*
X145675425Y-88134608D02*
X145751615Y-88286989D01*
X145751615Y-88286989D02*
X145827806Y-88363180D01*
X145827806Y-88363180D02*
X145980187Y-88439370D01*
X145980187Y-88439370D02*
X146284949Y-88439370D01*
X146284949Y-88439370D02*
X146437330Y-88363180D01*
X146437330Y-88363180D02*
X146513520Y-88286989D01*
X146513520Y-88286989D02*
X146589711Y-88134608D01*
X146589711Y-88134608D02*
X146589711Y-86839370D01*
X147275424Y-88363180D02*
X147503996Y-88439370D01*
X147503996Y-88439370D02*
X147884948Y-88439370D01*
X147884948Y-88439370D02*
X148037329Y-88363180D01*
X148037329Y-88363180D02*
X148113520Y-88286989D01*
X148113520Y-88286989D02*
X148189710Y-88134608D01*
X148189710Y-88134608D02*
X148189710Y-87982227D01*
X148189710Y-87982227D02*
X148113520Y-87829846D01*
X148113520Y-87829846D02*
X148037329Y-87753656D01*
X148037329Y-87753656D02*
X147884948Y-87677465D01*
X147884948Y-87677465D02*
X147580186Y-87601275D01*
X147580186Y-87601275D02*
X147427805Y-87525084D01*
X147427805Y-87525084D02*
X147351615Y-87448894D01*
X147351615Y-87448894D02*
X147275424Y-87296513D01*
X147275424Y-87296513D02*
X147275424Y-87144132D01*
X147275424Y-87144132D02*
X147351615Y-86991751D01*
X147351615Y-86991751D02*
X147427805Y-86915560D01*
X147427805Y-86915560D02*
X147580186Y-86839370D01*
X147580186Y-86839370D02*
X147961139Y-86839370D01*
X147961139Y-86839370D02*
X148189710Y-86915560D01*
X149408758Y-87601275D02*
X149637330Y-87677465D01*
X149637330Y-87677465D02*
X149713520Y-87753656D01*
X149713520Y-87753656D02*
X149789711Y-87906037D01*
X149789711Y-87906037D02*
X149789711Y-88134608D01*
X149789711Y-88134608D02*
X149713520Y-88286989D01*
X149713520Y-88286989D02*
X149637330Y-88363180D01*
X149637330Y-88363180D02*
X149484949Y-88439370D01*
X149484949Y-88439370D02*
X148875425Y-88439370D01*
X148875425Y-88439370D02*
X148875425Y-86839370D01*
X148875425Y-86839370D02*
X149408758Y-86839370D01*
X149408758Y-86839370D02*
X149561139Y-86915560D01*
X149561139Y-86915560D02*
X149637330Y-86991751D01*
X149637330Y-86991751D02*
X149713520Y-87144132D01*
X149713520Y-87144132D02*
X149713520Y-87296513D01*
X149713520Y-87296513D02*
X149637330Y-87448894D01*
X149637330Y-87448894D02*
X149561139Y-87525084D01*
X149561139Y-87525084D02*
X149408758Y-87601275D01*
X149408758Y-87601275D02*
X148875425Y-87601275D01*
X150094473Y-88591751D02*
X151313520Y-88591751D01*
X152608759Y-88439370D02*
X152075425Y-87677465D01*
X151694473Y-88439370D02*
X151694473Y-86839370D01*
X151694473Y-86839370D02*
X152303997Y-86839370D01*
X152303997Y-86839370D02*
X152456378Y-86915560D01*
X152456378Y-86915560D02*
X152532568Y-86991751D01*
X152532568Y-86991751D02*
X152608759Y-87144132D01*
X152608759Y-87144132D02*
X152608759Y-87372703D01*
X152608759Y-87372703D02*
X152532568Y-87525084D01*
X152532568Y-87525084D02*
X152456378Y-87601275D01*
X152456378Y-87601275D02*
X152303997Y-87677465D01*
X152303997Y-87677465D02*
X151694473Y-87677465D01*
X153142092Y-86839370D02*
X154208759Y-88439370D01*
X154208759Y-86839370D02*
X153142092Y-88439370D01*
X145675425Y-89415280D02*
X145675425Y-90710518D01*
X145675425Y-90710518D02*
X145751615Y-90862899D01*
X145751615Y-90862899D02*
X145827806Y-90939090D01*
X145827806Y-90939090D02*
X145980187Y-91015280D01*
X145980187Y-91015280D02*
X146284949Y-91015280D01*
X146284949Y-91015280D02*
X146437330Y-90939090D01*
X146437330Y-90939090D02*
X146513520Y-90862899D01*
X146513520Y-90862899D02*
X146589711Y-90710518D01*
X146589711Y-90710518D02*
X146589711Y-89415280D01*
X147275424Y-90939090D02*
X147503996Y-91015280D01*
X147503996Y-91015280D02*
X147884948Y-91015280D01*
X147884948Y-91015280D02*
X148037329Y-90939090D01*
X148037329Y-90939090D02*
X148113520Y-90862899D01*
X148113520Y-90862899D02*
X148189710Y-90710518D01*
X148189710Y-90710518D02*
X148189710Y-90558137D01*
X148189710Y-90558137D02*
X148113520Y-90405756D01*
X148113520Y-90405756D02*
X148037329Y-90329566D01*
X148037329Y-90329566D02*
X147884948Y-90253375D01*
X147884948Y-90253375D02*
X147580186Y-90177185D01*
X147580186Y-90177185D02*
X147427805Y-90100994D01*
X147427805Y-90100994D02*
X147351615Y-90024804D01*
X147351615Y-90024804D02*
X147275424Y-89872423D01*
X147275424Y-89872423D02*
X147275424Y-89720042D01*
X147275424Y-89720042D02*
X147351615Y-89567661D01*
X147351615Y-89567661D02*
X147427805Y-89491470D01*
X147427805Y-89491470D02*
X147580186Y-89415280D01*
X147580186Y-89415280D02*
X147961139Y-89415280D01*
X147961139Y-89415280D02*
X148189710Y-89491470D01*
X149408758Y-90177185D02*
X149637330Y-90253375D01*
X149637330Y-90253375D02*
X149713520Y-90329566D01*
X149713520Y-90329566D02*
X149789711Y-90481947D01*
X149789711Y-90481947D02*
X149789711Y-90710518D01*
X149789711Y-90710518D02*
X149713520Y-90862899D01*
X149713520Y-90862899D02*
X149637330Y-90939090D01*
X149637330Y-90939090D02*
X149484949Y-91015280D01*
X149484949Y-91015280D02*
X148875425Y-91015280D01*
X148875425Y-91015280D02*
X148875425Y-89415280D01*
X148875425Y-89415280D02*
X149408758Y-89415280D01*
X149408758Y-89415280D02*
X149561139Y-89491470D01*
X149561139Y-89491470D02*
X149637330Y-89567661D01*
X149637330Y-89567661D02*
X149713520Y-89720042D01*
X149713520Y-89720042D02*
X149713520Y-89872423D01*
X149713520Y-89872423D02*
X149637330Y-90024804D01*
X149637330Y-90024804D02*
X149561139Y-90100994D01*
X149561139Y-90100994D02*
X149408758Y-90177185D01*
X149408758Y-90177185D02*
X148875425Y-90177185D01*
X150094473Y-91167661D02*
X151313520Y-91167661D01*
X151465901Y-89415280D02*
X152380187Y-89415280D01*
X151923044Y-91015280D02*
X151923044Y-89415280D01*
X152761140Y-89415280D02*
X153827807Y-91015280D01*
X153827807Y-89415280D02*
X152761140Y-91015280D01*
X146513520Y-92067380D02*
X146361139Y-91991190D01*
X146361139Y-91991190D02*
X146132568Y-91991190D01*
X146132568Y-91991190D02*
X145903996Y-92067380D01*
X145903996Y-92067380D02*
X145751615Y-92219761D01*
X145751615Y-92219761D02*
X145675425Y-92372142D01*
X145675425Y-92372142D02*
X145599234Y-92676904D01*
X145599234Y-92676904D02*
X145599234Y-92905476D01*
X145599234Y-92905476D02*
X145675425Y-93210238D01*
X145675425Y-93210238D02*
X145751615Y-93362619D01*
X145751615Y-93362619D02*
X145903996Y-93515000D01*
X145903996Y-93515000D02*
X146132568Y-93591190D01*
X146132568Y-93591190D02*
X146284949Y-93591190D01*
X146284949Y-93591190D02*
X146513520Y-93515000D01*
X146513520Y-93515000D02*
X146589711Y-93438809D01*
X146589711Y-93438809D02*
X146589711Y-92905476D01*
X146589711Y-92905476D02*
X146284949Y-92905476D01*
X147275425Y-93591190D02*
X147275425Y-91991190D01*
X147275425Y-91991190D02*
X148189711Y-93591190D01*
X148189711Y-93591190D02*
X148189711Y-91991190D01*
X148951615Y-93591190D02*
X148951615Y-91991190D01*
X148951615Y-91991190D02*
X149332567Y-91991190D01*
X149332567Y-91991190D02*
X149561139Y-92067380D01*
X149561139Y-92067380D02*
X149713520Y-92219761D01*
X149713520Y-92219761D02*
X149789710Y-92372142D01*
X149789710Y-92372142D02*
X149865901Y-92676904D01*
X149865901Y-92676904D02*
X149865901Y-92905476D01*
X149865901Y-92905476D02*
X149789710Y-93210238D01*
X149789710Y-93210238D02*
X149713520Y-93362619D01*
X149713520Y-93362619D02*
X149561139Y-93515000D01*
X149561139Y-93515000D02*
X149332567Y-93591190D01*
X149332567Y-93591190D02*
X148951615Y-93591190D01*
D11*
%TO.C,J3*%
X145130000Y-83580000D02*
X145130000Y-93800000D01*
X145130000Y-80980000D02*
X145130000Y-82310000D01*
X143800000Y-80980000D02*
X145130000Y-80980000D01*
X142470000Y-93800000D02*
X145130000Y-93800000D01*
X142470000Y-83580000D02*
X145130000Y-83580000D01*
X142470000Y-83580000D02*
X142470000Y-93800000D01*
D12*
%TO.C,J1*%
X140700000Y-81025000D02*
X140700000Y-93725000D01*
X132670000Y-81025000D02*
X140700000Y-81025000D01*
X140700000Y-93725000D02*
X132670000Y-93725000D01*
X132670000Y-93725000D02*
X132670000Y-81025000D01*
X132170000Y-93725000D02*
X132170000Y-81025000D01*
%TD*%
M02*
